<?xml version="1.0" encoding="UTF-8" standalone="no"?>
<!DOCTYPE svg PUBLIC "-//W3C//DTD SVG 1.1//EN"
 "http://www.w3.org/Graphics/SVG/1.1/DTD/svg11.dtd">
<!-- Generated by graphviz version 2.43.0 (0)
 -->
<!-- Title: inheritance31dc83aecb Pages: 1 -->
<svg width="567pt" height="92pt"
 viewBox="0.00 0.00 567.00 92.00" xmlns="http://www.w3.org/2000/svg" xmlns:xlink="http://www.w3.org/1999/xlink">
<g id="graph0" class="graph" transform="scale(1 1) rotate(0) translate(4 88)">
<title>inheritance31dc83aecb</title>
<!-- PerformanceQuantiles -->
<g id="node1" class="node">
<title>PerformanceQuantiles</title>
<g id="a_node1"><a xlink:href="../techDoc.html#performanceQuantiles.PerformanceQuantiles" xlink:title="Implements the incremental performance quantiles representation of a" target="_top">
<polygon fill="white" stroke="black" stroke-width="0.5" points="307.5,-19 182.5,-19 182.5,0 307.5,0 307.5,-19"/>
<text text-anchor="middle" x="245" y="-7" font-family="Vera Sans, DejaVu Sans, Liberation Sans, Arial, Helvetica, sans" font-size="10.00">PerformanceQuantiles</text>
</a>
</g>
</g>
<!-- RatingByLearnedQuantilesDigraph -->
<g id="node3" class="node">
<title>RatingByLearnedQuantilesDigraph</title>
<g id="a_node3"><a xlink:href="../techDoc.html#ratingDigraphs.RatingByLearnedQuantilesDigraph" xlink:title="Constructor for a learned quantiles rating&#45;by sorting and rating&#45;by&#45;ranking digraph." target="_top">
<polygon fill="white" stroke="black" stroke-width="0.5" points="559,-56 374,-56 374,-37 559,-37 559,-56"/>
<text text-anchor="middle" x="466.5" y="-44" font-family="Vera Sans, DejaVu Sans, Liberation Sans, Arial, Helvetica, sans" font-size="10.00">RatingByLearnedQuantilesDigraph</text>
</a>
</g>
</g>
<!-- PerformanceQuantiles&#45;&gt;RatingByLearnedQuantilesDigraph -->
<g id="edge3" class="edge">
<title>PerformanceQuantiles&#45;&gt;RatingByLearnedQuantilesDigraph</title>
<path fill="none" stroke="black" stroke-width="0.5" d="M302.53,-19.03C333.51,-24.25 371.97,-30.73 403.74,-36.09"/>
<polygon fill="black" stroke="black" stroke-width="0.5" points="403.56,-37.83 408.78,-36.94 404.14,-34.38 403.56,-37.83"/>
</g>
<!-- PerformanceTableau -->
<g id="node2" class="node">
<title>PerformanceTableau</title>
<g id="a_node2"><a xlink:href="../techDoc.html#perfTabs.PerformanceTableau" xlink:title="In this *Digraph3* module, the root :py:class:`perfTabs.PerformanceTableau` class provides a generic **performance table model**. A given object of this class consists in:" target="_top">
<polygon fill="white" stroke="black" stroke-width="0.5" points="116,-37 0,-37 0,-18 116,-18 116,-37"/>
<text text-anchor="middle" x="58" y="-25" font-family="Vera Sans, DejaVu Sans, Liberation Sans, Arial, Helvetica, sans" font-size="10.00">PerformanceTableau</text>
</a>
</g>
</g>
<!-- PerformanceTableau&#45;&gt;PerformanceQuantiles -->
<g id="edge1" class="edge">
<title>PerformanceTableau&#45;&gt;PerformanceQuantiles</title>
<path fill="none" stroke="black" stroke-width="0.5" d="M116.02,-21.95C135.39,-20.07 157.22,-17.94 177.29,-15.99"/>
<polygon fill="black" stroke="black" stroke-width="0.5" points="177.54,-17.72 182.35,-15.5 177.21,-14.24 177.54,-17.72"/>
</g>
<!-- RatingByRelativeQuantilesDigraph -->
<g id="node5" class="node">
<title>RatingByRelativeQuantilesDigraph</title>
<g id="a_node5"><a xlink:href="../techDoc.html#ratingDigraphs.RatingByRelativeQuantilesDigraph" xlink:title="Constructor for a relative quantiles rating&#45;by sorting and rating&#45;by&#45;ranking digraph." target="_top">
<polygon fill="white" stroke="black" stroke-width="0.5" points="338,-56 152,-56 152,-37 338,-37 338,-56"/>
<text text-anchor="middle" x="245" y="-44" font-family="Vera Sans, DejaVu Sans, Liberation Sans, Arial, Helvetica, sans" font-size="10.00">RatingByRelativeQuantilesDigraph</text>
</a>
</g>
</g>
<!-- PerformanceTableau&#45;&gt;RatingByRelativeQuantilesDigraph -->
<g id="edge5" class="edge">
<title>PerformanceTableau&#45;&gt;RatingByRelativeQuantilesDigraph</title>
<path fill="none" stroke="black" stroke-width="0.5" d="M116.02,-33.36C125.78,-34.36 136.16,-35.42 146.63,-36.5"/>
<polygon fill="black" stroke="black" stroke-width="0.5" points="146.62,-38.26 151.77,-37.03 146.98,-34.78 146.62,-38.26"/>
</g>
<!-- RatingDigraph -->
<g id="node4" class="node">
<title>RatingDigraph</title>
<g id="a_node4"><a xlink:href="../techDoc.html#ratingDigraphs.RatingDigraph" xlink:title="Abstract root class with generic private and public methods" target="_top">
<polygon fill="white" stroke="black" stroke-width="0.5" points="101,-84 15,-84 15,-65 101,-65 101,-84"/>
<text text-anchor="middle" x="58" y="-72" font-family="Vera Sans, DejaVu Sans, Liberation Sans, Arial, Helvetica, sans" font-size="10.00">RatingDigraph</text>
</a>
</g>
</g>
<!-- RatingDigraph&#45;&gt;RatingByLearnedQuantilesDigraph -->
<g id="edge2" class="edge">
<title>RatingDigraph&#45;&gt;RatingByLearnedQuantilesDigraph</title>
<path fill="none" stroke="black" stroke-width="0.5" d="M101.16,-74.66C155.87,-74.51 254.26,-73.06 338,-65.5 360.29,-63.49 384.61,-60.15 405.99,-56.83"/>
<polygon fill="black" stroke="black" stroke-width="0.5" points="406.4,-58.53 411.07,-56.03 405.86,-55.08 406.4,-58.53"/>
</g>
<!-- RatingDigraph&#45;&gt;RatingByRelativeQuantilesDigraph -->
<g id="edge4" class="edge">
<title>RatingDigraph&#45;&gt;RatingByRelativeQuantilesDigraph</title>
<path fill="none" stroke="black" stroke-width="0.5" d="M101.44,-68.08C123.54,-64.73 151.1,-60.56 176.08,-56.78"/>
<polygon fill="black" stroke="black" stroke-width="0.5" points="176.36,-58.51 181.04,-56.03 175.84,-55.05 176.36,-58.51"/>
</g>
</g>
</svg>
