<?xml version="1.0" encoding="UTF-8" standalone="no"?>
<!DOCTYPE svg PUBLIC "-//W3C//DTD SVG 1.1//EN"
 "http://www.w3.org/Graphics/SVG/1.1/DTD/svg11.dtd">
<!-- Generated by graphviz version 2.43.0 (0)
 -->
<!-- Title: inheritancebed16db1ec Pages: 1 -->
<svg width="355pt" height="212pt"
 viewBox="0.00 0.00 355.00 212.00" xmlns="http://www.w3.org/2000/svg" xmlns:xlink="http://www.w3.org/1999/xlink">
<g id="graph0" class="graph" transform="scale(1 1) rotate(0) translate(4 208)">
<title>inheritancebed16db1ec</title>
<!-- FairIntraGroupPairing -->
<g id="node1" class="node">
<title>FairIntraGroupPairing</title>
<g id="a_node1"><a xlink:href="../techDoc.html#pairings.FairIntraGroupPairing" xlink:title="The class computes the fitness scores of the complete set of maximal intragroup matchings" target="_top">
<polygon fill="white" stroke="black" stroke-width="0.5" points="301.5,-56 182.5,-56 182.5,-37 301.5,-37 301.5,-56"/>
<text text-anchor="middle" x="242" y="-44" font-family="Vera Sans, DejaVu Sans, Liberation Sans, Arial, Helvetica, sans" font-size="10.00">FairIntraGroupPairing</text>
</a>
</g>
</g>
<!-- IntraGroupPairing -->
<g id="node2" class="node">
<title>IntraGroupPairing</title>
<g id="a_node2"><a xlink:href="../techDoc.html#pairings.IntraGroupPairing" xlink:title="Abstract root class for intragroup pairing solutions" target="_top">
<polygon fill="white" stroke="black" stroke-width="0.5" points="101,-37 0,-37 0,-18 101,-18 101,-37"/>
<text text-anchor="middle" x="50.5" y="-25" font-family="Vera Sans, DejaVu Sans, Liberation Sans, Arial, Helvetica, sans" font-size="10.00">IntraGroupPairing</text>
</a>
</g>
</g>
<!-- IntraGroupPairing&#45;&gt;FairIntraGroupPairing -->
<g id="edge1" class="edge">
<title>IntraGroupPairing&#45;&gt;FairIntraGroupPairing</title>
<path fill="none" stroke="black" stroke-width="0.5" d="M101.29,-32.49C124.53,-34.82 152.47,-37.62 177.23,-40.11"/>
<polygon fill="black" stroke="black" stroke-width="0.5" points="177.31,-41.87 182.46,-40.63 177.66,-38.39 177.31,-41.87"/>
</g>
<!-- FairnessEnhancedIntraGroupMatching -->
<g id="node7" class="node">
<title>FairnessEnhancedIntraGroupMatching</title>
<g id="a_node7"><a xlink:href="../techDoc.html#pairings.FairnessEnhancedIntraGroupMatching" xlink:title="Solver for computing fair intragroup pairings using the same algorithm as the" target="_top">
<polygon fill="white" stroke="black" stroke-width="0.5" points="342,-19 142,-19 142,0 342,0 342,-19"/>
<text text-anchor="middle" x="242" y="-7" font-family="Vera Sans, DejaVu Sans, Liberation Sans, Arial, Helvetica, sans" font-size="10.00">FairnessEnhancedIntraGroupMatching</text>
</a>
</g>
</g>
<!-- IntraGroupPairing&#45;&gt;FairnessEnhancedIntraGroupMatching -->
<g id="edge5" class="edge">
<title>IntraGroupPairing&#45;&gt;FairnessEnhancedIntraGroupMatching</title>
<path fill="none" stroke="black" stroke-width="0.5" d="M101.29,-22.77C112.23,-21.73 124.21,-20.59 136.41,-19.44"/>
<polygon fill="black" stroke="black" stroke-width="0.5" points="136.83,-21.15 141.65,-18.94 136.5,-17.67 136.83,-21.15"/>
</g>
<!-- FairPairing -->
<g id="node3" class="node">
<title>FairPairing</title>
<g id="a_node3"><a xlink:href="../techDoc.html#pairings.FairPairing" xlink:title="The class computes the fitness scores of the complete set of maximal matchings between" target="_top">
<polygon fill="white" stroke="black" stroke-width="0.5" points="275.5,-204 208.5,-204 208.5,-185 275.5,-185 275.5,-204"/>
<text text-anchor="middle" x="242" y="-192" font-family="Vera Sans, DejaVu Sans, Liberation Sans, Arial, Helvetica, sans" font-size="10.00">FairPairing</text>
</a>
</g>
</g>
<!-- Pairing -->
<g id="node4" class="node">
<title>Pairing</title>
<g id="a_node4"><a xlink:href="../techDoc.html#pairings.Pairing" xlink:title="Abstract root class" target="_top">
<polygon fill="white" stroke="black" stroke-width="0.5" points="77.5,-148 23.5,-148 23.5,-129 77.5,-129 77.5,-148"/>
<text text-anchor="middle" x="50.5" y="-136" font-family="Vera Sans, DejaVu Sans, Liberation Sans, Arial, Helvetica, sans" font-size="10.00">Pairing</text>
</a>
</g>
</g>
<!-- Pairing&#45;&gt;FairPairing -->
<g id="edge2" class="edge">
<title>Pairing&#45;&gt;FairPairing</title>
<path fill="none" stroke="black" stroke-width="0.5" d="M69.67,-148.16C86.65,-156.8 112.91,-169.18 137,-176.5 158.5,-183.03 183.26,-187.43 203.23,-190.25"/>
<polygon fill="black" stroke="black" stroke-width="0.5" points="203,-191.98 208.2,-190.93 203.48,-188.52 203,-191.98"/>
</g>
<!-- FairestGaleShapleyMatching -->
<g id="node5" class="node">
<title>FairestGaleShapleyMatching</title>
<g id="a_node5"><a xlink:href="../techDoc.html#pairings.FairestGaleShapleyMatching" xlink:title="The class computes both Gale&#45;Shapley matching and renders the fairest of both." target="_top">
<polygon fill="white" stroke="black" stroke-width="0.5" points="319.5,-167 164.5,-167 164.5,-148 319.5,-148 319.5,-167"/>
<text text-anchor="middle" x="242" y="-155" font-family="Vera Sans, DejaVu Sans, Liberation Sans, Arial, Helvetica, sans" font-size="10.00">FairestGaleShapleyMatching</text>
</a>
</g>
</g>
<!-- Pairing&#45;&gt;FairestGaleShapleyMatching -->
<g id="edge3" class="edge">
<title>Pairing&#45;&gt;FairestGaleShapleyMatching</title>
<path fill="none" stroke="black" stroke-width="0.5" d="M77.85,-141.14C99,-143.26 129.89,-146.36 159.11,-149.29"/>
<polygon fill="black" stroke="black" stroke-width="0.5" points="159.01,-151.04 164.16,-149.8 159.36,-147.56 159.01,-151.04"/>
</g>
<!-- FairnessEnhancedGaleShapleyMatching -->
<g id="node6" class="node">
<title>FairnessEnhancedGaleShapleyMatching</title>
<g id="a_node6"><a xlink:href="../techDoc.html#pairings.FairnessEnhancedGaleShapleyMatching" xlink:title="The class enhances the fairness of the fairest Gale&#45;Shapley matching." target="_top">
<polygon fill="white" stroke="black" stroke-width="0.5" points="347,-130 137,-130 137,-111 347,-111 347,-130"/>
<text text-anchor="middle" x="242" y="-118" font-family="Vera Sans, DejaVu Sans, Liberation Sans, Arial, Helvetica, sans" font-size="10.00">FairnessEnhancedGaleShapleyMatching</text>
</a>
</g>
</g>
<!-- Pairing&#45;&gt;FairnessEnhancedGaleShapleyMatching -->
<g id="edge4" class="edge">
<title>Pairing&#45;&gt;FairnessEnhancedGaleShapleyMatching</title>
<path fill="none" stroke="black" stroke-width="0.5" d="M77.85,-136C93.38,-134.52 114.17,-132.55 135.69,-130.5"/>
<polygon fill="black" stroke="black" stroke-width="0.5" points="136.07,-132.22 140.88,-130.01 135.74,-128.74 136.07,-132.22"/>
</g>
<!-- FairnessEnhancedMatching -->
<g id="node8" class="node">
<title>FairnessEnhancedMatching</title>
<g id="a_node8"><a xlink:href="../techDoc.html#pairings.FairnessEnhancedMatching" xlink:title="The class enhances the fairness of a given matching." target="_top">
<polygon fill="white" stroke="black" stroke-width="0.5" points="316.5,-93 167.5,-93 167.5,-74 316.5,-74 316.5,-93"/>
<text text-anchor="middle" x="242" y="-81" font-family="Vera Sans, DejaVu Sans, Liberation Sans, Arial, Helvetica, sans" font-size="10.00">FairnessEnhancedMatching</text>
</a>
</g>
</g>
<!-- Pairing&#45;&gt;FairnessEnhancedMatching -->
<g id="edge6" class="edge">
<title>Pairing&#45;&gt;FairnessEnhancedMatching</title>
<path fill="none" stroke="black" stroke-width="0.5" d="M70.75,-128.96C87.8,-120.87 113.54,-109.49 137,-102.5 148,-99.22 159.84,-96.41 171.45,-94.03"/>
<polygon fill="black" stroke="black" stroke-width="0.5" points="171.84,-95.74 176.4,-93.04 171.16,-92.31 171.84,-95.74"/>
</g>
</g>
</svg>
