<?xml version="1.0" encoding="UTF-8" standalone="no"?>
<!DOCTYPE svg PUBLIC "-//W3C//DTD SVG 1.1//EN"
 "http://www.w3.org/Graphics/SVG/1.1/DTD/svg11.dtd">
<!-- Generated by graphviz version 2.43.0 (0)
 -->
<!-- Title: inheritance869eb85165 Pages: 1 -->
<svg width="454pt" height="360pt"
 viewBox="0.00 0.00 454.00 360.00" xmlns="http://www.w3.org/2000/svg" xmlns:xlink="http://www.w3.org/1999/xlink">
<g id="graph0" class="graph" transform="scale(1 1) rotate(0) translate(4 356)">
<title>inheritance869eb85165</title>
<!-- Digraph -->
<g id="node1" class="node">
<title>Digraph</title>
<g id="a_node1"><a xlink:href="../techDoc.html#digraphs.Digraph" xlink:title="Genuine root class of all Digraph3 modules." target="_top">
<polygon fill="white" stroke="black" stroke-width="0.5" points="55,-185 0,-185 0,-166 55,-166 55,-185"/>
<text text-anchor="middle" x="27.5" y="-173" font-family="Vera Sans, DejaVu Sans, Liberation Sans, Arial, Helvetica, sans" font-size="10.00">Digraph</text>
</a>
</g>
</g>
<!-- GridDigraph -->
<g id="node2" class="node">
<title>GridDigraph</title>
<g id="a_node2"><a xlink:href="../techDoc.html#digraphs.GridDigraph" xlink:title="Specialization of the general Digraph class for generating" target="_top">
<polygon fill="white" stroke="black" stroke-width="0.5" points="230,-352 155,-352 155,-333 230,-333 230,-352"/>
<text text-anchor="middle" x="192.5" y="-340" font-family="Vera Sans, DejaVu Sans, Liberation Sans, Arial, Helvetica, sans" font-size="10.00">GridDigraph</text>
</a>
</g>
</g>
<!-- Digraph&#45;&gt;GridDigraph -->
<g id="edge1" class="edge">
<title>Digraph&#45;&gt;GridDigraph</title>
<path fill="none" stroke="black" stroke-width="0.5" d="M29.42,-185.02C32.54,-211.73 45.24,-287.84 91,-324.5 107.25,-337.52 129.76,-342.38 149.35,-343.83"/>
<polygon fill="black" stroke="black" stroke-width="0.5" points="149.43,-345.59 154.53,-344.14 149.64,-342.09 149.43,-345.59"/>
</g>
<!-- RandomDigraph -->
<g id="node3" class="node">
<title>RandomDigraph</title>
<g id="a_node3"><a xlink:href="../techDoc.html#randomDigraphs.RandomDigraph" xlink:title="Specialization of the general Digraph class for generating" target="_top">
<polygon fill="white" stroke="black" stroke-width="0.5" points="240,-315 145,-315 145,-296 240,-296 240,-315"/>
<text text-anchor="middle" x="192.5" y="-303" font-family="Vera Sans, DejaVu Sans, Liberation Sans, Arial, Helvetica, sans" font-size="10.00">RandomDigraph</text>
</a>
</g>
</g>
<!-- Digraph&#45;&gt;RandomDigraph -->
<g id="edge2" class="edge">
<title>Digraph&#45;&gt;RandomDigraph</title>
<path fill="none" stroke="black" stroke-width="0.5" d="M30.87,-185.19C36.81,-207.29 54.56,-261.51 91,-287.5 105.06,-297.53 122.97,-302.53 139.77,-304.88"/>
<polygon fill="black" stroke="black" stroke-width="0.5" points="139.76,-306.64 144.94,-305.53 140.2,-303.17 139.76,-306.64"/>
</g>
<!-- RandomFixedDegreeSequenceDigraph -->
<g id="node4" class="node">
<title>RandomFixedDegreeSequenceDigraph</title>
<g id="a_node4"><a xlink:href="../techDoc.html#randomDigraphs.RandomFixedDegreeSequenceDigraph" xlink:title="Specialization of the general Digraph class for generating" target="_top">
<polygon fill="white" stroke="black" stroke-width="0.5" points="294,-278 91,-278 91,-259 294,-259 294,-278"/>
<text text-anchor="middle" x="192.5" y="-266" font-family="Vera Sans, DejaVu Sans, Liberation Sans, Arial, Helvetica, sans" font-size="10.00">RandomFixedDegreeSequenceDigraph</text>
</a>
</g>
</g>
<!-- Digraph&#45;&gt;RandomFixedDegreeSequenceDigraph -->
<g id="edge3" class="edge">
<title>Digraph&#45;&gt;RandomFixedDegreeSequenceDigraph</title>
<path fill="none" stroke="black" stroke-width="0.5" d="M33.56,-185.17C42.66,-201.54 63.45,-234.48 91,-250.5 95.37,-253.04 100.01,-255.24 104.81,-257.14"/>
<polygon fill="black" stroke="black" stroke-width="0.5" points="104.36,-258.84 109.65,-258.94 105.58,-255.55 104.36,-258.84"/>
</g>
<!-- RandomFixedSizeDigraph -->
<g id="node5" class="node">
<title>RandomFixedSizeDigraph</title>
<g id="a_node5"><a xlink:href="../techDoc.html#randomDigraphs.RandomFixedSizeDigraph" xlink:title="Generates a random crisp digraph with a fixed size, " target="_top">
<polygon fill="white" stroke="black" stroke-width="0.5" points="263,-241 122,-241 122,-222 263,-222 263,-241"/>
<text text-anchor="middle" x="192.5" y="-229" font-family="Vera Sans, DejaVu Sans, Liberation Sans, Arial, Helvetica, sans" font-size="10.00">RandomFixedSizeDigraph</text>
</a>
</g>
</g>
<!-- Digraph&#45;&gt;RandomFixedSizeDigraph -->
<g id="edge4" class="edge">
<title>Digraph&#45;&gt;RandomFixedSizeDigraph</title>
<path fill="none" stroke="black" stroke-width="0.5" d="M41.18,-185.16C53.32,-193.91 72.47,-206.49 91,-213.5 99.25,-216.62 108.1,-219.21 116.99,-221.36"/>
<polygon fill="black" stroke="black" stroke-width="0.5" points="116.66,-223.08 121.93,-222.5 117.46,-219.67 116.66,-223.08"/>
</g>
<!-- RandomOutrankingValuationDigraph -->
<g id="node7" class="node">
<title>RandomOutrankingValuationDigraph</title>
<g id="a_node7"><a xlink:href="../techDoc.html#randomDigraphs.RandomOutrankingValuationDigraph" xlink:title="Specialization of the general Digraph class for generating" target="_top">
<polygon fill="white" stroke="black" stroke-width="0.5" points="290,-204 95,-204 95,-185 290,-185 290,-204"/>
<text text-anchor="middle" x="192.5" y="-192" font-family="Vera Sans, DejaVu Sans, Liberation Sans, Arial, Helvetica, sans" font-size="10.00">RandomOutrankingValuationDigraph</text>
</a>
</g>
</g>
<!-- Digraph&#45;&gt;RandomOutrankingValuationDigraph -->
<g id="edge6" class="edge">
<title>Digraph&#45;&gt;RandomOutrankingValuationDigraph</title>
<path fill="none" stroke="black" stroke-width="0.5" d="M55.05,-178.59C68.82,-180.2 86.51,-182.26 104.56,-184.37"/>
<polygon fill="black" stroke="black" stroke-width="0.5" points="104.48,-186.12 109.65,-184.96 104.89,-182.64 104.48,-186.12"/>
</g>
<!-- RandomPartialTournament -->
<g id="node8" class="node">
<title>RandomPartialTournament</title>
<g id="a_node8"><a xlink:href="../techDoc.html#randomDigraphs.RandomPartialTournament" xlink:title="Specialization of the general Digraph class for generating" target="_top">
<polygon fill="white" stroke="black" stroke-width="0.5" points="265.5,-167 119.5,-167 119.5,-148 265.5,-148 265.5,-167"/>
<text text-anchor="middle" x="192.5" y="-155" font-family="Vera Sans, DejaVu Sans, Liberation Sans, Arial, Helvetica, sans" font-size="10.00">RandomPartialTournament</text>
</a>
</g>
</g>
<!-- Digraph&#45;&gt;RandomPartialTournament -->
<g id="edge7" class="edge">
<title>Digraph&#45;&gt;RandomPartialTournament</title>
<path fill="none" stroke="black" stroke-width="0.5" d="M55.05,-172.57C71.25,-170.78 92.88,-168.39 114.13,-166.04"/>
<polygon fill="black" stroke="black" stroke-width="0.5" points="114.45,-167.77 119.23,-165.48 114.07,-164.29 114.45,-167.77"/>
</g>
<!-- RandomRegularDigraph -->
<g id="node9" class="node">
<title>RandomRegularDigraph</title>
<g id="a_node9"><a xlink:href="../techDoc.html#randomDigraphs.RandomRegularDigraph" xlink:title="Specialization of Digraph class for random regular symmetric instances." target="_top">
<polygon fill="white" stroke="black" stroke-width="0.5" points="259,-130 126,-130 126,-111 259,-111 259,-130"/>
<text text-anchor="middle" x="192.5" y="-118" font-family="Vera Sans, DejaVu Sans, Liberation Sans, Arial, Helvetica, sans" font-size="10.00">RandomRegularDigraph</text>
</a>
</g>
</g>
<!-- Digraph&#45;&gt;RandomRegularDigraph -->
<g id="edge8" class="edge">
<title>Digraph&#45;&gt;RandomRegularDigraph</title>
<path fill="none" stroke="black" stroke-width="0.5" d="M42.23,-165.78C54.46,-157.56 73.15,-146.11 91,-139.5 100.44,-136 110.64,-133.12 120.78,-130.76"/>
<polygon fill="black" stroke="black" stroke-width="0.5" points="121.26,-132.44 125.76,-129.64 120.49,-129.03 121.26,-132.44"/>
</g>
<!-- RandomTournament -->
<g id="node10" class="node">
<title>RandomTournament</title>
<g id="a_node10"><a xlink:href="../techDoc.html#randomDigraphs.RandomTournament" xlink:title="Specialization of the general Digraph class for generating" target="_top">
<polygon fill="white" stroke="black" stroke-width="0.5" points="250,-93 135,-93 135,-74 250,-74 250,-93"/>
<text text-anchor="middle" x="192.5" y="-81" font-family="Vera Sans, DejaVu Sans, Liberation Sans, Arial, Helvetica, sans" font-size="10.00">RandomTournament</text>
</a>
</g>
</g>
<!-- Digraph&#45;&gt;RandomTournament -->
<g id="edge9" class="edge">
<title>Digraph&#45;&gt;RandomTournament</title>
<path fill="none" stroke="black" stroke-width="0.5" d="M33.79,-165.86C43.1,-149.88 64,-118.13 91,-102.5 102.77,-95.69 116.49,-91.25 129.95,-88.38"/>
<polygon fill="black" stroke="black" stroke-width="0.5" points="130.33,-90.08 134.89,-87.39 129.64,-86.65 130.33,-90.08"/>
</g>
<!-- RandomValuationDigraph -->
<g id="node11" class="node">
<title>RandomValuationDigraph</title>
<g id="a_node11"><a xlink:href="../techDoc.html#randomDigraphs.RandomValuationDigraph" xlink:title="Specialization of the general Digraph class for generating" target="_top">
<polygon fill="white" stroke="black" stroke-width="0.5" points="263,-56 122,-56 122,-37 263,-37 263,-56"/>
<text text-anchor="middle" x="192.5" y="-44" font-family="Vera Sans, DejaVu Sans, Liberation Sans, Arial, Helvetica, sans" font-size="10.00">RandomValuationDigraph</text>
</a>
</g>
</g>
<!-- Digraph&#45;&gt;RandomValuationDigraph -->
<g id="edge10" class="edge">
<title>Digraph&#45;&gt;RandomValuationDigraph</title>
<path fill="none" stroke="black" stroke-width="0.5" d="M31.03,-165.68C37.22,-143.81 55.26,-91.04 91,-65.5 98.75,-59.96 107.67,-55.91 116.92,-52.96"/>
<polygon fill="black" stroke="black" stroke-width="0.5" points="117.49,-54.62 121.78,-51.52 116.49,-51.27 117.49,-54.62"/>
</g>
<!-- RandomWeakTournament -->
<g id="node12" class="node">
<title>RandomWeakTournament</title>
<g id="a_node12"><a xlink:href="../techDoc.html#randomDigraphs.RandomWeakTournament" xlink:title="Specialization of the general Digraph class for generating" target="_top">
<polygon fill="white" stroke="black" stroke-width="0.5" points="263.5,-19 121.5,-19 121.5,0 263.5,0 263.5,-19"/>
<text text-anchor="middle" x="192.5" y="-7" font-family="Vera Sans, DejaVu Sans, Liberation Sans, Arial, Helvetica, sans" font-size="10.00">RandomWeakTournament</text>
</a>
</g>
</g>
<!-- Digraph&#45;&gt;RandomWeakTournament -->
<g id="edge11" class="edge">
<title>Digraph&#45;&gt;RandomWeakTournament</title>
<path fill="none" stroke="black" stroke-width="0.5" d="M29.53,-165.75C32.89,-139.11 46.07,-64.67 91,-28.5 98.48,-22.48 107.28,-18.15 116.52,-15.08"/>
<polygon fill="black" stroke="black" stroke-width="0.5" points="117.12,-16.72 121.38,-13.58 116.09,-13.38 117.12,-16.72"/>
</g>
<!-- RandomGridDigraph -->
<g id="node6" class="node">
<title>RandomGridDigraph</title>
<g id="a_node6"><a xlink:href="../techDoc.html#randomDigraphs.RandomGridDigraph" xlink:title="Specialization of the general Digraph class for generating" target="_top">
<polygon fill="white" stroke="black" stroke-width="0.5" points="446,-352 330,-352 330,-333 446,-333 446,-352"/>
<text text-anchor="middle" x="388" y="-340" font-family="Vera Sans, DejaVu Sans, Liberation Sans, Arial, Helvetica, sans" font-size="10.00">RandomGridDigraph</text>
</a>
</g>
</g>
<!-- GridDigraph&#45;&gt;RandomGridDigraph -->
<g id="edge5" class="edge">
<title>GridDigraph&#45;&gt;RandomGridDigraph</title>
<path fill="none" stroke="black" stroke-width="0.5" d="M230.35,-342.5C256.89,-342.5 293.33,-342.5 324.4,-342.5"/>
<polygon fill="black" stroke="black" stroke-width="0.5" points="324.73,-344.25 329.73,-342.5 324.73,-340.75 324.73,-344.25"/>
</g>
</g>
</svg>
