<?xml version="1.0" encoding="UTF-8" standalone="no"?>
<!DOCTYPE svg PUBLIC "-//W3C//DTD SVG 1.1//EN"
 "http://www.w3.org/Graphics/SVG/1.1/DTD/svg11.dtd">
<!-- Generated by graphviz version 2.43.0 (0)
 -->
<!-- Title: inheritance701037580f Pages: 1 -->
<svg width="681pt" height="140pt"
 viewBox="0.00 0.00 681.00 140.00" xmlns="http://www.w3.org/2000/svg" xmlns:xlink="http://www.w3.org/1999/xlink">
<g id="graph0" class="graph" transform="scale(1 1) rotate(0) translate(4 136)">
<title>inheritance701037580f</title>
<!-- BipolarApprovalVotingProfile -->
<g id="node1" class="node">
<title>BipolarApprovalVotingProfile</title>
<g id="a_node1"><a xlink:href="../techDoc.html#votingProfiles.BipolarApprovalVotingProfile" xlink:title="A specialised class for approval&#45;disapproval voting profiles." target="_top">
<polygon fill="white" stroke="black" stroke-width="0.5" points="440,-75 284,-75 284,-56 440,-56 440,-75"/>
<text text-anchor="middle" x="362" y="-63" font-family="Vera Sans, DejaVu Sans, Liberation Sans, Arial, Helvetica, sans" font-size="10.00">BipolarApprovalVotingProfile</text>
</a>
</g>
</g>
<!-- RandomBipolarApprovalVotingProfile -->
<g id="node7" class="node">
<title>RandomBipolarApprovalVotingProfile</title>
<g id="a_node7"><a xlink:href="../techDoc.html#votingProfiles.RandomBipolarApprovalVotingProfile" xlink:title="A specialized class for generating random approval&#45;disapproval voting profiles" target="_top">
<polygon fill="white" stroke="black" stroke-width="0.5" points="673,-47 476,-47 476,-28 673,-28 673,-47"/>
<text text-anchor="middle" x="574.5" y="-35" font-family="Vera Sans, DejaVu Sans, Liberation Sans, Arial, Helvetica, sans" font-size="10.00">RandomBipolarApprovalVotingProfile</text>
</a>
</g>
</g>
<!-- BipolarApprovalVotingProfile&#45;&gt;RandomBipolarApprovalVotingProfile -->
<g id="edge6" class="edge">
<title>BipolarApprovalVotingProfile&#45;&gt;RandomBipolarApprovalVotingProfile</title>
<path fill="none" stroke="black" stroke-width="0.5" d="M434.56,-55.98C454.56,-53.32 476.37,-50.42 496.66,-47.72"/>
<polygon fill="black" stroke="black" stroke-width="0.5" points="497.06,-49.43 501.78,-47.04 496.59,-45.96 497.06,-49.43"/>
</g>
<!-- VotingProfile -->
<g id="node2" class="node">
<title>VotingProfile</title>
<g id="a_node2"><a xlink:href="../techDoc.html#votingProfiles.VotingProfile" xlink:title="A generic class for storing voting profiles." target="_top">
<polygon fill="white" stroke="black" stroke-width="0.5" points="78,-75 0,-75 0,-56 78,-56 78,-75"/>
<text text-anchor="middle" x="39" y="-63" font-family="Vera Sans, DejaVu Sans, Liberation Sans, Arial, Helvetica, sans" font-size="10.00">VotingProfile</text>
</a>
</g>
</g>
<!-- VotingProfile&#45;&gt;BipolarApprovalVotingProfile -->
<g id="edge1" class="edge">
<title>VotingProfile&#45;&gt;BipolarApprovalVotingProfile</title>
<path fill="none" stroke="black" stroke-width="0.5" d="M78.08,-65.5C127.29,-65.5 214.28,-65.5 278.86,-65.5"/>
<polygon fill="black" stroke="black" stroke-width="0.5" points="278.86,-67.25 283.86,-65.5 278.86,-63.75 278.86,-67.25"/>
</g>
<!-- MajorityMarginsDigraph -->
<g id="node4" class="node">
<title>MajorityMarginsDigraph</title>
<g id="a_node4"><a xlink:href="../techDoc.html#votingProfiles.MajorityMarginsDigraph" xlink:title="Specialization of the general Digraph class for generating" target="_top">
<polygon fill="white" stroke="black" stroke-width="0.5" points="248,-132 114,-132 114,-113 248,-113 248,-132"/>
<text text-anchor="middle" x="181" y="-120" font-family="Vera Sans, DejaVu Sans, Liberation Sans, Arial, Helvetica, sans" font-size="10.00">MajorityMarginsDigraph</text>
</a>
</g>
</g>
<!-- VotingProfile&#45;&gt;MajorityMarginsDigraph -->
<g id="edge5" class="edge">
<title>VotingProfile&#45;&gt;MajorityMarginsDigraph</title>
<path fill="none" stroke="black" stroke-width="0.5" d="M60.57,-75.14C75.32,-81.94 95.74,-91.12 114,-98.5 124.78,-102.86 136.69,-107.3 147.39,-111.16"/>
<polygon fill="black" stroke="black" stroke-width="0.5" points="146.92,-112.85 152.22,-112.89 148.1,-109.55 146.92,-112.85"/>
</g>
<!-- LinearVotingProfile -->
<g id="node6" class="node">
<title>LinearVotingProfile</title>
<g id="a_node6"><a xlink:href="../techDoc.html#votingProfiles.LinearVotingProfile" xlink:title="A specialised class for linear voting profiles" target="_top">
<polygon fill="white" stroke="black" stroke-width="0.5" points="235,-19 127,-19 127,0 235,0 235,-19"/>
<text text-anchor="middle" x="181" y="-7" font-family="Vera Sans, DejaVu Sans, Liberation Sans, Arial, Helvetica, sans" font-size="10.00">LinearVotingProfile</text>
</a>
</g>
</g>
<!-- VotingProfile&#45;&gt;LinearVotingProfile -->
<g id="edge3" class="edge">
<title>VotingProfile&#45;&gt;LinearVotingProfile</title>
<path fill="none" stroke="black" stroke-width="0.5" d="M56.29,-55.88C70.99,-47.51 93.4,-35.5 114,-27.5 120.66,-24.92 127.83,-22.55 134.9,-20.45"/>
<polygon fill="black" stroke="black" stroke-width="0.5" points="135.46,-22.11 139.78,-19.03 134.49,-18.75 135.46,-22.11"/>
</g>
<!-- RandomVotingProfile -->
<g id="node9" class="node">
<title>RandomVotingProfile</title>
<g id="a_node9"><a xlink:href="../techDoc.html#votingProfiles.RandomVotingProfile" xlink:title="A subclass for generating random voting profiles." target="_top">
<polygon fill="white" stroke="black" stroke-width="0.5" points="240.5,-56 121.5,-56 121.5,-37 240.5,-37 240.5,-56"/>
<text text-anchor="middle" x="181" y="-44" font-family="Vera Sans, DejaVu Sans, Liberation Sans, Arial, Helvetica, sans" font-size="10.00">RandomVotingProfile</text>
</a>
</g>
</g>
<!-- VotingProfile&#45;&gt;RandomVotingProfile -->
<g id="edge9" class="edge">
<title>VotingProfile&#45;&gt;RandomVotingProfile</title>
<path fill="none" stroke="black" stroke-width="0.5" d="M78.26,-60.31C89.98,-58.72 103.21,-56.92 116.15,-55.17"/>
<polygon fill="black" stroke="black" stroke-width="0.5" points="116.57,-56.87 121.29,-54.47 116.1,-53.41 116.57,-56.87"/>
</g>
<!-- CondorcetDigraph -->
<g id="node3" class="node">
<title>CondorcetDigraph</title>
<g id="a_node3"><a xlink:href="../techDoc.html#votingProfiles.CondorcetDigraph" xlink:title="Dummy obsolete class name for MajorityMarginsDigraph class." target="_top">
<polygon fill="white" stroke="black" stroke-width="0.5" points="414,-132 310,-132 310,-113 414,-113 414,-132"/>
<text text-anchor="middle" x="362" y="-120" font-family="Vera Sans, DejaVu Sans, Liberation Sans, Arial, Helvetica, sans" font-size="10.00">CondorcetDigraph</text>
</a>
</g>
</g>
<!-- MajorityMarginsDigraph&#45;&gt;CondorcetDigraph -->
<g id="edge2" class="edge">
<title>MajorityMarginsDigraph&#45;&gt;CondorcetDigraph</title>
<path fill="none" stroke="black" stroke-width="0.5" d="M248.14,-122.5C266.81,-122.5 286.92,-122.5 304.93,-122.5"/>
<polygon fill="black" stroke="black" stroke-width="0.5" points="304.95,-124.25 309.95,-122.5 304.95,-120.75 304.95,-124.25"/>
</g>
<!-- Digraph -->
<g id="node5" class="node">
<title>Digraph</title>
<g id="a_node5"><a xlink:href="../techDoc.html#digraphs.Digraph" xlink:title="Genuine root class of all Digraph3 modules." target="_top">
<polygon fill="white" stroke="black" stroke-width="0.5" points="66.5,-132 11.5,-132 11.5,-113 66.5,-113 66.5,-132"/>
<text text-anchor="middle" x="39" y="-120" font-family="Vera Sans, DejaVu Sans, Liberation Sans, Arial, Helvetica, sans" font-size="10.00">Digraph</text>
</a>
</g>
</g>
<!-- Digraph&#45;&gt;MajorityMarginsDigraph -->
<g id="edge4" class="edge">
<title>Digraph&#45;&gt;MajorityMarginsDigraph</title>
<path fill="none" stroke="black" stroke-width="0.5" d="M66.66,-122.5C78.78,-122.5 93.75,-122.5 108.8,-122.5"/>
<polygon fill="black" stroke="black" stroke-width="0.5" points="108.9,-124.25 113.9,-122.5 108.9,-120.75 108.9,-124.25"/>
</g>
<!-- RandomLinearVotingProfile -->
<g id="node8" class="node">
<title>RandomLinearVotingProfile</title>
<g id="a_node8"><a xlink:href="../techDoc.html#votingProfiles.RandomLinearVotingProfile" xlink:title="A specialized class for generating random liwear voting profiles." target="_top">
<polygon fill="white" stroke="black" stroke-width="0.5" points="436.5,-29 287.5,-29 287.5,-10 436.5,-10 436.5,-29"/>
<text text-anchor="middle" x="362" y="-17" font-family="Vera Sans, DejaVu Sans, Liberation Sans, Arial, Helvetica, sans" font-size="10.00">RandomLinearVotingProfile</text>
</a>
</g>
</g>
<!-- LinearVotingProfile&#45;&gt;RandomLinearVotingProfile -->
<g id="edge8" class="edge">
<title>LinearVotingProfile&#45;&gt;RandomLinearVotingProfile</title>
<path fill="none" stroke="black" stroke-width="0.5" d="M235.22,-12.47C249.94,-13.3 266.24,-14.21 282.09,-15.09"/>
<polygon fill="black" stroke="black" stroke-width="0.5" points="282.35,-16.86 287.44,-15.39 282.55,-13.36 282.35,-16.86"/>
</g>
<!-- RandomLinearVotingProfile&#45;&gt;RandomBipolarApprovalVotingProfile -->
<g id="edge7" class="edge">
<title>RandomLinearVotingProfile&#45;&gt;RandomBipolarApprovalVotingProfile</title>
<path fill="none" stroke="black" stroke-width="0.5" d="M436.62,-25.8C447.62,-26.74 459.13,-27.72 470.6,-28.7"/>
<polygon fill="black" stroke="black" stroke-width="0.5" points="470.74,-30.47 475.87,-29.15 471.04,-26.98 470.74,-30.47"/>
</g>
</g>
</svg>
