<?xml version="1.0" encoding="UTF-8" standalone="no"?>
<!DOCTYPE svg PUBLIC "-//W3C//DTD SVG 1.1//EN"
 "http://www.w3.org/Graphics/SVG/1.1/DTD/svg11.dtd">
<!-- Generated by graphviz version 2.43.0 (0)
 -->
<!-- Title: inheritancebed16db1ec Pages: 1 -->
<svg width="308pt" height="138pt"
 viewBox="0.00 0.00 308.00 138.00" xmlns="http://www.w3.org/2000/svg" xmlns:xlink="http://www.w3.org/1999/xlink">
<g id="graph0" class="graph" transform="scale(1 1) rotate(0) translate(4 134)">
<title>inheritancebed16db1ec</title>
<!-- FairPairing -->
<g id="node1" class="node">
<title>FairPairing</title>
<g id="a_node1"><a xlink:href="../techDoc.html#pairings.FairPairing" xlink:title="The class computes the fitness scores of the complete set of maximal matchings between" target="_top">
<polygon fill="white" stroke="black" stroke-width="0.5" points="228.5,-130 161.5,-130 161.5,-111 228.5,-111 228.5,-130"/>
<text text-anchor="middle" x="195" y="-118" font-family="Vera Sans, DejaVu Sans, Liberation Sans, Arial, Helvetica, sans" font-size="10.00">FairPairing</text>
</a>
</g>
</g>
<!-- Pairing -->
<g id="node2" class="node">
<title>Pairing</title>
<g id="a_node2"><a xlink:href="../techDoc.html#pairings.Pairing" xlink:title="Abstract root class" target="_top">
<polygon fill="white" stroke="black" stroke-width="0.5" points="54,-74 0,-74 0,-55 54,-55 54,-74"/>
<text text-anchor="middle" x="27" y="-62" font-family="Vera Sans, DejaVu Sans, Liberation Sans, Arial, Helvetica, sans" font-size="10.00">Pairing</text>
</a>
</g>
</g>
<!-- Pairing&#45;&gt;FairPairing -->
<g id="edge1" class="edge">
<title>Pairing&#45;&gt;FairPairing</title>
<path fill="none" stroke="black" stroke-width="0.5" d="M40.55,-74.18C52.58,-82.96 71.57,-95.55 90,-102.5 111.18,-110.49 136.14,-114.96 156.29,-117.44"/>
<polygon fill="black" stroke="black" stroke-width="0.5" points="156.14,-119.19 161.31,-118.04 156.55,-115.71 156.14,-119.19"/>
</g>
<!-- FairestGaleShapleyMatching -->
<g id="node3" class="node">
<title>FairestGaleShapleyMatching</title>
<g id="a_node3"><a xlink:href="../techDoc.html#pairings.FairestGaleShapleyMatching" xlink:title="The class computes both Gale&#45;Shapley matching and renders the fairest of both." target="_top">
<polygon fill="white" stroke="black" stroke-width="0.5" points="272.5,-93 117.5,-93 117.5,-74 272.5,-74 272.5,-93"/>
<text text-anchor="middle" x="195" y="-81" font-family="Vera Sans, DejaVu Sans, Liberation Sans, Arial, Helvetica, sans" font-size="10.00">FairestGaleShapleyMatching</text>
</a>
</g>
</g>
<!-- Pairing&#45;&gt;FairestGaleShapleyMatching -->
<g id="edge2" class="edge">
<title>Pairing&#45;&gt;FairestGaleShapleyMatching</title>
<path fill="none" stroke="black" stroke-width="0.5" d="M54.3,-67.51C70.13,-69.32 91.23,-71.74 112.22,-74.14"/>
<polygon fill="black" stroke="black" stroke-width="0.5" points="112.09,-75.89 117.26,-74.72 112.49,-72.41 112.09,-75.89"/>
</g>
<!-- FairnessEnhancedGaleShapleyMatching -->
<g id="node4" class="node">
<title>FairnessEnhancedGaleShapleyMatching</title>
<g id="a_node4"><a xlink:href="../techDoc.html#pairings.FairnessEnhancedGaleShapleyMatching" xlink:title="The class enhances the fairness of the fairest Gale&#45;Shapley matching." target="_top">
<polygon fill="white" stroke="black" stroke-width="0.5" points="300,-56 90,-56 90,-37 300,-37 300,-56"/>
<text text-anchor="middle" x="195" y="-44" font-family="Vera Sans, DejaVu Sans, Liberation Sans, Arial, Helvetica, sans" font-size="10.00">FairnessEnhancedGaleShapleyMatching</text>
</a>
</g>
</g>
<!-- Pairing&#45;&gt;FairnessEnhancedGaleShapleyMatching -->
<g id="edge3" class="edge">
<title>Pairing&#45;&gt;FairnessEnhancedGaleShapleyMatching</title>
<path fill="none" stroke="black" stroke-width="0.5" d="M54.3,-61.65C67.31,-60.24 83.88,-58.44 101.02,-56.58"/>
<polygon fill="black" stroke="black" stroke-width="0.5" points="101.57,-58.28 106.35,-56 101.19,-54.8 101.57,-58.28"/>
</g>
<!-- FairnessEnhancedMatching -->
<g id="node5" class="node">
<title>FairnessEnhancedMatching</title>
<g id="a_node5"><a xlink:href="../techDoc.html#pairings.FairnessEnhancedMatching" xlink:title="The class enhances the fairness of a given matching." target="_top">
<polygon fill="white" stroke="black" stroke-width="0.5" points="269.5,-19 120.5,-19 120.5,0 269.5,0 269.5,-19"/>
<text text-anchor="middle" x="195" y="-7" font-family="Vera Sans, DejaVu Sans, Liberation Sans, Arial, Helvetica, sans" font-size="10.00">FairnessEnhancedMatching</text>
</a>
</g>
</g>
<!-- Pairing&#45;&gt;FairnessEnhancedMatching -->
<g id="edge4" class="edge">
<title>Pairing&#45;&gt;FairnessEnhancedMatching</title>
<path fill="none" stroke="black" stroke-width="0.5" d="M41.6,-54.74C53.72,-46.51 72.25,-35.05 90,-28.5 98.95,-25.2 108.54,-22.46 118.16,-20.18"/>
<polygon fill="black" stroke="black" stroke-width="0.5" points="118.7,-21.85 123.19,-19.03 117.92,-18.44 118.7,-21.85"/>
</g>
</g>
</svg>
