<?xml version="1.0" encoding="UTF-8" standalone="no"?>
<!DOCTYPE svg PUBLIC "-//W3C//DTD SVG 1.1//EN"
 "http://www.w3.org/Graphics/SVG/1.1/DTD/svg11.dtd">
<!-- Generated by graphviz version 2.43.0 (0)
 -->
<!-- Title: inheritancec86f335138 Pages: 1 -->
<svg width="295pt" height="1100pt"
 viewBox="0.00 0.00 295.00 1100.00" xmlns="http://www.w3.org/2000/svg" xmlns:xlink="http://www.w3.org/1999/xlink">
<g id="graph0" class="graph" transform="scale(1 1) rotate(0) translate(4 1096)">
<title>inheritancec86f335138</title>
<!-- AsymmetricPartialDigraph -->
<g id="node1" class="node">
<title>AsymmetricPartialDigraph</title>
<g id="a_node1"><a xlink:href="../techDoc.html#digraphs.AsymmetricPartialDigraph" xlink:title="Renders the asymmetric part of a Digraph instance." target="_top">
<polygon fill="white" stroke="black" stroke-width="0.5" points="261.5,-1092 116.5,-1092 116.5,-1073 261.5,-1073 261.5,-1092"/>
<text text-anchor="middle" x="189" y="-1080" font-family="Vera Sans, DejaVu Sans, Liberation Sans, Arial, Helvetica, sans" font-size="10.00">AsymmetricPartialDigraph</text>
</a>
</g>
</g>
<!-- Digraph -->
<g id="node2" class="node">
<title>Digraph</title>
<g id="a_node2"><a xlink:href="../techDoc.html#digraphs.Digraph" xlink:title="Genuine root class of all Digraph3 modules." target="_top">
<polygon fill="white" stroke="black" stroke-width="0.5" points="55,-555 0,-555 0,-536 55,-536 55,-555"/>
<text text-anchor="middle" x="27.5" y="-543" font-family="Vera Sans, DejaVu Sans, Liberation Sans, Arial, Helvetica, sans" font-size="10.00">Digraph</text>
</a>
</g>
</g>
<!-- Digraph&#45;&gt;AsymmetricPartialDigraph -->
<g id="edge1" class="edge">
<title>Digraph&#45;&gt;AsymmetricPartialDigraph</title>
<path fill="none" stroke="black" stroke-width="0.5" d="M28.98,-555.05C32.44,-622.5 54.59,-1025.7 91,-1064.5 96.73,-1070.6 103.8,-1075.03 111.5,-1078.2"/>
<polygon fill="black" stroke="black" stroke-width="0.5" points="111.07,-1079.91 116.37,-1080.02 112.29,-1076.63 111.07,-1079.91"/>
</g>
<!-- BipartitePartialDigraph -->
<g id="node3" class="node">
<title>BipartitePartialDigraph</title>
<g id="a_node3"><a xlink:href="../techDoc.html#digraphs.BipartitePartialDigraph" xlink:title="Renders the bipartite part of a Digraph instance." target="_top">
<polygon fill="white" stroke="black" stroke-width="0.5" points="253,-1055 125,-1055 125,-1036 253,-1036 253,-1055"/>
<text text-anchor="middle" x="189" y="-1043" font-family="Vera Sans, DejaVu Sans, Liberation Sans, Arial, Helvetica, sans" font-size="10.00">BipartitePartialDigraph</text>
</a>
</g>
</g>
<!-- Digraph&#45;&gt;BipartitePartialDigraph -->
<g id="edge2" class="edge">
<title>Digraph&#45;&gt;BipartitePartialDigraph</title>
<path fill="none" stroke="black" stroke-width="0.5" d="M28.28,-555.14C27.07,-616.85 23.55,-956.27 91,-1027.5 98.76,-1035.7 108.96,-1040.87 119.82,-1044.02"/>
<polygon fill="black" stroke="black" stroke-width="0.5" points="119.57,-1045.77 124.85,-1045.34 120.45,-1042.38 119.57,-1045.77"/>
</g>
<!-- BreakAddCocsDigraph -->
<g id="node4" class="node">
<title>BreakAddCocsDigraph</title>
<g id="a_node4"><a xlink:href="../techDoc.html#digraphs.BreakAddCocsDigraph" xlink:title="Specialization of general Digraph class for instantiation" target="_top">
<polygon fill="white" stroke="black" stroke-width="0.5" points="251.5,-1018 126.5,-1018 126.5,-999 251.5,-999 251.5,-1018"/>
<text text-anchor="middle" x="189" y="-1006" font-family="Vera Sans, DejaVu Sans, Liberation Sans, Arial, Helvetica, sans" font-size="10.00">BreakAddCocsDigraph</text>
</a>
</g>
</g>
<!-- Digraph&#45;&gt;BreakAddCocsDigraph -->
<g id="edge3" class="edge">
<title>Digraph&#45;&gt;BreakAddCocsDigraph</title>
<path fill="none" stroke="black" stroke-width="0.5" d="M28.39,-555.15C27.94,-614.11 28.56,-925.26 91,-990.5 99.19,-999.05 110.02,-1004.3 121.48,-1007.4"/>
<polygon fill="black" stroke="black" stroke-width="0.5" points="121.16,-1009.12 126.43,-1008.6 121.98,-1005.72 121.16,-1009.12"/>
</g>
<!-- BrokenChordlessCircuitsDigraph -->
<g id="node5" class="node">
<title>BrokenChordlessCircuitsDigraph</title>
<g id="a_node5"><a xlink:href="../techDoc.html#digraphs.BrokenChordlessCircuitsDigraph" xlink:title="Specialization of general Digraph class for instantiation" target="_top">
<polygon fill="white" stroke="black" stroke-width="0.5" points="275.5,-981 102.5,-981 102.5,-962 275.5,-962 275.5,-981"/>
<text text-anchor="middle" x="189" y="-969" font-family="Vera Sans, DejaVu Sans, Liberation Sans, Arial, Helvetica, sans" font-size="10.00">BrokenChordlessCircuitsDigraph</text>
</a>
</g>
</g>
<!-- Digraph&#45;&gt;BrokenChordlessCircuitsDigraph -->
<g id="edge4" class="edge">
<title>Digraph&#45;&gt;BrokenChordlessCircuitsDigraph</title>
<path fill="none" stroke="black" stroke-width="0.5" d="M28.53,-555.07C28.88,-610.92 33.53,-894.19 91,-953.5 93.09,-955.65 95.34,-957.59 97.73,-959.35"/>
<polygon fill="black" stroke="black" stroke-width="0.5" points="97.04,-960.99 102.17,-962.29 98.97,-958.07 97.04,-960.99"/>
</g>
<!-- BrokenCocsDigraph -->
<g id="node6" class="node">
<title>BrokenCocsDigraph</title>
<g id="a_node6"><a xlink:href="../techDoc.html#digraphs.BrokenCocsDigraph" xlink:title="Specialization of general Digraph class for instantiation" target="_top">
<polygon fill="white" stroke="black" stroke-width="0.5" points="245,-944 133,-944 133,-925 245,-925 245,-944"/>
<text text-anchor="middle" x="189" y="-932" font-family="Vera Sans, DejaVu Sans, Liberation Sans, Arial, Helvetica, sans" font-size="10.00">BrokenCocsDigraph</text>
</a>
</g>
</g>
<!-- Digraph&#45;&gt;BrokenCocsDigraph -->
<g id="edge5" class="edge">
<title>Digraph&#45;&gt;BrokenCocsDigraph</title>
<path fill="none" stroke="black" stroke-width="0.5" d="M28.69,-555.23C29.93,-608.38 38.56,-863.18 91,-916.5 100.79,-926.45 114.17,-931.89 127.87,-934.68"/>
<polygon fill="black" stroke="black" stroke-width="0.5" points="127.7,-936.43 132.93,-935.6 128.32,-932.99 127.7,-936.43"/>
</g>
<!-- CSVDigraph -->
<g id="node7" class="node">
<title>CSVDigraph</title>
<g id="a_node7"><a xlink:href="../techDoc.html#digraphs.CSVDigraph" xlink:title="Specialization of the general Digraph class for reading" target="_top">
<polygon fill="white" stroke="black" stroke-width="0.5" points="226,-907 152,-907 152,-888 226,-888 226,-907"/>
<text text-anchor="middle" x="189" y="-895" font-family="Vera Sans, DejaVu Sans, Liberation Sans, Arial, Helvetica, sans" font-size="10.00">CSVDigraph</text>
</a>
</g>
</g>
<!-- Digraph&#45;&gt;CSVDigraph -->
<g id="edge6" class="edge">
<title>Digraph&#45;&gt;CSVDigraph</title>
<path fill="none" stroke="black" stroke-width="0.5" d="M28.89,-555.23C31.07,-605.17 43.51,-832.09 91,-879.5 105.29,-893.77 127,-898.71 146.25,-899.89"/>
<polygon fill="black" stroke="black" stroke-width="0.5" points="146.54,-901.66 151.61,-900.13 146.69,-898.16 146.54,-901.66"/>
</g>
<!-- CirculantDigraph -->
<g id="node8" class="node">
<title>CirculantDigraph</title>
<g id="a_node8"><a xlink:href="../techDoc.html#digraphs.CirculantDigraph" xlink:title="Specialization of the general Digraph class for generating" target="_top">
<polygon fill="white" stroke="black" stroke-width="0.5" points="238,-870 140,-870 140,-851 238,-851 238,-870"/>
<text text-anchor="middle" x="189" y="-858" font-family="Vera Sans, DejaVu Sans, Liberation Sans, Arial, Helvetica, sans" font-size="10.00">CirculantDigraph</text>
</a>
</g>
</g>
<!-- Digraph&#45;&gt;CirculantDigraph -->
<g id="edge7" class="edge">
<title>Digraph&#45;&gt;CirculantDigraph</title>
<path fill="none" stroke="black" stroke-width="0.5" d="M29.12,-555.07C32.31,-601.28 48.4,-800.9 91,-842.5 102.56,-853.79 118.77,-859.2 134.64,-861.54"/>
<polygon fill="black" stroke="black" stroke-width="0.5" points="134.82,-863.32 140,-862.21 135.26,-859.85 134.82,-863.32"/>
</g>
<!-- CoDualDigraph -->
<g id="node9" class="node">
<title>CoDualDigraph</title>
<g id="a_node9"><a xlink:href="../techDoc.html#digraphs.CoDualDigraph" xlink:title="Instantiates the associated codual &#45;converse of the negation&#45; from a deep copy of" target="_top">
<polygon fill="white" stroke="black" stroke-width="0.5" points="234,-833 144,-833 144,-814 234,-814 234,-833"/>
<text text-anchor="middle" x="189" y="-821" font-family="Vera Sans, DejaVu Sans, Liberation Sans, Arial, Helvetica, sans" font-size="10.00">CoDualDigraph</text>
</a>
</g>
</g>
<!-- Digraph&#45;&gt;CoDualDigraph -->
<g id="edge8" class="edge">
<title>Digraph&#45;&gt;CoDualDigraph</title>
<path fill="none" stroke="black" stroke-width="0.5" d="M29.45,-555.28C33.81,-598.26 53.37,-769.79 91,-805.5 103.61,-817.47 121.47,-822.77 138.43,-824.82"/>
<polygon fill="black" stroke="black" stroke-width="0.5" points="138.51,-826.59 143.66,-825.36 138.87,-823.11 138.51,-826.59"/>
</g>
<!-- CocaDigraph -->
<g id="node10" class="node">
<title>CocaDigraph</title>
<g id="a_node10"><a xlink:href="../techDoc.html#digraphs.CocaDigraph" xlink:title="Old CocaDigraph class without circuit breakings; all circuits and circuits of circuits are added as hyper&#45;nodes." target="_top">
<polygon fill="white" stroke="black" stroke-width="0.5" points="228.5,-796 149.5,-796 149.5,-777 228.5,-777 228.5,-796"/>
<text text-anchor="middle" x="189" y="-784" font-family="Vera Sans, DejaVu Sans, Liberation Sans, Arial, Helvetica, sans" font-size="10.00">CocaDigraph</text>
</a>
</g>
</g>
<!-- Digraph&#45;&gt;CocaDigraph -->
<g id="edge9" class="edge">
<title>Digraph&#45;&gt;CocaDigraph</title>
<path fill="none" stroke="black" stroke-width="0.5" d="M27.93,-555.35C26.47,-590.33 26.6,-709.64 91,-768.5 105.21,-781.49 125.65,-786.54 144.11,-788.12"/>
<polygon fill="black" stroke="black" stroke-width="0.5" points="144.14,-789.88 149.25,-788.48 144.38,-786.39 144.14,-789.88"/>
</g>
<!-- CompleteDigraph -->
<g id="node11" class="node">
<title>CompleteDigraph</title>
<g id="a_node11"><a xlink:href="../techDoc.html#digraphs.CompleteDigraph" xlink:title="Specialization of the general Digraph class for generating" target="_top">
<polygon fill="white" stroke="black" stroke-width="0.5" points="240,-759 138,-759 138,-740 240,-740 240,-759"/>
<text text-anchor="middle" x="189" y="-747" font-family="Vera Sans, DejaVu Sans, Liberation Sans, Arial, Helvetica, sans" font-size="10.00">CompleteDigraph</text>
</a>
</g>
</g>
<!-- Digraph&#45;&gt;CompleteDigraph -->
<g id="edge10" class="edge">
<title>Digraph&#45;&gt;CompleteDigraph</title>
<path fill="none" stroke="black" stroke-width="0.5" d="M28.55,-555.02C29.26,-585.84 35.96,-683.7 91,-731.5 102.56,-741.54 117.88,-746.76 132.91,-749.31"/>
<polygon fill="black" stroke="black" stroke-width="0.5" points="132.79,-751.06 138,-750.07 133.31,-747.6 132.79,-751.06"/>
</g>
<!-- ConverseDigraph -->
<g id="node12" class="node">
<title>ConverseDigraph</title>
<g id="a_node12"><a xlink:href="../techDoc.html#digraphs.ConverseDigraph" xlink:title="Instantiates the associated converse or reciprocal version from" target="_top">
<polygon fill="white" stroke="black" stroke-width="0.5" points="239.5,-722 138.5,-722 138.5,-703 239.5,-703 239.5,-722"/>
<text text-anchor="middle" x="189" y="-710" font-family="Vera Sans, DejaVu Sans, Liberation Sans, Arial, Helvetica, sans" font-size="10.00">ConverseDigraph</text>
</a>
</g>
</g>
<!-- Digraph&#45;&gt;ConverseDigraph -->
<g id="edge11" class="edge">
<title>Digraph&#45;&gt;ConverseDigraph</title>
<path fill="none" stroke="black" stroke-width="0.5" d="M29.43,-555C32.58,-581.68 45.36,-657.7 91,-694.5 102.92,-704.11 118.34,-709.2 133.37,-711.76"/>
<polygon fill="black" stroke="black" stroke-width="0.5" points="133.24,-713.51 138.44,-712.54 133.76,-710.05 133.24,-713.51"/>
</g>
<!-- CoverDigraph -->
<g id="node13" class="node">
<title>CoverDigraph</title>
<g id="a_node13"><a xlink:href="../techDoc.html#digraphs.CoverDigraph" xlink:title="Instantiates the associated cover relation &#45;immediate neighbours&#45; from" target="_top">
<polygon fill="white" stroke="black" stroke-width="0.5" points="230.5,-685 147.5,-685 147.5,-666 230.5,-666 230.5,-685"/>
<text text-anchor="middle" x="189" y="-673" font-family="Vera Sans, DejaVu Sans, Liberation Sans, Arial, Helvetica, sans" font-size="10.00">CoverDigraph</text>
</a>
</g>
</g>
<!-- Digraph&#45;&gt;CoverDigraph -->
<g id="edge12" class="edge">
<title>Digraph&#45;&gt;CoverDigraph</title>
<path fill="none" stroke="black" stroke-width="0.5" d="M30.88,-555.17C36.85,-577.24 54.64,-631.4 91,-657.5 105.63,-668 124.6,-672.91 141.88,-675.05"/>
<polygon fill="black" stroke="black" stroke-width="0.5" points="142.02,-676.83 147.18,-675.63 142.4,-673.35 142.02,-676.83"/>
</g>
<!-- CriteriaCorrelationDigraph -->
<g id="node14" class="node">
<title>CriteriaCorrelationDigraph</title>
<g id="a_node14"><a xlink:href="../techDoc.html#digraphs.CriteriaCorrelationDigraph" xlink:title="Renders the ordinal criteria correlation digraph from the given outranking digraph." target="_top">
<polygon fill="white" stroke="black" stroke-width="0.5" points="261.5,-648 116.5,-648 116.5,-629 261.5,-629 261.5,-648"/>
<text text-anchor="middle" x="189" y="-636" font-family="Vera Sans, DejaVu Sans, Liberation Sans, Arial, Helvetica, sans" font-size="10.00">CriteriaCorrelationDigraph</text>
</a>
</g>
</g>
<!-- Digraph&#45;&gt;CriteriaCorrelationDigraph -->
<g id="edge13" class="edge">
<title>Digraph&#45;&gt;CriteriaCorrelationDigraph</title>
<path fill="none" stroke="black" stroke-width="0.5" d="M33.57,-555.16C42.69,-571.5 63.5,-604.4 91,-620.5 97.3,-624.19 104.2,-627.15 111.32,-629.53"/>
<polygon fill="black" stroke="black" stroke-width="0.5" points="110.98,-631.25 116.28,-631.07 112.02,-627.91 110.98,-631.25"/>
</g>
<!-- DualDigraph -->
<g id="node15" class="node">
<title>DualDigraph</title>
<g id="a_node15"><a xlink:href="../techDoc.html#digraphs.DualDigraph" xlink:title="Instantiates the dual ( = negated valuation) Digraph object from a deep copy of a given other Digraph instance." target="_top">
<polygon fill="white" stroke="black" stroke-width="0.5" points="227.5,-611 150.5,-611 150.5,-592 227.5,-592 227.5,-611"/>
<text text-anchor="middle" x="189" y="-599" font-family="Vera Sans, DejaVu Sans, Liberation Sans, Arial, Helvetica, sans" font-size="10.00">DualDigraph</text>
</a>
</g>
</g>
<!-- Digraph&#45;&gt;DualDigraph -->
<g id="edge14" class="edge">
<title>Digraph&#45;&gt;DualDigraph</title>
<path fill="none" stroke="black" stroke-width="0.5" d="M41.19,-555.13C53.33,-563.87 72.49,-576.43 91,-583.5 108.11,-590.04 127.85,-594.25 145.04,-596.95"/>
<polygon fill="black" stroke="black" stroke-width="0.5" points="145.08,-598.72 150.29,-597.73 145.6,-595.26 145.08,-598.72"/>
</g>
<!-- EmptyDigraph -->
<g id="node16" class="node">
<title>EmptyDigraph</title>
<g id="a_node16"><a xlink:href="../techDoc.html#digraphs.EmptyDigraph" xlink:title="Parameters:" target="_top">
<polygon fill="white" stroke="black" stroke-width="0.5" points="232,-574 146,-574 146,-555 232,-555 232,-574"/>
<text text-anchor="middle" x="189" y="-562" font-family="Vera Sans, DejaVu Sans, Liberation Sans, Arial, Helvetica, sans" font-size="10.00">EmptyDigraph</text>
</a>
</g>
</g>
<!-- Digraph&#45;&gt;EmptyDigraph -->
<g id="edge15" class="edge">
<title>Digraph&#45;&gt;EmptyDigraph</title>
<path fill="none" stroke="black" stroke-width="0.5" d="M55.2,-548.68C78.49,-551.45 112.83,-555.55 140.76,-558.87"/>
<polygon fill="black" stroke="black" stroke-width="0.5" points="140.72,-560.63 145.9,-559.48 141.14,-557.16 140.72,-560.63"/>
</g>
<!-- EquivalenceDigraph -->
<g id="node17" class="node">
<title>EquivalenceDigraph</title>
<g id="a_node17"><a xlink:href="../techDoc.html#digraphs.EquivalenceDigraph" xlink:title="Instantiates the logical equivalence digraph of two bipolar" target="_top">
<polygon fill="white" stroke="black" stroke-width="0.5" points="246,-537 132,-537 132,-518 246,-518 246,-537"/>
<text text-anchor="middle" x="189" y="-525" font-family="Vera Sans, DejaVu Sans, Liberation Sans, Arial, Helvetica, sans" font-size="10.00">EquivalenceDigraph</text>
</a>
</g>
</g>
<!-- Digraph&#45;&gt;EquivalenceDigraph -->
<g id="edge16" class="edge">
<title>Digraph&#45;&gt;EquivalenceDigraph</title>
<path fill="none" stroke="black" stroke-width="0.5" d="M55.2,-542.49C74.65,-540.29 101.82,-537.23 126.52,-534.44"/>
<polygon fill="black" stroke="black" stroke-width="0.5" points="126.97,-536.15 131.75,-533.85 126.58,-532.67 126.97,-536.15"/>
</g>
<!-- FusionDigraph -->
<g id="node18" class="node">
<title>FusionDigraph</title>
<g id="a_node18"><a xlink:href="../techDoc.html#digraphs.FusionDigraph" xlink:title="Instantiates the epistemic fusion of " target="_top">
<polygon fill="white" stroke="black" stroke-width="0.5" points="232,-500 146,-500 146,-481 232,-481 232,-500"/>
<text text-anchor="middle" x="189" y="-488" font-family="Vera Sans, DejaVu Sans, Liberation Sans, Arial, Helvetica, sans" font-size="10.00">FusionDigraph</text>
</a>
</g>
</g>
<!-- Digraph&#45;&gt;FusionDigraph -->
<g id="edge17" class="edge">
<title>Digraph&#45;&gt;FusionDigraph</title>
<path fill="none" stroke="black" stroke-width="0.5" d="M42.24,-535.81C54.48,-527.61 73.17,-516.17 91,-509.5 106.73,-503.61 124.61,-499.45 140.7,-496.56"/>
<polygon fill="black" stroke="black" stroke-width="0.5" points="141,-498.28 145.63,-495.7 140.4,-494.83 141,-498.28"/>
</g>
<!-- FusionLDigraph -->
<g id="node19" class="node">
<title>FusionLDigraph</title>
<g id="a_node19"><a xlink:href="../techDoc.html#digraphs.FusionLDigraph" xlink:title="Instantiates the epistemic fusion a list L of Digraph instances." target="_top">
<polygon fill="white" stroke="black" stroke-width="0.5" points="235,-463 143,-463 143,-444 235,-444 235,-463"/>
<text text-anchor="middle" x="189" y="-451" font-family="Vera Sans, DejaVu Sans, Liberation Sans, Arial, Helvetica, sans" font-size="10.00">FusionLDigraph</text>
</a>
</g>
</g>
<!-- Digraph&#45;&gt;FusionLDigraph -->
<g id="edge18" class="edge">
<title>Digraph&#45;&gt;FusionLDigraph</title>
<path fill="none" stroke="black" stroke-width="0.5" d="M33.8,-535.88C43.12,-519.93 64.05,-488.22 91,-472.5 104.98,-464.34 121.83,-459.62 137.54,-456.9"/>
<polygon fill="black" stroke="black" stroke-width="0.5" points="138.15,-458.58 142.81,-456.06 137.6,-455.12 138.15,-458.58"/>
</g>
<!-- GraphBorder -->
<g id="node20" class="node">
<title>GraphBorder</title>
<g id="a_node20"><a xlink:href="../techDoc.html#digraphs.GraphBorder" xlink:title="Instantiates the partial digraph induced by its border," target="_top">
<polygon fill="white" stroke="black" stroke-width="0.5" points="228,-426 150,-426 150,-407 228,-407 228,-426"/>
<text text-anchor="middle" x="189" y="-414" font-family="Vera Sans, DejaVu Sans, Liberation Sans, Arial, Helvetica, sans" font-size="10.00">GraphBorder</text>
</a>
</g>
</g>
<!-- Digraph&#45;&gt;GraphBorder -->
<g id="edge19" class="edge">
<title>Digraph&#45;&gt;GraphBorder</title>
<path fill="none" stroke="black" stroke-width="0.5" d="M31.05,-535.7C37.25,-513.86 55.34,-461.16 91,-435.5 106.41,-424.41 126.61,-419.36 144.58,-417.2"/>
<polygon fill="black" stroke="black" stroke-width="0.5" points="144.8,-418.93 149.59,-416.66 144.43,-415.45 144.8,-418.93"/>
</g>
<!-- GraphInner -->
<g id="node21" class="node">
<title>GraphInner</title>
<g id="a_node21"><a xlink:href="../techDoc.html#digraphs.GraphInner" xlink:title="Instantiates the partial digraph induced by the complement of its border," target="_top">
<polygon fill="white" stroke="black" stroke-width="0.5" points="224.5,-389 153.5,-389 153.5,-370 224.5,-370 224.5,-389"/>
<text text-anchor="middle" x="189" y="-377" font-family="Vera Sans, DejaVu Sans, Liberation Sans, Arial, Helvetica, sans" font-size="10.00">GraphInner</text>
</a>
</g>
</g>
<!-- Digraph&#45;&gt;GraphInner -->
<g id="edge20" class="edge">
<title>Digraph&#45;&gt;GraphInner</title>
<path fill="none" stroke="black" stroke-width="0.5" d="M29.54,-535.76C32.94,-509.16 46.19,-434.82 91,-398.5 106.84,-385.66 128.88,-380.65 147.94,-378.96"/>
<polygon fill="black" stroke="black" stroke-width="0.5" points="148.37,-380.68 153.23,-378.57 148.12,-377.19 148.37,-380.68"/>
</g>
<!-- GridDigraph -->
<g id="node22" class="node">
<title>GridDigraph</title>
<g id="a_node22"><a xlink:href="../techDoc.html#digraphs.GridDigraph" xlink:title="Specialization of the general Digraph class for generating" target="_top">
<polygon fill="white" stroke="black" stroke-width="0.5" points="226.5,-352 151.5,-352 151.5,-333 226.5,-333 226.5,-352"/>
<text text-anchor="middle" x="189" y="-340" font-family="Vera Sans, DejaVu Sans, Liberation Sans, Arial, Helvetica, sans" font-size="10.00">GridDigraph</text>
</a>
</g>
</g>
<!-- Digraph&#45;&gt;GridDigraph -->
<g id="edge21" class="edge">
<title>Digraph&#45;&gt;GridDigraph</title>
<path fill="none" stroke="black" stroke-width="0.5" d="M28.62,-535.67C29.56,-504.77 36.9,-408.8 91,-361.5 106,-348.39 127.34,-343.26 146.19,-341.57"/>
<polygon fill="black" stroke="black" stroke-width="0.5" points="146.57,-343.3 151.43,-341.18 146.31,-339.81 146.57,-343.3"/>
</g>
<!-- IndeterminateDigraph -->
<g id="node23" class="node">
<title>IndeterminateDigraph</title>
<g id="a_node23"><a xlink:href="../techDoc.html#digraphs.IndeterminateDigraph" xlink:title="Parameters: order &gt; 0; valuationdomain =(Min,Max)." target="_top">
<polygon fill="white" stroke="black" stroke-width="0.5" points="251,-315 127,-315 127,-296 251,-296 251,-315"/>
<text text-anchor="middle" x="189" y="-303" font-family="Vera Sans, DejaVu Sans, Liberation Sans, Arial, Helvetica, sans" font-size="10.00">IndeterminateDigraph</text>
</a>
</g>
</g>
<!-- Digraph&#45;&gt;IndeterminateDigraph -->
<g id="edge22" class="edge">
<title>Digraph&#45;&gt;IndeterminateDigraph</title>
<path fill="none" stroke="black" stroke-width="0.5" d="M27.98,-535.76C26.7,-501.15 27.36,-383.12 91,-324.5 99.61,-316.57 110.53,-311.51 121.91,-308.37"/>
<polygon fill="black" stroke="black" stroke-width="0.5" points="122.39,-310.05 126.81,-307.13 121.53,-306.66 122.39,-310.05"/>
</g>
<!-- KneserDigraph -->
<g id="node24" class="node">
<title>KneserDigraph</title>
<g id="a_node24"><a xlink:href="../techDoc.html#digraphs.KneserDigraph" xlink:title="Specialization of the general Digraph class for generating" target="_top">
<polygon fill="white" stroke="black" stroke-width="0.5" points="233.5,-278 144.5,-278 144.5,-259 233.5,-259 233.5,-278"/>
<text text-anchor="middle" x="189" y="-266" font-family="Vera Sans, DejaVu Sans, Liberation Sans, Arial, Helvetica, sans" font-size="10.00">KneserDigraph</text>
</a>
</g>
</g>
<!-- Digraph&#45;&gt;KneserDigraph -->
<g id="edge23" class="edge">
<title>Digraph&#45;&gt;KneserDigraph</title>
<path fill="none" stroke="black" stroke-width="0.5" d="M29.47,-535.8C33.91,-493.19 53.79,-323.1 91,-287.5 103.7,-275.35 121.76,-269.88 138.86,-267.69"/>
<polygon fill="black" stroke="black" stroke-width="0.5" points="139.35,-269.4 144.13,-267.11 138.97,-265.92 139.35,-269.4"/>
</g>
<!-- PolarisedDigraph -->
<g id="node25" class="node">
<title>PolarisedDigraph</title>
<g id="a_node25"><a xlink:href="../techDoc.html#digraphs.PolarisedDigraph" xlink:title="Renders the polarised valuation of a Digraph class instance:" target="_top">
<polygon fill="white" stroke="black" stroke-width="0.5" points="239,-241 139,-241 139,-222 239,-222 239,-241"/>
<text text-anchor="middle" x="189" y="-229" font-family="Vera Sans, DejaVu Sans, Liberation Sans, Arial, Helvetica, sans" font-size="10.00">PolarisedDigraph</text>
</a>
</g>
</g>
<!-- Digraph&#45;&gt;PolarisedDigraph -->
<g id="edge24" class="edge">
<title>Digraph&#45;&gt;PolarisedDigraph</title>
<path fill="none" stroke="black" stroke-width="0.5" d="M29.16,-535.7C32.48,-489.26 48.94,-291.92 91,-250.5 102.31,-239.36 118.12,-233.79 133.7,-231.22"/>
<polygon fill="black" stroke="black" stroke-width="0.5" points="134.27,-232.9 138.97,-230.46 133.77,-229.44 134.27,-232.9"/>
</g>
<!-- RedhefferDigraph -->
<g id="node26" class="node">
<title>RedhefferDigraph</title>
<g id="a_node26"><a xlink:href="../techDoc.html#digraphs.RedhefferDigraph" xlink:title="Specialization of the general Digraph class for generating" target="_top">
<polygon fill="white" stroke="black" stroke-width="0.5" points="240,-204 138,-204 138,-185 240,-185 240,-204"/>
<text text-anchor="middle" x="189" y="-192" font-family="Vera Sans, DejaVu Sans, Liberation Sans, Arial, Helvetica, sans" font-size="10.00">RedhefferDigraph</text>
</a>
</g>
</g>
<!-- Digraph&#45;&gt;RedhefferDigraph -->
<g id="edge25" class="edge">
<title>Digraph&#45;&gt;RedhefferDigraph</title>
<path fill="none" stroke="black" stroke-width="0.5" d="M28.9,-535.83C31.18,-486.24 44,-260.85 91,-213.5 101.97,-202.45 117.35,-196.84 132.64,-194.21"/>
<polygon fill="black" stroke="black" stroke-width="0.5" points="133.13,-195.91 137.81,-193.43 132.61,-192.45 133.13,-195.91"/>
</g>
<!-- StrongComponentsCollapsedDigraph -->
<g id="node27" class="node">
<title>StrongComponentsCollapsedDigraph</title>
<g id="a_node27"><a xlink:href="../techDoc.html#digraphs.StrongComponentsCollapsedDigraph" xlink:title="Reduction of Digraph object to its strong components." target="_top">
<polygon fill="white" stroke="black" stroke-width="0.5" points="287,-167 91,-167 91,-148 287,-148 287,-167"/>
<text text-anchor="middle" x="189" y="-155" font-family="Vera Sans, DejaVu Sans, Liberation Sans, Arial, Helvetica, sans" font-size="10.00">StrongComponentsCollapsedDigraph</text>
</a>
</g>
</g>
<!-- Digraph&#45;&gt;StrongComponentsCollapsedDigraph -->
<g id="edge26" class="edge">
<title>Digraph&#45;&gt;StrongComponentsCollapsedDigraph</title>
<path fill="none" stroke="black" stroke-width="0.5" d="M28.71,-535.83C30.03,-483.01 39.07,-229.78 91,-176.5 93.36,-174.08 95.93,-171.92 98.66,-170"/>
<polygon fill="black" stroke="black" stroke-width="0.5" points="99.82,-171.33 103.09,-167.16 97.93,-168.38 99.82,-171.33"/>
</g>
<!-- SymmetricPartialDigraph -->
<g id="node28" class="node">
<title>SymmetricPartialDigraph</title>
<g id="a_node28"><a xlink:href="../techDoc.html#digraphs.SymmetricPartialDigraph" xlink:title="Renders the symmetric part of a Digraph instance." target="_top">
<polygon fill="white" stroke="black" stroke-width="0.5" points="258.5,-130 119.5,-130 119.5,-111 258.5,-111 258.5,-130"/>
<text text-anchor="middle" x="189" y="-118" font-family="Vera Sans, DejaVu Sans, Liberation Sans, Arial, Helvetica, sans" font-size="10.00">SymmetricPartialDigraph</text>
</a>
</g>
</g>
<!-- Digraph&#45;&gt;SymmetricPartialDigraph -->
<g id="edge27" class="edge">
<title>Digraph&#45;&gt;SymmetricPartialDigraph</title>
<path fill="none" stroke="black" stroke-width="0.5" d="M28.54,-535.98C28.99,-480.46 34.08,-198.79 91,-139.5 97.52,-132.71 105.7,-127.96 114.52,-124.68"/>
<polygon fill="black" stroke="black" stroke-width="0.5" points="115.31,-126.27 119.49,-123.01 114.19,-122.95 115.31,-126.27"/>
</g>
<!-- XMCDA2Digraph -->
<g id="node29" class="node">
<title>XMCDA2Digraph</title>
<g id="a_node29"><a xlink:href="../techDoc.html#digraphs.XMCDA2Digraph" xlink:title="Specialization of the general Digraph class for reading" target="_top">
<polygon fill="white" stroke="black" stroke-width="0.5" points="238,-93 140,-93 140,-74 238,-74 238,-93"/>
<text text-anchor="middle" x="189" y="-81" font-family="Vera Sans, DejaVu Sans, Liberation Sans, Arial, Helvetica, sans" font-size="10.00">XMCDA2Digraph</text>
</a>
</g>
</g>
<!-- Digraph&#45;&gt;XMCDA2Digraph -->
<g id="edge28" class="edge">
<title>Digraph&#45;&gt;XMCDA2Digraph</title>
<path fill="none" stroke="black" stroke-width="0.5" d="M28.41,-535.9C28.05,-477.25 29.14,-167.74 91,-102.5 102.29,-90.59 118.67,-84.93 134.78,-82.51"/>
<polygon fill="black" stroke="black" stroke-width="0.5" points="135.03,-84.24 139.76,-81.86 134.57,-80.77 135.03,-84.24"/>
</g>
<!-- XORDigraph -->
<g id="node30" class="node">
<title>XORDigraph</title>
<g id="a_node30"><a xlink:href="../techDoc.html#digraphs.XORDigraph" xlink:title="Instantiates the XOR digraph of two bipolar" target="_top">
<polygon fill="white" stroke="black" stroke-width="0.5" points="226.5,-56 151.5,-56 151.5,-37 226.5,-37 226.5,-56"/>
<text text-anchor="middle" x="189" y="-44" font-family="Vera Sans, DejaVu Sans, Liberation Sans, Arial, Helvetica, sans" font-size="10.00">XORDigraph</text>
</a>
</g>
</g>
<!-- Digraph&#45;&gt;XORDigraph -->
<g id="edge29" class="edge">
<title>Digraph&#45;&gt;XORDigraph</title>
<path fill="none" stroke="black" stroke-width="0.5" d="M28.29,-535.91C27.18,-474.5 24.16,-136.75 91,-65.5 104.84,-50.74 126.51,-45.55 145.86,-44.24"/>
<polygon fill="black" stroke="black" stroke-width="0.5" points="146.34,-45.97 151.25,-43.97 146.17,-42.47 146.34,-45.97"/>
</g>
<!-- kChoicesDigraph -->
<g id="node31" class="node">
<title>kChoicesDigraph</title>
<g id="a_node31"><a xlink:href="../techDoc.html#digraphs.kChoicesDigraph" xlink:title="Specialization of general Digraph class for instantiation" target="_top">
<polygon fill="white" stroke="black" stroke-width="0.5" points="238.5,-19 139.5,-19 139.5,0 238.5,0 238.5,-19"/>
<text text-anchor="middle" x="189" y="-7" font-family="Vera Sans, DejaVu Sans, Liberation Sans, Arial, Helvetica, sans" font-size="10.00">kChoicesDigraph</text>
</a>
</g>
</g>
<!-- Digraph&#45;&gt;kChoicesDigraph -->
<g id="edge30" class="edge">
<title>Digraph&#45;&gt;kChoicesDigraph</title>
<path fill="none" stroke="black" stroke-width="0.5" d="M28.98,-535.99C32.5,-468.83 54.92,-67.32 91,-28.5 102.12,-16.54 118.37,-10.85 134.41,-8.41"/>
<polygon fill="black" stroke="black" stroke-width="0.5" points="134.64,-10.15 139.37,-7.76 134.19,-6.68 134.64,-10.15"/>
</g>
</g>
</svg>
