<?xml version="1.0" encoding="UTF-8" standalone="no"?>
<!DOCTYPE svg PUBLIC "-//W3C//DTD SVG 1.1//EN"
 "http://www.w3.org/Graphics/SVG/1.1/DTD/svg11.dtd">
<!-- Generated by graphviz version 2.43.0 (0)
 -->
<!-- Title: inheritance701037580f Pages: 1 -->
<svg width="692pt" height="177pt"
 viewBox="0.00 0.00 692.00 177.00" xmlns="http://www.w3.org/2000/svg" xmlns:xlink="http://www.w3.org/1999/xlink">
<g id="graph0" class="graph" transform="scale(1 1) rotate(0) translate(4 173)">
<title>inheritance701037580f</title>
<!-- BipolarApprovalVotingProfile -->
<g id="node1" class="node">
<title>BipolarApprovalVotingProfile</title>
<g id="a_node1"><a xlink:href="../techDoc.html#votingProfiles.BipolarApprovalVotingProfile" xlink:title="A specialised class for approval&#45;disapproval voting profiles." target="_top">
<polygon fill="white" stroke="black" stroke-width="0.5" points="445.5,-112 289.5,-112 289.5,-93 445.5,-93 445.5,-112"/>
<text text-anchor="middle" x="367.5" y="-100" font-family="Vera Sans, DejaVu Sans, Liberation Sans, Arial, Helvetica, sans" font-size="10.00">BipolarApprovalVotingProfile</text>
</a>
</g>
</g>
<!-- RandomBipolarApprovalVotingProfile -->
<g id="node8" class="node">
<title>RandomBipolarApprovalVotingProfile</title>
<g id="a_node8"><a xlink:href="../techDoc.html#votingProfiles.RandomBipolarApprovalVotingProfile" xlink:title="A specialized class for generating random approval&#45;disapproval voting profiles" target="_top">
<polygon fill="white" stroke="black" stroke-width="0.5" points="684,-89 487,-89 487,-70 684,-70 684,-89"/>
<text text-anchor="middle" x="585.5" y="-77" font-family="Vera Sans, DejaVu Sans, Liberation Sans, Arial, Helvetica, sans" font-size="10.00">RandomBipolarApprovalVotingProfile</text>
</a>
</g>
</g>
<!-- BipolarApprovalVotingProfile&#45;&gt;RandomBipolarApprovalVotingProfile -->
<g id="edge7" class="edge">
<title>BipolarApprovalVotingProfile&#45;&gt;RandomBipolarApprovalVotingProfile</title>
<path fill="none" stroke="black" stroke-width="0.5" d="M445.57,-94.29C459.93,-92.76 475.1,-91.15 489.92,-89.57"/>
<polygon fill="black" stroke="black" stroke-width="0.5" points="490.15,-91.31 494.94,-89.04 489.78,-87.83 490.15,-91.31"/>
</g>
<!-- VotingProfile -->
<g id="node2" class="node">
<title>VotingProfile</title>
<g id="a_node2"><a xlink:href="../techDoc.html#votingProfiles.VotingProfile" xlink:title="A generic class for storing voting profiles." target="_top">
<polygon fill="white" stroke="black" stroke-width="0.5" points="78,-93 0,-93 0,-74 78,-74 78,-93"/>
<text text-anchor="middle" x="39" y="-81" font-family="Vera Sans, DejaVu Sans, Liberation Sans, Arial, Helvetica, sans" font-size="10.00">VotingProfile</text>
</a>
</g>
</g>
<!-- VotingProfile&#45;&gt;BipolarApprovalVotingProfile -->
<g id="edge1" class="edge">
<title>VotingProfile&#45;&gt;BipolarApprovalVotingProfile</title>
<path fill="none" stroke="black" stroke-width="0.5" d="M69.91,-93C83.26,-96.77 99.26,-100.64 114,-102.5 170.55,-109.64 234.8,-109.53 284.34,-107.69"/>
<polygon fill="black" stroke="black" stroke-width="0.5" points="284.46,-109.44 289.39,-107.49 284.32,-105.94 284.46,-109.44"/>
</g>
<!-- MajorityMarginsDigraph -->
<g id="node4" class="node">
<title>MajorityMarginsDigraph</title>
<g id="a_node4"><a xlink:href="../techDoc.html#votingProfiles.MajorityMarginsDigraph" xlink:title="Specialization of the general Digraph class for generating" target="_top">
<polygon fill="white" stroke="black" stroke-width="0.5" points="248,-169 114,-169 114,-150 248,-150 248,-169"/>
<text text-anchor="middle" x="181" y="-157" font-family="Vera Sans, DejaVu Sans, Liberation Sans, Arial, Helvetica, sans" font-size="10.00">MajorityMarginsDigraph</text>
</a>
</g>
</g>
<!-- VotingProfile&#45;&gt;MajorityMarginsDigraph -->
<g id="edge5" class="edge">
<title>VotingProfile&#45;&gt;MajorityMarginsDigraph</title>
<path fill="none" stroke="black" stroke-width="0.5" d="M51.93,-93.39C66.05,-104.72 90.61,-123.3 114,-135.5 123.29,-140.34 133.78,-144.64 143.62,-148.21"/>
<polygon fill="black" stroke="black" stroke-width="0.5" points="143.09,-149.88 148.39,-149.91 144.26,-146.58 143.09,-149.88"/>
</g>
<!-- LinearVotingProfile -->
<g id="node6" class="node">
<title>LinearVotingProfile</title>
<g id="a_node6"><a xlink:href="../techDoc.html#votingProfiles.LinearVotingProfile" xlink:title="A specialised class for linear voting profiles" target="_top">
<polygon fill="white" stroke="black" stroke-width="0.5" points="235,-56 127,-56 127,-37 235,-37 235,-56"/>
<text text-anchor="middle" x="181" y="-44" font-family="Vera Sans, DejaVu Sans, Liberation Sans, Arial, Helvetica, sans" font-size="10.00">LinearVotingProfile</text>
</a>
</g>
</g>
<!-- VotingProfile&#45;&gt;LinearVotingProfile -->
<g id="edge3" class="edge">
<title>VotingProfile&#45;&gt;LinearVotingProfile</title>
<path fill="none" stroke="black" stroke-width="0.5" d="M76.05,-73.97C95.17,-68.92 118.75,-62.69 138.62,-57.44"/>
<polygon fill="black" stroke="black" stroke-width="0.5" points="139.2,-59.09 143.58,-56.12 138.3,-55.71 139.2,-59.09"/>
</g>
<!-- PrerankedVotingProfile -->
<g id="node7" class="node">
<title>PrerankedVotingProfile</title>
<g id="a_node7"><a xlink:href="../techDoc.html#votingProfiles.PrerankedVotingProfile" xlink:title="A specialised class for preranked voting profiles" target="_top">
<polygon fill="white" stroke="black" stroke-width="0.5" points="244.5,-19 117.5,-19 117.5,0 244.5,0 244.5,-19"/>
<text text-anchor="middle" x="181" y="-7" font-family="Vera Sans, DejaVu Sans, Liberation Sans, Arial, Helvetica, sans" font-size="10.00">PrerankedVotingProfile</text>
</a>
</g>
</g>
<!-- VotingProfile&#45;&gt;PrerankedVotingProfile -->
<g id="edge6" class="edge">
<title>VotingProfile&#45;&gt;PrerankedVotingProfile</title>
<path fill="none" stroke="black" stroke-width="0.5" d="M50.17,-73.75C63.7,-61.3 88.84,-39.87 114,-27.5 119.33,-24.88 125.09,-22.6 130.92,-20.62"/>
<polygon fill="black" stroke="black" stroke-width="0.5" points="131.61,-22.24 135.82,-19.03 130.53,-18.91 131.61,-22.24"/>
</g>
<!-- RandomVotingProfile -->
<g id="node11" class="node">
<title>RandomVotingProfile</title>
<g id="a_node11"><a xlink:href="../techDoc.html#votingProfiles.RandomVotingProfile" xlink:title="A subclass for generating random voting profiles." target="_top">
<polygon fill="white" stroke="black" stroke-width="0.5" points="240.5,-93 121.5,-93 121.5,-74 240.5,-74 240.5,-93"/>
<text text-anchor="middle" x="181" y="-81" font-family="Vera Sans, DejaVu Sans, Liberation Sans, Arial, Helvetica, sans" font-size="10.00">RandomVotingProfile</text>
</a>
</g>
</g>
<!-- VotingProfile&#45;&gt;RandomVotingProfile -->
<g id="edge11" class="edge">
<title>VotingProfile&#45;&gt;RandomVotingProfile</title>
<path fill="none" stroke="black" stroke-width="0.5" d="M78.26,-83.5C89.98,-83.5 103.21,-83.5 116.15,-83.5"/>
<polygon fill="black" stroke="black" stroke-width="0.5" points="116.29,-85.25 121.29,-83.5 116.29,-81.75 116.29,-85.25"/>
</g>
<!-- CondorcetDigraph -->
<g id="node3" class="node">
<title>CondorcetDigraph</title>
<g id="a_node3"><a xlink:href="../techDoc.html#votingProfiles.CondorcetDigraph" xlink:title="Dummy obsolete class name for MajorityMarginsDigraph class." target="_top">
<polygon fill="white" stroke="black" stroke-width="0.5" points="419.5,-169 315.5,-169 315.5,-150 419.5,-150 419.5,-169"/>
<text text-anchor="middle" x="367.5" y="-157" font-family="Vera Sans, DejaVu Sans, Liberation Sans, Arial, Helvetica, sans" font-size="10.00">CondorcetDigraph</text>
</a>
</g>
</g>
<!-- MajorityMarginsDigraph&#45;&gt;CondorcetDigraph -->
<g id="edge2" class="edge">
<title>MajorityMarginsDigraph&#45;&gt;CondorcetDigraph</title>
<path fill="none" stroke="black" stroke-width="0.5" d="M248.09,-159.5C268.4,-159.5 290.56,-159.5 310.15,-159.5"/>
<polygon fill="black" stroke="black" stroke-width="0.5" points="310.34,-161.25 315.34,-159.5 310.34,-157.75 310.34,-161.25"/>
</g>
<!-- Digraph -->
<g id="node5" class="node">
<title>Digraph</title>
<g id="a_node5"><a xlink:href="../techDoc.html#digraphs.Digraph" xlink:title="Genuine root class of all Digraph3 modules." target="_top">
<polygon fill="white" stroke="black" stroke-width="0.5" points="66.5,-169 11.5,-169 11.5,-150 66.5,-150 66.5,-169"/>
<text text-anchor="middle" x="39" y="-157" font-family="Vera Sans, DejaVu Sans, Liberation Sans, Arial, Helvetica, sans" font-size="10.00">Digraph</text>
</a>
</g>
</g>
<!-- Digraph&#45;&gt;MajorityMarginsDigraph -->
<g id="edge4" class="edge">
<title>Digraph&#45;&gt;MajorityMarginsDigraph</title>
<path fill="none" stroke="black" stroke-width="0.5" d="M66.66,-159.5C78.78,-159.5 93.75,-159.5 108.8,-159.5"/>
<polygon fill="black" stroke="black" stroke-width="0.5" points="108.9,-161.25 113.9,-159.5 108.9,-157.75 108.9,-161.25"/>
</g>
<!-- RandomLinearVotingProfile -->
<g id="node9" class="node">
<title>RandomLinearVotingProfile</title>
<g id="a_node9"><a xlink:href="../techDoc.html#votingProfiles.RandomLinearVotingProfile" xlink:title="A specialized class for generating random liwear voting profiles." target="_top">
<polygon fill="white" stroke="black" stroke-width="0.5" points="442,-66 293,-66 293,-47 442,-47 442,-66"/>
<text text-anchor="middle" x="367.5" y="-54" font-family="Vera Sans, DejaVu Sans, Liberation Sans, Arial, Helvetica, sans" font-size="10.00">RandomLinearVotingProfile</text>
</a>
</g>
</g>
<!-- LinearVotingProfile&#45;&gt;RandomLinearVotingProfile -->
<g id="edge9" class="edge">
<title>LinearVotingProfile&#45;&gt;RandomLinearVotingProfile</title>
<path fill="none" stroke="black" stroke-width="0.5" d="M235.37,-49.39C251.57,-50.27 269.73,-51.26 287.25,-52.2"/>
<polygon fill="black" stroke="black" stroke-width="0.5" points="287.58,-53.98 292.67,-52.5 287.77,-50.48 287.58,-53.98"/>
</g>
<!-- RandomPrerankedVotingProfile -->
<g id="node10" class="node">
<title>RandomPrerankedVotingProfile</title>
<g id="a_node10"><a xlink:href="../techDoc.html#votingProfiles.RandomPrerankedVotingProfile" xlink:title="A specialized class for generating random preranked voting profiles." target="_top">
<polygon fill="white" stroke="black" stroke-width="0.5" points="451,-19 284,-19 284,0 451,0 451,-19"/>
<text text-anchor="middle" x="367.5" y="-7" font-family="Vera Sans, DejaVu Sans, Liberation Sans, Arial, Helvetica, sans" font-size="10.00">RandomPrerankedVotingProfile</text>
</a>
</g>
</g>
<!-- PrerankedVotingProfile&#45;&gt;RandomPrerankedVotingProfile -->
<g id="edge10" class="edge">
<title>PrerankedVotingProfile&#45;&gt;RandomPrerankedVotingProfile</title>
<path fill="none" stroke="black" stroke-width="0.5" d="M244.72,-9.5C255.59,-9.5 267.07,-9.5 278.47,-9.5"/>
<polygon fill="black" stroke="black" stroke-width="0.5" points="278.7,-11.25 283.7,-9.5 278.7,-7.75 278.7,-11.25"/>
</g>
<!-- RandomLinearVotingProfile&#45;&gt;RandomBipolarApprovalVotingProfile -->
<g id="edge8" class="edge">
<title>RandomLinearVotingProfile&#45;&gt;RandomBipolarApprovalVotingProfile</title>
<path fill="none" stroke="black" stroke-width="0.5" d="M442.23,-64.35C457.49,-65.98 473.77,-67.71 489.67,-69.4"/>
<polygon fill="black" stroke="black" stroke-width="0.5" points="489.89,-71.19 495.04,-69.97 490.26,-67.7 489.89,-71.19"/>
</g>
</g>
</svg>
