<?xml version="1.0" encoding="UTF-8" standalone="no"?>
<!DOCTYPE svg PUBLIC "-//W3C//DTD SVG 1.1//EN"
 "http://www.w3.org/Graphics/SVG/1.1/DTD/svg11.dtd">
<!-- Generated by graphviz version 2.43.0 (0)
 -->
<!-- Title: inheritance4e9b5e4f03 Pages: 1 -->
<svg width="656pt" height="471pt"
 viewBox="0.00 0.00 656.00 471.00" xmlns="http://www.w3.org/2000/svg" xmlns:xlink="http://www.w3.org/1999/xlink">
<g id="graph0" class="graph" transform="scale(1 1) rotate(0) translate(4 467)">
<title>inheritance4e9b5e4f03</title>
<!-- BipolarOutrankingDigraph -->
<g id="node1" class="node">
<title>BipolarOutrankingDigraph</title>
<g id="a_node1"><a xlink:href="../techDoc.html#outrankingDigraphs.BipolarOutrankingDigraph" xlink:title="Specialization of the abstract OutrankingDigraph root class for generating" target="_top">
<polygon fill="white" stroke="black" stroke-width="0.5" points="143,-148 0,-148 0,-129 143,-129 143,-148"/>
<text text-anchor="middle" x="71.5" y="-136" font-family="Vera Sans, DejaVu Sans, Liberation Sans, Arial, Helvetica, sans" font-size="10.00">BipolarOutrankingDigraph</text>
</a>
</g>
</g>
<!-- CoalitionsOutrankingsFusionDigraph -->
<g id="node2" class="node">
<title>CoalitionsOutrankingsFusionDigraph</title>
<g id="a_node2"><a xlink:href="../techDoc.html#outrankingDigraphs.CoalitionsOutrankingsFusionDigraph" xlink:title="With a list of criteria coalitions, a fusion digraph is constructed form the fusion of the corresponding marginal coalitions restricted bipolar outranking digraphs." target="_top">
<polygon fill="white" stroke="black" stroke-width="0.5" points="392.5,-278 198.5,-278 198.5,-259 392.5,-259 392.5,-278"/>
<text text-anchor="middle" x="295.5" y="-266" font-family="Vera Sans, DejaVu Sans, Liberation Sans, Arial, Helvetica, sans" font-size="10.00">CoalitionsOutrankingsFusionDigraph</text>
</a>
</g>
</g>
<!-- BipolarOutrankingDigraph&#45;&gt;CoalitionsOutrankingsFusionDigraph -->
<g id="edge1" class="edge">
<title>BipolarOutrankingDigraph&#45;&gt;CoalitionsOutrankingsFusionDigraph</title>
<path fill="none" stroke="black" stroke-width="0.5" d="M78.56,-148.21C92.94,-170.33 131.5,-224.49 179,-249.5 184.8,-252.56 190.98,-255.14 197.34,-257.33"/>
<polygon fill="black" stroke="black" stroke-width="0.5" points="196.94,-259.04 202.24,-258.93 198.03,-255.71 196.94,-259.04"/>
</g>
<!-- ConfidentBipolarOutrankingDigraph -->
<g id="node3" class="node">
<title>ConfidentBipolarOutrankingDigraph</title>
<g id="a_node3"><a xlink:href="../techDoc.html#outrankingDigraphs.ConfidentBipolarOutrankingDigraph" xlink:title="Confident bipolar outranking digraph based on multiple criteria of" target="_top">
<polygon fill="white" stroke="black" stroke-width="0.5" points="390.5,-241 200.5,-241 200.5,-222 390.5,-222 390.5,-241"/>
<text text-anchor="middle" x="295.5" y="-229" font-family="Vera Sans, DejaVu Sans, Liberation Sans, Arial, Helvetica, sans" font-size="10.00">ConfidentBipolarOutrankingDigraph</text>
</a>
</g>
</g>
<!-- BipolarOutrankingDigraph&#45;&gt;ConfidentBipolarOutrankingDigraph -->
<g id="edge2" class="edge">
<title>BipolarOutrankingDigraph&#45;&gt;ConfidentBipolarOutrankingDigraph</title>
<path fill="none" stroke="black" stroke-width="0.5" d="M82.75,-148.02C100.72,-164.14 139.77,-196.6 179,-212.5 187.1,-215.79 195.75,-218.5 204.52,-220.75"/>
<polygon fill="black" stroke="black" stroke-width="0.5" points="204.13,-222.46 209.4,-221.95 204.97,-219.06 204.13,-222.46"/>
</g>
<!-- EquiSignificanceMajorityOutrankingDigraph -->
<g id="node7" class="node">
<title>EquiSignificanceMajorityOutrankingDigraph</title>
<g id="a_node7"><a xlink:href="../techDoc.html#outrankingDigraphs.EquiSignificanceMajorityOutrankingDigraph" xlink:title="Parameters:" target="_top">
<polygon fill="white" stroke="black" stroke-width="0.5" points="410,-204 181,-204 181,-185 410,-185 410,-204"/>
<text text-anchor="middle" x="295.5" y="-192" font-family="Vera Sans, DejaVu Sans, Liberation Sans, Arial, Helvetica, sans" font-size="10.00">EquiSignificanceMajorityOutrankingDigraph</text>
</a>
</g>
</g>
<!-- BipolarOutrankingDigraph&#45;&gt;EquiSignificanceMajorityOutrankingDigraph -->
<g id="edge4" class="edge">
<title>BipolarOutrankingDigraph&#45;&gt;EquiSignificanceMajorityOutrankingDigraph</title>
<path fill="none" stroke="black" stroke-width="0.5" d="M96.25,-148.07C117.6,-156.35 149.97,-168.13 179,-175.5 191.98,-178.8 205.93,-181.66 219.5,-184.08"/>
<polygon fill="black" stroke="black" stroke-width="0.5" points="219.25,-185.82 224.47,-184.96 219.85,-182.37 219.25,-185.82"/>
</g>
<!-- OldRobustOutrankingDigraph -->
<g id="node9" class="node">
<title>OldRobustOutrankingDigraph</title>
<g id="a_node9"><a xlink:href="../techDoc.html#outrankingDigraphs.OldRobustOutrankingDigraph" xlink:title="Parameters:" target="_top">
<polygon fill="white" stroke="black" stroke-width="0.5" points="375,-167 216,-167 216,-148 375,-148 375,-167"/>
<text text-anchor="middle" x="295.5" y="-155" font-family="Vera Sans, DejaVu Sans, Liberation Sans, Arial, Helvetica, sans" font-size="10.00">OldRobustOutrankingDigraph</text>
</a>
</g>
</g>
<!-- BipolarOutrankingDigraph&#45;&gt;OldRobustOutrankingDigraph -->
<g id="edge6" class="edge">
<title>BipolarOutrankingDigraph&#45;&gt;OldRobustOutrankingDigraph</title>
<path fill="none" stroke="black" stroke-width="0.5" d="M143.05,-144.54C164.53,-146.38 188.35,-148.42 210.63,-150.32"/>
<polygon fill="black" stroke="black" stroke-width="0.5" points="210.52,-152.07 215.65,-150.75 210.82,-148.58 210.52,-152.07"/>
</g>
<!-- RandomBipolarOutrankingDigraph -->
<g id="node14" class="node">
<title>RandomBipolarOutrankingDigraph</title>
<g id="a_node14"><a xlink:href="../techDoc.html#outrankingDigraphs.RandomBipolarOutrankingDigraph" xlink:title="Specialization of the BipolarOutrankingDigraph class for generating temporary Digraphs from RandomPerformanceTableau instances." target="_top">
<polygon fill="white" stroke="black" stroke-width="0.5" points="387.5,-130 203.5,-130 203.5,-111 387.5,-111 387.5,-130"/>
<text text-anchor="middle" x="295.5" y="-118" font-family="Vera Sans, DejaVu Sans, Liberation Sans, Arial, Helvetica, sans" font-size="10.00">RandomBipolarOutrankingDigraph</text>
</a>
</g>
</g>
<!-- BipolarOutrankingDigraph&#45;&gt;RandomBipolarOutrankingDigraph -->
<g id="edge13" class="edge">
<title>BipolarOutrankingDigraph&#45;&gt;RandomBipolarOutrankingDigraph</title>
<path fill="none" stroke="black" stroke-width="0.5" d="M143.05,-132.78C160.57,-131.36 179.65,-129.81 198.18,-128.31"/>
<polygon fill="black" stroke="black" stroke-width="0.5" points="198.55,-130.04 203.39,-127.89 198.26,-126.55 198.55,-130.04"/>
</g>
<!-- RobustOutrankingDigraph -->
<g id="node16" class="node">
<title>RobustOutrankingDigraph</title>
<g id="a_node16"><a xlink:href="../techDoc.html#outrankingDigraphs.RobustOutrankingDigraph" xlink:title="*Parameters*:" target="_top">
<polygon fill="white" stroke="black" stroke-width="0.5" points="367,-93 224,-93 224,-74 367,-74 367,-93"/>
<text text-anchor="middle" x="295.5" y="-81" font-family="Vera Sans, DejaVu Sans, Liberation Sans, Arial, Helvetica, sans" font-size="10.00">RobustOutrankingDigraph</text>
</a>
</g>
</g>
<!-- BipolarOutrankingDigraph&#45;&gt;RobustOutrankingDigraph -->
<g id="edge15" class="edge">
<title>BipolarOutrankingDigraph&#45;&gt;RobustOutrankingDigraph</title>
<path fill="none" stroke="black" stroke-width="0.5" d="M96.24,-128.87C117.58,-120.55 149.94,-108.75 179,-101.5 191.69,-98.33 205.31,-95.62 218.59,-93.33"/>
<polygon fill="black" stroke="black" stroke-width="0.5" points="219.22,-95 223.85,-92.45 218.63,-91.55 219.22,-95"/>
</g>
<!-- StochasticBipolarOutrankingDigraph -->
<g id="node17" class="node">
<title>StochasticBipolarOutrankingDigraph</title>
<g id="a_node17"><a xlink:href="../techDoc.html#outrankingDigraphs.StochasticBipolarOutrankingDigraph" xlink:title="Stochastic bipolar outranking digraph based on multiple criteria of uncertain significance." target="_top">
<polygon fill="white" stroke="black" stroke-width="0.5" points="392.5,-56 198.5,-56 198.5,-37 392.5,-37 392.5,-56"/>
<text text-anchor="middle" x="295.5" y="-44" font-family="Vera Sans, DejaVu Sans, Liberation Sans, Arial, Helvetica, sans" font-size="10.00">StochasticBipolarOutrankingDigraph</text>
</a>
</g>
</g>
<!-- BipolarOutrankingDigraph&#45;&gt;StochasticBipolarOutrankingDigraph -->
<g id="edge16" class="edge">
<title>BipolarOutrankingDigraph&#45;&gt;StochasticBipolarOutrankingDigraph</title>
<path fill="none" stroke="black" stroke-width="0.5" d="M82.73,-128.94C100.69,-112.77 139.71,-80.24 179,-64.5 185.96,-61.71 193.33,-59.35 200.83,-57.36"/>
<polygon fill="black" stroke="black" stroke-width="0.5" points="201.62,-58.96 206.04,-56.03 200.76,-55.57 201.62,-58.96"/>
</g>
<!-- SymmetricAverageFusionOutrankingDigraph -->
<g id="node18" class="node">
<title>SymmetricAverageFusionOutrankingDigraph</title>
<g id="a_node18"><a xlink:href="../techDoc.html#outrankingDigraphs.SymmetricAverageFusionOutrankingDigraph" xlink:title="in development !" target="_top">
<polygon fill="white" stroke="black" stroke-width="0.5" points="412,-19 179,-19 179,0 412,0 412,-19"/>
<text text-anchor="middle" x="295.5" y="-7" font-family="Vera Sans, DejaVu Sans, Liberation Sans, Arial, Helvetica, sans" font-size="10.00">SymmetricAverageFusionOutrankingDigraph</text>
</a>
</g>
</g>
<!-- BipolarOutrankingDigraph&#45;&gt;SymmetricAverageFusionOutrankingDigraph -->
<g id="edge17" class="edge">
<title>BipolarOutrankingDigraph&#45;&gt;SymmetricAverageFusionOutrankingDigraph</title>
<path fill="none" stroke="black" stroke-width="0.5" d="M78.54,-128.77C92.89,-106.59 131.39,-52.3 179,-27.5 183.96,-24.92 189.19,-22.68 194.58,-20.74"/>
<polygon fill="black" stroke="black" stroke-width="0.5" points="195.39,-22.32 199.56,-19.05 194.27,-19 195.39,-22.32"/>
</g>
<!-- UnOpposedBipolarOutrankingDigraph -->
<g id="node19" class="node">
<title>UnOpposedBipolarOutrankingDigraph</title>
<g id="a_node19"><a xlink:href="../techDoc.html#outrankingDigraphs.UnOpposedBipolarOutrankingDigraph" xlink:title="When operating an *o&#45;average* fusion of the mariginal outranking digraphs restricted to the coalition of criteria supporting each decision objective, we obtain **unopposed** outranking situtations, namely *validated* by one or more decision objectives without being *invalidated* by any other decision objective. " target="_top">
<polygon fill="white" stroke="black" stroke-width="0.5" points="648,-278 448,-278 448,-259 648,-259 648,-278"/>
<text text-anchor="middle" x="548" y="-266" font-family="Vera Sans, DejaVu Sans, Liberation Sans, Arial, Helvetica, sans" font-size="10.00">UnOpposedBipolarOutrankingDigraph</text>
</a>
</g>
</g>
<!-- CoalitionsOutrankingsFusionDigraph&#45;&gt;UnOpposedBipolarOutrankingDigraph -->
<g id="edge18" class="edge">
<title>CoalitionsOutrankingsFusionDigraph&#45;&gt;UnOpposedBipolarOutrankingDigraph</title>
<path fill="none" stroke="black" stroke-width="0.5" d="M392.63,-268.5C409.01,-268.5 426.1,-268.5 442.68,-268.5"/>
<polygon fill="black" stroke="black" stroke-width="0.5" points="442.8,-270.25 447.8,-268.5 442.8,-266.75 442.8,-270.25"/>
</g>
<!-- Digraph -->
<g id="node4" class="node">
<title>Digraph</title>
<g id="a_node4"><a xlink:href="../techDoc.html#digraphs.Digraph" xlink:title="Genuine root class of all Digraph3 modules." target="_top">
<polygon fill="white" stroke="black" stroke-width="0.5" points="99,-334 44,-334 44,-315 99,-315 99,-334"/>
<text text-anchor="middle" x="71.5" y="-322" font-family="Vera Sans, DejaVu Sans, Liberation Sans, Arial, Helvetica, sans" font-size="10.00">Digraph</text>
</a>
</g>
</g>
<!-- OutrankingDigraph -->
<g id="node6" class="node">
<title>OutrankingDigraph</title>
<g id="a_node6"><a xlink:href="../techDoc.html#outrankingDigraphs.OutrankingDigraph" xlink:title="Abstract root class for **outranking digraphs** inheritating methods both from the generic :py:class:`digraphs.Digraph`" target="_top">
<polygon fill="white" stroke="black" stroke-width="0.5" points="350,-380 241,-380 241,-361 350,-361 350,-380"/>
<text text-anchor="middle" x="295.5" y="-368" font-family="Vera Sans, DejaVu Sans, Liberation Sans, Arial, Helvetica, sans" font-size="10.00">OutrankingDigraph</text>
</a>
</g>
</g>
<!-- Digraph&#45;&gt;OutrankingDigraph -->
<g id="edge8" class="edge">
<title>Digraph&#45;&gt;OutrankingDigraph</title>
<path fill="none" stroke="black" stroke-width="0.5" d="M99.28,-330.05C134.81,-337.41 198.28,-350.56 243.19,-359.87"/>
<polygon fill="black" stroke="black" stroke-width="0.5" points="243.05,-361.63 248.3,-360.93 243.76,-358.2 243.05,-361.63"/>
</g>
<!-- PolarisedDigraph -->
<g id="node12" class="node">
<title>PolarisedDigraph</title>
<g id="a_node12"><a xlink:href="../techDoc.html#digraphs.PolarisedDigraph" xlink:title="Renders the polarised valuation of a Digraph class instance:" target="_top">
<polygon fill="white" stroke="black" stroke-width="0.5" points="345.5,-325 245.5,-325 245.5,-306 345.5,-306 345.5,-325"/>
<text text-anchor="middle" x="295.5" y="-313" font-family="Vera Sans, DejaVu Sans, Liberation Sans, Arial, Helvetica, sans" font-size="10.00">PolarisedDigraph</text>
</a>
</g>
</g>
<!-- Digraph&#45;&gt;PolarisedDigraph -->
<g id="edge10" class="edge">
<title>Digraph&#45;&gt;PolarisedDigraph</title>
<path fill="none" stroke="black" stroke-width="0.5" d="M99.28,-323.41C134.03,-322.01 195.52,-319.51 240.22,-317.7"/>
<polygon fill="black" stroke="black" stroke-width="0.5" points="240.38,-319.45 245.31,-317.49 240.24,-315.95 240.38,-319.45"/>
</g>
<!-- DissimilarityOutrankingDigraph -->
<g id="node5" class="node">
<title>DissimilarityOutrankingDigraph</title>
<g id="a_node5"><a xlink:href="../techDoc.html#outrankingDigraphs.DissimilarityOutrankingDigraph" xlink:title="Parameters:" target="_top">
<polygon fill="white" stroke="black" stroke-width="0.5" points="633.5,-463 462.5,-463 462.5,-444 633.5,-444 633.5,-463"/>
<text text-anchor="middle" x="548" y="-451" font-family="Vera Sans, DejaVu Sans, Liberation Sans, Arial, Helvetica, sans" font-size="10.00">DissimilarityOutrankingDigraph</text>
</a>
</g>
</g>
<!-- OutrankingDigraph&#45;&gt;DissimilarityOutrankingDigraph -->
<g id="edge3" class="edge">
<title>OutrankingDigraph&#45;&gt;DissimilarityOutrankingDigraph</title>
<path fill="none" stroke="black" stroke-width="0.5" d="M315.12,-380.12C343.2,-394.25 398.4,-420.56 448,-435.5 457.49,-438.36 467.63,-440.83 477.67,-442.95"/>
<polygon fill="black" stroke="black" stroke-width="0.5" points="477.34,-444.67 482.59,-443.97 478.05,-441.24 477.34,-444.67"/>
</g>
<!-- MultiCriteriaDissimilarityDigraph -->
<g id="node8" class="node">
<title>MultiCriteriaDissimilarityDigraph</title>
<g id="a_node8"><a xlink:href="../techDoc.html#outrankingDigraphs.MultiCriteriaDissimilarityDigraph" xlink:title="Parameters:" target="_top">
<polygon fill="white" stroke="black" stroke-width="0.5" points="637,-426 459,-426 459,-407 637,-407 637,-426"/>
<text text-anchor="middle" x="548" y="-414" font-family="Vera Sans, DejaVu Sans, Liberation Sans, Arial, Helvetica, sans" font-size="10.00">MultiCriteriaDissimilarityDigraph</text>
</a>
</g>
</g>
<!-- OutrankingDigraph&#45;&gt;MultiCriteriaDissimilarityDigraph -->
<g id="edge5" class="edge">
<title>OutrankingDigraph&#45;&gt;MultiCriteriaDissimilarityDigraph</title>
<path fill="none" stroke="black" stroke-width="0.5" d="M348.4,-380.03C389.72,-387.62 447.47,-398.22 490.05,-406.04"/>
<polygon fill="black" stroke="black" stroke-width="0.5" points="489.93,-407.8 495.16,-406.98 490.56,-404.36 489.93,-407.8"/>
</g>
<!-- OrdinalOutrankingDigraph -->
<g id="node10" class="node">
<title>OrdinalOutrankingDigraph</title>
<g id="a_node10"><a xlink:href="../techDoc.html#outrankingDigraphs.OrdinalOutrankingDigraph" xlink:title="Parameters:" target="_top">
<polygon fill="white" stroke="black" stroke-width="0.5" points="620,-389 476,-389 476,-370 620,-370 620,-389"/>
<text text-anchor="middle" x="548" y="-377" font-family="Vera Sans, DejaVu Sans, Liberation Sans, Arial, Helvetica, sans" font-size="10.00">OrdinalOutrankingDigraph</text>
</a>
</g>
</g>
<!-- OutrankingDigraph&#45;&gt;OrdinalOutrankingDigraph -->
<g id="edge7" class="edge">
<title>OutrankingDigraph&#45;&gt;OrdinalOutrankingDigraph</title>
<path fill="none" stroke="black" stroke-width="0.5" d="M350.24,-372.43C385.32,-373.69 431.66,-375.36 470.56,-376.75"/>
<polygon fill="black" stroke="black" stroke-width="0.5" points="470.69,-378.51 475.75,-376.94 470.82,-375.01 470.69,-378.51"/>
</g>
<!-- PolarisedOutrankingDigraph -->
<g id="node13" class="node">
<title>PolarisedOutrankingDigraph</title>
<g id="a_node13"><a xlink:href="../techDoc.html#outrankingDigraphs.PolarisedOutrankingDigraph" xlink:title="Specilised :py:class:`digraphs.PolarisedDigraph` instance for Outranking Digraphs." target="_top">
<polygon fill="white" stroke="black" stroke-width="0.5" points="625,-315 471,-315 471,-296 625,-296 625,-315"/>
<text text-anchor="middle" x="548" y="-303" font-family="Vera Sans, DejaVu Sans, Liberation Sans, Arial, Helvetica, sans" font-size="10.00">PolarisedOutrankingDigraph</text>
</a>
</g>
</g>
<!-- OutrankingDigraph&#45;&gt;PolarisedOutrankingDigraph -->
<g id="edge12" class="edge">
<title>OutrankingDigraph&#45;&gt;PolarisedOutrankingDigraph</title>
<path fill="none" stroke="black" stroke-width="0.5" d="M325.69,-360.98C362.75,-348.98 424.66,-329.22 448,-323.5 459.21,-320.75 471.23,-318.23 482.89,-315.99"/>
<polygon fill="black" stroke="black" stroke-width="0.5" points="483.27,-317.69 487.86,-315.04 482.62,-314.26 483.27,-317.69"/>
</g>
<!-- UnanimousOutrankingDigraph -->
<g id="node20" class="node">
<title>UnanimousOutrankingDigraph</title>
<g id="a_node20"><a xlink:href="../techDoc.html#outrankingDigraphs.UnanimousOutrankingDigraph" xlink:title="Parameters:" target="_top">
<polygon fill="white" stroke="black" stroke-width="0.5" points="630,-352 466,-352 466,-333 630,-333 630,-352"/>
<text text-anchor="middle" x="548" y="-340" font-family="Vera Sans, DejaVu Sans, Liberation Sans, Arial, Helvetica, sans" font-size="10.00">UnanimousOutrankingDigraph</text>
</a>
</g>
</g>
<!-- OutrankingDigraph&#45;&gt;UnanimousOutrankingDigraph -->
<g id="edge19" class="edge">
<title>OutrankingDigraph&#45;&gt;UnanimousOutrankingDigraph</title>
<path fill="none" stroke="black" stroke-width="0.5" d="M350.24,-364.49C382.3,-360.91 423.77,-356.27 460.36,-352.18"/>
<polygon fill="black" stroke="black" stroke-width="0.5" points="460.95,-353.88 465.72,-351.59 460.56,-350.4 460.95,-353.88"/>
</g>
<!-- PerformanceTableau -->
<g id="node11" class="node">
<title>PerformanceTableau</title>
<g id="a_node11"><a xlink:href="../techDoc.html#perfTabs.PerformanceTableau" xlink:title="In this *Digraph3* module, the root :py:class:`perfTabs.PerformanceTableau` class provides a generic **performance table model**. A given object of this class consists in:" target="_top">
<polygon fill="white" stroke="black" stroke-width="0.5" points="129.5,-380 13.5,-380 13.5,-361 129.5,-361 129.5,-380"/>
<text text-anchor="middle" x="71.5" y="-368" font-family="Vera Sans, DejaVu Sans, Liberation Sans, Arial, Helvetica, sans" font-size="10.00">PerformanceTableau</text>
</a>
</g>
</g>
<!-- PerformanceTableau&#45;&gt;OutrankingDigraph -->
<g id="edge9" class="edge">
<title>PerformanceTableau&#45;&gt;OutrankingDigraph</title>
<path fill="none" stroke="black" stroke-width="0.5" d="M129.67,-370.5C162.23,-370.5 202.94,-370.5 235.76,-370.5"/>
<polygon fill="black" stroke="black" stroke-width="0.5" points="235.96,-372.25 240.96,-370.5 235.96,-368.75 235.96,-372.25"/>
</g>
<!-- PolarisedDigraph&#45;&gt;PolarisedOutrankingDigraph -->
<g id="edge11" class="edge">
<title>PolarisedDigraph&#45;&gt;PolarisedOutrankingDigraph</title>
<path fill="none" stroke="black" stroke-width="0.5" d="M345.69,-313.54C379.78,-312.18 425.97,-310.33 465.51,-308.75"/>
<polygon fill="black" stroke="black" stroke-width="0.5" points="465.86,-310.49 470.79,-308.54 465.72,-306.99 465.86,-310.49"/>
</g>
<!-- RandomOutrankingDigraph -->
<g id="node15" class="node">
<title>RandomOutrankingDigraph</title>
<g id="a_node15"><a xlink:href="../techDoc.html#outrankingDigraphs.RandomOutrankingDigraph" xlink:title="Dummy for obsolete RandomOutrankingDigraph Class" target="_top">
<polygon fill="white" stroke="black" stroke-width="0.5" points="622.5,-130 473.5,-130 473.5,-111 622.5,-111 622.5,-130"/>
<text text-anchor="middle" x="548" y="-118" font-family="Vera Sans, DejaVu Sans, Liberation Sans, Arial, Helvetica, sans" font-size="10.00">RandomOutrankingDigraph</text>
</a>
</g>
</g>
<!-- RandomBipolarOutrankingDigraph&#45;&gt;RandomOutrankingDigraph -->
<g id="edge14" class="edge">
<title>RandomBipolarOutrankingDigraph&#45;&gt;RandomOutrankingDigraph</title>
<path fill="none" stroke="black" stroke-width="0.5" d="M387.64,-120.5C414.01,-120.5 442.55,-120.5 468.1,-120.5"/>
<polygon fill="black" stroke="black" stroke-width="0.5" points="468.16,-122.25 473.16,-120.5 468.16,-118.75 468.16,-122.25"/>
</g>
</g>
</svg>
