<?xml version="1.0" encoding="UTF-8" standalone="no"?>
<!DOCTYPE svg PUBLIC "-//W3C//DTD SVG 1.1//EN"
 "http://www.w3.org/Graphics/SVG/1.1/DTD/svg11.dtd">
<!-- Generated by graphviz version 2.43.0 (0)
 -->
<!-- Title: inheritancec86f335138 Pages: 1 -->
<svg width="420pt" height="1137pt"
 viewBox="0.00 0.00 420.00 1137.00" xmlns="http://www.w3.org/2000/svg" xmlns:xlink="http://www.w3.org/1999/xlink">
<g id="graph0" class="graph" transform="scale(1 1) rotate(0) translate(4 1133)">
<title>inheritancec86f335138</title>
<!-- AsymmetricPartialDigraph -->
<g id="node1" class="node">
<title>AsymmetricPartialDigraph</title>
<g id="a_node1"><a xlink:href="../techDoc.html#digraphs.AsymmetricPartialDigraph" xlink:title="Renders the asymmetric part of a Digraph instance." target="_top">
<polygon fill="white" stroke="black" stroke-width="0.5" points="284.5,-1092 139.5,-1092 139.5,-1073 284.5,-1073 284.5,-1092"/>
<text text-anchor="middle" x="212" y="-1080" font-family="Vera Sans, DejaVu Sans, Liberation Sans, Arial, Helvetica, sans" font-size="10.00">AsymmetricPartialDigraph</text>
</a>
</g>
</g>
<!-- Digraph -->
<g id="node2" class="node">
<title>Digraph</title>
<g id="a_node2"><a xlink:href="../techDoc.html#digraphs.Digraph" xlink:title="Genuine root class of all Digraph3 modules." target="_top">
<polygon fill="white" stroke="black" stroke-width="0.5" points="66.5,-555 11.5,-555 11.5,-536 66.5,-536 66.5,-555"/>
<text text-anchor="middle" x="39" y="-543" font-family="Vera Sans, DejaVu Sans, Liberation Sans, Arial, Helvetica, sans" font-size="10.00">Digraph</text>
</a>
</g>
</g>
<!-- Digraph&#45;&gt;AsymmetricPartialDigraph -->
<g id="edge1" class="edge">
<title>Digraph&#45;&gt;AsymmetricPartialDigraph</title>
<path fill="none" stroke="black" stroke-width="0.5" d="M39.91,-555.05C39.51,-619.24 40.45,-987.81 114,-1064.5 119.69,-1070.44 126.67,-1074.78 134.24,-1077.92"/>
<polygon fill="black" stroke="black" stroke-width="0.5" points="133.72,-1079.6 139.02,-1079.72 134.96,-1076.32 133.72,-1079.6"/>
</g>
<!-- BipartitePartialDigraph -->
<g id="node4" class="node">
<title>BipartitePartialDigraph</title>
<g id="a_node4"><a xlink:href="../techDoc.html#digraphs.BipartitePartialDigraph" xlink:title="Renders the bipartite part of a Digraph instance." target="_top">
<polygon fill="white" stroke="black" stroke-width="0.5" points="276,-1055 148,-1055 148,-1036 276,-1036 276,-1055"/>
<text text-anchor="middle" x="212" y="-1043" font-family="Vera Sans, DejaVu Sans, Liberation Sans, Arial, Helvetica, sans" font-size="10.00">BipartitePartialDigraph</text>
</a>
</g>
</g>
<!-- Digraph&#45;&gt;BipartitePartialDigraph -->
<g id="edge2" class="edge">
<title>Digraph&#45;&gt;BipartitePartialDigraph</title>
<path fill="none" stroke="black" stroke-width="0.5" d="M40.02,-555.15C40.39,-616.96 45.5,-956.83 114,-1027.5 121.81,-1035.55 131.96,-1040.66 142.76,-1043.81"/>
<polygon fill="black" stroke="black" stroke-width="0.5" points="142.48,-1045.55 147.76,-1045.12 143.37,-1042.16 142.48,-1045.55"/>
</g>
<!-- BreakAddCocsDigraph -->
<g id="node5" class="node">
<title>BreakAddCocsDigraph</title>
<g id="a_node5"><a xlink:href="../techDoc.html#digraphs.BreakAddCocsDigraph" xlink:title="Specialization of general Digraph class for instantiation" target="_top">
<polygon fill="white" stroke="black" stroke-width="0.5" points="274.5,-1018 149.5,-1018 149.5,-999 274.5,-999 274.5,-1018"/>
<text text-anchor="middle" x="212" y="-1006" font-family="Vera Sans, DejaVu Sans, Liberation Sans, Arial, Helvetica, sans" font-size="10.00">BreakAddCocsDigraph</text>
</a>
</g>
</g>
<!-- Digraph&#45;&gt;BreakAddCocsDigraph -->
<g id="edge3" class="edge">
<title>Digraph&#45;&gt;BreakAddCocsDigraph</title>
<path fill="none" stroke="black" stroke-width="0.5" d="M40.16,-555.17C41.33,-614.22 50.5,-925.8 114,-990.5 122.24,-998.9 133.04,-1004.08 144.44,-1007.18"/>
<polygon fill="black" stroke="black" stroke-width="0.5" points="144.08,-1008.89 149.35,-1008.38 144.91,-1005.49 144.08,-1008.89"/>
</g>
<!-- BrokenChordlessCircuitsDigraph -->
<g id="node6" class="node">
<title>BrokenChordlessCircuitsDigraph</title>
<g id="a_node6"><a xlink:href="../techDoc.html#digraphs.BrokenChordlessCircuitsDigraph" xlink:title="Specialization of general Digraph class for instantiation" target="_top">
<polygon fill="white" stroke="black" stroke-width="0.5" points="298.5,-981 125.5,-981 125.5,-962 298.5,-962 298.5,-981"/>
<text text-anchor="middle" x="212" y="-969" font-family="Vera Sans, DejaVu Sans, Liberation Sans, Arial, Helvetica, sans" font-size="10.00">BrokenChordlessCircuitsDigraph</text>
</a>
</g>
</g>
<!-- Digraph&#45;&gt;BrokenChordlessCircuitsDigraph -->
<g id="edge4" class="edge">
<title>Digraph&#45;&gt;BrokenChordlessCircuitsDigraph</title>
<path fill="none" stroke="black" stroke-width="0.5" d="M40.31,-555.09C42.34,-611.02 55.45,-894.71 114,-953.5 116.12,-955.62 118.39,-957.54 120.81,-959.27"/>
<polygon fill="black" stroke="black" stroke-width="0.5" points="120.14,-960.92 125.28,-962.18 122.05,-957.99 120.14,-960.92"/>
</g>
<!-- BrokenCocsDigraph -->
<g id="node7" class="node">
<title>BrokenCocsDigraph</title>
<g id="a_node7"><a xlink:href="../techDoc.html#digraphs.BrokenCocsDigraph" xlink:title="Specialization of general Digraph class for instantiation" target="_top">
<polygon fill="white" stroke="black" stroke-width="0.5" points="268,-944 156,-944 156,-925 268,-925 268,-944"/>
<text text-anchor="middle" x="212" y="-932" font-family="Vera Sans, DejaVu Sans, Liberation Sans, Arial, Helvetica, sans" font-size="10.00">BrokenCocsDigraph</text>
</a>
</g>
</g>
<!-- Digraph&#45;&gt;BrokenCocsDigraph -->
<g id="edge5" class="edge">
<title>Digraph&#45;&gt;BrokenCocsDigraph</title>
<path fill="none" stroke="black" stroke-width="0.5" d="M40.51,-555.25C43.49,-608.49 60.47,-863.68 114,-916.5 123.88,-926.25 137.23,-931.63 150.86,-934.43"/>
<polygon fill="black" stroke="black" stroke-width="0.5" points="150.65,-936.17 155.88,-935.35 151.28,-932.73 150.65,-936.17"/>
</g>
<!-- CSVDigraph -->
<g id="node8" class="node">
<title>CSVDigraph</title>
<g id="a_node8"><a xlink:href="../techDoc.html#digraphs.CSVDigraph" xlink:title="Specialization of the general Digraph class for reading" target="_top">
<polygon fill="white" stroke="black" stroke-width="0.5" points="249,-907 175,-907 175,-888 249,-888 249,-907"/>
<text text-anchor="middle" x="212" y="-895" font-family="Vera Sans, DejaVu Sans, Liberation Sans, Arial, Helvetica, sans" font-size="10.00">CSVDigraph</text>
</a>
</g>
</g>
<!-- Digraph&#45;&gt;CSVDigraph -->
<g id="edge6" class="edge">
<title>Digraph&#45;&gt;CSVDigraph</title>
<path fill="none" stroke="black" stroke-width="0.5" d="M40.74,-555.25C44.74,-605.28 65.41,-832.56 114,-879.5 128.53,-893.53 150.25,-898.46 169.46,-899.69"/>
<polygon fill="black" stroke="black" stroke-width="0.5" points="169.72,-901.45 174.8,-899.94 169.89,-897.95 169.72,-901.45"/>
</g>
<!-- CirculantDigraph -->
<g id="node9" class="node">
<title>CirculantDigraph</title>
<g id="a_node9"><a xlink:href="../techDoc.html#digraphs.CirculantDigraph" xlink:title="Specialization of the general Digraph class for generating" target="_top">
<polygon fill="white" stroke="black" stroke-width="0.5" points="261,-870 163,-870 163,-851 261,-851 261,-870"/>
<text text-anchor="middle" x="212" y="-858" font-family="Vera Sans, DejaVu Sans, Liberation Sans, Arial, Helvetica, sans" font-size="10.00">CirculantDigraph</text>
</a>
</g>
</g>
<!-- Digraph&#45;&gt;CirculantDigraph -->
<g id="edge7" class="edge">
<title>Digraph&#45;&gt;CirculantDigraph</title>
<path fill="none" stroke="black" stroke-width="0.5" d="M41.01,-555.08C46.08,-601.39 70.27,-801.35 114,-842.5 125.65,-853.47 141.72,-858.83 157.43,-861.21"/>
<polygon fill="black" stroke="black" stroke-width="0.5" points="157.55,-862.99 162.74,-861.91 158.01,-859.52 157.55,-862.99"/>
</g>
<!-- CoDualDigraph -->
<g id="node10" class="node">
<title>CoDualDigraph</title>
<g id="a_node10"><a xlink:href="../techDoc.html#digraphs.CoDualDigraph" xlink:title="Instantiates the associated codual &#45;converse of the negation&#45; from a deep copy of" target="_top">
<polygon fill="white" stroke="black" stroke-width="0.5" points="257,-833 167,-833 167,-814 257,-814 257,-833"/>
<text text-anchor="middle" x="212" y="-821" font-family="Vera Sans, DejaVu Sans, Liberation Sans, Arial, Helvetica, sans" font-size="10.00">CoDualDigraph</text>
</a>
</g>
</g>
<!-- Digraph&#45;&gt;CoDualDigraph -->
<g id="edge8" class="edge">
<title>Digraph&#45;&gt;CoDualDigraph</title>
<path fill="none" stroke="black" stroke-width="0.5" d="M39.46,-555.09C37.88,-593.29 37.48,-735.84 114,-805.5 126.86,-817.2 144.77,-822.46 161.7,-824.53"/>
<polygon fill="black" stroke="black" stroke-width="0.5" points="161.76,-826.3 166.92,-825.08 162.13,-822.82 161.76,-826.3"/>
</g>
<!-- CocaDigraph -->
<g id="node11" class="node">
<title>CocaDigraph</title>
<g id="a_node11"><a xlink:href="../techDoc.html#digraphs.CocaDigraph" xlink:title="Old CocaDigraph class without circuit breakings; all circuits and circuits of circuits are added as hyper&#45;nodes." target="_top">
<polygon fill="white" stroke="black" stroke-width="0.5" points="251.5,-796 172.5,-796 172.5,-777 251.5,-777 251.5,-796"/>
<text text-anchor="middle" x="212" y="-784" font-family="Vera Sans, DejaVu Sans, Liberation Sans, Arial, Helvetica, sans" font-size="10.00">CocaDigraph</text>
</a>
</g>
</g>
<!-- Digraph&#45;&gt;CocaDigraph -->
<g id="edge9" class="edge">
<title>Digraph&#45;&gt;CocaDigraph</title>
<path fill="none" stroke="black" stroke-width="0.5" d="M39.98,-555.4C40.5,-590.55 47.27,-710.34 114,-768.5 128.4,-781.05 148.66,-786.08 166.94,-787.76"/>
<polygon fill="black" stroke="black" stroke-width="0.5" points="166.92,-789.52 172.04,-788.15 167.19,-786.03 166.92,-789.52"/>
</g>
<!-- CompleteDigraph -->
<g id="node12" class="node">
<title>CompleteDigraph</title>
<g id="a_node12"><a xlink:href="../techDoc.html#digraphs.CompleteDigraph" xlink:title="Specialization of the general Digraph class for generating" target="_top">
<polygon fill="white" stroke="black" stroke-width="0.5" points="263,-759 161,-759 161,-740 263,-740 263,-759"/>
<text text-anchor="middle" x="212" y="-747" font-family="Vera Sans, DejaVu Sans, Liberation Sans, Arial, Helvetica, sans" font-size="10.00">CompleteDigraph</text>
</a>
</g>
</g>
<!-- Digraph&#45;&gt;CompleteDigraph -->
<g id="edge10" class="edge">
<title>Digraph&#45;&gt;CompleteDigraph</title>
<path fill="none" stroke="black" stroke-width="0.5" d="M40.68,-555.06C43.43,-586.03 56.54,-684.28 114,-731.5 125.71,-741.12 140.92,-746.24 155.8,-748.82"/>
<polygon fill="black" stroke="black" stroke-width="0.5" points="155.62,-750.57 160.83,-749.61 156.16,-747.11 155.62,-750.57"/>
</g>
<!-- ConverseDigraph -->
<g id="node13" class="node">
<title>ConverseDigraph</title>
<g id="a_node13"><a xlink:href="../techDoc.html#digraphs.ConverseDigraph" xlink:title="Instantiates the associated converse or reciprocal version from" target="_top">
<polygon fill="white" stroke="black" stroke-width="0.5" points="262.5,-722 161.5,-722 161.5,-703 262.5,-703 262.5,-722"/>
<text text-anchor="middle" x="212" y="-710" font-family="Vera Sans, DejaVu Sans, Liberation Sans, Arial, Helvetica, sans" font-size="10.00">ConverseDigraph</text>
</a>
</g>
</g>
<!-- Digraph&#45;&gt;ConverseDigraph -->
<g id="edge11" class="edge">
<title>Digraph&#45;&gt;ConverseDigraph</title>
<path fill="none" stroke="black" stroke-width="0.5" d="M41.7,-555.04C46.99,-581.83 65.82,-658.13 114,-694.5 126.04,-703.59 141.27,-708.55 156.07,-711.16"/>
<polygon fill="black" stroke="black" stroke-width="0.5" points="155.86,-712.89 161.07,-711.95 156.41,-709.44 155.86,-712.89"/>
</g>
<!-- CoverDigraph -->
<g id="node14" class="node">
<title>CoverDigraph</title>
<g id="a_node14"><a xlink:href="../techDoc.html#digraphs.CoverDigraph" xlink:title="Instantiates the associated cover relation &#45;immediate neighbours&#45; from" target="_top">
<polygon fill="white" stroke="black" stroke-width="0.5" points="253.5,-685 170.5,-685 170.5,-666 253.5,-666 253.5,-685"/>
<text text-anchor="middle" x="212" y="-673" font-family="Vera Sans, DejaVu Sans, Liberation Sans, Arial, Helvetica, sans" font-size="10.00">CoverDigraph</text>
</a>
</g>
</g>
<!-- Digraph&#45;&gt;CoverDigraph -->
<g id="edge12" class="edge">
<title>Digraph&#45;&gt;CoverDigraph</title>
<path fill="none" stroke="black" stroke-width="0.5" d="M43.37,-555.2C51.6,-577.34 74.95,-631.63 114,-657.5 128.88,-667.36 147.72,-672.18 164.83,-674.42"/>
<polygon fill="black" stroke="black" stroke-width="0.5" points="164.91,-676.19 170.08,-675.04 165.32,-672.71 164.91,-676.19"/>
</g>
<!-- CriteriaCorrelationDigraph -->
<g id="node15" class="node">
<title>CriteriaCorrelationDigraph</title>
<g id="a_node15"><a xlink:href="../techDoc.html#digraphs.CriteriaCorrelationDigraph" xlink:title="Renders the ordinal criteria correlation digraph from the given outranking digraph." target="_top">
<polygon fill="white" stroke="black" stroke-width="0.5" points="284.5,-648 139.5,-648 139.5,-629 284.5,-629 284.5,-648"/>
<text text-anchor="middle" x="212" y="-636" font-family="Vera Sans, DejaVu Sans, Liberation Sans, Arial, Helvetica, sans" font-size="10.00">CriteriaCorrelationDigraph</text>
</a>
</g>
</g>
<!-- Digraph&#45;&gt;CriteriaCorrelationDigraph -->
<g id="edge13" class="edge">
<title>Digraph&#45;&gt;CriteriaCorrelationDigraph</title>
<path fill="none" stroke="black" stroke-width="0.5" d="M46.46,-555.15C57.95,-571.49 83.62,-604.38 114,-620.5 120.39,-623.89 127.32,-626.65 134.42,-628.9"/>
<polygon fill="black" stroke="black" stroke-width="0.5" points="134.08,-630.63 139.37,-630.38 135.08,-627.27 134.08,-630.63"/>
</g>
<!-- DualDigraph -->
<g id="node16" class="node">
<title>DualDigraph</title>
<g id="a_node16"><a xlink:href="../techDoc.html#digraphs.DualDigraph" xlink:title="Instantiates the dual ( = negated valuation) Digraph object from a deep copy of a given other Digraph instance." target="_top">
<polygon fill="white" stroke="black" stroke-width="0.5" points="250.5,-611 173.5,-611 173.5,-592 250.5,-592 250.5,-611"/>
<text text-anchor="middle" x="212" y="-599" font-family="Vera Sans, DejaVu Sans, Liberation Sans, Arial, Helvetica, sans" font-size="10.00">DualDigraph</text>
</a>
</g>
</g>
<!-- Digraph&#45;&gt;DualDigraph -->
<g id="edge14" class="edge">
<title>Digraph&#45;&gt;DualDigraph</title>
<path fill="none" stroke="black" stroke-width="0.5" d="M55.29,-555.03C69.86,-563.7 92.68,-576.22 114,-583.5 131.19,-589.37 150.78,-593.46 167.83,-596.25"/>
<polygon fill="black" stroke="black" stroke-width="0.5" points="167.83,-598.02 173.04,-597.07 168.37,-594.56 167.83,-598.02"/>
</g>
<!-- EmptyDigraph -->
<g id="node17" class="node">
<title>EmptyDigraph</title>
<g id="a_node17"><a xlink:href="../techDoc.html#digraphs.EmptyDigraph" xlink:title="Parameters:" target="_top">
<polygon fill="white" stroke="black" stroke-width="0.5" points="255,-574 169,-574 169,-555 255,-555 255,-574"/>
<text text-anchor="middle" x="212" y="-562" font-family="Vera Sans, DejaVu Sans, Liberation Sans, Arial, Helvetica, sans" font-size="10.00">EmptyDigraph</text>
</a>
</g>
</g>
<!-- Digraph&#45;&gt;EmptyDigraph -->
<g id="edge15" class="edge">
<title>Digraph&#45;&gt;EmptyDigraph</title>
<path fill="none" stroke="black" stroke-width="0.5" d="M66.72,-548.47C92.56,-551.34 132.28,-555.75 163.51,-559.22"/>
<polygon fill="black" stroke="black" stroke-width="0.5" points="163.68,-561 168.84,-559.82 164.06,-557.52 163.68,-561"/>
</g>
<!-- EquivalenceDigraph -->
<g id="node18" class="node">
<title>EquivalenceDigraph</title>
<g id="a_node18"><a xlink:href="../techDoc.html#digraphs.EquivalenceDigraph" xlink:title="Instantiates the logical equivalence digraph of two bipolar" target="_top">
<polygon fill="white" stroke="black" stroke-width="0.5" points="269,-537 155,-537 155,-518 269,-518 269,-537"/>
<text text-anchor="middle" x="212" y="-525" font-family="Vera Sans, DejaVu Sans, Liberation Sans, Arial, Helvetica, sans" font-size="10.00">EquivalenceDigraph</text>
</a>
</g>
</g>
<!-- Digraph&#45;&gt;EquivalenceDigraph -->
<g id="edge16" class="edge">
<title>Digraph&#45;&gt;EquivalenceDigraph</title>
<path fill="none" stroke="black" stroke-width="0.5" d="M66.72,-542.69C88.83,-540.36 121.1,-536.96 149.51,-533.97"/>
<polygon fill="black" stroke="black" stroke-width="0.5" points="149.98,-535.68 154.77,-533.42 149.62,-532.2 149.98,-535.68"/>
</g>
<!-- FusionDigraph -->
<g id="node19" class="node">
<title>FusionDigraph</title>
<g id="a_node19"><a xlink:href="../techDoc.html#digraphs.FusionDigraph" xlink:title="Instantiates the epistemic fusion of " target="_top">
<polygon fill="white" stroke="black" stroke-width="0.5" points="255,-500 169,-500 169,-481 255,-481 255,-500"/>
<text text-anchor="middle" x="212" y="-488" font-family="Vera Sans, DejaVu Sans, Liberation Sans, Arial, Helvetica, sans" font-size="10.00">FusionDigraph</text>
</a>
</g>
</g>
<!-- Digraph&#45;&gt;FusionDigraph -->
<g id="edge17" class="edge">
<title>Digraph&#45;&gt;FusionDigraph</title>
<path fill="none" stroke="black" stroke-width="0.5" d="M56.52,-535.92C71.18,-527.79 93.41,-516.4 114,-509.5 129.93,-504.17 147.85,-500.13 163.92,-497.19"/>
<polygon fill="black" stroke="black" stroke-width="0.5" points="164.23,-498.91 168.85,-496.31 163.62,-495.47 164.23,-498.91"/>
</g>
<!-- FusionLDigraph -->
<g id="node20" class="node">
<title>FusionLDigraph</title>
<g id="a_node20"><a xlink:href="../techDoc.html#digraphs.FusionLDigraph" xlink:title="Instantiates the epistemic fusion a list L of Digraph instances." target="_top">
<polygon fill="white" stroke="black" stroke-width="0.5" points="258,-463 166,-463 166,-444 258,-444 258,-463"/>
<text text-anchor="middle" x="212" y="-451" font-family="Vera Sans, DejaVu Sans, Liberation Sans, Arial, Helvetica, sans" font-size="10.00">FusionLDigraph</text>
</a>
</g>
</g>
<!-- Digraph&#45;&gt;FusionLDigraph -->
<g id="edge18" class="edge">
<title>Digraph&#45;&gt;FusionLDigraph</title>
<path fill="none" stroke="black" stroke-width="0.5" d="M46.73,-535.88C58.43,-519.95 84.16,-488.26 114,-472.5 128.18,-465.01 144.93,-460.46 160.48,-457.69"/>
<polygon fill="black" stroke="black" stroke-width="0.5" points="161.06,-459.37 165.71,-456.82 160.49,-455.92 161.06,-459.37"/>
</g>
<!-- GraphBorder -->
<g id="node21" class="node">
<title>GraphBorder</title>
<g id="a_node21"><a xlink:href="../techDoc.html#digraphs.GraphBorder" xlink:title="Instantiates the partial digraph induced by its border," target="_top">
<polygon fill="white" stroke="black" stroke-width="0.5" points="251,-426 173,-426 173,-407 251,-407 251,-426"/>
<text text-anchor="middle" x="212" y="-414" font-family="Vera Sans, DejaVu Sans, Liberation Sans, Arial, Helvetica, sans" font-size="10.00">GraphBorder</text>
</a>
</g>
</g>
<!-- Digraph&#45;&gt;GraphBorder -->
<g id="edge19" class="edge">
<title>Digraph&#45;&gt;GraphBorder</title>
<path fill="none" stroke="black" stroke-width="0.5" d="M43.44,-535.99C51.82,-514.31 75.46,-461.09 114,-435.5 129.81,-425 150.07,-420.03 167.98,-417.77"/>
<polygon fill="black" stroke="black" stroke-width="0.5" points="168.19,-419.5 172.96,-417.2 167.79,-416.03 168.19,-419.5"/>
</g>
<!-- GraphInner -->
<g id="node22" class="node">
<title>GraphInner</title>
<g id="a_node22"><a xlink:href="../techDoc.html#digraphs.GraphInner" xlink:title="Instantiates the partial digraph induced by the complement of its border," target="_top">
<polygon fill="white" stroke="black" stroke-width="0.5" points="247.5,-389 176.5,-389 176.5,-370 247.5,-370 247.5,-389"/>
<text text-anchor="middle" x="212" y="-377" font-family="Vera Sans, DejaVu Sans, Liberation Sans, Arial, Helvetica, sans" font-size="10.00">GraphInner</text>
</a>
</g>
</g>
<!-- Digraph&#45;&gt;GraphInner -->
<g id="edge20" class="edge">
<title>Digraph&#45;&gt;GraphInner</title>
<path fill="none" stroke="black" stroke-width="0.5" d="M41.84,-535.72C47.39,-509.01 66.65,-434.42 114,-398.5 130.12,-386.27 151.97,-381.28 170.85,-379.45"/>
<polygon fill="black" stroke="black" stroke-width="0.5" points="171.25,-381.17 176.09,-379.01 170.96,-377.68 171.25,-381.17"/>
</g>
<!-- GridDigraph -->
<g id="node23" class="node">
<title>GridDigraph</title>
<g id="a_node23"><a xlink:href="../techDoc.html#digraphs.GridDigraph" xlink:title="Specialization of the general Digraph class for generating" target="_top">
<polygon fill="white" stroke="black" stroke-width="0.5" points="249.5,-352 174.5,-352 174.5,-333 249.5,-333 249.5,-352"/>
<text text-anchor="middle" x="212" y="-340" font-family="Vera Sans, DejaVu Sans, Liberation Sans, Arial, Helvetica, sans" font-size="10.00">GridDigraph</text>
</a>
</g>
</g>
<!-- Digraph&#45;&gt;GridDigraph -->
<g id="edge21" class="edge">
<title>Digraph&#45;&gt;GridDigraph</title>
<path fill="none" stroke="black" stroke-width="0.5" d="M40.78,-535.63C43.78,-504.58 57.48,-408.23 114,-361.5 129.23,-348.91 150.39,-343.8 169.06,-341.99"/>
<polygon fill="black" stroke="black" stroke-width="0.5" points="169.41,-343.72 174.25,-341.56 169.13,-340.23 169.41,-343.72"/>
</g>
<!-- IndeterminateDigraph -->
<g id="node24" class="node">
<title>IndeterminateDigraph</title>
<g id="a_node24"><a xlink:href="../techDoc.html#digraphs.IndeterminateDigraph" xlink:title="Parameters: order &gt; 0; valuationdomain =(Min,Max)." target="_top">
<polygon fill="white" stroke="black" stroke-width="0.5" points="274,-315 150,-315 150,-296 274,-296 274,-315"/>
<text text-anchor="middle" x="212" y="-303" font-family="Vera Sans, DejaVu Sans, Liberation Sans, Arial, Helvetica, sans" font-size="10.00">IndeterminateDigraph</text>
</a>
</g>
</g>
<!-- Digraph&#45;&gt;IndeterminateDigraph -->
<g id="edge22" class="edge">
<title>Digraph&#45;&gt;IndeterminateDigraph</title>
<path fill="none" stroke="black" stroke-width="0.5" d="M40.04,-535.71C40.73,-500.94 48.02,-382.43 114,-324.5 122.74,-316.82 133.66,-311.88 144.99,-308.76"/>
<polygon fill="black" stroke="black" stroke-width="0.5" points="145.44,-310.45 149.86,-307.53 144.59,-307.06 145.44,-310.45"/>
</g>
<!-- KneserDigraph -->
<g id="node25" class="node">
<title>KneserDigraph</title>
<g id="a_node25"><a xlink:href="../techDoc.html#digraphs.KneserDigraph" xlink:title="Specialization of the general Digraph class for generating" target="_top">
<polygon fill="white" stroke="black" stroke-width="0.5" points="256.5,-278 167.5,-278 167.5,-259 256.5,-259 256.5,-278"/>
<text text-anchor="middle" x="212" y="-266" font-family="Vera Sans, DejaVu Sans, Liberation Sans, Arial, Helvetica, sans" font-size="10.00">KneserDigraph</text>
</a>
</g>
</g>
<!-- Digraph&#45;&gt;KneserDigraph -->
<g id="edge23" class="edge">
<title>Digraph&#45;&gt;KneserDigraph</title>
<path fill="none" stroke="black" stroke-width="0.5" d="M39.51,-536C38.1,-498.17 38.29,-356.97 114,-287.5 126.95,-275.62 145.06,-270.2 162.13,-267.98"/>
<polygon fill="black" stroke="black" stroke-width="0.5" points="162.61,-269.69 167.39,-267.39 162.22,-266.21 162.61,-269.69"/>
</g>
<!-- PolarisedDigraph -->
<g id="node26" class="node">
<title>PolarisedDigraph</title>
<g id="a_node26"><a xlink:href="../techDoc.html#digraphs.PolarisedDigraph" xlink:title="Renders the polarised valuation of a Digraph class instance:" target="_top">
<polygon fill="white" stroke="black" stroke-width="0.5" points="262,-241 162,-241 162,-222 262,-222 262,-241"/>
<text text-anchor="middle" x="212" y="-229" font-family="Vera Sans, DejaVu Sans, Liberation Sans, Arial, Helvetica, sans" font-size="10.00">PolarisedDigraph</text>
</a>
</g>
</g>
<!-- Digraph&#45;&gt;PolarisedDigraph -->
<g id="edge24" class="edge">
<title>Digraph&#45;&gt;PolarisedDigraph</title>
<path fill="none" stroke="black" stroke-width="0.5" d="M41.03,-535.99C46.18,-490.04 70.72,-291.57 114,-250.5 125.46,-239.62 141.23,-234.11 156.72,-231.51"/>
<polygon fill="black" stroke="black" stroke-width="0.5" points="157.27,-233.2 161.96,-230.74 156.76,-229.74 157.27,-233.2"/>
</g>
<!-- RedhefferDigraph -->
<g id="node28" class="node">
<title>RedhefferDigraph</title>
<g id="a_node28"><a xlink:href="../techDoc.html#digraphs.RedhefferDigraph" xlink:title="Specialization of the general Digraph class for generating" target="_top">
<polygon fill="white" stroke="black" stroke-width="0.5" points="263,-204 161,-204 161,-185 263,-185 263,-204"/>
<text text-anchor="middle" x="212" y="-192" font-family="Vera Sans, DejaVu Sans, Liberation Sans, Arial, Helvetica, sans" font-size="10.00">RedhefferDigraph</text>
</a>
</g>
</g>
<!-- Digraph&#45;&gt;RedhefferDigraph -->
<g id="edge26" class="edge">
<title>Digraph&#45;&gt;RedhefferDigraph</title>
<path fill="none" stroke="black" stroke-width="0.5" d="M40.76,-535.81C44.85,-486.13 65.89,-260.38 114,-213.5 125.1,-202.69 140.43,-197.14 155.64,-194.48"/>
<polygon fill="black" stroke="black" stroke-width="0.5" points="156.11,-196.18 160.78,-193.69 155.57,-192.72 156.11,-196.18"/>
</g>
<!-- StrongComponentsCollapsedDigraph -->
<g id="node29" class="node">
<title>StrongComponentsCollapsedDigraph</title>
<g id="a_node29"><a xlink:href="../techDoc.html#digraphs.StrongComponentsCollapsedDigraph" xlink:title="Reduction of Digraph object to its strong components." target="_top">
<polygon fill="white" stroke="black" stroke-width="0.5" points="310,-167 114,-167 114,-148 310,-148 310,-167"/>
<text text-anchor="middle" x="212" y="-155" font-family="Vera Sans, DejaVu Sans, Liberation Sans, Arial, Helvetica, sans" font-size="10.00">StrongComponentsCollapsedDigraph</text>
</a>
</g>
</g>
<!-- Digraph&#45;&gt;StrongComponentsCollapsedDigraph -->
<g id="edge27" class="edge">
<title>Digraph&#45;&gt;StrongComponentsCollapsedDigraph</title>
<path fill="none" stroke="black" stroke-width="0.5" d="M40.53,-535.81C43.6,-482.9 60.98,-229.28 114,-176.5 116.47,-174.04 119.17,-171.85 122.03,-169.9"/>
<polygon fill="black" stroke="black" stroke-width="0.5" points="123.33,-171.15 126.66,-167.03 121.49,-168.18 123.33,-171.15"/>
</g>
<!-- SymmetricPartialDigraph -->
<g id="node30" class="node">
<title>SymmetricPartialDigraph</title>
<g id="a_node30"><a xlink:href="../techDoc.html#digraphs.SymmetricPartialDigraph" xlink:title="Renders the symmetric part of a Digraph instance." target="_top">
<polygon fill="white" stroke="black" stroke-width="0.5" points="281.5,-130 142.5,-130 142.5,-111 281.5,-111 281.5,-130"/>
<text text-anchor="middle" x="212" y="-118" font-family="Vera Sans, DejaVu Sans, Liberation Sans, Arial, Helvetica, sans" font-size="10.00">SymmetricPartialDigraph</text>
</a>
</g>
</g>
<!-- Digraph&#45;&gt;SymmetricPartialDigraph -->
<g id="edge28" class="edge">
<title>Digraph&#45;&gt;SymmetricPartialDigraph</title>
<path fill="none" stroke="black" stroke-width="0.5" d="M40.33,-535.97C42.45,-480.35 56,-198.27 114,-139.5 120.51,-132.9 128.59,-128.25 137.29,-125"/>
<polygon fill="black" stroke="black" stroke-width="0.5" points="138,-126.61 142.17,-123.34 136.88,-123.29 138,-126.61"/>
</g>
<!-- XMCDA2Digraph -->
<g id="node31" class="node">
<title>XMCDA2Digraph</title>
<g id="a_node31"><a xlink:href="../techDoc.html#digraphs.XMCDA2Digraph" xlink:title="Specialization of the general Digraph class for reading" target="_top">
<polygon fill="white" stroke="black" stroke-width="0.5" points="261,-93 163,-93 163,-74 261,-74 261,-93"/>
<text text-anchor="middle" x="212" y="-81" font-family="Vera Sans, DejaVu Sans, Liberation Sans, Arial, Helvetica, sans" font-size="10.00">XMCDA2Digraph</text>
</a>
</g>
</g>
<!-- Digraph&#45;&gt;XMCDA2Digraph -->
<g id="edge29" class="edge">
<title>Digraph&#45;&gt;XMCDA2Digraph</title>
<path fill="none" stroke="black" stroke-width="0.5" d="M40.17,-535.88C41.44,-477.15 51.08,-167.21 114,-102.5 125.44,-90.74 141.86,-85.11 157.95,-82.68"/>
<polygon fill="black" stroke="black" stroke-width="0.5" points="158.2,-84.41 162.93,-82.02 157.74,-80.94 158.2,-84.41"/>
</g>
<!-- XORDigraph -->
<g id="node32" class="node">
<title>XORDigraph</title>
<g id="a_node32"><a xlink:href="../techDoc.html#digraphs.XORDigraph" xlink:title="Instantiates the XOR digraph of two bipolar" target="_top">
<polygon fill="white" stroke="black" stroke-width="0.5" points="249.5,-56 174.5,-56 174.5,-37 249.5,-37 249.5,-56"/>
<text text-anchor="middle" x="212" y="-44" font-family="Vera Sans, DejaVu Sans, Liberation Sans, Arial, Helvetica, sans" font-size="10.00">XORDigraph</text>
</a>
</g>
</g>
<!-- Digraph&#45;&gt;XORDigraph -->
<g id="edge30" class="edge">
<title>Digraph&#45;&gt;XORDigraph</title>
<path fill="none" stroke="black" stroke-width="0.5" d="M40.04,-535.9C40.5,-474.4 46.11,-136.2 114,-65.5 128.02,-50.91 149.7,-45.72 169.01,-44.38"/>
<polygon fill="black" stroke="black" stroke-width="0.5" points="169.49,-46.11 174.39,-44.1 169.3,-42.61 169.49,-46.11"/>
</g>
<!-- kChoicesDigraph -->
<g id="node33" class="node">
<title>kChoicesDigraph</title>
<g id="a_node33"><a xlink:href="../techDoc.html#digraphs.kChoicesDigraph" xlink:title="Specialization of general Digraph class for instantiation" target="_top">
<polygon fill="white" stroke="black" stroke-width="0.5" points="261.5,-19 162.5,-19 162.5,0 261.5,0 261.5,-19"/>
<text text-anchor="middle" x="212" y="-7" font-family="Vera Sans, DejaVu Sans, Liberation Sans, Arial, Helvetica, sans" font-size="10.00">kChoicesDigraph</text>
</a>
</g>
</g>
<!-- Digraph&#45;&gt;kChoicesDigraph -->
<g id="edge31" class="edge">
<title>Digraph&#45;&gt;kChoicesDigraph</title>
<path fill="none" stroke="black" stroke-width="0.5" d="M39.92,-536C39.62,-472.11 41.09,-105.25 114,-28.5 125.1,-16.82 141.1,-11.15 156.92,-8.66"/>
<polygon fill="black" stroke="black" stroke-width="0.5" points="157.55,-10.34 162.27,-7.93 157.08,-6.87 157.55,-10.34"/>
</g>
<!-- BaseProcess -->
<g id="node3" class="node">
<title>BaseProcess</title>
<g id="a_node3"><a xlink:title="Process objects represent activity that is run in a separate process">
<polygon fill="white" stroke="black" stroke-width="0.5" points="78,-1129 0,-1129 0,-1110 78,-1110 78,-1129"/>
<text text-anchor="middle" x="39" y="-1117" font-family="Vera Sans, DejaVu Sans, Liberation Sans, Arial, Helvetica, sans" font-size="10.00">BaseProcess</text>
</a>
</g>
</g>
<!-- Process -->
<g id="node27" class="node">
<title>Process</title>
<polygon fill="white" stroke="black" stroke-width="0.5" points="239,-1129 185,-1129 185,-1110 239,-1110 239,-1129"/>
<text text-anchor="middle" x="212" y="-1117" font-family="Vera Sans, DejaVu Sans, Liberation Sans, Arial, Helvetica, sans" font-size="10.00">Process</text>
</g>
<!-- BaseProcess&#45;&gt;Process -->
<g id="edge25" class="edge">
<title>BaseProcess&#45;&gt;Process</title>
<path fill="none" stroke="black" stroke-width="0.5" d="M78.38,-1119.5C108.97,-1119.5 151.26,-1119.5 179.8,-1119.5"/>
<polygon fill="black" stroke="black" stroke-width="0.5" points="179.96,-1121.25 184.96,-1119.5 179.96,-1117.75 179.96,-1121.25"/>
</g>
<!-- myThread -->
<g id="node34" class="node">
<title>myThread</title>
<g id="a_node34"><a xlink:href="../techDoc.html#digraphs.myThread" xlink:title="myThread" target="_top">
<polygon fill="white" stroke="black" stroke-width="0.5" points="412,-1129 346,-1129 346,-1110 412,-1110 412,-1129"/>
<text text-anchor="middle" x="379" y="-1117" font-family="Vera Sans, DejaVu Sans, Liberation Sans, Arial, Helvetica, sans" font-size="10.00">myThread</text>
</a>
</g>
</g>
<!-- Process&#45;&gt;myThread -->
<g id="edge32" class="edge">
<title>Process&#45;&gt;myThread</title>
<path fill="none" stroke="black" stroke-width="0.5" d="M239.14,-1119.5C266.46,-1119.5 309.57,-1119.5 340.51,-1119.5"/>
<polygon fill="black" stroke="black" stroke-width="0.5" points="340.75,-1121.25 345.75,-1119.5 340.75,-1117.75 340.75,-1121.25"/>
</g>
</g>
</svg>
