<?xml version="1.0" encoding="UTF-8" standalone="no"?>
<!DOCTYPE svg PUBLIC "-//W3C//DTD SVG 1.1//EN"
 "http://www.w3.org/Graphics/SVG/1.1/DTD/svg11.dtd">
<!-- Generated by graphviz version 2.43.0 (0)
 -->
<!-- Title: inheritancec86f335138 Pages: 1 -->
<svg width="295pt" height="1063pt"
 viewBox="0.00 0.00 295.00 1063.00" xmlns="http://www.w3.org/2000/svg" xmlns:xlink="http://www.w3.org/1999/xlink">
<g id="graph0" class="graph" transform="scale(1 1) rotate(0) translate(4 1059)">
<title>inheritancec86f335138</title>
<!-- AsymmetricPartialDigraph -->
<g id="node1" class="node">
<title>AsymmetricPartialDigraph</title>
<g id="a_node1"><a xlink:href="../techDoc.html#digraphs.AsymmetricPartialDigraph" xlink:title="Renders the asymmetric part of a Digraph instance." target="_top">
<polygon fill="white" stroke="black" stroke-width="0.5" points="261.5,-1055 116.5,-1055 116.5,-1036 261.5,-1036 261.5,-1055"/>
<text text-anchor="middle" x="189" y="-1043" font-family="Vera Sans, DejaVu Sans, Liberation Sans, Arial, Helvetica, sans" font-size="10.00">AsymmetricPartialDigraph</text>
</a>
</g>
</g>
<!-- Digraph -->
<g id="node2" class="node">
<title>Digraph</title>
<g id="a_node2"><a xlink:href="../techDoc.html#digraphs.Digraph" xlink:title="Genuine root class of all Digraph3 modules." target="_top">
<polygon fill="white" stroke="black" stroke-width="0.5" points="55,-537 0,-537 0,-518 55,-518 55,-537"/>
<text text-anchor="middle" x="27.5" y="-525" font-family="Vera Sans, DejaVu Sans, Liberation Sans, Arial, Helvetica, sans" font-size="10.00">Digraph</text>
</a>
</g>
</g>
<!-- Digraph&#45;&gt;AsymmetricPartialDigraph -->
<g id="edge1" class="edge">
<title>Digraph&#45;&gt;AsymmetricPartialDigraph</title>
<path fill="none" stroke="black" stroke-width="0.5" d="M29.03,-537.12C32.75,-603.34 55.9,-990.26 91,-1027.5 96.74,-1033.59 103.82,-1038.01 111.53,-1041.18"/>
<polygon fill="black" stroke="black" stroke-width="0.5" points="111.1,-1042.89 116.4,-1042.99 112.32,-1039.61 111.1,-1042.89"/>
</g>
<!-- BreakAddCocsDigraph -->
<g id="node3" class="node">
<title>BreakAddCocsDigraph</title>
<g id="a_node3"><a xlink:href="../techDoc.html#digraphs.BreakAddCocsDigraph" xlink:title="Specialization of general Digraph class for instantiation" target="_top">
<polygon fill="white" stroke="black" stroke-width="0.5" points="251.5,-1018 126.5,-1018 126.5,-999 251.5,-999 251.5,-1018"/>
<text text-anchor="middle" x="189" y="-1006" font-family="Vera Sans, DejaVu Sans, Liberation Sans, Arial, Helvetica, sans" font-size="10.00">BreakAddCocsDigraph</text>
</a>
</g>
</g>
<!-- Digraph&#45;&gt;BreakAddCocsDigraph -->
<g id="edge2" class="edge">
<title>Digraph&#45;&gt;BreakAddCocsDigraph</title>
<path fill="none" stroke="black" stroke-width="0.5" d="M28.33,-537.15C27.51,-597.46 26.13,-922.35 91,-990.5 99.16,-999.08 109.99,-1004.33 121.45,-1007.44"/>
<polygon fill="black" stroke="black" stroke-width="0.5" points="121.12,-1009.16 126.39,-1008.64 121.95,-1005.76 121.12,-1009.16"/>
</g>
<!-- BrokenChordlessCircuitsDigraph -->
<g id="node4" class="node">
<title>BrokenChordlessCircuitsDigraph</title>
<g id="a_node4"><a xlink:href="../techDoc.html#digraphs.BrokenChordlessCircuitsDigraph" xlink:title="Specialization of general Digraph class for instantiation" target="_top">
<polygon fill="white" stroke="black" stroke-width="0.5" points="275.5,-981 102.5,-981 102.5,-962 275.5,-962 275.5,-981"/>
<text text-anchor="middle" x="189" y="-969" font-family="Vera Sans, DejaVu Sans, Liberation Sans, Arial, Helvetica, sans" font-size="10.00">BrokenChordlessCircuitsDigraph</text>
</a>
</g>
</g>
<!-- Digraph&#45;&gt;BrokenChordlessCircuitsDigraph -->
<g id="edge3" class="edge">
<title>Digraph&#45;&gt;BrokenChordlessCircuitsDigraph</title>
<path fill="none" stroke="black" stroke-width="0.5" d="M28.46,-537.12C28.41,-594.49 31.12,-891.31 91,-953.5 93.08,-955.66 95.33,-957.61 97.71,-959.36"/>
<polygon fill="black" stroke="black" stroke-width="0.5" points="97.01,-961 102.14,-962.32 98.95,-958.09 97.01,-961"/>
</g>
<!-- BrokenCocsDigraph -->
<g id="node5" class="node">
<title>BrokenCocsDigraph</title>
<g id="a_node5"><a xlink:href="../techDoc.html#digraphs.BrokenCocsDigraph" xlink:title="Specialization of general Digraph class for instantiation" target="_top">
<polygon fill="white" stroke="black" stroke-width="0.5" points="245,-944 133,-944 133,-925 245,-925 245,-944"/>
<text text-anchor="middle" x="189" y="-932" font-family="Vera Sans, DejaVu Sans, Liberation Sans, Arial, Helvetica, sans" font-size="10.00">BrokenCocsDigraph</text>
</a>
</g>
</g>
<!-- Digraph&#45;&gt;BrokenCocsDigraph -->
<g id="edge4" class="edge">
<title>Digraph&#45;&gt;BrokenCocsDigraph</title>
<path fill="none" stroke="black" stroke-width="0.5" d="M28.61,-537.34C29.42,-592.24 36.17,-860.33 91,-916.5 100.75,-926.49 114.12,-931.94 127.82,-934.73"/>
<polygon fill="black" stroke="black" stroke-width="0.5" points="127.65,-936.48 132.88,-935.65 128.27,-933.04 127.65,-936.48"/>
</g>
<!-- CSVDigraph -->
<g id="node6" class="node">
<title>CSVDigraph</title>
<g id="a_node6"><a xlink:href="../techDoc.html#digraphs.CSVDigraph" xlink:title="Specialization of the general Digraph class for reading" target="_top">
<polygon fill="white" stroke="black" stroke-width="0.5" points="226,-907 152,-907 152,-888 226,-888 226,-907"/>
<text text-anchor="middle" x="189" y="-895" font-family="Vera Sans, DejaVu Sans, Liberation Sans, Arial, Helvetica, sans" font-size="10.00">CSVDigraph</text>
</a>
</g>
</g>
<!-- Digraph&#45;&gt;CSVDigraph -->
<g id="edge5" class="edge">
<title>Digraph&#45;&gt;CSVDigraph</title>
<path fill="none" stroke="black" stroke-width="0.5" d="M28.78,-537.07C30.48,-588.25 41.05,-829.16 91,-879.5 105.23,-893.84 126.93,-898.78 146.2,-899.95"/>
<polygon fill="black" stroke="black" stroke-width="0.5" points="146.49,-901.72 151.56,-900.19 146.64,-898.22 146.49,-901.72"/>
</g>
<!-- CirculantDigraph -->
<g id="node7" class="node">
<title>CirculantDigraph</title>
<g id="a_node7"><a xlink:href="../techDoc.html#digraphs.CirculantDigraph" xlink:title="Specialization of the general Digraph class for generating" target="_top">
<polygon fill="white" stroke="black" stroke-width="0.5" points="238,-870 140,-870 140,-851 238,-851 238,-870"/>
<text text-anchor="middle" x="189" y="-858" font-family="Vera Sans, DejaVu Sans, Liberation Sans, Arial, Helvetica, sans" font-size="10.00">CirculantDigraph</text>
</a>
</g>
</g>
<!-- Digraph&#45;&gt;CirculantDigraph -->
<g id="edge6" class="edge">
<title>Digraph&#45;&gt;CirculantDigraph</title>
<path fill="none" stroke="black" stroke-width="0.5" d="M29.01,-537.32C31.72,-585.69 46.08,-798.13 91,-842.5 102.5,-853.85 118.69,-859.28 134.56,-861.62"/>
<polygon fill="black" stroke="black" stroke-width="0.5" points="134.74,-863.4 139.92,-862.29 135.18,-859.93 134.74,-863.4"/>
</g>
<!-- CoDualDigraph -->
<g id="node8" class="node">
<title>CoDualDigraph</title>
<g id="a_node8"><a xlink:href="../techDoc.html#digraphs.CoDualDigraph" xlink:title="Instantiates the associated codual &#45;converse of the negation&#45; from a deep copy of" target="_top">
<polygon fill="white" stroke="black" stroke-width="0.5" points="234,-833 144,-833 144,-814 234,-814 234,-833"/>
<text text-anchor="middle" x="189" y="-821" font-family="Vera Sans, DejaVu Sans, Liberation Sans, Arial, Helvetica, sans" font-size="10.00">CoDualDigraph</text>
</a>
</g>
</g>
<!-- Digraph&#45;&gt;CoDualDigraph -->
<g id="edge7" class="edge">
<title>Digraph&#45;&gt;CoDualDigraph</title>
<path fill="none" stroke="black" stroke-width="0.5" d="M29.26,-537.04C33.01,-581.4 50.91,-766.9 91,-805.5 103.52,-817.56 121.36,-822.89 138.34,-824.92"/>
<polygon fill="black" stroke="black" stroke-width="0.5" points="138.42,-826.69 143.57,-825.45 138.77,-823.21 138.42,-826.69"/>
</g>
<!-- CocaDigraph -->
<g id="node9" class="node">
<title>CocaDigraph</title>
<g id="a_node9"><a xlink:href="../techDoc.html#digraphs.CocaDigraph" xlink:title="Old CocaDigraph class without circuit breakings; all circuits and circuits of circuits are added as hyper&#45;nodes." target="_top">
<polygon fill="white" stroke="black" stroke-width="0.5" points="228.5,-796 149.5,-796 149.5,-777 228.5,-777 228.5,-796"/>
<text text-anchor="middle" x="189" y="-784" font-family="Vera Sans, DejaVu Sans, Liberation Sans, Arial, Helvetica, sans" font-size="10.00">CocaDigraph</text>
</a>
</g>
</g>
<!-- Digraph&#45;&gt;CocaDigraph -->
<g id="edge8" class="edge">
<title>Digraph&#45;&gt;CocaDigraph</title>
<path fill="none" stroke="black" stroke-width="0.5" d="M29.62,-537.12C34.58,-577.87 55.82,-735.71 91,-768.5 105.09,-781.63 125.51,-786.7 143.99,-788.25"/>
<polygon fill="black" stroke="black" stroke-width="0.5" points="144.03,-790.01 149.14,-788.6 144.27,-786.52 144.03,-790.01"/>
</g>
<!-- CompleteDigraph -->
<g id="node10" class="node">
<title>CompleteDigraph</title>
<g id="a_node10"><a xlink:href="../techDoc.html#digraphs.CompleteDigraph" xlink:title="Specialization of the general Digraph class for generating" target="_top">
<polygon fill="white" stroke="black" stroke-width="0.5" points="240,-759 138,-759 138,-740 240,-740 240,-759"/>
<text text-anchor="middle" x="189" y="-747" font-family="Vera Sans, DejaVu Sans, Liberation Sans, Arial, Helvetica, sans" font-size="10.00">CompleteDigraph</text>
</a>
</g>
</g>
<!-- Digraph&#45;&gt;CompleteDigraph -->
<g id="edge9" class="edge">
<title>Digraph&#45;&gt;CompleteDigraph</title>
<path fill="none" stroke="black" stroke-width="0.5" d="M28.22,-537.44C27.88,-570.63 31.57,-678.48 91,-731.5 102.42,-741.69 117.7,-746.96 132.74,-749.5"/>
<polygon fill="black" stroke="black" stroke-width="0.5" points="132.62,-751.26 137.83,-750.26 133.14,-747.79 132.62,-751.26"/>
</g>
<!-- ConverseDigraph -->
<g id="node11" class="node">
<title>ConverseDigraph</title>
<g id="a_node11"><a xlink:href="../techDoc.html#digraphs.ConverseDigraph" xlink:title="Instantiates the associated converse or reciprocal version from" target="_top">
<polygon fill="white" stroke="black" stroke-width="0.5" points="239.5,-722 138.5,-722 138.5,-703 239.5,-703 239.5,-722"/>
<text text-anchor="middle" x="189" y="-710" font-family="Vera Sans, DejaVu Sans, Liberation Sans, Arial, Helvetica, sans" font-size="10.00">ConverseDigraph</text>
</a>
</g>
</g>
<!-- Digraph&#45;&gt;ConverseDigraph -->
<g id="edge10" class="edge">
<title>Digraph&#45;&gt;ConverseDigraph</title>
<path fill="none" stroke="black" stroke-width="0.5" d="M28.98,-537.27C30.95,-566.29 40.96,-652.52 91,-694.5 102.79,-704.39 118.25,-709.56 133.35,-712.09"/>
<polygon fill="black" stroke="black" stroke-width="0.5" points="133.25,-713.85 138.46,-712.86 133.77,-710.39 133.25,-713.85"/>
</g>
<!-- CoverDigraph -->
<g id="node12" class="node">
<title>CoverDigraph</title>
<g id="a_node12"><a xlink:href="../techDoc.html#digraphs.CoverDigraph" xlink:title="Instantiates the associated cover relation &#45;immediate neighbours&#45; from" target="_top">
<polygon fill="white" stroke="black" stroke-width="0.5" points="230.5,-685 147.5,-685 147.5,-666 230.5,-666 230.5,-685"/>
<text text-anchor="middle" x="189" y="-673" font-family="Vera Sans, DejaVu Sans, Liberation Sans, Arial, Helvetica, sans" font-size="10.00">CoverDigraph</text>
</a>
</g>
</g>
<!-- Digraph&#45;&gt;CoverDigraph -->
<g id="edge11" class="edge">
<title>Digraph&#45;&gt;CoverDigraph</title>
<path fill="none" stroke="black" stroke-width="0.5" d="M30.1,-537.21C34.68,-561.71 50.23,-626.31 91,-657.5 105.42,-668.53 124.54,-673.52 141.99,-675.57"/>
<polygon fill="black" stroke="black" stroke-width="0.5" points="142.19,-677.35 147.34,-676.11 142.54,-673.86 142.19,-677.35"/>
</g>
<!-- CriteriaCorrelationDigraph -->
<g id="node13" class="node">
<title>CriteriaCorrelationDigraph</title>
<g id="a_node13"><a xlink:href="../techDoc.html#digraphs.CriteriaCorrelationDigraph" xlink:title="Renders the ordinal criteria correlation digraph from the given outranking digraph." target="_top">
<polygon fill="white" stroke="black" stroke-width="0.5" points="261.5,-648 116.5,-648 116.5,-629 261.5,-629 261.5,-648"/>
<text text-anchor="middle" x="189" y="-636" font-family="Vera Sans, DejaVu Sans, Liberation Sans, Arial, Helvetica, sans" font-size="10.00">CriteriaCorrelationDigraph</text>
</a>
</g>
</g>
<!-- Digraph&#45;&gt;CriteriaCorrelationDigraph -->
<g id="edge12" class="edge">
<title>Digraph&#45;&gt;CriteriaCorrelationDigraph</title>
<path fill="none" stroke="black" stroke-width="0.5" d="M32.05,-537.28C39.63,-556.61 59.3,-599.67 91,-620.5 97.22,-624.59 104.13,-627.81 111.31,-630.33"/>
<polygon fill="black" stroke="black" stroke-width="0.5" points="111.02,-632.08 116.31,-631.97 112.11,-628.75 111.02,-632.08"/>
</g>
<!-- DualDigraph -->
<g id="node14" class="node">
<title>DualDigraph</title>
<g id="a_node14"><a xlink:href="../techDoc.html#digraphs.DualDigraph" xlink:title="Instantiates the dual ( = negated valuation) Digraph object from a deep copy of a given other Digraph instance." target="_top">
<polygon fill="white" stroke="black" stroke-width="0.5" points="227.5,-611 150.5,-611 150.5,-592 227.5,-592 227.5,-611"/>
<text text-anchor="middle" x="189" y="-599" font-family="Vera Sans, DejaVu Sans, Liberation Sans, Arial, Helvetica, sans" font-size="10.00">DualDigraph</text>
</a>
</g>
</g>
<!-- Digraph&#45;&gt;DualDigraph -->
<g id="edge13" class="edge">
<title>Digraph&#45;&gt;DualDigraph</title>
<path fill="none" stroke="black" stroke-width="0.5" d="M36.25,-537.17C47.08,-549.96 67.99,-572.18 91,-583.5 107.58,-591.65 127.4,-596.13 144.79,-598.58"/>
<polygon fill="black" stroke="black" stroke-width="0.5" points="144.92,-600.36 150.11,-599.28 145.38,-596.89 144.92,-600.36"/>
</g>
<!-- EmptyDigraph -->
<g id="node15" class="node">
<title>EmptyDigraph</title>
<g id="a_node15"><a xlink:href="../techDoc.html#digraphs.EmptyDigraph" xlink:title="Parameters:" target="_top">
<polygon fill="white" stroke="black" stroke-width="0.5" points="232,-574 146,-574 146,-555 232,-555 232,-574"/>
<text text-anchor="middle" x="189" y="-562" font-family="Vera Sans, DejaVu Sans, Liberation Sans, Arial, Helvetica, sans" font-size="10.00">EmptyDigraph</text>
</a>
</g>
</g>
<!-- Digraph&#45;&gt;EmptyDigraph -->
<g id="edge14" class="edge">
<title>Digraph&#45;&gt;EmptyDigraph</title>
<path fill="none" stroke="black" stroke-width="0.5" d="M55.08,-536.3C66.12,-539.76 79.1,-543.6 91,-546.5 107,-550.4 124.66,-553.91 140.48,-556.77"/>
<polygon fill="black" stroke="black" stroke-width="0.5" points="140.54,-558.56 145.77,-557.72 141.15,-555.12 140.54,-558.56"/>
</g>
<!-- EquivalenceDigraph -->
<g id="node16" class="node">
<title>EquivalenceDigraph</title>
<g id="a_node16"><a xlink:href="../techDoc.html#digraphs.EquivalenceDigraph" xlink:title="Instantiates the logical equivalence digraph of two bipolar" target="_top">
<polygon fill="white" stroke="black" stroke-width="0.5" points="246,-537 132,-537 132,-518 246,-518 246,-537"/>
<text text-anchor="middle" x="189" y="-525" font-family="Vera Sans, DejaVu Sans, Liberation Sans, Arial, Helvetica, sans" font-size="10.00">EquivalenceDigraph</text>
</a>
</g>
</g>
<!-- Digraph&#45;&gt;EquivalenceDigraph -->
<g id="edge15" class="edge">
<title>Digraph&#45;&gt;EquivalenceDigraph</title>
<path fill="none" stroke="black" stroke-width="0.5" d="M55.2,-527.5C74.65,-527.5 101.82,-527.5 126.52,-527.5"/>
<polygon fill="black" stroke="black" stroke-width="0.5" points="126.75,-529.25 131.75,-527.5 126.75,-525.75 126.75,-529.25"/>
</g>
<!-- FusionDigraph -->
<g id="node17" class="node">
<title>FusionDigraph</title>
<g id="a_node17"><a xlink:href="../techDoc.html#digraphs.FusionDigraph" xlink:title="Instantiates the epistemic fusion of " target="_top">
<polygon fill="white" stroke="black" stroke-width="0.5" points="232,-500 146,-500 146,-481 232,-481 232,-500"/>
<text text-anchor="middle" x="189" y="-488" font-family="Vera Sans, DejaVu Sans, Liberation Sans, Arial, Helvetica, sans" font-size="10.00">FusionDigraph</text>
</a>
</g>
</g>
<!-- Digraph&#45;&gt;FusionDigraph -->
<g id="edge16" class="edge">
<title>Digraph&#45;&gt;FusionDigraph</title>
<path fill="none" stroke="black" stroke-width="0.5" d="M55.13,-519.28C66.17,-516.01 79.15,-512.36 91,-509.5 107.04,-505.63 124.71,-501.98 140.52,-498.94"/>
<polygon fill="black" stroke="black" stroke-width="0.5" points="141.23,-500.59 145.81,-497.94 140.57,-497.15 141.23,-500.59"/>
</g>
<!-- FusionLDigraph -->
<g id="node18" class="node">
<title>FusionLDigraph</title>
<g id="a_node18"><a xlink:href="../techDoc.html#digraphs.FusionLDigraph" xlink:title="Instantiates the epistemic fusion a list L of Digraph instances." target="_top">
<polygon fill="white" stroke="black" stroke-width="0.5" points="235,-463 143,-463 143,-444 235,-444 235,-463"/>
<text text-anchor="middle" x="189" y="-451" font-family="Vera Sans, DejaVu Sans, Liberation Sans, Arial, Helvetica, sans" font-size="10.00">FusionLDigraph</text>
</a>
</g>
</g>
<!-- Digraph&#45;&gt;FusionLDigraph -->
<g id="edge17" class="edge">
<title>Digraph&#45;&gt;FusionLDigraph</title>
<path fill="none" stroke="black" stroke-width="0.5" d="M36.68,-517.61C47.67,-505.03 68.44,-483.61 91,-472.5 105.38,-465.42 122.19,-460.97 137.74,-458.19"/>
<polygon fill="black" stroke="black" stroke-width="0.5" points="138.31,-459.86 142.95,-457.3 137.73,-456.41 138.31,-459.86"/>
</g>
<!-- GraphBorder -->
<g id="node19" class="node">
<title>GraphBorder</title>
<g id="a_node19"><a xlink:href="../techDoc.html#digraphs.GraphBorder" xlink:title="Instantiates the partial digraph induced by its border," target="_top">
<polygon fill="white" stroke="black" stroke-width="0.5" points="228,-426 150,-426 150,-407 228,-407 228,-426"/>
<text text-anchor="middle" x="189" y="-414" font-family="Vera Sans, DejaVu Sans, Liberation Sans, Arial, Helvetica, sans" font-size="10.00">GraphBorder</text>
</a>
</g>
</g>
<!-- Digraph&#45;&gt;GraphBorder -->
<g id="edge18" class="edge">
<title>Digraph&#45;&gt;GraphBorder</title>
<path fill="none" stroke="black" stroke-width="0.5" d="M32.1,-517.85C39.76,-498.77 59.58,-456.25 91,-435.5 106.84,-425.04 127.09,-420.07 145,-417.8"/>
<polygon fill="black" stroke="black" stroke-width="0.5" points="145.21,-419.54 149.98,-417.23 144.81,-416.06 145.21,-419.54"/>
</g>
<!-- GraphInner -->
<g id="node20" class="node">
<title>GraphInner</title>
<g id="a_node20"><a xlink:href="../techDoc.html#digraphs.GraphInner" xlink:title="Instantiates the partial digraph induced by the complement of its border," target="_top">
<polygon fill="white" stroke="black" stroke-width="0.5" points="224.5,-389 153.5,-389 153.5,-370 224.5,-370 224.5,-389"/>
<text text-anchor="middle" x="189" y="-377" font-family="Vera Sans, DejaVu Sans, Liberation Sans, Arial, Helvetica, sans" font-size="10.00">GraphInner</text>
</a>
</g>
</g>
<!-- Digraph&#45;&gt;GraphInner -->
<g id="edge19" class="edge">
<title>Digraph&#45;&gt;GraphInner</title>
<path fill="none" stroke="black" stroke-width="0.5" d="M30.14,-517.89C34.82,-493.63 50.59,-429.64 91,-398.5 107.15,-386.05 129.21,-381.07 148.21,-379.3"/>
<polygon fill="black" stroke="black" stroke-width="0.5" points="148.63,-381.02 153.48,-378.88 148.36,-377.53 148.63,-381.02"/>
</g>
<!-- GridDigraph -->
<g id="node21" class="node">
<title>GridDigraph</title>
<g id="a_node21"><a xlink:href="../techDoc.html#digraphs.GridDigraph" xlink:title="Specialization of the general Digraph class for generating" target="_top">
<polygon fill="white" stroke="black" stroke-width="0.5" points="226.5,-352 151.5,-352 151.5,-333 226.5,-333 226.5,-352"/>
<text text-anchor="middle" x="189" y="-340" font-family="Vera Sans, DejaVu Sans, Liberation Sans, Arial, Helvetica, sans" font-size="10.00">GridDigraph</text>
</a>
</g>
</g>
<!-- Digraph&#45;&gt;GridDigraph -->
<g id="edge20" class="edge">
<title>Digraph&#45;&gt;GridDigraph</title>
<path fill="none" stroke="black" stroke-width="0.5" d="M29.02,-517.81C31.1,-489.02 41.39,-403.46 91,-361.5 106.09,-348.74 127.24,-343.61 145.93,-341.84"/>
<polygon fill="black" stroke="black" stroke-width="0.5" points="146.29,-343.56 151.13,-341.42 146.01,-340.07 146.29,-343.56"/>
</g>
<!-- IndeterminateDigraph -->
<g id="node22" class="node">
<title>IndeterminateDigraph</title>
<g id="a_node22"><a xlink:href="../techDoc.html#digraphs.IndeterminateDigraph" xlink:title="Parameters: order &gt; 0; valuationdomain =(Min,Max)." target="_top">
<polygon fill="white" stroke="black" stroke-width="0.5" points="251,-315 127,-315 127,-296 251,-296 251,-315"/>
<text text-anchor="middle" x="189" y="-303" font-family="Vera Sans, DejaVu Sans, Liberation Sans, Arial, Helvetica, sans" font-size="10.00">IndeterminateDigraph</text>
</a>
</g>
</g>
<!-- Digraph&#45;&gt;IndeterminateDigraph -->
<g id="edge21" class="edge">
<title>Digraph&#45;&gt;IndeterminateDigraph</title>
<path fill="none" stroke="black" stroke-width="0.5" d="M28.26,-517.63C28.04,-484.67 32.07,-377.53 91,-324.5 99.71,-316.67 110.66,-311.66 122.05,-308.53"/>
<polygon fill="black" stroke="black" stroke-width="0.5" points="122.53,-310.21 126.96,-307.3 121.68,-306.82 122.53,-310.21"/>
</g>
<!-- KneserDigraph -->
<g id="node23" class="node">
<title>KneserDigraph</title>
<g id="a_node23"><a xlink:href="../techDoc.html#digraphs.KneserDigraph" xlink:title="Specialization of the general Digraph class for generating" target="_top">
<polygon fill="white" stroke="black" stroke-width="0.5" points="233.5,-278 144.5,-278 144.5,-259 233.5,-259 233.5,-278"/>
<text text-anchor="middle" x="189" y="-266" font-family="Vera Sans, DejaVu Sans, Liberation Sans, Arial, Helvetica, sans" font-size="10.00">KneserDigraph</text>
</a>
</g>
</g>
<!-- Digraph&#45;&gt;KneserDigraph -->
<g id="edge22" class="edge">
<title>Digraph&#45;&gt;KneserDigraph</title>
<path fill="none" stroke="black" stroke-width="0.5" d="M29.64,-517.93C34.65,-477.39 56.11,-320.32 91,-287.5 103.8,-275.46 121.88,-270.01 138.97,-267.81"/>
<polygon fill="black" stroke="black" stroke-width="0.5" points="139.46,-269.52 144.24,-267.23 139.07,-266.04 139.46,-269.52"/>
</g>
<!-- PolarisedDigraph -->
<g id="node24" class="node">
<title>PolarisedDigraph</title>
<g id="a_node24"><a xlink:href="../techDoc.html#digraphs.PolarisedDigraph" xlink:title="Renders the polarised valuation of a Digraph class instance:" target="_top">
<polygon fill="white" stroke="black" stroke-width="0.5" points="239,-241 139,-241 139,-222 239,-222 239,-241"/>
<text text-anchor="middle" x="189" y="-229" font-family="Vera Sans, DejaVu Sans, Liberation Sans, Arial, Helvetica, sans" font-size="10.00">PolarisedDigraph</text>
</a>
</g>
</g>
<!-- Digraph&#45;&gt;PolarisedDigraph -->
<g id="edge23" class="edge">
<title>Digraph&#45;&gt;PolarisedDigraph</title>
<path fill="none" stroke="black" stroke-width="0.5" d="M29.28,-518C33.09,-473.84 51.23,-289.15 91,-250.5 102.33,-239.49 118.06,-233.94 133.56,-231.35"/>
<polygon fill="black" stroke="black" stroke-width="0.5" points="134.11,-233.04 138.8,-230.58 133.6,-229.57 134.11,-233.04"/>
</g>
<!-- RedhefferDigraph -->
<g id="node25" class="node">
<title>RedhefferDigraph</title>
<g id="a_node25"><a xlink:href="../techDoc.html#digraphs.RedhefferDigraph" xlink:title="Specialization of the general Digraph class for generating" target="_top">
<polygon fill="white" stroke="black" stroke-width="0.5" points="240,-204 138,-204 138,-185 240,-185 240,-204"/>
<text text-anchor="middle" x="189" y="-192" font-family="Vera Sans, DejaVu Sans, Liberation Sans, Arial, Helvetica, sans" font-size="10.00">RedhefferDigraph</text>
</a>
</g>
</g>
<!-- Digraph&#45;&gt;RedhefferDigraph -->
<g id="edge24" class="edge">
<title>Digraph&#45;&gt;RedhefferDigraph</title>
<path fill="none" stroke="black" stroke-width="0.5" d="M29.02,-517.72C31.8,-469.55 46.42,-257.94 91,-213.5 102.03,-202.51 117.42,-196.92 132.71,-194.29"/>
<polygon fill="black" stroke="black" stroke-width="0.5" points="133.2,-195.98 137.88,-193.5 132.68,-192.52 133.2,-195.98"/>
</g>
<!-- StrongComponentsCollapsedDigraph -->
<g id="node26" class="node">
<title>StrongComponentsCollapsedDigraph</title>
<g id="a_node26"><a xlink:href="../techDoc.html#digraphs.StrongComponentsCollapsedDigraph" xlink:title="Reduction of Digraph object to its strong components." target="_top">
<polygon fill="white" stroke="black" stroke-width="0.5" points="287,-167 91,-167 91,-148 287,-148 287,-167"/>
<text text-anchor="middle" x="189" y="-155" font-family="Vera Sans, DejaVu Sans, Liberation Sans, Arial, Helvetica, sans" font-size="10.00">StrongComponentsCollapsedDigraph</text>
</a>
</g>
</g>
<!-- Digraph&#45;&gt;StrongComponentsCollapsedDigraph -->
<g id="edge25" class="edge">
<title>Digraph&#45;&gt;StrongComponentsCollapsedDigraph</title>
<path fill="none" stroke="black" stroke-width="0.5" d="M28.79,-517.97C30.56,-466.98 41.43,-226.93 91,-176.5 93.37,-174.09 95.95,-171.94 98.69,-170.02"/>
<polygon fill="black" stroke="black" stroke-width="0.5" points="99.85,-171.36 103.12,-167.19 97.96,-168.41 99.85,-171.36"/>
</g>
<!-- SymmetricPartialDigraph -->
<g id="node27" class="node">
<title>SymmetricPartialDigraph</title>
<g id="a_node27"><a xlink:href="../techDoc.html#digraphs.SymmetricPartialDigraph" xlink:title="Renders the symmetric part of a Digraph instance." target="_top">
<polygon fill="white" stroke="black" stroke-width="0.5" points="258.5,-130 119.5,-130 119.5,-111 258.5,-111 258.5,-130"/>
<text text-anchor="middle" x="189" y="-118" font-family="Vera Sans, DejaVu Sans, Liberation Sans, Arial, Helvetica, sans" font-size="10.00">SymmetricPartialDigraph</text>
</a>
</g>
</g>
<!-- Digraph&#45;&gt;SymmetricPartialDigraph -->
<g id="edge26" class="edge">
<title>Digraph&#45;&gt;SymmetricPartialDigraph</title>
<path fill="none" stroke="black" stroke-width="0.5" d="M28.62,-517.7C29.5,-462.98 36.58,-195.79 91,-139.5 97.44,-132.84 105.48,-128.14 114.16,-124.88"/>
<polygon fill="black" stroke="black" stroke-width="0.5" points="114.87,-126.48 119.04,-123.21 113.74,-123.17 114.87,-126.48"/>
</g>
<!-- XMCDA2Digraph -->
<g id="node28" class="node">
<title>XMCDA2Digraph</title>
<g id="a_node28"><a xlink:href="../techDoc.html#digraphs.XMCDA2Digraph" xlink:title="Specialization of the general Digraph class for reading" target="_top">
<polygon fill="white" stroke="black" stroke-width="0.5" points="238,-93 140,-93 140,-74 238,-74 238,-93"/>
<text text-anchor="middle" x="189" y="-81" font-family="Vera Sans, DejaVu Sans, Liberation Sans, Arial, Helvetica, sans" font-size="10.00">XMCDA2Digraph</text>
</a>
</g>
</g>
<!-- Digraph&#45;&gt;XMCDA2Digraph -->
<g id="edge27" class="edge">
<title>Digraph&#45;&gt;XMCDA2Digraph</title>
<path fill="none" stroke="black" stroke-width="0.5" d="M28.47,-517.92C28.5,-460.72 31.55,-164.84 91,-102.5 102.32,-90.63 118.72,-84.97 134.82,-82.55"/>
<polygon fill="black" stroke="black" stroke-width="0.5" points="135.07,-84.28 139.8,-81.89 134.61,-80.81 135.07,-84.28"/>
</g>
<!-- XORDigraph -->
<g id="node29" class="node">
<title>XORDigraph</title>
<g id="a_node29"><a xlink:href="../techDoc.html#digraphs.XORDigraph" xlink:title="Instantiates the XOR digraph of two bipolar" target="_top">
<polygon fill="white" stroke="black" stroke-width="0.5" points="226.5,-56 151.5,-56 151.5,-37 226.5,-37 226.5,-56"/>
<text text-anchor="middle" x="189" y="-44" font-family="Vera Sans, DejaVu Sans, Liberation Sans, Arial, Helvetica, sans" font-size="10.00">XORDigraph</text>
</a>
</g>
</g>
<!-- Digraph&#45;&gt;XORDigraph -->
<g id="edge28" class="edge">
<title>Digraph&#45;&gt;XORDigraph</title>
<path fill="none" stroke="black" stroke-width="0.5" d="M28.35,-517.88C27.59,-457.75 26.6,-133.82 91,-65.5 104.88,-50.78 126.55,-45.59 145.89,-44.27"/>
<polygon fill="black" stroke="black" stroke-width="0.5" points="146.37,-46 151.28,-44 146.2,-42.5 146.37,-46"/>
</g>
<!-- kChoicesDigraph -->
<g id="node30" class="node">
<title>kChoicesDigraph</title>
<g id="a_node30"><a xlink:href="../techDoc.html#digraphs.kChoicesDigraph" xlink:title="Specialization of general Digraph class for instantiation" target="_top">
<polygon fill="white" stroke="black" stroke-width="0.5" points="238.5,-19 139.5,-19 139.5,0 238.5,0 238.5,-19"/>
<text text-anchor="middle" x="189" y="-7" font-family="Vera Sans, DejaVu Sans, Liberation Sans, Arial, Helvetica, sans" font-size="10.00">kChoicesDigraph</text>
</a>
</g>
</g>
<!-- Digraph&#45;&gt;kChoicesDigraph -->
<g id="edge29" class="edge">
<title>Digraph&#45;&gt;kChoicesDigraph</title>
<path fill="none" stroke="black" stroke-width="0.5" d="M28.24,-517.94C26.75,-455.22 21.59,-102.86 91,-28.5 102.14,-16.56 118.4,-10.88 134.44,-8.44"/>
<polygon fill="black" stroke="black" stroke-width="0.5" points="134.67,-10.17 139.4,-7.79 134.22,-6.7 134.67,-10.17"/>
</g>
</g>
</svg>
