<?xml version="1.0" encoding="UTF-8" standalone="no"?>
<!DOCTYPE svg PUBLIC "-//W3C//DTD SVG 1.1//EN"
 "http://www.w3.org/Graphics/SVG/1.1/DTD/svg11.dtd">
<!-- Generated by graphviz version 2.43.0 (0)
 -->
<!-- Title: inheritanceee6a13e1b7 Pages: 1 -->
<svg width="722pt" height="64pt"
 viewBox="0.00 0.00 722.00 64.00" xmlns="http://www.w3.org/2000/svg" xmlns:xlink="http://www.w3.org/1999/xlink">
<g id="graph0" class="graph" transform="scale(1 1) rotate(0) translate(4 60)">
<title>inheritanceee6a13e1b7</title>
<!-- ConfidentQuantilesSortingDigraph -->
<g id="node1" class="node">
<title>ConfidentQuantilesSortingDigraph</title>
<g id="a_node1"><a xlink:href="../techDoc.html#sortingDigraphs.ConfidentQuantilesSortingDigraph" xlink:title="Specialisation of the root :py:class:`~sortingDigraphs.QuantilesSortingDigraph` class" target="_top">
<polygon fill="white" stroke="black" stroke-width="0.5" points="506,-19 324,-19 324,0 506,0 506,-19"/>
<text text-anchor="middle" x="415" y="-7" font-family="Vera Sans, DejaVu Sans, Liberation Sans, Arial, Helvetica, sans" font-size="10.00">ConfidentQuantilesSortingDigraph</text>
</a>
</g>
</g>
<!-- QuantilesSortingDigraph -->
<g id="node2" class="node">
<title>QuantilesSortingDigraph</title>
<g id="a_node2"><a xlink:href="../techDoc.html#sortingDigraphs.QuantilesSortingDigraph" xlink:title="Specialisation of the root :py:class:`sortingDigraphs.SortingDigraph` class" target="_top">
<polygon fill="white" stroke="black" stroke-width="0.5" points="288,-19 152,-19 152,0 288,0 288,-19"/>
<text text-anchor="middle" x="220" y="-7" font-family="Vera Sans, DejaVu Sans, Liberation Sans, Arial, Helvetica, sans" font-size="10.00">QuantilesSortingDigraph</text>
</a>
</g>
</g>
<!-- QuantilesSortingDigraph&#45;&gt;ConfidentQuantilesSortingDigraph -->
<g id="edge1" class="edge">
<title>QuantilesSortingDigraph&#45;&gt;ConfidentQuantilesSortingDigraph</title>
<path fill="none" stroke="black" stroke-width="0.5" d="M288.23,-9.5C298.14,-9.5 308.51,-9.5 318.85,-9.5"/>
<polygon fill="black" stroke="black" stroke-width="0.5" points="318.92,-11.25 323.92,-9.5 318.92,-7.75 318.92,-11.25"/>
</g>
<!-- LearnedQuantilesRatingDigraph -->
<g id="node3" class="node">
<title>LearnedQuantilesRatingDigraph</title>
<g id="a_node3"><a xlink:href="../techDoc.html#sortingDigraphs.LearnedQuantilesRatingDigraph" xlink:title="Specialisation of the root :py:class:`sortingDigraphs.SortingDigraph` class" target="_top">
<polygon fill="white" stroke="black" stroke-width="0.5" points="501,-56 329,-56 329,-37 501,-37 501,-56"/>
<text text-anchor="middle" x="415" y="-44" font-family="Vera Sans, DejaVu Sans, Liberation Sans, Arial, Helvetica, sans" font-size="10.00">LearnedQuantilesRatingDigraph</text>
</a>
</g>
</g>
<!-- QuantilesSortingDigraph&#45;&gt;LearnedQuantilesRatingDigraph -->
<g id="edge2" class="edge">
<title>QuantilesSortingDigraph&#45;&gt;LearnedQuantilesRatingDigraph</title>
<path fill="none" stroke="black" stroke-width="0.5" d="M270.7,-19.03C297.72,-24.21 331.21,-30.63 359.01,-35.96"/>
<polygon fill="black" stroke="black" stroke-width="0.5" points="358.89,-37.72 364.13,-36.94 359.55,-34.28 358.89,-37.72"/>
</g>
<!-- NormedQuantilesRatingDigraph -->
<g id="node5" class="node">
<title>NormedQuantilesRatingDigraph</title>
<g id="a_node5"><a xlink:href="../techDoc.html#sortingDigraphs.NormedQuantilesRatingDigraph" xlink:title="Obsolete name for backward compatibility" target="_top">
<polygon fill="white" stroke="black" stroke-width="0.5" points="714,-56 542,-56 542,-37 714,-37 714,-56"/>
<text text-anchor="middle" x="628" y="-44" font-family="Vera Sans, DejaVu Sans, Liberation Sans, Arial, Helvetica, sans" font-size="10.00">NormedQuantilesRatingDigraph</text>
</a>
</g>
</g>
<!-- LearnedQuantilesRatingDigraph&#45;&gt;NormedQuantilesRatingDigraph -->
<g id="edge4" class="edge">
<title>LearnedQuantilesRatingDigraph&#45;&gt;NormedQuantilesRatingDigraph</title>
<path fill="none" stroke="black" stroke-width="0.5" d="M501.21,-46.5C512.92,-46.5 524.98,-46.5 536.77,-46.5"/>
<polygon fill="black" stroke="black" stroke-width="0.5" points="536.81,-48.25 541.81,-46.5 536.81,-44.75 536.81,-48.25"/>
</g>
<!-- PerformanceQuantiles -->
<g id="node4" class="node">
<title>PerformanceQuantiles</title>
<g id="a_node4"><a xlink:href="../techDoc.html#performanceQuantiles.PerformanceQuantiles" xlink:title="Implements the incremental performance quantiles representation of a" target="_top">
<polygon fill="white" stroke="black" stroke-width="0.5" points="282.5,-56 157.5,-56 157.5,-37 282.5,-37 282.5,-56"/>
<text text-anchor="middle" x="220" y="-44" font-family="Vera Sans, DejaVu Sans, Liberation Sans, Arial, Helvetica, sans" font-size="10.00">PerformanceQuantiles</text>
</a>
</g>
</g>
<!-- PerformanceQuantiles&#45;&gt;LearnedQuantilesRatingDigraph -->
<g id="edge3" class="edge">
<title>PerformanceQuantiles&#45;&gt;LearnedQuantilesRatingDigraph</title>
<path fill="none" stroke="black" stroke-width="0.5" d="M282.6,-46.5C295.66,-46.5 309.72,-46.5 323.6,-46.5"/>
<polygon fill="black" stroke="black" stroke-width="0.5" points="323.71,-48.25 328.71,-46.5 323.71,-44.75 323.71,-48.25"/>
</g>
<!-- PerformanceTableau -->
<g id="node6" class="node">
<title>PerformanceTableau</title>
<g id="a_node6"><a xlink:href="../techDoc.html#perfTabs.PerformanceTableau" xlink:title="In this *Digraph3* module, the root :py:class:`perfTabs.PerformanceTableau` class provides a generic **performance table model**. A given object of this class consists in:" target="_top">
<polygon fill="white" stroke="black" stroke-width="0.5" points="116,-56 0,-56 0,-37 116,-37 116,-56"/>
<text text-anchor="middle" x="58" y="-44" font-family="Vera Sans, DejaVu Sans, Liberation Sans, Arial, Helvetica, sans" font-size="10.00">PerformanceTableau</text>
</a>
</g>
</g>
<!-- PerformanceTableau&#45;&gt;PerformanceQuantiles -->
<g id="edge5" class="edge">
<title>PerformanceTableau&#45;&gt;PerformanceQuantiles</title>
<path fill="none" stroke="black" stroke-width="0.5" d="M116.31,-46.5C128,-46.5 140.4,-46.5 152.38,-46.5"/>
<polygon fill="black" stroke="black" stroke-width="0.5" points="152.49,-48.25 157.49,-46.5 152.49,-44.75 152.49,-48.25"/>
</g>
<!-- SortingDigraph -->
<g id="node7" class="node">
<title>SortingDigraph</title>
<g id="a_node7"><a xlink:href="../techDoc.html#sortingDigraphs.SortingDigraph" xlink:title="Specialisation of the digraphs.BipolarOutrankingDigraph Class" target="_top">
<polygon fill="white" stroke="black" stroke-width="0.5" points="102.5,-19 13.5,-19 13.5,0 102.5,0 102.5,-19"/>
<text text-anchor="middle" x="58" y="-7" font-family="Vera Sans, DejaVu Sans, Liberation Sans, Arial, Helvetica, sans" font-size="10.00">SortingDigraph</text>
</a>
</g>
</g>
<!-- SortingDigraph&#45;&gt;QuantilesSortingDigraph -->
<g id="edge6" class="edge">
<title>SortingDigraph&#45;&gt;QuantilesSortingDigraph</title>
<path fill="none" stroke="black" stroke-width="0.5" d="M102.72,-9.5C116.35,-9.5 131.77,-9.5 146.81,-9.5"/>
<polygon fill="black" stroke="black" stroke-width="0.5" points="146.9,-11.25 151.9,-9.5 146.9,-7.75 146.9,-11.25"/>
</g>
</g>
</svg>
