<?xml version="1.0" encoding="UTF-8" standalone="no"?>
<!DOCTYPE svg PUBLIC "-//W3C//DTD SVG 1.1//EN"
 "http://www.w3.org/Graphics/SVG/1.1/DTD/svg11.dtd">
<!-- Generated by graphviz version 2.43.0 (0)
 -->
<!-- Title: inheritance869eb85165 Pages: 1 -->
<svg width="454pt" height="323pt"
 viewBox="0.00 0.00 454.00 323.00" xmlns="http://www.w3.org/2000/svg" xmlns:xlink="http://www.w3.org/1999/xlink">
<g id="graph0" class="graph" transform="scale(1 1) rotate(0) translate(4 319)">
<title>inheritance869eb85165</title>
<!-- Digraph -->
<g id="node1" class="node">
<title>Digraph</title>
<g id="a_node1"><a xlink:href="../techDoc.html#digraphs.Digraph" xlink:title="Genuine root class of all Digraph3 modules." target="_top">
<polygon fill="white" stroke="black" stroke-width="0.5" points="55,-167 0,-167 0,-148 55,-148 55,-167"/>
<text text-anchor="middle" x="27.5" y="-155" font-family="Vera Sans, DejaVu Sans, Liberation Sans, Arial, Helvetica, sans" font-size="10.00">Digraph</text>
</a>
</g>
</g>
<!-- GridDigraph -->
<g id="node2" class="node">
<title>GridDigraph</title>
<g id="a_node2"><a xlink:href="../techDoc.html#digraphs.GridDigraph" xlink:title="Specialization of the general Digraph class for generating" target="_top">
<polygon fill="white" stroke="black" stroke-width="0.5" points="230,-315 155,-315 155,-296 230,-296 230,-315"/>
<text text-anchor="middle" x="192.5" y="-303" font-family="Vera Sans, DejaVu Sans, Liberation Sans, Arial, Helvetica, sans" font-size="10.00">GridDigraph</text>
</a>
</g>
</g>
<!-- Digraph&#45;&gt;GridDigraph -->
<g id="edge1" class="edge">
<title>Digraph&#45;&gt;GridDigraph</title>
<path fill="none" stroke="black" stroke-width="0.5" d="M30.09,-167.22C34.64,-191.76 50.13,-256.43 91,-287.5 107.51,-300.05 129.92,-304.89 149.39,-306.44"/>
<polygon fill="black" stroke="black" stroke-width="0.5" points="149.69,-308.22 154.8,-306.8 149.92,-304.72 149.69,-308.22"/>
</g>
<!-- RandomDigraph -->
<g id="node3" class="node">
<title>RandomDigraph</title>
<g id="a_node3"><a xlink:href="../techDoc.html#randomDigraphs.RandomDigraph" xlink:title="Specialization of the general Digraph class for generating" target="_top">
<polygon fill="white" stroke="black" stroke-width="0.5" points="240,-278 145,-278 145,-259 240,-259 240,-278"/>
<text text-anchor="middle" x="192.5" y="-266" font-family="Vera Sans, DejaVu Sans, Liberation Sans, Arial, Helvetica, sans" font-size="10.00">RandomDigraph</text>
</a>
</g>
</g>
<!-- Digraph&#45;&gt;RandomDigraph -->
<g id="edge2" class="edge">
<title>Digraph&#45;&gt;RandomDigraph</title>
<path fill="none" stroke="black" stroke-width="0.5" d="M32.04,-167.29C39.6,-186.66 59.23,-229.77 91,-250.5 105.33,-259.85 123.14,-264.71 139.77,-267.13"/>
<polygon fill="black" stroke="black" stroke-width="0.5" points="139.7,-268.89 144.88,-267.81 140.16,-265.42 139.7,-268.89"/>
</g>
<!-- RandomFixedDegreeSequenceDigraph -->
<g id="node4" class="node">
<title>RandomFixedDegreeSequenceDigraph</title>
<g id="a_node4"><a xlink:href="../techDoc.html#randomDigraphs.RandomFixedDegreeSequenceDigraph" xlink:title="Specialization of the general Digraph class for generating" target="_top">
<polygon fill="white" stroke="black" stroke-width="0.5" points="294,-241 91,-241 91,-222 294,-222 294,-241"/>
<text text-anchor="middle" x="192.5" y="-229" font-family="Vera Sans, DejaVu Sans, Liberation Sans, Arial, Helvetica, sans" font-size="10.00">RandomFixedDegreeSequenceDigraph</text>
</a>
</g>
</g>
<!-- Digraph&#45;&gt;RandomFixedDegreeSequenceDigraph -->
<g id="edge3" class="edge">
<title>Digraph&#45;&gt;RandomFixedDegreeSequenceDigraph</title>
<path fill="none" stroke="black" stroke-width="0.5" d="M36.24,-167.19C47.06,-180 67.95,-202.26 91,-213.5 96.48,-216.17 102.29,-218.45 108.26,-220.39"/>
<polygon fill="black" stroke="black" stroke-width="0.5" points="108.01,-222.15 113.31,-221.95 109.04,-218.8 108.01,-222.15"/>
</g>
<!-- RandomFixedSizeDigraph -->
<g id="node5" class="node">
<title>RandomFixedSizeDigraph</title>
<g id="a_node5"><a xlink:href="../techDoc.html#randomDigraphs.RandomFixedSizeDigraph" xlink:title="Generates a random crisp digraph with a fixed size, " target="_top">
<polygon fill="white" stroke="black" stroke-width="0.5" points="263,-204 122,-204 122,-185 263,-185 263,-204"/>
<text text-anchor="middle" x="192.5" y="-192" font-family="Vera Sans, DejaVu Sans, Liberation Sans, Arial, Helvetica, sans" font-size="10.00">RandomFixedSizeDigraph</text>
</a>
</g>
</g>
<!-- Digraph&#45;&gt;RandomFixedSizeDigraph -->
<g id="edge4" class="edge">
<title>Digraph&#45;&gt;RandomFixedSizeDigraph</title>
<path fill="none" stroke="black" stroke-width="0.5" d="M55.07,-166.33C66.11,-169.8 79.09,-173.63 91,-176.5 102.46,-179.26 114.75,-181.8 126.66,-184.05"/>
<polygon fill="black" stroke="black" stroke-width="0.5" points="126.5,-185.8 131.74,-184.99 127.14,-182.36 126.5,-185.8"/>
</g>
<!-- RandomPartialTournament -->
<g id="node7" class="node">
<title>RandomPartialTournament</title>
<g id="a_node7"><a xlink:href="../techDoc.html#randomDigraphs.RandomPartialTournament" xlink:title="Specialization of the general Digraph class for generating" target="_top">
<polygon fill="white" stroke="black" stroke-width="0.5" points="265.5,-167 119.5,-167 119.5,-148 265.5,-148 265.5,-167"/>
<text text-anchor="middle" x="192.5" y="-155" font-family="Vera Sans, DejaVu Sans, Liberation Sans, Arial, Helvetica, sans" font-size="10.00">RandomPartialTournament</text>
</a>
</g>
</g>
<!-- Digraph&#45;&gt;RandomPartialTournament -->
<g id="edge6" class="edge">
<title>Digraph&#45;&gt;RandomPartialTournament</title>
<path fill="none" stroke="black" stroke-width="0.5" d="M55.05,-157.5C71.25,-157.5 92.88,-157.5 114.13,-157.5"/>
<polygon fill="black" stroke="black" stroke-width="0.5" points="114.23,-159.25 119.23,-157.5 114.23,-155.75 114.23,-159.25"/>
</g>
<!-- RandomRegularDigraph -->
<g id="node8" class="node">
<title>RandomRegularDigraph</title>
<g id="a_node8"><a xlink:href="../techDoc.html#randomDigraphs.RandomRegularDigraph" xlink:title="Specialization of Digraph class for random regular symmetric instances." target="_top">
<polygon fill="white" stroke="black" stroke-width="0.5" points="259,-130 126,-130 126,-111 259,-111 259,-130"/>
<text text-anchor="middle" x="192.5" y="-118" font-family="Vera Sans, DejaVu Sans, Liberation Sans, Arial, Helvetica, sans" font-size="10.00">RandomRegularDigraph</text>
</a>
</g>
</g>
<!-- Digraph&#45;&gt;RandomRegularDigraph -->
<g id="edge7" class="edge">
<title>Digraph&#45;&gt;RandomRegularDigraph</title>
<path fill="none" stroke="black" stroke-width="0.5" d="M55.12,-149.24C66.16,-145.97 79.14,-142.32 91,-139.5 103.81,-136.45 117.63,-133.57 130.8,-131.03"/>
<polygon fill="black" stroke="black" stroke-width="0.5" points="131.43,-132.69 136.01,-130.03 130.77,-129.25 131.43,-132.69"/>
</g>
<!-- RandomTournament -->
<g id="node9" class="node">
<title>RandomTournament</title>
<g id="a_node9"><a xlink:href="../techDoc.html#randomDigraphs.RandomTournament" xlink:title="Specialization of the general Digraph class for generating" target="_top">
<polygon fill="white" stroke="black" stroke-width="0.5" points="250,-93 135,-93 135,-74 250,-74 250,-93"/>
<text text-anchor="middle" x="192.5" y="-81" font-family="Vera Sans, DejaVu Sans, Liberation Sans, Arial, Helvetica, sans" font-size="10.00">RandomTournament</text>
</a>
</g>
</g>
<!-- Digraph&#45;&gt;RandomTournament -->
<g id="edge8" class="edge">
<title>Digraph&#45;&gt;RandomTournament</title>
<path fill="none" stroke="black" stroke-width="0.5" d="M36.67,-147.58C47.65,-134.98 68.4,-113.54 91,-102.5 102.9,-96.69 116.4,-92.65 129.56,-89.84"/>
<polygon fill="black" stroke="black" stroke-width="0.5" points="130.22,-91.5 134.77,-88.79 129.53,-88.07 130.22,-91.5"/>
</g>
<!-- RandomValuationDigraph -->
<g id="node10" class="node">
<title>RandomValuationDigraph</title>
<g id="a_node10"><a xlink:href="../techDoc.html#randomDigraphs.RandomValuationDigraph" xlink:title="Specialization of the general Digraph class for generating" target="_top">
<polygon fill="white" stroke="black" stroke-width="0.5" points="263,-56 122,-56 122,-37 263,-37 263,-56"/>
<text text-anchor="middle" x="192.5" y="-44" font-family="Vera Sans, DejaVu Sans, Liberation Sans, Arial, Helvetica, sans" font-size="10.00">RandomValuationDigraph</text>
</a>
</g>
</g>
<!-- Digraph&#45;&gt;RandomValuationDigraph -->
<g id="edge9" class="edge">
<title>Digraph&#45;&gt;RandomValuationDigraph</title>
<path fill="none" stroke="black" stroke-width="0.5" d="M32.09,-147.84C39.73,-128.72 59.51,-86.15 91,-65.5 98.9,-60.32 107.86,-56.47 117.1,-53.62"/>
<polygon fill="black" stroke="black" stroke-width="0.5" points="117.63,-55.29 121.95,-52.22 116.66,-51.93 117.63,-55.29"/>
</g>
<!-- RandomWeakTournament -->
<g id="node11" class="node">
<title>RandomWeakTournament</title>
<g id="a_node11"><a xlink:href="../techDoc.html#randomDigraphs.RandomWeakTournament" xlink:title="Specialization of the general Digraph class for generating" target="_top">
<polygon fill="white" stroke="black" stroke-width="0.5" points="263.5,-19 121.5,-19 121.5,0 263.5,0 263.5,-19"/>
<text text-anchor="middle" x="192.5" y="-7" font-family="Vera Sans, DejaVu Sans, Liberation Sans, Arial, Helvetica, sans" font-size="10.00">RandomWeakTournament</text>
</a>
</g>
</g>
<!-- Digraph&#45;&gt;RandomWeakTournament -->
<g id="edge10" class="edge">
<title>Digraph&#45;&gt;RandomWeakTournament</title>
<path fill="none" stroke="black" stroke-width="0.5" d="M30.13,-147.87C34.78,-123.58 50.49,-59.51 91,-28.5 98.57,-22.71 107.37,-18.51 116.57,-15.49"/>
<polygon fill="black" stroke="black" stroke-width="0.5" points="117.14,-17.15 121.41,-14.02 116.12,-13.8 117.14,-17.15"/>
</g>
<!-- RandomGridDigraph -->
<g id="node6" class="node">
<title>RandomGridDigraph</title>
<g id="a_node6"><a xlink:href="../techDoc.html#randomDigraphs.RandomGridDigraph" xlink:title="Specialization of the general Digraph class for generating" target="_top">
<polygon fill="white" stroke="black" stroke-width="0.5" points="446,-315 330,-315 330,-296 446,-296 446,-315"/>
<text text-anchor="middle" x="388" y="-303" font-family="Vera Sans, DejaVu Sans, Liberation Sans, Arial, Helvetica, sans" font-size="10.00">RandomGridDigraph</text>
</a>
</g>
</g>
<!-- GridDigraph&#45;&gt;RandomGridDigraph -->
<g id="edge5" class="edge">
<title>GridDigraph&#45;&gt;RandomGridDigraph</title>
<path fill="none" stroke="black" stroke-width="0.5" d="M230.35,-305.5C256.89,-305.5 293.33,-305.5 324.4,-305.5"/>
<polygon fill="black" stroke="black" stroke-width="0.5" points="324.73,-307.25 329.73,-305.5 324.73,-303.75 324.73,-307.25"/>
</g>
</g>
</svg>
