<?xml version="1.0" encoding="UTF-8" standalone="no"?>
<!DOCTYPE svg PUBLIC "-//W3C//DTD SVG 1.1//EN"
 "http://www.w3.org/Graphics/SVG/1.1/DTD/svg11.dtd">
<!-- Generated by graphviz version 2.43.0 (0)
 -->
<!-- Title: inheritanced613b345b1 Pages: 1 -->
<svg width="427pt" height="175pt"
 viewBox="0.00 0.00 427.00 175.00" xmlns="http://www.w3.org/2000/svg" xmlns:xlink="http://www.w3.org/1999/xlink">
<g id="graph0" class="graph" transform="scale(1 1) rotate(0) translate(4 171)">
<title>inheritanced613b345b1</title>
<!-- PerformanceTableau -->
<g id="node1" class="node">
<title>PerformanceTableau</title>
<g id="a_node1"><a xlink:href="../techDoc.html#perfTabs.PerformanceTableau" xlink:title="In this *Digraph3* module, the root :py:class:`perfTabs.PerformanceTableau` class provides a generic **performance table model**. A given object of this class consists in:" target="_top">
<polygon fill="white" stroke="black" stroke-width="0.5" points="142,-93 26,-93 26,-74 142,-74 142,-93"/>
<text text-anchor="middle" x="84" y="-81" font-family="Vera Sans, DejaVu Sans, Liberation Sans, Arial, Helvetica, sans" font-size="10.00">PerformanceTableau</text>
</a>
</g>
</g>
<!-- Random3ObjectivesPerformanceTableau -->
<g id="node2" class="node">
<title>Random3ObjectivesPerformanceTableau</title>
<g id="a_node2"><a xlink:href="../techDoc.html#randomPerfTabs.Random3ObjectivesPerformanceTableau" xlink:title="For geneating random 3 objectives: *Eco*, *Soc* and *Env* multile&#45;criteria performance records. Each decision action is qualified randomly as weak (&#45;), fair (~) or good (+) on each of the three objectives." target="_top">
<polygon fill="white" stroke="black" stroke-width="0.5" points="419,-167 204,-167 204,-148 419,-148 419,-167"/>
<text text-anchor="middle" x="311.5" y="-155" font-family="Vera Sans, DejaVu Sans, Liberation Sans, Arial, Helvetica, sans" font-size="10.00">Random3ObjectivesPerformanceTableau</text>
</a>
</g>
</g>
<!-- PerformanceTableau&#45;&gt;Random3ObjectivesPerformanceTableau -->
<g id="edge1" class="edge">
<title>PerformanceTableau&#45;&gt;Random3ObjectivesPerformanceTableau</title>
<path fill="none" stroke="black" stroke-width="0.5" d="M142.43,-92.09C151.31,-94.69 160.14,-98.08 168,-102.5 188,-113.74 183.68,-128.84 204,-139.5 208.96,-142.1 214.21,-144.34 219.62,-146.27"/>
<polygon fill="black" stroke="black" stroke-width="0.5" points="219.32,-148.02 224.62,-147.95 220.44,-144.7 219.32,-148.02"/>
</g>
<!-- RandomAcademicPerformanceTableau -->
<g id="node3" class="node">
<title>RandomAcademicPerformanceTableau</title>
<g id="a_node3"><a xlink:href="../techDoc.html#randomPerfTabs.RandomAcademicPerformanceTableau" xlink:title="For generating a temporary academic performance tableau with random grading results performances" target="_top">
<polygon fill="white" stroke="black" stroke-width="0.5" points="414,-130 209,-130 209,-111 414,-111 414,-130"/>
<text text-anchor="middle" x="311.5" y="-118" font-family="Vera Sans, DejaVu Sans, Liberation Sans, Arial, Helvetica, sans" font-size="10.00">RandomAcademicPerformanceTableau</text>
</a>
</g>
</g>
<!-- PerformanceTableau&#45;&gt;RandomAcademicPerformanceTableau -->
<g id="edge2" class="edge">
<title>PerformanceTableau&#45;&gt;RandomAcademicPerformanceTableau</title>
<path fill="none" stroke="black" stroke-width="0.5" d="M142.19,-92.88C174.27,-98.15 214.35,-104.72 247.35,-110.14"/>
<polygon fill="black" stroke="black" stroke-width="0.5" points="247.36,-111.91 252.58,-111 247.93,-108.46 247.36,-111.91"/>
</g>
<!-- RandomCBPerformanceTableau -->
<g id="node4" class="node">
<title>RandomCBPerformanceTableau</title>
<g id="a_node4"><a xlink:href="../techDoc.html#randomPerfTabs.RandomCBPerformanceTableau" xlink:title="Full automatic generation of random multiple&#45;criteria Cost&#45;Benefit performance tableaux." target="_top">
<polygon fill="white" stroke="black" stroke-width="0.5" points="396.5,-93 226.5,-93 226.5,-74 396.5,-74 396.5,-93"/>
<text text-anchor="middle" x="311.5" y="-81" font-family="Vera Sans, DejaVu Sans, Liberation Sans, Arial, Helvetica, sans" font-size="10.00">RandomCBPerformanceTableau</text>
</a>
</g>
</g>
<!-- PerformanceTableau&#45;&gt;RandomCBPerformanceTableau -->
<g id="edge3" class="edge">
<title>PerformanceTableau&#45;&gt;RandomCBPerformanceTableau</title>
<path fill="none" stroke="black" stroke-width="0.5" d="M142.19,-83.5C166.05,-83.5 194.32,-83.5 220.82,-83.5"/>
<polygon fill="black" stroke="black" stroke-width="0.5" points="221.1,-85.25 226.1,-83.5 221.1,-81.75 221.1,-85.25"/>
</g>
<!-- RandomPerformanceTableau -->
<g id="node6" class="node">
<title>RandomPerformanceTableau</title>
<g id="a_node6"><a xlink:href="../techDoc.html#randomPerfTabs.RandomPerformanceTableau" xlink:title="For generating a random standard performance tableau." target="_top">
<polygon fill="white" stroke="black" stroke-width="0.5" points="390,-56 233,-56 233,-37 390,-37 390,-56"/>
<text text-anchor="middle" x="311.5" y="-44" font-family="Vera Sans, DejaVu Sans, Liberation Sans, Arial, Helvetica, sans" font-size="10.00">RandomPerformanceTableau</text>
</a>
</g>
</g>
<!-- PerformanceTableau&#45;&gt;RandomPerformanceTableau -->
<g id="edge4" class="edge">
<title>PerformanceTableau&#45;&gt;RandomPerformanceTableau</title>
<path fill="none" stroke="black" stroke-width="0.5" d="M142.19,-74.12C174.27,-68.85 214.35,-62.28 247.35,-56.86"/>
<polygon fill="black" stroke="black" stroke-width="0.5" points="247.93,-58.54 252.58,-56 247.36,-55.09 247.93,-58.54"/>
</g>
<!-- RandomRankPerformanceTableau -->
<g id="node7" class="node">
<title>RandomRankPerformanceTableau</title>
<g id="a_node7"><a xlink:href="../techDoc.html#randomPerfTabs.RandomRankPerformanceTableau" xlink:title="For generating multiple&#45;criteria ranked (without ties) performances of a given number of decision actions." target="_top">
<polygon fill="white" stroke="black" stroke-width="0.5" points="402.5,-19 220.5,-19 220.5,0 402.5,0 402.5,-19"/>
<text text-anchor="middle" x="311.5" y="-7" font-family="Vera Sans, DejaVu Sans, Liberation Sans, Arial, Helvetica, sans" font-size="10.00">RandomRankPerformanceTableau</text>
</a>
</g>
</g>
<!-- PerformanceTableau&#45;&gt;RandomRankPerformanceTableau -->
<g id="edge5" class="edge">
<title>PerformanceTableau&#45;&gt;RandomRankPerformanceTableau</title>
<path fill="none" stroke="black" stroke-width="0.5" d="M102.18,-73.84C124.82,-61.52 166.22,-40.38 204,-28.5 214.49,-25.2 225.75,-22.42 236.88,-20.09"/>
<polygon fill="black" stroke="black" stroke-width="0.5" points="237.43,-21.76 241.98,-19.05 236.73,-18.33 237.43,-21.76"/>
</g>
<!-- RandomPerformanceGenerator -->
<g id="node5" class="node">
<title>RandomPerformanceGenerator</title>
<g id="a_node5"><a xlink:href="../techDoc.html#randomPerfTabs.RandomPerformanceGenerator" xlink:title="Generic wrapper for generating new decision actions or performance tableaux" target="_top">
<polygon fill="white" stroke="black" stroke-width="0.5" points="168,-130 0,-130 0,-111 168,-111 168,-130"/>
<text text-anchor="middle" x="84" y="-118" font-family="Vera Sans, DejaVu Sans, Liberation Sans, Arial, Helvetica, sans" font-size="10.00">RandomPerformanceGenerator</text>
</a>
</g>
</g>
</g>
</svg>
