<?xml version="1.0" encoding="UTF-8" standalone="no"?>
<!DOCTYPE svg PUBLIC "-//W3C//DTD SVG 1.1//EN"
 "http://www.w3.org/Graphics/SVG/1.1/DTD/svg11.dtd">
<!-- Generated by graphviz version 2.43.0 (0)
 -->
<!-- Title: inheritancebed16db1ec Pages: 1 -->
<svg width="355pt" height="212pt"
 viewBox="0.00 0.00 355.00 212.00" xmlns="http://www.w3.org/2000/svg" xmlns:xlink="http://www.w3.org/1999/xlink">
<g id="graph0" class="graph" transform="scale(1 1) rotate(0) translate(4 208)">
<title>inheritancebed16db1ec</title>
<!-- FairIntraGroupPairing -->
<g id="node1" class="node">
<title>FairIntraGroupPairing</title>
<g id="a_node1"><a xlink:href="../techDoc.html#pairings.FairIntraGroupPairing" xlink:title="The class computes the fitness scores of the complete set of maximal intragroup matchings" target="_top">
<polygon fill="white" stroke="black" stroke-width="0.5" points="301.5,-167 182.5,-167 182.5,-148 301.5,-148 301.5,-167"/>
<text text-anchor="middle" x="242" y="-155" font-family="Vera Sans, DejaVu Sans, Liberation Sans, Arial, Helvetica, sans" font-size="10.00">FairIntraGroupPairing</text>
</a>
</g>
</g>
<!-- Pairing -->
<g id="node2" class="node">
<title>Pairing</title>
<g id="a_node2"><a xlink:href="../techDoc.html#pairings.Pairing" xlink:title="Abstract root class" target="_top">
<polygon fill="white" stroke="black" stroke-width="0.5" points="77.5,-93 23.5,-93 23.5,-74 77.5,-74 77.5,-93"/>
<text text-anchor="middle" x="50.5" y="-81" font-family="Vera Sans, DejaVu Sans, Liberation Sans, Arial, Helvetica, sans" font-size="10.00">Pairing</text>
</a>
</g>
</g>
<!-- Pairing&#45;&gt;FairIntraGroupPairing -->
<g id="edge1" class="edge">
<title>Pairing&#45;&gt;FairIntraGroupPairing</title>
<path fill="none" stroke="black" stroke-width="0.5" d="M63.13,-93.13C78.87,-105.62 108.27,-127.15 137,-138.5 149.7,-143.51 163.79,-147.22 177.4,-149.95"/>
<polygon fill="black" stroke="black" stroke-width="0.5" points="177.15,-151.68 182.39,-150.91 177.81,-148.25 177.15,-151.68"/>
</g>
<!-- FairPairing -->
<g id="node3" class="node">
<title>FairPairing</title>
<g id="a_node3"><a xlink:href="../techDoc.html#pairings.FairPairing" xlink:title="The class computes the fitness scores of the complete set of maximal matchings between" target="_top">
<polygon fill="white" stroke="black" stroke-width="0.5" points="275.5,-130 208.5,-130 208.5,-111 275.5,-111 275.5,-130"/>
<text text-anchor="middle" x="242" y="-118" font-family="Vera Sans, DejaVu Sans, Liberation Sans, Arial, Helvetica, sans" font-size="10.00">FairPairing</text>
</a>
</g>
</g>
<!-- Pairing&#45;&gt;FairPairing -->
<g id="edge2" class="edge">
<title>Pairing&#45;&gt;FairPairing</title>
<path fill="none" stroke="black" stroke-width="0.5" d="M77.66,-89.2C94.56,-92.83 117.06,-97.58 137,-101.5 158.82,-105.79 183.29,-110.28 203,-113.81"/>
<polygon fill="black" stroke="black" stroke-width="0.5" points="202.94,-115.58 208.17,-114.73 203.56,-112.13 202.94,-115.58"/>
</g>
<!-- FairestGaleShapleyMatching -->
<g id="node4" class="node">
<title>FairestGaleShapleyMatching</title>
<g id="a_node4"><a xlink:href="../techDoc.html#pairings.FairestGaleShapleyMatching" xlink:title="The class computes both Gale&#45;Shapley matching and renders the fairest of both." target="_top">
<polygon fill="white" stroke="black" stroke-width="0.5" points="319.5,-93 164.5,-93 164.5,-74 319.5,-74 319.5,-93"/>
<text text-anchor="middle" x="242" y="-81" font-family="Vera Sans, DejaVu Sans, Liberation Sans, Arial, Helvetica, sans" font-size="10.00">FairestGaleShapleyMatching</text>
</a>
</g>
</g>
<!-- Pairing&#45;&gt;FairestGaleShapleyMatching -->
<g id="edge3" class="edge">
<title>Pairing&#45;&gt;FairestGaleShapleyMatching</title>
<path fill="none" stroke="black" stroke-width="0.5" d="M77.85,-83.5C99,-83.5 129.89,-83.5 159.11,-83.5"/>
<polygon fill="black" stroke="black" stroke-width="0.5" points="159.16,-85.25 164.16,-83.5 159.16,-81.75 159.16,-85.25"/>
</g>
<!-- FairnessEnhancedGaleShapleyMatching -->
<g id="node5" class="node">
<title>FairnessEnhancedGaleShapleyMatching</title>
<g id="a_node5"><a xlink:href="../techDoc.html#pairings.FairnessEnhancedGaleShapleyMatching" xlink:title="The class enhances the fairness of the fairest Gale&#45;Shapley matching." target="_top">
<polygon fill="white" stroke="black" stroke-width="0.5" points="347,-56 137,-56 137,-37 347,-37 347,-56"/>
<text text-anchor="middle" x="242" y="-44" font-family="Vera Sans, DejaVu Sans, Liberation Sans, Arial, Helvetica, sans" font-size="10.00">FairnessEnhancedGaleShapleyMatching</text>
</a>
</g>
</g>
<!-- Pairing&#45;&gt;FairnessEnhancedGaleShapleyMatching -->
<g id="edge4" class="edge">
<title>Pairing&#45;&gt;FairnessEnhancedGaleShapleyMatching</title>
<path fill="none" stroke="black" stroke-width="0.5" d="M77.63,-77.36C94.52,-73.47 117.01,-68.45 137,-64.5 150.29,-61.88 164.57,-59.27 178.17,-56.88"/>
<polygon fill="black" stroke="black" stroke-width="0.5" points="178.52,-58.6 183.15,-56.01 177.92,-55.15 178.52,-58.6"/>
</g>
<!-- FairnessEnhancedMatching -->
<g id="node8" class="node">
<title>FairnessEnhancedMatching</title>
<g id="a_node8"><a xlink:href="../techDoc.html#pairings.FairnessEnhancedMatching" xlink:title="The class enhances the fairness of a given matching." target="_top">
<polygon fill="white" stroke="black" stroke-width="0.5" points="316.5,-19 167.5,-19 167.5,0 316.5,0 316.5,-19"/>
<text text-anchor="middle" x="242" y="-7" font-family="Vera Sans, DejaVu Sans, Liberation Sans, Arial, Helvetica, sans" font-size="10.00">FairnessEnhancedMatching</text>
</a>
</g>
</g>
<!-- Pairing&#45;&gt;FairnessEnhancedMatching -->
<g id="edge6" class="edge">
<title>Pairing&#45;&gt;FairnessEnhancedMatching</title>
<path fill="none" stroke="black" stroke-width="0.5" d="M62.82,-73.87C78.43,-61.13 107.95,-38.96 137,-27.5 144.91,-24.38 153.36,-21.8 161.9,-19.67"/>
<polygon fill="black" stroke="black" stroke-width="0.5" points="162.77,-21.26 167.23,-18.4 161.96,-17.86 162.77,-21.26"/>
</g>
<!-- FairnessEnhancedIntraGroupMatching -->
<g id="node6" class="node">
<title>FairnessEnhancedIntraGroupMatching</title>
<g id="a_node6"><a xlink:href="../techDoc.html#pairings.FairnessEnhancedIntraGroupMatching" xlink:title="Solver for computing fair intragroup pairings using the same algorithm as the" target="_top">
<polygon fill="white" stroke="black" stroke-width="0.5" points="342,-204 142,-204 142,-185 342,-185 342,-204"/>
<text text-anchor="middle" x="242" y="-192" font-family="Vera Sans, DejaVu Sans, Liberation Sans, Arial, Helvetica, sans" font-size="10.00">FairnessEnhancedIntraGroupMatching</text>
</a>
</g>
</g>
<!-- IntraGroupPairing -->
<g id="node7" class="node">
<title>IntraGroupPairing</title>
<g id="a_node7"><a xlink:href="../techDoc.html#pairings.IntraGroupPairing" xlink:title="Abstract root class for intragroup pairing solutions" target="_top">
<polygon fill="white" stroke="black" stroke-width="0.5" points="101,-204 0,-204 0,-185 101,-185 101,-204"/>
<text text-anchor="middle" x="50.5" y="-192" font-family="Vera Sans, DejaVu Sans, Liberation Sans, Arial, Helvetica, sans" font-size="10.00">IntraGroupPairing</text>
</a>
</g>
</g>
<!-- IntraGroupPairing&#45;&gt;FairnessEnhancedIntraGroupMatching -->
<g id="edge5" class="edge">
<title>IntraGroupPairing&#45;&gt;FairnessEnhancedIntraGroupMatching</title>
<path fill="none" stroke="black" stroke-width="0.5" d="M101.29,-194.5C112.23,-194.5 124.21,-194.5 136.41,-194.5"/>
<polygon fill="black" stroke="black" stroke-width="0.5" points="136.65,-196.25 141.65,-194.5 136.65,-192.75 136.65,-196.25"/>
</g>
</g>
</svg>
