<?xml version="1.0" encoding="UTF-8" standalone="no"?>
<!DOCTYPE svg PUBLIC "-//W3C//DTD SVG 1.1//EN"
 "http://www.w3.org/Graphics/SVG/1.1/DTD/svg11.dtd">
<!-- Generated by graphviz version 2.43.0 (0)
 -->
<!-- Title: inheritance6a86bb7a17 Pages: 1 -->
<svg width="386pt" height="212pt"
 viewBox="0.00 0.00 386.00 212.00" xmlns="http://www.w3.org/2000/svg" xmlns:xlink="http://www.w3.org/1999/xlink">
<g id="graph0" class="graph" transform="scale(1 1) rotate(0) translate(4 208)">
<title>inheritance6a86bb7a17</title>
<!-- cNormalizedPerformanceTableau -->
<g id="node1" class="node">
<title>cNormalizedPerformanceTableau</title>
<g id="a_node1"><a xlink:href="../techDoc.html#cRandPerfTabs.cNormalizedPerformanceTableau" xlink:title="specialsation of the cPerformanceTableau class for" target="_top">
<polygon fill="white" stroke="black" stroke-width="0.5" points="357,-204 179,-204 179,-185 357,-185 357,-204"/>
<text text-anchor="middle" x="268" y="-192" font-family="Vera Sans, DejaVu Sans, Liberation Sans, Arial, Helvetica, sans" font-size="10.00">cNormalizedPerformanceTableau</text>
</a>
</g>
</g>
<!-- cPerformanceTableau -->
<g id="node2" class="node">
<title>cPerformanceTableau</title>
<g id="a_node2"><a xlink:href="../techDoc.html#cRandPerfTabs.cPerformanceTableau" xlink:title="Root class for cythonized performace tableau instances." target="_top">
<polygon fill="white" stroke="black" stroke-width="0.5" points="122,-111 0,-111 0,-92 122,-92 122,-111"/>
<text text-anchor="middle" x="61" y="-99" font-family="Vera Sans, DejaVu Sans, Liberation Sans, Arial, Helvetica, sans" font-size="10.00">cPerformanceTableau</text>
</a>
</g>
</g>
<!-- cPerformanceTableau&#45;&gt;cNormalizedPerformanceTableau -->
<g id="edge1" class="edge">
<title>cPerformanceTableau&#45;&gt;cNormalizedPerformanceTableau</title>
<path fill="none" stroke="black" stroke-width="0.5" d="M71.01,-111.18C86.88,-127.57 121.59,-160.53 158,-176.5 164.23,-179.23 170.82,-181.55 177.56,-183.52"/>
<polygon fill="black" stroke="black" stroke-width="0.5" points="177.45,-185.31 182.74,-184.96 178.39,-181.94 177.45,-185.31"/>
</g>
<!-- cPartialPerformanceTableau -->
<g id="node3" class="node">
<title>cPartialPerformanceTableau</title>
<g id="a_node3"><a xlink:href="../techDoc.html#cRandPerfTabs.cPartialPerformanceTableau" xlink:title="Constructor for partial performance tableaux concerning a subset of actions and/or criteria and/or objectives." target="_top">
<polygon fill="white" stroke="black" stroke-width="0.5" points="344,-167 192,-167 192,-148 344,-148 344,-167"/>
<text text-anchor="middle" x="268" y="-155" font-family="Vera Sans, DejaVu Sans, Liberation Sans, Arial, Helvetica, sans" font-size="10.00">cPartialPerformanceTableau</text>
</a>
</g>
</g>
<!-- cPerformanceTableau&#45;&gt;cPartialPerformanceTableau -->
<g id="edge2" class="edge">
<title>cPerformanceTableau&#45;&gt;cPartialPerformanceTableau</title>
<path fill="none" stroke="black" stroke-width="0.5" d="M82.53,-111.11C101.68,-119.72 131.23,-132.08 158,-139.5 168.42,-142.39 179.53,-144.87 190.53,-147"/>
<polygon fill="black" stroke="black" stroke-width="0.5" points="190.34,-148.74 195.58,-147.95 190.99,-145.3 190.34,-148.74"/>
</g>
<!-- cRandom3ObjectivesPerformanceTableau -->
<g id="node4" class="node">
<title>cRandom3ObjectivesPerformanceTableau</title>
<g id="a_node4"><a xlink:href="../techDoc.html#cRandPerfTabs.cRandom3ObjectivesPerformanceTableau" xlink:title="Specialization of the cPerformanceTableau" target="_top">
<polygon fill="white" stroke="black" stroke-width="0.5" points="378,-130 158,-130 158,-111 378,-111 378,-130"/>
<text text-anchor="middle" x="268" y="-118" font-family="Vera Sans, DejaVu Sans, Liberation Sans, Arial, Helvetica, sans" font-size="10.00">cRandom3ObjectivesPerformanceTableau</text>
</a>
</g>
</g>
<!-- cPerformanceTableau&#45;&gt;cRandom3ObjectivesPerformanceTableau -->
<g id="edge3" class="edge">
<title>cPerformanceTableau&#45;&gt;cRandom3ObjectivesPerformanceTableau</title>
<path fill="none" stroke="black" stroke-width="0.5" d="M122.12,-107.07C133.8,-108.15 146.38,-109.32 159.06,-110.5"/>
<polygon fill="black" stroke="black" stroke-width="0.5" points="158.98,-112.25 164.12,-110.96 159.3,-108.76 158.98,-112.25"/>
</g>
<!-- cRandomCBPerformanceTableau -->
<g id="node5" class="node">
<title>cRandomCBPerformanceTableau</title>
<g id="a_node5"><a xlink:href="../techDoc.html#cRandPerfTabs.cRandomCBPerformanceTableau" xlink:title="Full automatic generation of random" target="_top">
<polygon fill="white" stroke="black" stroke-width="0.5" points="356,-93 180,-93 180,-74 356,-74 356,-93"/>
<text text-anchor="middle" x="268" y="-81" font-family="Vera Sans, DejaVu Sans, Liberation Sans, Arial, Helvetica, sans" font-size="10.00">cRandomCBPerformanceTableau</text>
</a>
</g>
</g>
<!-- cPerformanceTableau&#45;&gt;cRandomCBPerformanceTableau -->
<g id="edge4" class="edge">
<title>cPerformanceTableau&#45;&gt;cRandomCBPerformanceTableau</title>
<path fill="none" stroke="black" stroke-width="0.5" d="M122.12,-96.22C138.64,-94.77 156.95,-93.16 174.83,-91.59"/>
<polygon fill="black" stroke="black" stroke-width="0.5" points="175.03,-93.33 179.86,-91.15 174.73,-89.85 175.03,-93.33"/>
</g>
<!-- cRandomPerformanceTableau -->
<g id="node6" class="node">
<title>cRandomPerformanceTableau</title>
<g id="a_node6"><a xlink:href="../techDoc.html#cRandPerfTabs.cRandomPerformanceTableau" xlink:title="Specialization of the cPerformanceTableau class for generating a temporary" target="_top">
<polygon fill="white" stroke="black" stroke-width="0.5" points="349,-56 187,-56 187,-37 349,-37 349,-56"/>
<text text-anchor="middle" x="268" y="-44" font-family="Vera Sans, DejaVu Sans, Liberation Sans, Arial, Helvetica, sans" font-size="10.00">cRandomPerformanceTableau</text>
</a>
</g>
</g>
<!-- cPerformanceTableau&#45;&gt;cRandomPerformanceTableau -->
<g id="edge5" class="edge">
<title>cPerformanceTableau&#45;&gt;cRandomPerformanceTableau</title>
<path fill="none" stroke="black" stroke-width="0.5" d="M84.11,-91.86C103.33,-83.81 132.06,-72.56 158,-65.5 170.03,-62.23 182.96,-59.39 195.57,-56.99"/>
<polygon fill="black" stroke="black" stroke-width="0.5" points="195.97,-58.69 200.57,-56.05 195.33,-55.25 195.97,-58.69"/>
</g>
<!-- cRandomRankPerformanceTableau -->
<g id="node7" class="node">
<title>cRandomRankPerformanceTableau</title>
<g id="a_node7"><a xlink:href="../techDoc.html#cRandPerfTabs.cRandomRankPerformanceTableau" xlink:title="Specialization of the cPerformanceTableau class for generating a temporary" target="_top">
<polygon fill="white" stroke="black" stroke-width="0.5" points="361.5,-19 174.5,-19 174.5,0 361.5,0 361.5,-19"/>
<text text-anchor="middle" x="268" y="-7" font-family="Vera Sans, DejaVu Sans, Liberation Sans, Arial, Helvetica, sans" font-size="10.00">cRandomRankPerformanceTableau</text>
</a>
</g>
</g>
<!-- cPerformanceTableau&#45;&gt;cRandomRankPerformanceTableau -->
<g id="edge6" class="edge">
<title>cPerformanceTableau&#45;&gt;cRandomRankPerformanceTableau</title>
<path fill="none" stroke="black" stroke-width="0.5" d="M71.34,-91.86C87.43,-75.89 122.11,-44.16 158,-28.5 165.44,-25.26 173.39,-22.57 181.48,-20.33"/>
<polygon fill="black" stroke="black" stroke-width="0.5" points="182.14,-21.97 186.53,-19 181.25,-18.58 182.14,-21.97"/>
</g>
</g>
</svg>
