<?xml version="1.0" encoding="UTF-8" standalone="no"?>
<!DOCTYPE svg PUBLIC "-//W3C//DTD SVG 1.1//EN"
 "http://www.w3.org/Graphics/SVG/1.1/DTD/svg11.dtd">
<!-- Generated by graphviz version 2.43.0 (0)
 -->
<!-- Title: inheritancebed16db1ec Pages: 1 -->
<svg width="671pt" height="193pt"
 viewBox="0.00 0.00 671.00 193.00" xmlns="http://www.w3.org/2000/svg" xmlns:xlink="http://www.w3.org/1999/xlink">
<g id="graph0" class="graph" transform="scale(1 1) rotate(0) translate(4 189)">
<title>inheritancebed16db1ec</title>
<!-- BestCopelandInterGroupMatching -->
<g id="node1" class="node">
<title>BestCopelandInterGroupMatching</title>
<g id="a_node1"><a xlink:href="../techDoc.html#pairings.BestCopelandInterGroupMatching" xlink:title="The class computes the individual Copeland ranking scores and" target="_top">
<polygon fill="white" stroke="black" stroke-width="0.5" points="653.5,-130 472.5,-130 472.5,-111 653.5,-111 653.5,-130"/>
<text text-anchor="middle" x="563" y="-118" font-family="Vera Sans, DejaVu Sans, Liberation Sans, Arial, Helvetica, sans" font-size="10.00">BestCopelandInterGroupMatching</text>
</a>
</g>
</g>
<!-- InterGroupPairing -->
<g id="node2" class="node">
<title>InterGroupPairing</title>
<g id="a_node2"><a xlink:href="../techDoc.html#pairings.InterGroupPairing" xlink:title="Abstract root class with private and public methods for intergroup pairing graphs" target="_top">
<polygon fill="white" stroke="black" stroke-width="0.5" points="377.5,-74 276.5,-74 276.5,-55 377.5,-55 377.5,-74"/>
<text text-anchor="middle" x="327" y="-62" font-family="Vera Sans, DejaVu Sans, Liberation Sans, Arial, Helvetica, sans" font-size="10.00">InterGroupPairing</text>
</a>
</g>
</g>
<!-- InterGroupPairing&#45;&gt;BestCopelandInterGroupMatching -->
<g id="edge1" class="edge">
<title>InterGroupPairing&#45;&gt;BestCopelandInterGroupMatching</title>
<path fill="none" stroke="black" stroke-width="0.5" d="M377.6,-71.06C393.63,-73.96 411.31,-77.99 427,-83.5 444.07,-89.49 445.9,-96.59 463,-102.5 471.29,-105.36 480.13,-107.8 489,-109.86"/>
<polygon fill="black" stroke="black" stroke-width="0.5" points="488.66,-111.58 493.92,-110.97 489.43,-108.16 488.66,-111.58"/>
</g>
<!-- FairestGaleShapleyMatching -->
<g id="node7" class="node">
<title>FairestGaleShapleyMatching</title>
<g id="a_node7"><a xlink:href="../techDoc.html#pairings.FairestGaleShapleyMatching" xlink:title="The class computes both Gale&#45;Shapley matchings &#45;&#45; group A proposes and group B proposes&#45;&#45;" target="_top">
<polygon fill="white" stroke="black" stroke-width="0.5" points="640.5,-93 485.5,-93 485.5,-74 640.5,-74 640.5,-93"/>
<text text-anchor="middle" x="563" y="-81" font-family="Vera Sans, DejaVu Sans, Liberation Sans, Arial, Helvetica, sans" font-size="10.00">FairestGaleShapleyMatching</text>
</a>
</g>
</g>
<!-- InterGroupPairing&#45;&gt;FairestGaleShapleyMatching -->
<g id="edge4" class="edge">
<title>InterGroupPairing&#45;&gt;FairestGaleShapleyMatching</title>
<path fill="none" stroke="black" stroke-width="0.5" d="M377.63,-68.53C407.42,-70.95 446.05,-74.09 480.26,-76.86"/>
<polygon fill="black" stroke="black" stroke-width="0.5" points="480.14,-78.61 485.27,-77.27 480.43,-75.12 480.14,-78.61"/>
</g>
<!-- FairestInterGroupPairing -->
<g id="node8" class="node">
<title>FairestInterGroupPairing</title>
<g id="a_node8"><a xlink:href="../techDoc.html#pairings.FairestInterGroupPairing" xlink:title="The class computes the fitness scores of the complete set of maximal matchings between" target="_top">
<polygon fill="white" stroke="black" stroke-width="0.5" points="630,-56 496,-56 496,-37 630,-37 630,-56"/>
<text text-anchor="middle" x="563" y="-44" font-family="Vera Sans, DejaVu Sans, Liberation Sans, Arial, Helvetica, sans" font-size="10.00">FairestInterGroupPairing</text>
</a>
</g>
</g>
<!-- InterGroupPairing&#45;&gt;FairestInterGroupPairing -->
<g id="edge5" class="edge">
<title>InterGroupPairing&#45;&gt;FairestInterGroupPairing</title>
<path fill="none" stroke="black" stroke-width="0.5" d="M377.63,-60.68C410.36,-58.16 453.77,-54.83 490.24,-52.02"/>
<polygon fill="black" stroke="black" stroke-width="0.5" points="490.72,-53.74 495.57,-51.61 490.45,-50.25 490.72,-53.74"/>
</g>
<!-- FairnessEnhancedInterGroupMatching -->
<g id="node10" class="node">
<title>FairnessEnhancedInterGroupMatching</title>
<g id="a_node10"><a xlink:href="../techDoc.html#pairings.FairnessEnhancedInterGroupMatching" xlink:title="The class enhances the fairness of a given matching." target="_top">
<polygon fill="white" stroke="black" stroke-width="0.5" points="663,-19 463,-19 463,0 663,0 663,-19"/>
<text text-anchor="middle" x="563" y="-7" font-family="Vera Sans, DejaVu Sans, Liberation Sans, Arial, Helvetica, sans" font-size="10.00">FairnessEnhancedInterGroupMatching</text>
</a>
</g>
</g>
<!-- InterGroupPairing&#45;&gt;FairnessEnhancedInterGroupMatching -->
<g id="edge7" class="edge">
<title>InterGroupPairing&#45;&gt;FairnessEnhancedInterGroupMatching</title>
<path fill="none" stroke="black" stroke-width="0.5" d="M359.72,-54.96C386.95,-46.97 427.34,-35.61 463,-27.5 474.77,-24.82 487.41,-22.28 499.58,-19.99"/>
<polygon fill="black" stroke="black" stroke-width="0.5" points="500.17,-21.66 504.76,-19.03 499.53,-18.22 500.17,-21.66"/>
</g>
<!-- BestCopelandIntraGroupMatching -->
<g id="node3" class="node">
<title>BestCopelandIntraGroupMatching</title>
<g id="a_node3"><a xlink:href="../techDoc.html#pairings.BestCopelandIntraGroupMatching" xlink:title="The class computes the individual Copeland ranking scores and" target="_top">
<polygon fill="white" stroke="black" stroke-width="0.5" points="417.5,-185 236.5,-185 236.5,-166 417.5,-166 417.5,-185"/>
<text text-anchor="middle" x="327" y="-173" font-family="Vera Sans, DejaVu Sans, Liberation Sans, Arial, Helvetica, sans" font-size="10.00">BestCopelandIntraGroupMatching</text>
</a>
</g>
</g>
<!-- IntraGroupPairing -->
<g id="node4" class="node">
<title>IntraGroupPairing</title>
<g id="a_node4"><a xlink:href="../techDoc.html#pairings.IntraGroupPairing" xlink:title="Abstract root class for IntraGroup pairing solutions" target="_top">
<polygon fill="white" stroke="black" stroke-width="0.5" points="191,-129 90,-129 90,-110 191,-110 191,-129"/>
<text text-anchor="middle" x="140.5" y="-117" font-family="Vera Sans, DejaVu Sans, Liberation Sans, Arial, Helvetica, sans" font-size="10.00">IntraGroupPairing</text>
</a>
</g>
</g>
<!-- IntraGroupPairing&#45;&gt;BestCopelandIntraGroupMatching -->
<g id="edge2" class="edge">
<title>IntraGroupPairing&#45;&gt;BestCopelandIntraGroupMatching</title>
<path fill="none" stroke="black" stroke-width="0.5" d="M159.69,-129.11C176.67,-137.72 202.94,-150.08 227,-157.5 236.24,-160.35 246.11,-162.81 255.91,-164.91"/>
<polygon fill="black" stroke="black" stroke-width="0.5" points="255.77,-166.67 261.03,-165.98 256.49,-163.24 255.77,-166.67"/>
</g>
<!-- FairestIntraGroupPairing -->
<g id="node9" class="node">
<title>FairestIntraGroupPairing</title>
<g id="a_node9"><a xlink:href="../techDoc.html#pairings.FairestIntraGroupPairing" xlink:title="The class computes average ordinal correlations for the complete set of maximal IntraGroup matchings" target="_top">
<polygon fill="white" stroke="black" stroke-width="0.5" points="394,-148 260,-148 260,-129 394,-129 394,-148"/>
<text text-anchor="middle" x="327" y="-136" font-family="Vera Sans, DejaVu Sans, Liberation Sans, Arial, Helvetica, sans" font-size="10.00">FairestIntraGroupPairing</text>
</a>
</g>
</g>
<!-- IntraGroupPairing&#45;&gt;FairestIntraGroupPairing -->
<g id="edge6" class="edge">
<title>IntraGroupPairing&#45;&gt;FairestIntraGroupPairing</title>
<path fill="none" stroke="black" stroke-width="0.5" d="M191.43,-124.64C210.89,-126.65 233.56,-128.98 254.69,-131.16"/>
<polygon fill="black" stroke="black" stroke-width="0.5" points="254.59,-132.9 259.74,-131.68 254.94,-129.42 254.59,-132.9"/>
</g>
<!-- FairnessEnhancedIntraGroupMatching -->
<g id="node11" class="node">
<title>FairnessEnhancedIntraGroupMatching</title>
<g id="a_node11"><a xlink:href="../techDoc.html#pairings.FairnessEnhancedIntraGroupMatching" xlink:title="Solver for computing fair IntraGroup pairings using a similar hill climbing heuristic as the" target="_top">
<polygon fill="white" stroke="black" stroke-width="0.5" points="427,-111 227,-111 227,-92 427,-92 427,-111"/>
<text text-anchor="middle" x="327" y="-99" font-family="Vera Sans, DejaVu Sans, Liberation Sans, Arial, Helvetica, sans" font-size="10.00">FairnessEnhancedIntraGroupMatching</text>
</a>
</g>
</g>
<!-- IntraGroupPairing&#45;&gt;FairnessEnhancedIntraGroupMatching -->
<g id="edge8" class="edge">
<title>IntraGroupPairing&#45;&gt;FairnessEnhancedIntraGroupMatching</title>
<path fill="none" stroke="black" stroke-width="0.5" d="M191.43,-114.63C201.42,-113.65 212.26,-112.6 223.31,-111.52"/>
<polygon fill="black" stroke="black" stroke-width="0.5" points="223.59,-113.25 228.39,-111.02 223.25,-109.77 223.59,-113.25"/>
</g>
<!-- BipartiteGraph -->
<g id="node5" class="node">
<title>BipartiteGraph</title>
<g id="a_node5"><a xlink:href="../techDoc.html#graphs.BipartiteGraph" xlink:title="Abstract root class for bipartite graph instances" target="_top">
<polygon fill="white" stroke="black" stroke-width="0.5" points="184.5,-83 96.5,-83 96.5,-64 184.5,-64 184.5,-83"/>
<text text-anchor="middle" x="140.5" y="-71" font-family="Vera Sans, DejaVu Sans, Liberation Sans, Arial, Helvetica, sans" font-size="10.00">BipartiteGraph</text>
</a>
</g>
</g>
<!-- BipartiteGraph&#45;&gt;InterGroupPairing -->
<g id="edge9" class="edge">
<title>BipartiteGraph&#45;&gt;InterGroupPairing</title>
<path fill="none" stroke="black" stroke-width="0.5" d="M184.76,-71.39C210.63,-70.13 243.74,-68.51 271.4,-67.16"/>
<polygon fill="black" stroke="black" stroke-width="0.5" points="271.59,-68.91 276.49,-66.91 271.42,-65.41 271.59,-68.91"/>
</g>
<!-- Graph -->
<g id="node6" class="node">
<title>Graph</title>
<g id="a_node6"><a xlink:href="../techDoc.html#graphs.Graph" xlink:title="In the `graphs` module, the root :py:class:`graphs.Graph` class provides a generic graph model. A given object consists in:" target="_top">
<polygon fill="white" stroke="black" stroke-width="0.5" points="54,-106 0,-106 0,-87 54,-87 54,-106"/>
<text text-anchor="middle" x="27" y="-94" font-family="Vera Sans, DejaVu Sans, Liberation Sans, Arial, Helvetica, sans" font-size="10.00">Graph</text>
</a>
</g>
</g>
<!-- Graph&#45;&gt;IntraGroupPairing -->
<g id="edge10" class="edge">
<title>Graph&#45;&gt;IntraGroupPairing</title>
<path fill="none" stroke="black" stroke-width="0.5" d="M54.14,-101.89C64.39,-104.01 76.52,-106.51 88.38,-108.95"/>
<polygon fill="black" stroke="black" stroke-width="0.5" points="88.18,-110.7 93.43,-110 88.89,-107.27 88.18,-110.7"/>
</g>
<!-- Graph&#45;&gt;BipartiteGraph -->
<g id="edge3" class="edge">
<title>Graph&#45;&gt;BipartiteGraph</title>
<path fill="none" stroke="black" stroke-width="0.5" d="M54.14,-91.11C65.17,-88.83 78.37,-86.11 91.05,-83.49"/>
<polygon fill="black" stroke="black" stroke-width="0.5" points="91.53,-85.18 96.07,-82.46 90.82,-81.75 91.53,-85.18"/>
</g>
</g>
</svg>
