<?xml version="1.0" encoding="UTF-8" standalone="no"?>
<!DOCTYPE svg PUBLIC "-//W3C//DTD SVG 1.1//EN"
 "http://www.w3.org/Graphics/SVG/1.1/DTD/svg11.dtd">
<!-- Generated by graphviz version 2.43.0 (0)
 -->
<!-- Title: inheritancebed16db1ec Pages: 1 -->
<svg width="435pt" height="249pt"
 viewBox="0.00 0.00 435.00 249.00" xmlns="http://www.w3.org/2000/svg" xmlns:xlink="http://www.w3.org/1999/xlink">
<g id="graph0" class="graph" transform="scale(1 1) rotate(0) translate(4 245)">
<title>inheritancebed16db1ec</title>
<!-- BestCopelandInterGroupMatching -->
<g id="node1" class="node">
<title>BestCopelandInterGroupMatching</title>
<g id="a_node1"><a xlink:href="../techDoc.html#pairings.BestCopelandInterGroupMatching" xlink:title="The class computes the individual Copeland ranking scores and" target="_top">
<polygon fill="white" stroke="black" stroke-width="0.5" points="417.5,-241 236.5,-241 236.5,-222 417.5,-222 417.5,-241"/>
<text text-anchor="middle" x="327" y="-229" font-family="Vera Sans, DejaVu Sans, Liberation Sans, Arial, Helvetica, sans" font-size="10.00">BestCopelandInterGroupMatching</text>
</a>
</g>
</g>
<!-- InterGroupPairing -->
<g id="node2" class="node">
<title>InterGroupPairing</title>
<g id="a_node2"><a xlink:href="../techDoc.html#pairings.InterGroupPairing" xlink:title="Abstract root class with private and public methods for intergroup pairing graphs" target="_top">
<polygon fill="white" stroke="black" stroke-width="0.5" points="191,-167 90,-167 90,-148 191,-148 191,-167"/>
<text text-anchor="middle" x="140.5" y="-155" font-family="Vera Sans, DejaVu Sans, Liberation Sans, Arial, Helvetica, sans" font-size="10.00">InterGroupPairing</text>
</a>
</g>
</g>
<!-- InterGroupPairing&#45;&gt;BestCopelandInterGroupMatching -->
<g id="edge1" class="edge">
<title>InterGroupPairing&#45;&gt;BestCopelandInterGroupMatching</title>
<path fill="none" stroke="black" stroke-width="0.5" d="M152.83,-167.1C168.46,-179.79 198,-201.92 227,-213.5 233.99,-216.29 241.42,-218.65 248.96,-220.65"/>
<polygon fill="black" stroke="black" stroke-width="0.5" points="248.92,-222.44 254.19,-221.97 249.78,-219.05 248.92,-222.44"/>
</g>
<!-- FairestGaleShapleyMatching -->
<g id="node5" class="node">
<title>FairestGaleShapleyMatching</title>
<g id="a_node5"><a xlink:href="../techDoc.html#pairings.FairestGaleShapleyMatching" xlink:title="The class computes both Gale&#45;Shapley matchings &#45;&#45; group A proposes and group B proposes&#45;&#45;" target="_top">
<polygon fill="white" stroke="black" stroke-width="0.5" points="404.5,-204 249.5,-204 249.5,-185 404.5,-185 404.5,-204"/>
<text text-anchor="middle" x="327" y="-192" font-family="Vera Sans, DejaVu Sans, Liberation Sans, Arial, Helvetica, sans" font-size="10.00">FairestGaleShapleyMatching</text>
</a>
</g>
</g>
<!-- InterGroupPairing&#45;&gt;FairestGaleShapleyMatching -->
<g id="edge3" class="edge">
<title>InterGroupPairing&#45;&gt;FairestGaleShapleyMatching</title>
<path fill="none" stroke="black" stroke-width="0.5" d="M182.74,-167C196.77,-170.15 212.54,-173.58 227,-176.5 239.7,-179.06 253.35,-181.65 266.33,-184.04"/>
<polygon fill="black" stroke="black" stroke-width="0.5" points="266.23,-185.8 271.46,-184.98 266.86,-182.36 266.23,-185.8"/>
</g>
<!-- FairestInterGroupPairing -->
<g id="node6" class="node">
<title>FairestInterGroupPairing</title>
<g id="a_node6"><a xlink:href="../techDoc.html#pairings.FairestInterGroupPairing" xlink:title="The class computes the fitness scores of the complete set of maximal matchings between" target="_top">
<polygon fill="white" stroke="black" stroke-width="0.5" points="394,-167 260,-167 260,-148 394,-148 394,-167"/>
<text text-anchor="middle" x="327" y="-155" font-family="Vera Sans, DejaVu Sans, Liberation Sans, Arial, Helvetica, sans" font-size="10.00">FairestInterGroupPairing</text>
</a>
</g>
</g>
<!-- InterGroupPairing&#45;&gt;FairestInterGroupPairing -->
<g id="edge4" class="edge">
<title>InterGroupPairing&#45;&gt;FairestInterGroupPairing</title>
<path fill="none" stroke="black" stroke-width="0.5" d="M191.43,-157.5C210.89,-157.5 233.56,-157.5 254.69,-157.5"/>
<polygon fill="black" stroke="black" stroke-width="0.5" points="254.74,-159.25 259.74,-157.5 254.74,-155.75 254.74,-159.25"/>
</g>
<!-- FairnessEnhancedInterGroupMatching -->
<g id="node8" class="node">
<title>FairnessEnhancedInterGroupMatching</title>
<g id="a_node8"><a xlink:href="../techDoc.html#pairings.FairnessEnhancedInterGroupMatching" xlink:title="The class enhances the fairness of a given matching." target="_top">
<polygon fill="white" stroke="black" stroke-width="0.5" points="427,-130 227,-130 227,-111 427,-111 427,-130"/>
<text text-anchor="middle" x="327" y="-118" font-family="Vera Sans, DejaVu Sans, Liberation Sans, Arial, Helvetica, sans" font-size="10.00">FairnessEnhancedInterGroupMatching</text>
</a>
</g>
</g>
<!-- InterGroupPairing&#45;&gt;FairnessEnhancedInterGroupMatching -->
<g id="edge6" class="edge">
<title>InterGroupPairing&#45;&gt;FairnessEnhancedInterGroupMatching</title>
<path fill="none" stroke="black" stroke-width="0.5" d="M186.29,-147.91C199.4,-145.15 213.76,-142.16 227,-139.5 240.98,-136.69 256.09,-133.74 270.2,-131.03"/>
<polygon fill="black" stroke="black" stroke-width="0.5" points="270.77,-132.7 275.35,-130.04 270.11,-129.26 270.77,-132.7"/>
</g>
<!-- BestCopelandIntraGroupMatching -->
<g id="node3" class="node">
<title>BestCopelandIntraGroupMatching</title>
<g id="a_node3"><a xlink:href="../techDoc.html#pairings.BestCopelandIntraGroupMatching" xlink:title="The class computes the individual Copeland ranking scores and" target="_top">
<polygon fill="white" stroke="black" stroke-width="0.5" points="417.5,-93 236.5,-93 236.5,-74 417.5,-74 417.5,-93"/>
<text text-anchor="middle" x="327" y="-81" font-family="Vera Sans, DejaVu Sans, Liberation Sans, Arial, Helvetica, sans" font-size="10.00">BestCopelandIntraGroupMatching</text>
</a>
</g>
</g>
<!-- IntraGroupPairing -->
<g id="node4" class="node">
<title>IntraGroupPairing</title>
<g id="a_node4"><a xlink:href="../techDoc.html#pairings.IntraGroupPairing" xlink:title="Abstract root class for IntraGroup pairing solutions" target="_top">
<polygon fill="white" stroke="black" stroke-width="0.5" points="191,-75 90,-75 90,-56 191,-56 191,-75"/>
<text text-anchor="middle" x="140.5" y="-63" font-family="Vera Sans, DejaVu Sans, Liberation Sans, Arial, Helvetica, sans" font-size="10.00">IntraGroupPairing</text>
</a>
</g>
</g>
<!-- IntraGroupPairing&#45;&gt;BestCopelandIntraGroupMatching -->
<g id="edge2" class="edge">
<title>IntraGroupPairing&#45;&gt;BestCopelandIntraGroupMatching</title>
<path fill="none" stroke="black" stroke-width="0.5" d="M191.43,-70.37C203.78,-71.58 217.43,-72.91 231.16,-74.25"/>
<polygon fill="black" stroke="black" stroke-width="0.5" points="231.07,-76 236.22,-74.74 231.41,-72.51 231.07,-76"/>
</g>
<!-- FairestIntraGroupPairing -->
<g id="node7" class="node">
<title>FairestIntraGroupPairing</title>
<g id="a_node7"><a xlink:href="../techDoc.html#pairings.FairestIntraGroupPairing" xlink:title="The class computes average ordinal correlations for the complete set of maximal IntraGroup matchings" target="_top">
<polygon fill="white" stroke="black" stroke-width="0.5" points="394,-56 260,-56 260,-37 394,-37 394,-56"/>
<text text-anchor="middle" x="327" y="-44" font-family="Vera Sans, DejaVu Sans, Liberation Sans, Arial, Helvetica, sans" font-size="10.00">FairestIntraGroupPairing</text>
</a>
</g>
</g>
<!-- IntraGroupPairing&#45;&gt;FairestIntraGroupPairing -->
<g id="edge5" class="edge">
<title>IntraGroupPairing&#45;&gt;FairestIntraGroupPairing</title>
<path fill="none" stroke="black" stroke-width="0.5" d="M191.43,-60.36C210.89,-58.35 233.56,-56.02 254.69,-53.84"/>
<polygon fill="black" stroke="black" stroke-width="0.5" points="254.94,-55.58 259.74,-53.32 254.59,-52.1 254.94,-55.58"/>
</g>
<!-- FairnessEnhancedIntraGroupMatching -->
<g id="node9" class="node">
<title>FairnessEnhancedIntraGroupMatching</title>
<g id="a_node9"><a xlink:href="../techDoc.html#pairings.FairnessEnhancedIntraGroupMatching" xlink:title="Solver for computing fair IntraGroup pairings using a similar hill climbing heuristic as the" target="_top">
<polygon fill="white" stroke="black" stroke-width="0.5" points="427,-19 227,-19 227,0 427,0 427,-19"/>
<text text-anchor="middle" x="327" y="-7" font-family="Vera Sans, DejaVu Sans, Liberation Sans, Arial, Helvetica, sans" font-size="10.00">FairnessEnhancedIntraGroupMatching</text>
</a>
</g>
</g>
<!-- IntraGroupPairing&#45;&gt;FairnessEnhancedIntraGroupMatching -->
<g id="edge7" class="edge">
<title>IntraGroupPairing&#45;&gt;FairnessEnhancedIntraGroupMatching</title>
<path fill="none" stroke="black" stroke-width="0.5" d="M160.4,-55.89C177.43,-47.58 203.35,-35.79 227,-28.5 237.51,-25.26 248.84,-22.46 259.93,-20.09"/>
<polygon fill="black" stroke="black" stroke-width="0.5" points="260.48,-21.77 265.01,-19.03 259.76,-18.34 260.48,-21.77"/>
</g>
<!-- Graph -->
<g id="node10" class="node">
<title>Graph</title>
<g id="a_node10"><a xlink:href="../techDoc.html#graphs.Graph" xlink:title="In the `graphs` module, the root :py:class:`graphs.Graph` class provides a generic graph model. A given object consists in:" target="_top">
<polygon fill="white" stroke="black" stroke-width="0.5" points="54,-112 0,-112 0,-93 54,-93 54,-112"/>
<text text-anchor="middle" x="27" y="-100" font-family="Vera Sans, DejaVu Sans, Liberation Sans, Arial, Helvetica, sans" font-size="10.00">Graph</text>
</a>
</g>
</g>
<!-- Graph&#45;&gt;InterGroupPairing -->
<g id="edge8" class="edge">
<title>Graph&#45;&gt;InterGroupPairing</title>
<path fill="none" stroke="black" stroke-width="0.5" d="M47.42,-112.08C66.25,-121.37 94.88,-135.49 115.21,-145.52"/>
<polygon fill="black" stroke="black" stroke-width="0.5" points="114.67,-147.2 119.93,-147.84 116.22,-144.06 114.67,-147.2"/>
</g>
<!-- Graph&#45;&gt;IntraGroupPairing -->
<g id="edge9" class="edge">
<title>Graph&#45;&gt;IntraGroupPairing</title>
<path fill="none" stroke="black" stroke-width="0.5" d="M54.14,-93.83C69.54,-88.71 89.19,-82.2 105.75,-76.7"/>
<polygon fill="black" stroke="black" stroke-width="0.5" points="106.59,-78.27 110.78,-75.03 105.48,-74.94 106.59,-78.27"/>
</g>
</g>
</svg>
