<?xml version="1.0" encoding="UTF-8" standalone="no"?>
<!DOCTYPE svg PUBLIC "-//W3C//DTD SVG 1.1//EN"
 "http://www.w3.org/Graphics/SVG/1.1/DTD/svg11.dtd">
<!-- Generated by graphviz version 2.43.0 (0)
 -->
<!-- Title: inheritancec91eb4783c Pages: 1 -->
<svg width="333pt" height="249pt"
 viewBox="0.00 0.00 333.00 249.00" xmlns="http://www.w3.org/2000/svg" xmlns:xlink="http://www.w3.org/1999/xlink">
<g id="graph0" class="graph" transform="scale(1 1) rotate(0) translate(4 245)">
<title>inheritancec91eb4783c</title>
<!-- CSVPerformanceTableau -->
<g id="node1" class="node">
<title>CSVPerformanceTableau</title>
<g id="a_node1"><a xlink:href="../techDoc.html#perfTabs.CSVPerformanceTableau" xlink:title="Reading stored CSV encoded actions x criteria PerformanceTableau instances, Using the inbuilt module csv." target="_top">
<polygon fill="white" stroke="black" stroke-width="0.5" points="306.5,-241 170.5,-241 170.5,-222 306.5,-222 306.5,-241"/>
<text text-anchor="middle" x="238.5" y="-229" font-family="Vera Sans, DejaVu Sans, Liberation Sans, Arial, Helvetica, sans" font-size="10.00">CSVPerformanceTableau</text>
</a>
</g>
</g>
<!-- PerformanceTableau -->
<g id="node2" class="node">
<title>PerformanceTableau</title>
<g id="a_node2"><a xlink:href="../techDoc.html#perfTabs.PerformanceTableau" xlink:title="In this *Digraph3* module, the root :py:class:`perfTabs.PerformanceTableau` class provides a generic **performance table model**. A given object of this class consists in:" target="_top">
<polygon fill="white" stroke="black" stroke-width="0.5" points="116,-130 0,-130 0,-111 116,-111 116,-130"/>
<text text-anchor="middle" x="58" y="-118" font-family="Vera Sans, DejaVu Sans, Liberation Sans, Arial, Helvetica, sans" font-size="10.00">PerformanceTableau</text>
</a>
</g>
</g>
<!-- PerformanceTableau&#45;&gt;CSVPerformanceTableau -->
<g id="edge1" class="edge">
<title>PerformanceTableau&#45;&gt;CSVPerformanceTableau</title>
<path fill="none" stroke="black" stroke-width="0.5" d="M65.66,-130.21C79.38,-149.43 112.85,-192.29 152,-213.5 156.8,-216.1 161.94,-218.32 167.23,-220.23"/>
<polygon fill="black" stroke="black" stroke-width="0.5" points="166.83,-221.94 172.12,-221.89 167.95,-218.62 166.83,-221.94"/>
</g>
<!-- CircularPerformanceTableau -->
<g id="node3" class="node">
<title>CircularPerformanceTableau</title>
<g id="a_node3"><a xlink:href="../techDoc.html#perfTabs.CircularPerformanceTableau" xlink:title="Constructor for circular performance tableaux." target="_top">
<polygon fill="white" stroke="black" stroke-width="0.5" points="315.5,-204 161.5,-204 161.5,-185 315.5,-185 315.5,-204"/>
<text text-anchor="middle" x="238.5" y="-192" font-family="Vera Sans, DejaVu Sans, Liberation Sans, Arial, Helvetica, sans" font-size="10.00">CircularPerformanceTableau</text>
</a>
</g>
</g>
<!-- PerformanceTableau&#45;&gt;CircularPerformanceTableau -->
<g id="edge2" class="edge">
<title>PerformanceTableau&#45;&gt;CircularPerformanceTableau</title>
<path fill="none" stroke="black" stroke-width="0.5" d="M71.82,-130.15C89.12,-142.69 121.31,-164.43 152,-176.5 159,-179.25 166.49,-181.61 174.02,-183.63"/>
<polygon fill="black" stroke="black" stroke-width="0.5" points="173.96,-185.42 179.24,-184.97 174.83,-182.03 173.96,-185.42"/>
</g>
<!-- ConstantPerformanceTableau -->
<g id="node4" class="node">
<title>ConstantPerformanceTableau</title>
<g id="a_node4"><a xlink:href="../techDoc.html#perfTabs.ConstantPerformanceTableau" xlink:title="Constructor for (partially) constant performance tableaux." target="_top">
<polygon fill="white" stroke="black" stroke-width="0.5" points="318.5,-167 158.5,-167 158.5,-148 318.5,-148 318.5,-167"/>
<text text-anchor="middle" x="238.5" y="-155" font-family="Vera Sans, DejaVu Sans, Liberation Sans, Arial, Helvetica, sans" font-size="10.00">ConstantPerformanceTableau</text>
</a>
</g>
</g>
<!-- PerformanceTableau&#45;&gt;ConstantPerformanceTableau -->
<g id="edge3" class="edge">
<title>PerformanceTableau&#45;&gt;ConstantPerformanceTableau</title>
<path fill="none" stroke="black" stroke-width="0.5" d="M104.97,-130.03C129.86,-135.19 160.67,-141.57 186.32,-146.89"/>
<polygon fill="black" stroke="black" stroke-width="0.5" points="186.13,-148.64 191.38,-147.94 186.84,-145.21 186.13,-148.64"/>
</g>
<!-- EmptyPerformanceTableau -->
<g id="node5" class="node">
<title>EmptyPerformanceTableau</title>
<g id="a_node5"><a xlink:href="../techDoc.html#perfTabs.EmptyPerformanceTableau" xlink:title="Template for PerformanceTableau objects." target="_top">
<polygon fill="white" stroke="black" stroke-width="0.5" points="312.5,-130 164.5,-130 164.5,-111 312.5,-111 312.5,-130"/>
<text text-anchor="middle" x="238.5" y="-118" font-family="Vera Sans, DejaVu Sans, Liberation Sans, Arial, Helvetica, sans" font-size="10.00">EmptyPerformanceTableau</text>
</a>
</g>
</g>
<!-- PerformanceTableau&#45;&gt;EmptyPerformanceTableau -->
<g id="edge4" class="edge">
<title>PerformanceTableau&#45;&gt;EmptyPerformanceTableau</title>
<path fill="none" stroke="black" stroke-width="0.5" d="M116.46,-120.5C130.08,-120.5 144.83,-120.5 159.19,-120.5"/>
<polygon fill="black" stroke="black" stroke-width="0.5" points="159.47,-122.25 164.47,-120.5 159.47,-118.75 159.47,-122.25"/>
</g>
<!-- NormalizedPerformanceTableau -->
<g id="node6" class="node">
<title>NormalizedPerformanceTableau</title>
<g id="a_node6"><a xlink:href="../techDoc.html#perfTabs.NormalizedPerformanceTableau" xlink:title="specialsation of the PerformanceTableau class for" target="_top">
<polygon fill="white" stroke="black" stroke-width="0.5" points="325,-93 152,-93 152,-74 325,-74 325,-93"/>
<text text-anchor="middle" x="238.5" y="-81" font-family="Vera Sans, DejaVu Sans, Liberation Sans, Arial, Helvetica, sans" font-size="10.00">NormalizedPerformanceTableau</text>
</a>
</g>
</g>
<!-- PerformanceTableau&#45;&gt;NormalizedPerformanceTableau -->
<g id="edge5" class="edge">
<title>PerformanceTableau&#45;&gt;NormalizedPerformanceTableau</title>
<path fill="none" stroke="black" stroke-width="0.5" d="M104.97,-110.97C129.86,-105.81 160.67,-99.43 186.32,-94.11"/>
<polygon fill="black" stroke="black" stroke-width="0.5" points="186.84,-95.79 191.38,-93.06 186.13,-92.36 186.84,-95.79"/>
</g>
<!-- PartialPerformanceTableau -->
<g id="node7" class="node">
<title>PartialPerformanceTableau</title>
<g id="a_node7"><a xlink:href="../techDoc.html#perfTabs.PartialPerformanceTableau" xlink:title="Constructor for partial performance tableaux concerning a subset of actions and/or criteria and/or objectives" target="_top">
<polygon fill="white" stroke="black" stroke-width="0.5" points="312,-56 165,-56 165,-37 312,-37 312,-56"/>
<text text-anchor="middle" x="238.5" y="-44" font-family="Vera Sans, DejaVu Sans, Liberation Sans, Arial, Helvetica, sans" font-size="10.00">PartialPerformanceTableau</text>
</a>
</g>
</g>
<!-- PerformanceTableau&#45;&gt;PartialPerformanceTableau -->
<g id="edge6" class="edge">
<title>PerformanceTableau&#45;&gt;PartialPerformanceTableau</title>
<path fill="none" stroke="black" stroke-width="0.5" d="M72.17,-110.88C89.59,-98.59 121.65,-77.5 152,-65.5 159.96,-62.35 168.56,-59.67 177.13,-57.4"/>
<polygon fill="black" stroke="black" stroke-width="0.5" points="178.04,-58.97 182.45,-56.04 177.17,-55.58 178.04,-58.97"/>
</g>
<!-- XMCDA2PerformanceTableau -->
<g id="node8" class="node">
<title>XMCDA2PerformanceTableau</title>
<g id="a_node8"><a xlink:href="../techDoc.html#perfTabs.XMCDA2PerformanceTableau" xlink:title="For reading stored XMCDA 2.0 formatted instances with exact decimal numbers." target="_top">
<polygon fill="white" stroke="black" stroke-width="0.5" points="318,-19 159,-19 159,0 318,0 318,-19"/>
<text text-anchor="middle" x="238.5" y="-7" font-family="Vera Sans, DejaVu Sans, Liberation Sans, Arial, Helvetica, sans" font-size="10.00">XMCDA2PerformanceTableau</text>
</a>
</g>
</g>
<!-- PerformanceTableau&#45;&gt;XMCDA2PerformanceTableau -->
<g id="edge7" class="edge">
<title>PerformanceTableau&#45;&gt;XMCDA2PerformanceTableau</title>
<path fill="none" stroke="black" stroke-width="0.5" d="M65.7,-110.93C79.51,-91.99 113.12,-49.71 152,-28.5 157.64,-25.42 163.74,-22.85 170.01,-20.69"/>
<polygon fill="black" stroke="black" stroke-width="0.5" points="170.61,-22.33 174.82,-19.11 169.53,-19 170.61,-22.33"/>
</g>
</g>
</svg>
