<?xml version="1.0" encoding="UTF-8" standalone="no"?>
<!DOCTYPE svg PUBLIC "-//W3C//DTD SVG 1.1//EN"
 "http://www.w3.org/Graphics/SVG/1.1/DTD/svg11.dtd">
<!-- Generated by graphviz version 2.43.0 (0)
 -->
<!-- Title: inheritanceaf1106a2e3 Pages: 1 -->
<svg width="890pt" height="693pt"
 viewBox="0.00 0.00 890.00 693.00" xmlns="http://www.w3.org/2000/svg" xmlns:xlink="http://www.w3.org/1999/xlink">
<g id="graph0" class="graph" transform="scale(1 1) rotate(0) translate(4 689)">
<title>inheritanceaf1106a2e3</title>
<!-- BestDeterminedSpanningForest -->
<g id="node1" class="node">
<title>BestDeterminedSpanningForest</title>
<g id="a_node1"><a xlink:href="../techDoc.html#graphs.BestDeterminedSpanningForest" xlink:title="Constructing the most determined spanning tree (or forest if not connected)" target="_top">
<polygon fill="white" stroke="black" stroke-width="0.5" points="882,-112 711,-112 711,-93 882,-93 882,-112"/>
<text text-anchor="middle" x="796.5" y="-100" font-family="Vera Sans, DejaVu Sans, Liberation Sans, Arial, Helvetica, sans" font-size="10.00">BestDeterminedSpanningForest</text>
</a>
</g>
</g>
<!-- RandomSpanningForest -->
<g id="node2" class="node">
<title>RandomSpanningForest</title>
<g id="a_node2"><a xlink:href="../techDoc.html#graphs.RandomSpanningForest" xlink:title="Random instance of a spanning forest (one or more trees)" target="_top">
<polygon fill="white" stroke="black" stroke-width="0.5" points="675,-112 543,-112 543,-93 675,-93 675,-112"/>
<text text-anchor="middle" x="609" y="-100" font-family="Vera Sans, DejaVu Sans, Liberation Sans, Arial, Helvetica, sans" font-size="10.00">RandomSpanningForest</text>
</a>
</g>
</g>
<!-- RandomSpanningForest&#45;&gt;BestDeterminedSpanningForest -->
<g id="edge1" class="edge">
<title>RandomSpanningForest&#45;&gt;BestDeterminedSpanningForest</title>
<path fill="none" stroke="black" stroke-width="0.5" d="M675.14,-102.5C685.1,-102.5 695.52,-102.5 705.9,-102.5"/>
<polygon fill="black" stroke="black" stroke-width="0.5" points="705.98,-104.25 710.98,-102.5 705.98,-100.75 705.98,-104.25"/>
</g>
<!-- CompleteGraph -->
<g id="node3" class="node">
<title>CompleteGraph</title>
<g id="a_node3"><a xlink:href="../techDoc.html#graphs.CompleteGraph" xlink:title="Instances of complete graphs bipolarly valuated in {&#45;1,0,+1}." target="_top">
<polygon fill="white" stroke="black" stroke-width="0.5" points="233.5,-685 140.5,-685 140.5,-666 233.5,-666 233.5,-685"/>
<text text-anchor="middle" x="187" y="-673" font-family="Vera Sans, DejaVu Sans, Liberation Sans, Arial, Helvetica, sans" font-size="10.00">CompleteGraph</text>
</a>
</g>
</g>
<!-- Graph -->
<g id="node4" class="node">
<title>Graph</title>
<g id="a_node4"><a xlink:href="../techDoc.html#graphs.Graph" xlink:title="In the `graphs` module, the root :py:class:`graphs.Graph` class provides a generic graph model. A given object consists in:" target="_top">
<polygon fill="white" stroke="black" stroke-width="0.5" points="54,-352 0,-352 0,-333 54,-333 54,-352"/>
<text text-anchor="middle" x="27" y="-340" font-family="Vera Sans, DejaVu Sans, Liberation Sans, Arial, Helvetica, sans" font-size="10.00">Graph</text>
</a>
</g>
</g>
<!-- Graph&#45;&gt;CompleteGraph -->
<g id="edge2" class="edge">
<title>Graph&#45;&gt;CompleteGraph</title>
<path fill="none" stroke="black" stroke-width="0.5" d="M28.49,-352.31C31.13,-400.67 45.17,-613.07 90,-657.5 101.9,-669.29 118.91,-674.66 135.31,-676.81"/>
<polygon fill="black" stroke="black" stroke-width="0.5" points="135.21,-678.56 140.38,-677.38 135.6,-675.08 135.21,-678.56"/>
</g>
<!-- CycleGraph -->
<g id="node5" class="node">
<title>CycleGraph</title>
<g id="a_node5"><a xlink:href="../techDoc.html#graphs.CycleGraph" xlink:title="Instances of cycle graph characterized in [&#45;1,1]." target="_top">
<polygon fill="white" stroke="black" stroke-width="0.5" points="223.5,-648 150.5,-648 150.5,-629 223.5,-629 223.5,-648"/>
<text text-anchor="middle" x="187" y="-636" font-family="Vera Sans, DejaVu Sans, Liberation Sans, Arial, Helvetica, sans" font-size="10.00">CycleGraph</text>
</a>
</g>
</g>
<!-- Graph&#45;&gt;CycleGraph -->
<g id="edge3" class="edge">
<title>Graph&#45;&gt;CycleGraph</title>
<path fill="none" stroke="black" stroke-width="0.5" d="M28.75,-352.04C32.42,-396.39 50,-581.84 90,-620.5 104.38,-634.4 125.88,-639.31 144.89,-640.57"/>
<polygon fill="black" stroke="black" stroke-width="0.5" points="145.1,-642.33 150.18,-640.83 145.27,-638.83 145.1,-642.33"/>
</g>
<!-- DualGraph -->
<g id="node6" class="node">
<title>DualGraph</title>
<g id="a_node6"><a xlink:href="../techDoc.html#graphs.DualGraph" xlink:title="Instantiates the dual Graph object of a given other Graph instance." target="_top">
<polygon fill="white" stroke="black" stroke-width="0.5" points="221,-611 153,-611 153,-592 221,-592 221,-611"/>
<text text-anchor="middle" x="187" y="-599" font-family="Vera Sans, DejaVu Sans, Liberation Sans, Arial, Helvetica, sans" font-size="10.00">DualGraph</text>
</a>
</g>
</g>
<!-- Graph&#45;&gt;DualGraph -->
<g id="edge4" class="edge">
<title>Graph&#45;&gt;DualGraph</title>
<path fill="none" stroke="black" stroke-width="0.5" d="M29.1,-352.11C33.98,-392.85 54.9,-550.66 90,-583.5 105.17,-597.69 127.8,-602.42 147.28,-603.5"/>
<polygon fill="black" stroke="black" stroke-width="0.5" points="147.61,-605.26 152.68,-603.71 147.75,-601.77 147.61,-605.26"/>
</g>
<!-- EmptyGraph -->
<g id="node7" class="node">
<title>EmptyGraph</title>
<g id="a_node7"><a xlink:href="../techDoc.html#graphs.EmptyGraph" xlink:title="Intantiates graph of given order without any positively valued edge." target="_top">
<polygon fill="white" stroke="black" stroke-width="0.5" points="225.5,-574 148.5,-574 148.5,-555 225.5,-555 225.5,-574"/>
<text text-anchor="middle" x="187" y="-562" font-family="Vera Sans, DejaVu Sans, Liberation Sans, Arial, Helvetica, sans" font-size="10.00">EmptyGraph</text>
</a>
</g>
</g>
<!-- Graph&#45;&gt;EmptyGraph -->
<g id="edge5" class="edge">
<title>Graph&#45;&gt;EmptyGraph</title>
<path fill="none" stroke="black" stroke-width="0.5" d="M27.7,-352.44C27.28,-385.6 30.72,-493.39 90,-546.5 104.32,-559.32 124.77,-564.32 143.13,-565.91"/>
<polygon fill="black" stroke="black" stroke-width="0.5" points="143.13,-567.66 148.24,-566.27 143.38,-564.17 143.13,-567.66"/>
</g>
<!-- GridGraph -->
<g id="node8" class="node">
<title>GridGraph</title>
<g id="a_node8"><a xlink:href="../techDoc.html#graphs.GridGraph" xlink:title="Specialization of the general Graph class for generating" target="_top">
<polygon fill="white" stroke="black" stroke-width="0.5" points="220,-537 154,-537 154,-518 220,-518 220,-537"/>
<text text-anchor="middle" x="187" y="-525" font-family="Vera Sans, DejaVu Sans, Liberation Sans, Arial, Helvetica, sans" font-size="10.00">GridGraph</text>
</a>
</g>
</g>
<!-- Graph&#45;&gt;GridGraph -->
<g id="edge6" class="edge">
<title>Graph&#45;&gt;GridGraph</title>
<path fill="none" stroke="black" stroke-width="0.5" d="M28.45,-352.27C30.34,-381.27 40.1,-467.44 90,-509.5 106,-522.99 128.88,-527.65 148.29,-528.87"/>
<polygon fill="black" stroke="black" stroke-width="0.5" points="148.59,-530.64 153.66,-529.13 148.75,-527.14 148.59,-530.64"/>
</g>
<!-- IntervalIntersectionsGraph -->
<g id="node9" class="node">
<title>IntervalIntersectionsGraph</title>
<g id="a_node9"><a xlink:href="../techDoc.html#graphs.IntervalIntersectionsGraph" xlink:title="Inveral graph constructed from a list of *n*" target="_top">
<polygon fill="white" stroke="black" stroke-width="0.5" points="260,-500 114,-500 114,-481 260,-481 260,-500"/>
<text text-anchor="middle" x="187" y="-488" font-family="Vera Sans, DejaVu Sans, Liberation Sans, Arial, Helvetica, sans" font-size="10.00">IntervalIntersectionsGraph</text>
</a>
</g>
</g>
<!-- Graph&#45;&gt;IntervalIntersectionsGraph -->
<g id="edge7" class="edge">
<title>Graph&#45;&gt;IntervalIntersectionsGraph</title>
<path fill="none" stroke="black" stroke-width="0.5" d="M29.56,-352.2C34.05,-376.69 49.37,-441.25 90,-472.5 95.68,-476.87 102.1,-480.28 108.86,-482.94"/>
<polygon fill="black" stroke="black" stroke-width="0.5" points="108.29,-484.6 113.59,-484.67 109.49,-481.31 108.29,-484.6"/>
</g>
<!-- IsingModel -->
<g id="node10" class="node">
<title>IsingModel</title>
<g id="a_node10"><a xlink:href="../techDoc.html#graphs.IsingModel" xlink:title="Specialisation of a Gibbs Sampler for the Ising model" target="_top">
<polygon fill="white" stroke="black" stroke-width="0.5" points="222,-463 152,-463 152,-444 222,-444 222,-463"/>
<text text-anchor="middle" x="187" y="-451" font-family="Vera Sans, DejaVu Sans, Liberation Sans, Arial, Helvetica, sans" font-size="10.00">IsingModel</text>
</a>
</g>
</g>
<!-- Graph&#45;&gt;IsingModel -->
<g id="edge8" class="edge">
<title>Graph&#45;&gt;IsingModel</title>
<path fill="none" stroke="black" stroke-width="0.5" d="M31.51,-352.27C38.98,-371.6 58.43,-414.63 90,-435.5 106.55,-446.44 128.03,-451.14 146.47,-453.02"/>
<polygon fill="black" stroke="black" stroke-width="0.5" points="146.44,-454.77 151.58,-453.48 146.76,-451.29 146.44,-454.77"/>
</g>
<!-- LineGraph -->
<g id="node11" class="node">
<title>LineGraph</title>
<g id="a_node11"><a xlink:href="../techDoc.html#graphs.LineGraph" xlink:title="Line graphs represent the **adjacencies between edges** of a graph instance." target="_top">
<polygon fill="white" stroke="black" stroke-width="0.5" points="220,-426 154,-426 154,-407 220,-407 220,-426"/>
<text text-anchor="middle" x="187" y="-414" font-family="Vera Sans, DejaVu Sans, Liberation Sans, Arial, Helvetica, sans" font-size="10.00">LineGraph</text>
</a>
</g>
</g>
<!-- Graph&#45;&gt;LineGraph -->
<g id="edge9" class="edge">
<title>Graph&#45;&gt;LineGraph</title>
<path fill="none" stroke="black" stroke-width="0.5" d="M35.68,-352.17C46.4,-364.95 67.13,-387.17 90,-398.5 108.19,-407.51 130.37,-412.03 148.82,-414.29"/>
<polygon fill="black" stroke="black" stroke-width="0.5" points="148.76,-416.04 153.92,-414.87 149.15,-412.57 148.76,-416.04"/>
</g>
<!-- MISModel -->
<g id="node12" class="node">
<title>MISModel</title>
<g id="a_node12"><a xlink:href="../techDoc.html#graphs.MISModel" xlink:title="Specialisation of a Gibbs Sampler for the hard code model," target="_top">
<polygon fill="white" stroke="black" stroke-width="0.5" points="219.5,-389 154.5,-389 154.5,-370 219.5,-370 219.5,-389"/>
<text text-anchor="middle" x="187" y="-377" font-family="Vera Sans, DejaVu Sans, Liberation Sans, Arial, Helvetica, sans" font-size="10.00">MISModel</text>
</a>
</g>
</g>
<!-- Graph&#45;&gt;MISModel -->
<g id="edge10" class="edge">
<title>Graph&#45;&gt;MISModel</title>
<path fill="none" stroke="black" stroke-width="0.5" d="M54.07,-351.2C65.08,-354.69 78.08,-358.57 90,-361.5 109.42,-366.28 131.31,-370.47 149.29,-373.61"/>
<polygon fill="black" stroke="black" stroke-width="0.5" points="149.02,-375.34 154.25,-374.47 149.62,-371.89 149.02,-375.34"/>
</g>
<!-- MetropolisChain -->
<g id="node13" class="node">
<title>MetropolisChain</title>
<g id="a_node13"><a xlink:href="../techDoc.html#graphs.MetropolisChain" xlink:title="Specialisation of the graph class for implementing a generic" target="_top">
<polygon fill="white" stroke="black" stroke-width="0.5" points="235,-352 139,-352 139,-333 235,-333 235,-352"/>
<text text-anchor="middle" x="187" y="-340" font-family="Vera Sans, DejaVu Sans, Liberation Sans, Arial, Helvetica, sans" font-size="10.00">MetropolisChain</text>
</a>
</g>
</g>
<!-- Graph&#45;&gt;MetropolisChain -->
<g id="edge11" class="edge">
<title>Graph&#45;&gt;MetropolisChain</title>
<path fill="none" stroke="black" stroke-width="0.5" d="M54.09,-342.5C75.62,-342.5 106.85,-342.5 133.52,-342.5"/>
<polygon fill="black" stroke="black" stroke-width="0.5" points="133.79,-344.25 138.79,-342.5 133.79,-340.75 133.79,-344.25"/>
</g>
<!-- PermutationGraph -->
<g id="node14" class="node">
<title>PermutationGraph</title>
<g id="a_node14"><a xlink:href="../techDoc.html#graphs.PermutationGraph" xlink:title="Martin Ch. Gulombic, Agorithmic Graph Theory and Perfect Graphs 2nd Ed.," target="_top">
<polygon fill="white" stroke="black" stroke-width="0.5" points="240,-315 134,-315 134,-296 240,-296 240,-315"/>
<text text-anchor="middle" x="187" y="-303" font-family="Vera Sans, DejaVu Sans, Liberation Sans, Arial, Helvetica, sans" font-size="10.00">PermutationGraph</text>
</a>
</g>
</g>
<!-- Graph&#45;&gt;PermutationGraph -->
<g id="edge12" class="edge">
<title>Graph&#45;&gt;PermutationGraph</title>
<path fill="none" stroke="black" stroke-width="0.5" d="M54.11,-334.37C65.13,-331.08 78.13,-327.39 90,-324.5 102.39,-321.48 115.76,-318.6 128.48,-316.04"/>
<polygon fill="black" stroke="black" stroke-width="0.5" points="128.94,-317.73 133.5,-315.03 128.26,-314.3 128.94,-317.73"/>
</g>
<!-- Q_Coloring -->
<g id="node15" class="node">
<title>Q_Coloring</title>
<g id="a_node15"><a xlink:href="../techDoc.html#graphs.Q_Coloring" xlink:title="Generate a q&#45;coloring of a Graph instance via a Gibbs MCMC sampler in" target="_top">
<polygon fill="white" stroke="black" stroke-width="0.5" points="222,-278 152,-278 152,-259 222,-259 222,-278"/>
<text text-anchor="middle" x="187" y="-266" font-family="Vera Sans, DejaVu Sans, Liberation Sans, Arial, Helvetica, sans" font-size="10.00">Q_Coloring</text>
</a>
</g>
</g>
<!-- Graph&#45;&gt;Q_Coloring -->
<g id="edge13" class="edge">
<title>Graph&#45;&gt;Q_Coloring</title>
<path fill="none" stroke="black" stroke-width="0.5" d="M36.11,-332.61C46.99,-320.04 67.57,-298.63 90,-287.5 107.53,-278.8 128.72,-274.09 146.72,-271.53"/>
<polygon fill="black" stroke="black" stroke-width="0.5" points="146.99,-273.26 151.71,-270.86 146.52,-269.79 146.99,-273.26"/>
</g>
<!-- RandomFixedDegreeSequenceGraph -->
<g id="node16" class="node">
<title>RandomFixedDegreeSequenceGraph</title>
<g id="a_node16"><a xlink:href="../techDoc.html#graphs.RandomFixedDegreeSequenceGraph" xlink:title="Specialization of the general Graph class for generating" target="_top">
<polygon fill="white" stroke="black" stroke-width="0.5" points="284,-241 90,-241 90,-222 284,-222 284,-241"/>
<text text-anchor="middle" x="187" y="-229" font-family="Vera Sans, DejaVu Sans, Liberation Sans, Arial, Helvetica, sans" font-size="10.00">RandomFixedDegreeSequenceGraph</text>
</a>
</g>
</g>
<!-- Graph&#45;&gt;RandomFixedDegreeSequenceGraph -->
<g id="edge14" class="edge">
<title>Graph&#45;&gt;RandomFixedDegreeSequenceGraph</title>
<path fill="none" stroke="black" stroke-width="0.5" d="M31.56,-332.86C39.12,-313.79 58.72,-271.29 90,-250.5 94.35,-247.61 99.04,-245.14 103.93,-243.03"/>
<polygon fill="black" stroke="black" stroke-width="0.5" points="104.89,-244.53 108.87,-241.04 103.58,-241.28 104.89,-244.53"/>
</g>
<!-- RandomFixedSizeGraph -->
<g id="node17" class="node">
<title>RandomFixedSizeGraph</title>
<g id="a_node17"><a xlink:href="../techDoc.html#graphs.RandomFixedSizeGraph" xlink:title="Generates a random graph with a fixed size (number of edges), by instantiating a fixed numbers of arcs" target="_top">
<polygon fill="white" stroke="black" stroke-width="0.5" points="253,-204 121,-204 121,-185 253,-185 253,-204"/>
<text text-anchor="middle" x="187" y="-192" font-family="Vera Sans, DejaVu Sans, Liberation Sans, Arial, Helvetica, sans" font-size="10.00">RandomFixedSizeGraph</text>
</a>
</g>
</g>
<!-- Graph&#45;&gt;RandomFixedSizeGraph -->
<g id="edge15" class="edge">
<title>Graph&#45;&gt;RandomFixedSizeGraph</title>
<path fill="none" stroke="black" stroke-width="0.5" d="M29.61,-332.89C34.2,-308.65 49.73,-244.69 90,-213.5 97.55,-207.65 106.41,-203.46 115.64,-200.47"/>
<polygon fill="black" stroke="black" stroke-width="0.5" points="116.21,-202.13 120.5,-199.01 115.21,-198.77 116.21,-202.13"/>
</g>
<!-- RandomGraph -->
<g id="node18" class="node">
<title>RandomGraph</title>
<g id="a_node18"><a xlink:href="../techDoc.html#graphs.RandomGraph" xlink:title="Random instances of the Graph class" target="_top">
<polygon fill="white" stroke="black" stroke-width="0.5" points="230,-167 144,-167 144,-148 230,-148 230,-167"/>
<text text-anchor="middle" x="187" y="-155" font-family="Vera Sans, DejaVu Sans, Liberation Sans, Arial, Helvetica, sans" font-size="10.00">RandomGraph</text>
</a>
</g>
</g>
<!-- Graph&#45;&gt;RandomGraph -->
<g id="edge16" class="edge">
<title>Graph&#45;&gt;RandomGraph</title>
<path fill="none" stroke="black" stroke-width="0.5" d="M28.45,-332.73C30.34,-303.73 40.1,-217.56 90,-175.5 103.4,-164.21 121.61,-159.1 138.58,-157.02"/>
<polygon fill="black" stroke="black" stroke-width="0.5" points="139.01,-158.74 143.8,-156.47 138.64,-155.26 139.01,-158.74"/>
</g>
<!-- RandomRegularGraph -->
<g id="node21" class="node">
<title>RandomRegularGraph</title>
<g id="a_node21"><a xlink:href="../techDoc.html#graphs.RandomRegularGraph" xlink:title="Specialization of the general Graph class for generating" target="_top">
<polygon fill="white" stroke="black" stroke-width="0.5" points="249,-130 125,-130 125,-111 249,-111 249,-130"/>
<text text-anchor="middle" x="187" y="-118" font-family="Vera Sans, DejaVu Sans, Liberation Sans, Arial, Helvetica, sans" font-size="10.00">RandomRegularGraph</text>
</a>
</g>
</g>
<!-- Graph&#45;&gt;RandomRegularGraph -->
<g id="edge19" class="edge">
<title>Graph&#45;&gt;RandomRegularGraph</title>
<path fill="none" stroke="black" stroke-width="0.5" d="M27.7,-332.56C27.28,-299.4 30.72,-191.61 90,-138.5 98.32,-131.04 108.72,-126.23 119.58,-123.2"/>
<polygon fill="black" stroke="black" stroke-width="0.5" points="120.18,-124.85 124.6,-121.93 119.32,-121.46 120.18,-124.85"/>
</g>
<!-- TreeGraph -->
<g id="node24" class="node">
<title>TreeGraph</title>
<g id="a_node24"><a xlink:href="../techDoc.html#graphs.TreeGraph" xlink:title="Tree graphs generated from a given Prüfer code" target="_top">
<polygon fill="white" stroke="black" stroke-width="0.5" points="220,-93 154,-93 154,-74 220,-74 220,-93"/>
<text text-anchor="middle" x="187" y="-81" font-family="Vera Sans, DejaVu Sans, Liberation Sans, Arial, Helvetica, sans" font-size="10.00">TreeGraph</text>
</a>
</g>
</g>
<!-- Graph&#45;&gt;TreeGraph -->
<g id="edge25" class="edge">
<title>Graph&#45;&gt;TreeGraph</title>
<path fill="none" stroke="black" stroke-width="0.5" d="M29.1,-332.89C33.98,-292.15 54.9,-134.34 90,-101.5 105.46,-87.04 128.67,-82.4 148.4,-81.44"/>
<polygon fill="black" stroke="black" stroke-width="0.5" points="148.66,-83.19 153.59,-81.27 148.54,-79.69 148.66,-83.19"/>
</g>
<!-- RandomValuationGraph -->
<g id="node25" class="node">
<title>RandomValuationGraph</title>
<g id="a_node25"><a xlink:href="../techDoc.html#graphs.RandomValuationGraph" xlink:title="Specialization of the genuine Graph class for generating temporary" target="_top">
<polygon fill="white" stroke="black" stroke-width="0.5" points="253,-56 121,-56 121,-37 253,-37 253,-56"/>
<text text-anchor="middle" x="187" y="-44" font-family="Vera Sans, DejaVu Sans, Liberation Sans, Arial, Helvetica, sans" font-size="10.00">RandomValuationGraph</text>
</a>
</g>
</g>
<!-- Graph&#45;&gt;RandomValuationGraph -->
<g id="edge23" class="edge">
<title>Graph&#45;&gt;RandomValuationGraph</title>
<path fill="none" stroke="black" stroke-width="0.5" d="M28.75,-332.96C32.42,-288.61 50,-103.16 90,-64.5 97.16,-57.58 106.1,-52.88 115.61,-49.76"/>
<polygon fill="black" stroke="black" stroke-width="0.5" points="116.34,-51.37 120.63,-48.27 115.34,-48.01 116.34,-51.37"/>
</g>
<!-- TriangulatedGrid -->
<g id="node27" class="node">
<title>TriangulatedGrid</title>
<g id="a_node27"><a xlink:href="../techDoc.html#graphs.TriangulatedGrid" xlink:title="Specialization of the general Graph class for generating" target="_top">
<polygon fill="white" stroke="black" stroke-width="0.5" points="235.5,-19 138.5,-19 138.5,0 235.5,0 235.5,-19"/>
<text text-anchor="middle" x="187" y="-7" font-family="Vera Sans, DejaVu Sans, Liberation Sans, Arial, Helvetica, sans" font-size="10.00">TriangulatedGrid</text>
</a>
</g>
</g>
<!-- Graph&#45;&gt;TriangulatedGrid -->
<g id="edge26" class="edge">
<title>Graph&#45;&gt;TriangulatedGrid</title>
<path fill="none" stroke="black" stroke-width="0.5" d="M28.49,-332.69C31.13,-284.33 45.17,-71.93 90,-27.5 101.36,-16.24 117.39,-10.83 133.09,-8.5"/>
<polygon fill="black" stroke="black" stroke-width="0.5" points="133.66,-10.19 138.4,-7.82 133.22,-6.72 133.66,-10.19"/>
</g>
<!-- SnakeGraph -->
<g id="node26" class="node">
<title>SnakeGraph</title>
<g id="a_node26"><a xlink:href="../techDoc.html#graphs.SnakeGraph" xlink:title="Snake graphs S(p/q) are made up of all the integer grid squares between" target="_top">
<polygon fill="white" stroke="black" stroke-width="0.5" points="451,-537 376,-537 376,-518 451,-518 451,-537"/>
<text text-anchor="middle" x="413.5" y="-525" font-family="Vera Sans, DejaVu Sans, Liberation Sans, Arial, Helvetica, sans" font-size="10.00">SnakeGraph</text>
</a>
</g>
</g>
<!-- GridGraph&#45;&gt;SnakeGraph -->
<g id="edge24" class="edge">
<title>GridGraph&#45;&gt;SnakeGraph</title>
<path fill="none" stroke="black" stroke-width="0.5" d="M220.17,-527.5C259.78,-527.5 327.15,-527.5 370.73,-527.5"/>
<polygon fill="black" stroke="black" stroke-width="0.5" points="370.92,-529.25 375.92,-527.5 370.92,-525.75 370.92,-529.25"/>
</g>
<!-- RandomIntervalIntersectionsGraph -->
<g id="node19" class="node">
<title>RandomIntervalIntersectionsGraph</title>
<g id="a_node19"><a xlink:href="../techDoc.html#graphs.RandomIntervalIntersectionsGraph" xlink:title="Random generator for IntervalIntersectionsGraph intances." target="_top">
<polygon fill="white" stroke="black" stroke-width="0.5" points="507,-500 320,-500 320,-481 507,-481 507,-500"/>
<text text-anchor="middle" x="413.5" y="-488" font-family="Vera Sans, DejaVu Sans, Liberation Sans, Arial, Helvetica, sans" font-size="10.00">RandomIntervalIntersectionsGraph</text>
</a>
</g>
</g>
<!-- IntervalIntersectionsGraph&#45;&gt;RandomIntervalIntersectionsGraph -->
<g id="edge17" class="edge">
<title>IntervalIntersectionsGraph&#45;&gt;RandomIntervalIntersectionsGraph</title>
<path fill="none" stroke="black" stroke-width="0.5" d="M260.27,-490.5C277.61,-490.5 296.41,-490.5 314.7,-490.5"/>
<polygon fill="black" stroke="black" stroke-width="0.5" points="314.84,-492.25 319.84,-490.5 314.84,-488.75 314.84,-492.25"/>
</g>
<!-- RandomPermutationGraph -->
<g id="node20" class="node">
<title>RandomPermutationGraph</title>
<g id="a_node20"><a xlink:href="../techDoc.html#graphs.RandomPermutationGraph" xlink:title="A generator for random permutation graphs." target="_top">
<polygon fill="white" stroke="black" stroke-width="0.5" points="486.5,-315 340.5,-315 340.5,-296 486.5,-296 486.5,-315"/>
<text text-anchor="middle" x="413.5" y="-303" font-family="Vera Sans, DejaVu Sans, Liberation Sans, Arial, Helvetica, sans" font-size="10.00">RandomPermutationGraph</text>
</a>
</g>
</g>
<!-- PermutationGraph&#45;&gt;RandomPermutationGraph -->
<g id="edge18" class="edge">
<title>PermutationGraph&#45;&gt;RandomPermutationGraph</title>
<path fill="none" stroke="black" stroke-width="0.5" d="M240.07,-305.5C268.35,-305.5 303.86,-305.5 335.3,-305.5"/>
<polygon fill="black" stroke="black" stroke-width="0.5" points="335.31,-307.25 340.31,-305.5 335.31,-303.75 335.31,-307.25"/>
</g>
<!-- RandomTree -->
<g id="node22" class="node">
<title>RandomTree</title>
<g id="a_node22"><a xlink:href="../techDoc.html#graphs.RandomTree" xlink:title="Instance of a tree generated from a random Prüfer code." target="_top">
<polygon fill="white" stroke="black" stroke-width="0.5" points="452,-93 375,-93 375,-74 452,-74 452,-93"/>
<text text-anchor="middle" x="413.5" y="-81" font-family="Vera Sans, DejaVu Sans, Liberation Sans, Arial, Helvetica, sans" font-size="10.00">RandomTree</text>
</a>
</g>
</g>
<!-- RandomTree&#45;&gt;RandomSpanningForest -->
<g id="edge20" class="edge">
<title>RandomTree&#45;&gt;RandomSpanningForest</title>
<path fill="none" stroke="black" stroke-width="0.5" d="M452.27,-87.21C476.6,-89.6 508.97,-92.78 537.9,-95.62"/>
<polygon fill="black" stroke="black" stroke-width="0.5" points="537.74,-97.36 542.88,-96.11 538.08,-93.88 537.74,-97.36"/>
</g>
<!-- RandomSpanningTree -->
<g id="node23" class="node">
<title>RandomSpanningTree</title>
<g id="a_node23"><a xlink:href="../techDoc.html#graphs.RandomSpanningTree" xlink:title="Uniform random instance of a spanning tree" target="_top">
<polygon fill="white" stroke="black" stroke-width="0.5" points="670,-75 548,-75 548,-56 670,-56 670,-75"/>
<text text-anchor="middle" x="609" y="-63" font-family="Vera Sans, DejaVu Sans, Liberation Sans, Arial, Helvetica, sans" font-size="10.00">RandomSpanningTree</text>
</a>
</g>
</g>
<!-- RandomTree&#45;&gt;RandomSpanningTree -->
<g id="edge21" class="edge">
<title>RandomTree&#45;&gt;RandomSpanningTree</title>
<path fill="none" stroke="black" stroke-width="0.5" d="M452.27,-79.99C477.95,-77.6 512.59,-74.37 542.69,-71.58"/>
<polygon fill="black" stroke="black" stroke-width="0.5" points="543.05,-73.3 547.86,-71.09 542.72,-69.81 543.05,-73.3"/>
</g>
<!-- TreeGraph&#45;&gt;RandomTree -->
<g id="edge22" class="edge">
<title>TreeGraph&#45;&gt;RandomTree</title>
<path fill="none" stroke="black" stroke-width="0.5" d="M220.17,-83.5C259.43,-83.5 325.97,-83.5 369.57,-83.5"/>
<polygon fill="black" stroke="black" stroke-width="0.5" points="369.77,-85.25 374.77,-83.5 369.77,-81.75 369.77,-85.25"/>
</g>
</g>
</svg>
