<?xml version="1.0" encoding="UTF-8" standalone="no"?>
<!DOCTYPE svg PUBLIC "-//W3C//DTD SVG 1.1//EN"
 "http://www.w3.org/Graphics/SVG/1.1/DTD/svg11.dtd">
<!-- Generated by graphviz version 2.43.0 (0)
 -->
<!-- Title: inheritancebed16db1ec Pages: 1 -->
<svg width="355pt" height="212pt"
 viewBox="0.00 0.00 355.00 212.00" xmlns="http://www.w3.org/2000/svg" xmlns:xlink="http://www.w3.org/1999/xlink">
<g id="graph0" class="graph" transform="scale(1 1) rotate(0) translate(4 208)">
<title>inheritancebed16db1ec</title>
<!-- FairestGaleShapleyMatching -->
<g id="node1" class="node">
<title>FairestGaleShapleyMatching</title>
<g id="a_node1"><a xlink:href="../techDoc.html#pairings.FairestGaleShapleyMatching" xlink:title="The class computes both Gale&#45;Shapley matching and renders the fairest of both." target="_top">
<polygon fill="white" stroke="black" stroke-width="0.5" points="319.5,-130 164.5,-130 164.5,-111 319.5,-111 319.5,-130"/>
<text text-anchor="middle" x="242" y="-118" font-family="Vera Sans, DejaVu Sans, Liberation Sans, Arial, Helvetica, sans" font-size="10.00">FairestGaleShapleyMatching</text>
</a>
</g>
</g>
<!-- InterGroupPairing -->
<g id="node2" class="node">
<title>InterGroupPairing</title>
<g id="a_node2"><a xlink:href="../techDoc.html#pairings.InterGroupPairing" xlink:title="Abstract root class" target="_top">
<polygon fill="white" stroke="black" stroke-width="0.5" points="101,-74 0,-74 0,-55 101,-55 101,-74"/>
<text text-anchor="middle" x="50.5" y="-62" font-family="Vera Sans, DejaVu Sans, Liberation Sans, Arial, Helvetica, sans" font-size="10.00">InterGroupPairing</text>
</a>
</g>
</g>
<!-- InterGroupPairing&#45;&gt;FairestGaleShapleyMatching -->
<g id="edge1" class="edge">
<title>InterGroupPairing&#45;&gt;FairestGaleShapleyMatching</title>
<path fill="none" stroke="black" stroke-width="0.5" d="M70.38,-74.16C87.4,-82.5 113.32,-94.32 137,-101.5 147.74,-104.76 159.28,-107.54 170.63,-109.9"/>
<polygon fill="black" stroke="black" stroke-width="0.5" points="170.57,-111.67 175.82,-110.95 171.27,-108.24 170.57,-111.67"/>
</g>
<!-- FairestInterGroupPairing -->
<g id="node3" class="node">
<title>FairestInterGroupPairing</title>
<g id="a_node3"><a xlink:href="../techDoc.html#pairings.FairestInterGroupPairing" xlink:title="The class computes the fitness scores of the complete set of maximal matchings between" target="_top">
<polygon fill="white" stroke="black" stroke-width="0.5" points="309,-93 175,-93 175,-74 309,-74 309,-93"/>
<text text-anchor="middle" x="242" y="-81" font-family="Vera Sans, DejaVu Sans, Liberation Sans, Arial, Helvetica, sans" font-size="10.00">FairestInterGroupPairing</text>
</a>
</g>
</g>
<!-- InterGroupPairing&#45;&gt;FairestInterGroupPairing -->
<g id="edge2" class="edge">
<title>InterGroupPairing&#45;&gt;FairestInterGroupPairing</title>
<path fill="none" stroke="black" stroke-width="0.5" d="M101.29,-69.49C122.19,-71.59 146.89,-74.06 169.66,-76.35"/>
<polygon fill="black" stroke="black" stroke-width="0.5" points="169.64,-78.1 174.79,-76.86 169.99,-74.62 169.64,-78.1"/>
</g>
<!-- FairnessEnhancedGaleShapleyMatching -->
<g id="node6" class="node">
<title>FairnessEnhancedGaleShapleyMatching</title>
<g id="a_node6"><a xlink:href="../techDoc.html#pairings.FairnessEnhancedGaleShapleyMatching" xlink:title="The class enhances the fairness of the fairest Gale&#45;Shapley matching." target="_top">
<polygon fill="white" stroke="black" stroke-width="0.5" points="347,-56 137,-56 137,-37 347,-37 347,-56"/>
<text text-anchor="middle" x="242" y="-44" font-family="Vera Sans, DejaVu Sans, Liberation Sans, Arial, Helvetica, sans" font-size="10.00">FairnessEnhancedGaleShapleyMatching</text>
</a>
</g>
</g>
<!-- InterGroupPairing&#45;&gt;FairnessEnhancedGaleShapleyMatching -->
<g id="edge4" class="edge">
<title>InterGroupPairing&#45;&gt;FairnessEnhancedGaleShapleyMatching</title>
<path fill="none" stroke="black" stroke-width="0.5" d="M101.29,-59.77C112.04,-58.75 123.79,-57.63 135.76,-56.5"/>
<polygon fill="black" stroke="black" stroke-width="0.5" points="136.1,-58.22 140.91,-56.01 135.77,-54.74 136.1,-58.22"/>
</g>
<!-- FairnessEnhancedInterGroupMatching -->
<g id="node7" class="node">
<title>FairnessEnhancedInterGroupMatching</title>
<g id="a_node7"><a xlink:href="../techDoc.html#pairings.FairnessEnhancedInterGroupMatching" xlink:title="The class enhances the fairness of a given matching." target="_top">
<polygon fill="white" stroke="black" stroke-width="0.5" points="342,-19 142,-19 142,0 342,0 342,-19"/>
<text text-anchor="middle" x="242" y="-7" font-family="Vera Sans, DejaVu Sans, Liberation Sans, Arial, Helvetica, sans" font-size="10.00">FairnessEnhancedInterGroupMatching</text>
</a>
</g>
</g>
<!-- InterGroupPairing&#45;&gt;FairnessEnhancedInterGroupMatching -->
<g id="edge5" class="edge">
<title>InterGroupPairing&#45;&gt;FairnessEnhancedInterGroupMatching</title>
<path fill="none" stroke="black" stroke-width="0.5" d="M70.04,-54.95C87.04,-46.56 113.13,-34.62 137,-27.5 146.66,-24.62 156.97,-22.15 167.2,-20.04"/>
<polygon fill="black" stroke="black" stroke-width="0.5" points="167.66,-21.73 172.21,-19.03 166.97,-18.3 167.66,-21.73"/>
</g>
<!-- FairestIntraGroupPairing -->
<g id="node4" class="node">
<title>FairestIntraGroupPairing</title>
<g id="a_node4"><a xlink:href="../techDoc.html#pairings.FairestIntraGroupPairing" xlink:title="The class computes the fitness scores of the complete set of maximal IntraGroup matchings" target="_top">
<polygon fill="white" stroke="black" stroke-width="0.5" points="309,-204 175,-204 175,-185 309,-185 309,-204"/>
<text text-anchor="middle" x="242" y="-192" font-family="Vera Sans, DejaVu Sans, Liberation Sans, Arial, Helvetica, sans" font-size="10.00">FairestIntraGroupPairing</text>
</a>
</g>
</g>
<!-- IntraGroupPairing -->
<g id="node5" class="node">
<title>IntraGroupPairing</title>
<g id="a_node5"><a xlink:href="../techDoc.html#pairings.IntraGroupPairing" xlink:title="Abstract root class for IntraGroup pairing solutions" target="_top">
<polygon fill="white" stroke="black" stroke-width="0.5" points="101,-185 0,-185 0,-166 101,-166 101,-185"/>
<text text-anchor="middle" x="50.5" y="-173" font-family="Vera Sans, DejaVu Sans, Liberation Sans, Arial, Helvetica, sans" font-size="10.00">IntraGroupPairing</text>
</a>
</g>
</g>
<!-- IntraGroupPairing&#45;&gt;FairestIntraGroupPairing -->
<g id="edge3" class="edge">
<title>IntraGroupPairing&#45;&gt;FairestIntraGroupPairing</title>
<path fill="none" stroke="black" stroke-width="0.5" d="M101.29,-180.49C122.19,-182.59 146.89,-185.06 169.66,-187.35"/>
<polygon fill="black" stroke="black" stroke-width="0.5" points="169.64,-189.1 174.79,-187.86 169.99,-185.62 169.64,-189.1"/>
</g>
<!-- FairnessEnhancedIntraGroupMatching -->
<g id="node8" class="node">
<title>FairnessEnhancedIntraGroupMatching</title>
<g id="a_node8"><a xlink:href="../techDoc.html#pairings.FairnessEnhancedIntraGroupMatching" xlink:title="Solver for computing fair IntraGroup pairings using the same algorithm as the" target="_top">
<polygon fill="white" stroke="black" stroke-width="0.5" points="342,-167 142,-167 142,-148 342,-148 342,-167"/>
<text text-anchor="middle" x="242" y="-155" font-family="Vera Sans, DejaVu Sans, Liberation Sans, Arial, Helvetica, sans" font-size="10.00">FairnessEnhancedIntraGroupMatching</text>
</a>
</g>
</g>
<!-- IntraGroupPairing&#45;&gt;FairnessEnhancedIntraGroupMatching -->
<g id="edge6" class="edge">
<title>IntraGroupPairing&#45;&gt;FairnessEnhancedIntraGroupMatching</title>
<path fill="none" stroke="black" stroke-width="0.5" d="M101.29,-170.77C112.23,-169.73 124.21,-168.59 136.41,-167.44"/>
<polygon fill="black" stroke="black" stroke-width="0.5" points="136.83,-169.15 141.65,-166.94 136.5,-165.67 136.83,-169.15"/>
</g>
</g>
</svg>
