<?xml version="1.0" encoding="UTF-8" standalone="no"?>
<!DOCTYPE svg PUBLIC "-//W3C//DTD SVG 1.1//EN"
 "http://www.w3.org/Graphics/SVG/1.1/DTD/svg11.dtd">
<!-- Generated by graphviz version 2.43.0 (0)
 -->
<!-- Title: inheritancebed16db1ec Pages: 1 -->
<svg width="345pt" height="175pt"
 viewBox="0.00 0.00 345.00 175.00" xmlns="http://www.w3.org/2000/svg" xmlns:xlink="http://www.w3.org/1999/xlink">
<g id="graph0" class="graph" transform="scale(1 1) rotate(0) translate(4 171)">
<title>inheritancebed16db1ec</title>
<!-- FairestGaleShapleyMatching -->
<g id="node1" class="node">
<title>FairestGaleShapleyMatching</title>
<g id="a_node1"><a xlink:href="../techDoc.html#pairings.FairestGaleShapleyMatching" xlink:title="The class computes both Gale&#45;Shapley matchings &#45;&#45; group A proposes and group B proposes&#45;&#45;" target="_top">
<polygon fill="white" stroke="black" stroke-width="0.5" points="314.5,-93 159.5,-93 159.5,-74 314.5,-74 314.5,-93"/>
<text text-anchor="middle" x="237" y="-81" font-family="Vera Sans, DejaVu Sans, Liberation Sans, Arial, Helvetica, sans" font-size="10.00">FairestGaleShapleyMatching</text>
</a>
</g>
</g>
<!-- InterGroupPairing -->
<g id="node2" class="node">
<title>InterGroupPairing</title>
<g id="a_node2"><a xlink:href="../techDoc.html#pairings.InterGroupPairing" xlink:title="Abstract root class" target="_top">
<polygon fill="white" stroke="black" stroke-width="0.5" points="101,-56 0,-56 0,-37 101,-37 101,-56"/>
<text text-anchor="middle" x="50.5" y="-44" font-family="Vera Sans, DejaVu Sans, Liberation Sans, Arial, Helvetica, sans" font-size="10.00">InterGroupPairing</text>
</a>
</g>
</g>
<!-- InterGroupPairing&#45;&gt;FairestGaleShapleyMatching -->
<g id="edge1" class="edge">
<title>InterGroupPairing&#45;&gt;FairestGaleShapleyMatching</title>
<path fill="none" stroke="black" stroke-width="0.5" d="M96.29,-56.09C109.4,-58.85 123.76,-61.84 137,-64.5 150.98,-67.31 166.09,-70.26 180.2,-72.97"/>
<polygon fill="black" stroke="black" stroke-width="0.5" points="180.11,-74.74 185.35,-73.96 180.77,-71.3 180.11,-74.74"/>
</g>
<!-- FairestInterGroupPairing -->
<g id="node3" class="node">
<title>FairestInterGroupPairing</title>
<g id="a_node3"><a xlink:href="../techDoc.html#pairings.FairestInterGroupPairing" xlink:title="The class computes the fitness scores of the complete set of maximal matchings between" target="_top">
<polygon fill="white" stroke="black" stroke-width="0.5" points="304,-56 170,-56 170,-37 304,-37 304,-56"/>
<text text-anchor="middle" x="237" y="-44" font-family="Vera Sans, DejaVu Sans, Liberation Sans, Arial, Helvetica, sans" font-size="10.00">FairestInterGroupPairing</text>
</a>
</g>
</g>
<!-- InterGroupPairing&#45;&gt;FairestInterGroupPairing -->
<g id="edge2" class="edge">
<title>InterGroupPairing&#45;&gt;FairestInterGroupPairing</title>
<path fill="none" stroke="black" stroke-width="0.5" d="M101.43,-46.5C120.89,-46.5 143.56,-46.5 164.69,-46.5"/>
<polygon fill="black" stroke="black" stroke-width="0.5" points="164.74,-48.25 169.74,-46.5 164.74,-44.75 164.74,-48.25"/>
</g>
<!-- FairnessEnhancedInterGroupMatching -->
<g id="node6" class="node">
<title>FairnessEnhancedInterGroupMatching</title>
<g id="a_node6"><a xlink:href="../techDoc.html#pairings.FairnessEnhancedInterGroupMatching" xlink:title="The class enhances the fairness of a given matching." target="_top">
<polygon fill="white" stroke="black" stroke-width="0.5" points="337,-19 137,-19 137,0 337,0 337,-19"/>
<text text-anchor="middle" x="237" y="-7" font-family="Vera Sans, DejaVu Sans, Liberation Sans, Arial, Helvetica, sans" font-size="10.00">FairnessEnhancedInterGroupMatching</text>
</a>
</g>
</g>
<!-- InterGroupPairing&#45;&gt;FairnessEnhancedInterGroupMatching -->
<g id="edge4" class="edge">
<title>InterGroupPairing&#45;&gt;FairnessEnhancedInterGroupMatching</title>
<path fill="none" stroke="black" stroke-width="0.5" d="M92.74,-37C106.77,-33.85 122.54,-30.42 137,-27.5 149.7,-24.94 163.35,-22.35 176.33,-19.96"/>
<polygon fill="black" stroke="black" stroke-width="0.5" points="176.86,-21.64 181.46,-19.02 176.23,-18.2 176.86,-21.64"/>
</g>
<!-- FairestIntraGroupPairing -->
<g id="node4" class="node">
<title>FairestIntraGroupPairing</title>
<g id="a_node4"><a xlink:href="../techDoc.html#pairings.FairestIntraGroupPairing" xlink:title="The class computes average ordinal correlations for the complete set of maximal IntraGroup matchings" target="_top">
<polygon fill="white" stroke="black" stroke-width="0.5" points="304,-167 170,-167 170,-148 304,-148 304,-167"/>
<text text-anchor="middle" x="237" y="-155" font-family="Vera Sans, DejaVu Sans, Liberation Sans, Arial, Helvetica, sans" font-size="10.00">FairestIntraGroupPairing</text>
</a>
</g>
</g>
<!-- IntraGroupPairing -->
<g id="node5" class="node">
<title>IntraGroupPairing</title>
<g id="a_node5"><a xlink:href="../techDoc.html#pairings.IntraGroupPairing" xlink:title="Abstract root class for IntraGroup pairing solutions" target="_top">
<polygon fill="white" stroke="black" stroke-width="0.5" points="101,-148 0,-148 0,-129 101,-129 101,-148"/>
<text text-anchor="middle" x="50.5" y="-136" font-family="Vera Sans, DejaVu Sans, Liberation Sans, Arial, Helvetica, sans" font-size="10.00">IntraGroupPairing</text>
</a>
</g>
</g>
<!-- IntraGroupPairing&#45;&gt;FairestIntraGroupPairing -->
<g id="edge3" class="edge">
<title>IntraGroupPairing&#45;&gt;FairestIntraGroupPairing</title>
<path fill="none" stroke="black" stroke-width="0.5" d="M101.43,-143.64C120.89,-145.65 143.56,-147.98 164.69,-150.16"/>
<polygon fill="black" stroke="black" stroke-width="0.5" points="164.59,-151.9 169.74,-150.68 164.94,-148.42 164.59,-151.9"/>
</g>
<!-- FairnessEnhancedIntraGroupMatching -->
<g id="node7" class="node">
<title>FairnessEnhancedIntraGroupMatching</title>
<g id="a_node7"><a xlink:href="../techDoc.html#pairings.FairnessEnhancedIntraGroupMatching" xlink:title="Solver for computing fair IntraGroup pairings using a similar hill climbing heuristic as the" target="_top">
<polygon fill="white" stroke="black" stroke-width="0.5" points="337,-130 137,-130 137,-111 337,-111 337,-130"/>
<text text-anchor="middle" x="237" y="-118" font-family="Vera Sans, DejaVu Sans, Liberation Sans, Arial, Helvetica, sans" font-size="10.00">FairnessEnhancedIntraGroupMatching</text>
</a>
</g>
</g>
<!-- IntraGroupPairing&#45;&gt;FairnessEnhancedIntraGroupMatching -->
<g id="edge5" class="edge">
<title>IntraGroupPairing&#45;&gt;FairnessEnhancedIntraGroupMatching</title>
<path fill="none" stroke="black" stroke-width="0.5" d="M101.43,-133.63C111.42,-132.65 122.26,-131.6 133.31,-130.52"/>
<polygon fill="black" stroke="black" stroke-width="0.5" points="133.59,-132.25 138.39,-130.02 133.25,-128.77 133.59,-132.25"/>
</g>
</g>
</svg>
