<?xml version="1.0" encoding="UTF-8" standalone="no"?>
<!DOCTYPE svg PUBLIC "-//W3C//DTD SVG 1.1//EN"
 "http://www.w3.org/Graphics/SVG/1.1/DTD/svg11.dtd">
<!-- Generated by graphviz version 2.43.0 (0)
 -->
<!-- Title: inheritanceaf1106a2e3 Pages: 1 -->
<svg width="890pt" height="730pt"
 viewBox="0.00 0.00 890.00 730.00" xmlns="http://www.w3.org/2000/svg" xmlns:xlink="http://www.w3.org/1999/xlink">
<g id="graph0" class="graph" transform="scale(1 1) rotate(0) translate(4 726)">
<title>inheritanceaf1106a2e3</title>
<!-- BestDeterminedSpanningForest -->
<g id="node1" class="node">
<title>BestDeterminedSpanningForest</title>
<g id="a_node1"><a xlink:href="../techDoc.html#graphs.BestDeterminedSpanningForest" xlink:title="Constructing the most determined spanning tree (or forest if not connected)" target="_top">
<polygon fill="white" stroke="black" stroke-width="0.5" points="882,-112 711,-112 711,-93 882,-93 882,-112"/>
<text text-anchor="middle" x="796.5" y="-100" font-family="Vera Sans, DejaVu Sans, Liberation Sans, Arial, Helvetica, sans" font-size="10.00">BestDeterminedSpanningForest</text>
</a>
</g>
</g>
<!-- RandomSpanningForest -->
<g id="node2" class="node">
<title>RandomSpanningForest</title>
<g id="a_node2"><a xlink:href="../techDoc.html#graphs.RandomSpanningForest" xlink:title="Random instance of a spanning forest (one or more trees)" target="_top">
<polygon fill="white" stroke="black" stroke-width="0.5" points="675,-112 543,-112 543,-93 675,-93 675,-112"/>
<text text-anchor="middle" x="609" y="-100" font-family="Vera Sans, DejaVu Sans, Liberation Sans, Arial, Helvetica, sans" font-size="10.00">RandomSpanningForest</text>
</a>
</g>
</g>
<!-- RandomSpanningForest&#45;&gt;BestDeterminedSpanningForest -->
<g id="edge1" class="edge">
<title>RandomSpanningForest&#45;&gt;BestDeterminedSpanningForest</title>
<path fill="none" stroke="black" stroke-width="0.5" d="M675.14,-102.5C685.1,-102.5 695.52,-102.5 705.9,-102.5"/>
<polygon fill="black" stroke="black" stroke-width="0.5" points="705.98,-104.25 710.98,-102.5 705.98,-100.75 705.98,-104.25"/>
</g>
<!-- BipartiteGraph -->
<g id="node3" class="node">
<title>BipartiteGraph</title>
<g id="a_node3"><a xlink:href="../techDoc.html#graphs.BipartiteGraph" xlink:title="Abstract root class for bipartite graph instances" target="_top">
<polygon fill="white" stroke="black" stroke-width="0.5" points="231,-722 143,-722 143,-703 231,-703 231,-722"/>
<text text-anchor="middle" x="187" y="-710" font-family="Vera Sans, DejaVu Sans, Liberation Sans, Arial, Helvetica, sans" font-size="10.00">BipartiteGraph</text>
</a>
</g>
</g>
<!-- CompleteBipartiteGraph -->
<g id="node5" class="node">
<title>CompleteBipartiteGraph</title>
<g id="a_node5"><a xlink:href="../techDoc.html#graphs.CompleteBipartiteGraph" xlink:title="Instances of complete bipartite graphs bipolarly valuated in {&#45;1,0,+1}." target="_top">
<polygon fill="white" stroke="black" stroke-width="0.5" points="481,-722 346,-722 346,-703 481,-703 481,-722"/>
<text text-anchor="middle" x="413.5" y="-710" font-family="Vera Sans, DejaVu Sans, Liberation Sans, Arial, Helvetica, sans" font-size="10.00">CompleteBipartiteGraph</text>
</a>
</g>
</g>
<!-- BipartiteGraph&#45;&gt;CompleteBipartiteGraph -->
<g id="edge3" class="edge">
<title>BipartiteGraph&#45;&gt;CompleteBipartiteGraph</title>
<path fill="none" stroke="black" stroke-width="0.5" d="M231.02,-712.5C261.96,-712.5 304.43,-712.5 340.5,-712.5"/>
<polygon fill="black" stroke="black" stroke-width="0.5" points="340.77,-714.25 345.77,-712.5 340.77,-710.75 340.77,-714.25"/>
</g>
<!-- Graph -->
<g id="node4" class="node">
<title>Graph</title>
<g id="a_node4"><a xlink:href="../techDoc.html#graphs.Graph" xlink:title="In the `graphs` module, the root :py:class:`graphs.Graph` class provides a generic graph model. A given object consists in:" target="_top">
<polygon fill="white" stroke="black" stroke-width="0.5" points="54,-370 0,-370 0,-351 54,-351 54,-370"/>
<text text-anchor="middle" x="27" y="-358" font-family="Vera Sans, DejaVu Sans, Liberation Sans, Arial, Helvetica, sans" font-size="10.00">Graph</text>
</a>
</g>
</g>
<!-- Graph&#45;&gt;BipartiteGraph -->
<g id="edge2" class="edge">
<title>Graph&#45;&gt;BipartiteGraph</title>
<path fill="none" stroke="black" stroke-width="0.5" d="M28.37,-370.23C30.48,-420.16 42.61,-647.02 90,-694.5 102.38,-706.9 120.4,-712.22 137.49,-714.16"/>
<polygon fill="black" stroke="black" stroke-width="0.5" points="137.62,-715.93 142.76,-714.66 137.95,-712.45 137.62,-715.93"/>
</g>
<!-- CompleteGraph -->
<g id="node6" class="node">
<title>CompleteGraph</title>
<g id="a_node6"><a xlink:href="../techDoc.html#graphs.CompleteGraph" xlink:title="Instances of complete graphs bipolarly valuated in {&#45;1,0,+1}." target="_top">
<polygon fill="white" stroke="black" stroke-width="0.5" points="233.5,-685 140.5,-685 140.5,-666 233.5,-666 233.5,-685"/>
<text text-anchor="middle" x="187" y="-673" font-family="Vera Sans, DejaVu Sans, Liberation Sans, Arial, Helvetica, sans" font-size="10.00">CompleteGraph</text>
</a>
</g>
</g>
<!-- Graph&#45;&gt;CompleteGraph -->
<g id="edge4" class="edge">
<title>Graph&#45;&gt;CompleteGraph</title>
<path fill="none" stroke="black" stroke-width="0.5" d="M28.6,-370.06C31.72,-416.27 47.48,-615.84 90,-657.5 101.96,-669.22 118.99,-674.58 135.39,-676.74"/>
<polygon fill="black" stroke="black" stroke-width="0.5" points="135.29,-678.49 140.45,-677.31 135.68,-675.01 135.29,-678.49"/>
</g>
<!-- CycleGraph -->
<g id="node7" class="node">
<title>CycleGraph</title>
<g id="a_node7"><a xlink:href="../techDoc.html#graphs.CycleGraph" xlink:title="Instances of cycle graph characterized in [&#45;1,1]." target="_top">
<polygon fill="white" stroke="black" stroke-width="0.5" points="223.5,-648 150.5,-648 150.5,-629 223.5,-629 223.5,-648"/>
<text text-anchor="middle" x="187" y="-636" font-family="Vera Sans, DejaVu Sans, Liberation Sans, Arial, Helvetica, sans" font-size="10.00">CycleGraph</text>
</a>
</g>
</g>
<!-- Graph&#45;&gt;CycleGraph -->
<g id="edge5" class="edge">
<title>Graph&#45;&gt;CycleGraph</title>
<path fill="none" stroke="black" stroke-width="0.5" d="M28.93,-370.28C33.21,-413.24 52.45,-584.74 90,-620.5 104.48,-634.29 125.99,-639.2 144.98,-640.47"/>
<polygon fill="black" stroke="black" stroke-width="0.5" points="145.18,-642.24 150.26,-640.74 145.35,-638.74 145.18,-642.24"/>
</g>
<!-- DualGraph -->
<g id="node8" class="node">
<title>DualGraph</title>
<g id="a_node8"><a xlink:href="../techDoc.html#graphs.DualGraph" xlink:title="Instantiates the dual Graph object of a given other Graph instance." target="_top">
<polygon fill="white" stroke="black" stroke-width="0.5" points="221,-611 153,-611 153,-592 221,-592 221,-611"/>
<text text-anchor="middle" x="187" y="-599" font-family="Vera Sans, DejaVu Sans, Liberation Sans, Arial, Helvetica, sans" font-size="10.00">DualGraph</text>
</a>
</g>
</g>
<!-- Graph&#45;&gt;DualGraph -->
<g id="edge6" class="edge">
<title>Graph&#45;&gt;DualGraph</title>
<path fill="none" stroke="black" stroke-width="0.5" d="M27.41,-370.34C25.88,-405.31 25.75,-524.54 90,-583.5 105.3,-597.54 127.94,-602.27 147.39,-603.38"/>
<polygon fill="black" stroke="black" stroke-width="0.5" points="147.71,-605.14 152.78,-603.6 147.86,-601.65 147.71,-605.14"/>
</g>
<!-- EmptyGraph -->
<g id="node9" class="node">
<title>EmptyGraph</title>
<g id="a_node9"><a xlink:href="../techDoc.html#graphs.EmptyGraph" xlink:title="Intantiates graph of given order without any positively valued edge." target="_top">
<polygon fill="white" stroke="black" stroke-width="0.5" points="225.5,-574 148.5,-574 148.5,-555 225.5,-555 225.5,-574"/>
<text text-anchor="middle" x="187" y="-562" font-family="Vera Sans, DejaVu Sans, Liberation Sans, Arial, Helvetica, sans" font-size="10.00">EmptyGraph</text>
</a>
</g>
</g>
<!-- Graph&#45;&gt;EmptyGraph -->
<g id="edge7" class="edge">
<title>Graph&#45;&gt;EmptyGraph</title>
<path fill="none" stroke="black" stroke-width="0.5" d="M28.03,-370.01C28.66,-400.82 35.1,-498.62 90,-546.5 104.49,-559.13 124.96,-564.11 143.29,-565.73"/>
<polygon fill="black" stroke="black" stroke-width="0.5" points="143.28,-567.48 148.39,-566.1 143.53,-563.99 143.28,-567.48"/>
</g>
<!-- GridGraph -->
<g id="node10" class="node">
<title>GridGraph</title>
<g id="a_node10"><a xlink:href="../techDoc.html#graphs.GridGraph" xlink:title="Specialization of the general Graph class for generating" target="_top">
<polygon fill="white" stroke="black" stroke-width="0.5" points="220,-537 154,-537 154,-518 220,-518 220,-537"/>
<text text-anchor="middle" x="187" y="-525" font-family="Vera Sans, DejaVu Sans, Liberation Sans, Arial, Helvetica, sans" font-size="10.00">GridGraph</text>
</a>
</g>
</g>
<!-- Graph&#45;&gt;GridGraph -->
<g id="edge8" class="edge">
<title>Graph&#45;&gt;GridGraph</title>
<path fill="none" stroke="black" stroke-width="0.5" d="M28.95,-370.38C32.09,-397.38 44.72,-472.81 90,-509.5 106.26,-522.67 129.15,-527.33 148.5,-528.62"/>
<polygon fill="black" stroke="black" stroke-width="0.5" points="148.77,-530.38 153.85,-528.9 148.95,-526.89 148.77,-530.38"/>
</g>
<!-- IntervalIntersectionsGraph -->
<g id="node11" class="node">
<title>IntervalIntersectionsGraph</title>
<g id="a_node11"><a xlink:href="../techDoc.html#graphs.IntervalIntersectionsGraph" xlink:title="Inveral graph constructed from a list of *n*" target="_top">
<polygon fill="white" stroke="black" stroke-width="0.5" points="260,-500 114,-500 114,-481 260,-481 260,-500"/>
<text text-anchor="middle" x="187" y="-488" font-family="Vera Sans, DejaVu Sans, Liberation Sans, Arial, Helvetica, sans" font-size="10.00">IntervalIntersectionsGraph</text>
</a>
</g>
</g>
<!-- Graph&#45;&gt;IntervalIntersectionsGraph -->
<g id="edge9" class="edge">
<title>Graph&#45;&gt;IntervalIntersectionsGraph</title>
<path fill="none" stroke="black" stroke-width="0.5" d="M30.34,-370.17C36.22,-392.22 53.78,-446.35 90,-472.5 95.81,-476.69 102.32,-479.99 109.13,-482.58"/>
<polygon fill="black" stroke="black" stroke-width="0.5" points="108.6,-484.25 113.89,-484.26 109.76,-480.95 108.6,-484.25"/>
</g>
<!-- IsingModel -->
<g id="node12" class="node">
<title>IsingModel</title>
<g id="a_node12"><a xlink:href="../techDoc.html#graphs.IsingModel" xlink:title="Specialisation of a Gibbs Sampler for the Ising model" target="_top">
<polygon fill="white" stroke="black" stroke-width="0.5" points="222,-463 152,-463 152,-444 222,-444 222,-463"/>
<text text-anchor="middle" x="187" y="-451" font-family="Vera Sans, DejaVu Sans, Liberation Sans, Arial, Helvetica, sans" font-size="10.00">IsingModel</text>
</a>
</g>
</g>
<!-- Graph&#45;&gt;IsingModel -->
<g id="edge10" class="edge">
<title>Graph&#45;&gt;IsingModel</title>
<path fill="none" stroke="black" stroke-width="0.5" d="M33.01,-370.15C42.03,-386.48 62.64,-419.37 90,-435.5 106.96,-445.5 128.28,-450.13 146.51,-452.21"/>
<polygon fill="black" stroke="black" stroke-width="0.5" points="146.42,-453.95 151.57,-452.73 146.78,-450.47 146.42,-453.95"/>
</g>
<!-- LineGraph -->
<g id="node13" class="node">
<title>LineGraph</title>
<g id="a_node13"><a xlink:href="../techDoc.html#graphs.LineGraph" xlink:title="Line graphs represent the **adjacencies between edges** of a graph instance." target="_top">
<polygon fill="white" stroke="black" stroke-width="0.5" points="220,-426 154,-426 154,-407 220,-407 220,-426"/>
<text text-anchor="middle" x="187" y="-414" font-family="Vera Sans, DejaVu Sans, Liberation Sans, Arial, Helvetica, sans" font-size="10.00">LineGraph</text>
</a>
</g>
</g>
<!-- Graph&#45;&gt;LineGraph -->
<g id="edge11" class="edge">
<title>Graph&#45;&gt;LineGraph</title>
<path fill="none" stroke="black" stroke-width="0.5" d="M40.58,-370.13C52.62,-378.86 71.62,-391.42 90,-398.5 108.66,-405.69 130.5,-410.07 148.62,-412.71"/>
<polygon fill="black" stroke="black" stroke-width="0.5" points="148.44,-414.45 153.63,-413.41 148.92,-410.99 148.44,-414.45"/>
</g>
<!-- MISModel -->
<g id="node14" class="node">
<title>MISModel</title>
<g id="a_node14"><a xlink:href="../techDoc.html#graphs.MISModel" xlink:title="Specialisation of a Gibbs Sampler for the hard code model," target="_top">
<polygon fill="white" stroke="black" stroke-width="0.5" points="219.5,-389 154.5,-389 154.5,-370 219.5,-370 219.5,-389"/>
<text text-anchor="middle" x="187" y="-377" font-family="Vera Sans, DejaVu Sans, Liberation Sans, Arial, Helvetica, sans" font-size="10.00">MISModel</text>
</a>
</g>
</g>
<!-- Graph&#45;&gt;MISModel -->
<g id="edge12" class="edge">
<title>Graph&#45;&gt;MISModel</title>
<path fill="none" stroke="black" stroke-width="0.5" d="M54.09,-363.64C80,-366.75 119.96,-371.56 149.11,-375.06"/>
<polygon fill="black" stroke="black" stroke-width="0.5" points="149.25,-376.84 154.42,-375.7 149.67,-373.37 149.25,-376.84"/>
</g>
<!-- MetropolisChain -->
<g id="node15" class="node">
<title>MetropolisChain</title>
<g id="a_node15"><a xlink:href="../techDoc.html#graphs.MetropolisChain" xlink:title="Specialisation of the graph class for implementing a generic" target="_top">
<polygon fill="white" stroke="black" stroke-width="0.5" points="235,-352 139,-352 139,-333 235,-333 235,-352"/>
<text text-anchor="middle" x="187" y="-340" font-family="Vera Sans, DejaVu Sans, Liberation Sans, Arial, Helvetica, sans" font-size="10.00">MetropolisChain</text>
</a>
</g>
</g>
<!-- Graph&#45;&gt;MetropolisChain -->
<g id="edge13" class="edge">
<title>Graph&#45;&gt;MetropolisChain</title>
<path fill="none" stroke="black" stroke-width="0.5" d="M54.09,-357.53C75.62,-355.08 106.85,-351.52 133.52,-348.48"/>
<polygon fill="black" stroke="black" stroke-width="0.5" points="134.02,-350.18 138.79,-347.88 133.62,-346.71 134.02,-350.18"/>
</g>
<!-- PermutationGraph -->
<g id="node16" class="node">
<title>PermutationGraph</title>
<g id="a_node16"><a xlink:href="../techDoc.html#graphs.PermutationGraph" xlink:title="Martin Ch. Gulombic, Agorithmic Graph Theory and Perfect Graphs 2nd Ed.," target="_top">
<polygon fill="white" stroke="black" stroke-width="0.5" points="240,-315 134,-315 134,-296 240,-296 240,-315"/>
<text text-anchor="middle" x="187" y="-303" font-family="Vera Sans, DejaVu Sans, Liberation Sans, Arial, Helvetica, sans" font-size="10.00">PermutationGraph</text>
</a>
</g>
</g>
<!-- Graph&#45;&gt;PermutationGraph -->
<g id="edge14" class="edge">
<title>Graph&#45;&gt;PermutationGraph</title>
<path fill="none" stroke="black" stroke-width="0.5" d="M41.62,-350.81C53.76,-342.62 72.3,-331.18 90,-324.5 102.21,-319.89 115.73,-316.34 128.68,-313.63"/>
<polygon fill="black" stroke="black" stroke-width="0.5" points="129.25,-315.3 133.81,-312.59 128.56,-311.87 129.25,-315.3"/>
</g>
<!-- Q_Coloring -->
<g id="node17" class="node">
<title>Q_Coloring</title>
<g id="a_node17"><a xlink:href="../techDoc.html#graphs.Q_Coloring" xlink:title="Generate a q&#45;coloring of a Graph instance via a Gibbs MCMC sampler in" target="_top">
<polygon fill="white" stroke="black" stroke-width="0.5" points="222,-278 152,-278 152,-259 222,-259 222,-278"/>
<text text-anchor="middle" x="187" y="-266" font-family="Vera Sans, DejaVu Sans, Liberation Sans, Arial, Helvetica, sans" font-size="10.00">Q_Coloring</text>
</a>
</g>
</g>
<!-- Graph&#45;&gt;Q_Coloring -->
<g id="edge15" class="edge">
<title>Graph&#45;&gt;Q_Coloring</title>
<path fill="none" stroke="black" stroke-width="0.5" d="M33.24,-350.88C42.46,-334.94 63.19,-303.25 90,-287.5 107.01,-277.51 128.33,-272.67 146.56,-270.37"/>
<polygon fill="black" stroke="black" stroke-width="0.5" points="146.84,-272.1 151.61,-269.79 146.44,-268.62 146.84,-272.1"/>
</g>
<!-- RandomFixedDegreeSequenceGraph -->
<g id="node18" class="node">
<title>RandomFixedDegreeSequenceGraph</title>
<g id="a_node18"><a xlink:href="../techDoc.html#graphs.RandomFixedDegreeSequenceGraph" xlink:title="Specialization of the general Graph class for generating" target="_top">
<polygon fill="white" stroke="black" stroke-width="0.5" points="284,-241 90,-241 90,-222 284,-222 284,-241"/>
<text text-anchor="middle" x="187" y="-229" font-family="Vera Sans, DejaVu Sans, Liberation Sans, Arial, Helvetica, sans" font-size="10.00">RandomFixedDegreeSequenceGraph</text>
</a>
</g>
</g>
<!-- Graph&#45;&gt;RandomFixedDegreeSequenceGraph -->
<g id="edge16" class="edge">
<title>Graph&#45;&gt;RandomFixedDegreeSequenceGraph</title>
<path fill="none" stroke="black" stroke-width="0.5" d="M30.5,-350.7C36.62,-328.88 54.48,-276.2 90,-250.5 93.84,-247.72 97.99,-245.32 102.32,-243.25"/>
<polygon fill="black" stroke="black" stroke-width="0.5" points="103.23,-244.76 107.1,-241.13 101.82,-241.56 103.23,-244.76"/>
</g>
<!-- RandomFixedSizeGraph -->
<g id="node19" class="node">
<title>RandomFixedSizeGraph</title>
<g id="a_node19"><a xlink:href="../techDoc.html#graphs.RandomFixedSizeGraph" xlink:title="Generates a random graph with a fixed size (number of edges), by instantiating a fixed numbers of arcs" target="_top">
<polygon fill="white" stroke="black" stroke-width="0.5" points="253,-204 121,-204 121,-185 253,-185 253,-204"/>
<text text-anchor="middle" x="187" y="-192" font-family="Vera Sans, DejaVu Sans, Liberation Sans, Arial, Helvetica, sans" font-size="10.00">RandomFixedSizeGraph</text>
</a>
</g>
</g>
<!-- Graph&#45;&gt;RandomFixedSizeGraph -->
<g id="edge17" class="edge">
<title>Graph&#45;&gt;RandomFixedSizeGraph</title>
<path fill="none" stroke="black" stroke-width="0.5" d="M29.01,-350.77C32.32,-324.19 45.33,-249.88 90,-213.5 97.52,-207.38 106.45,-203.04 115.8,-200"/>
<polygon fill="black" stroke="black" stroke-width="0.5" points="116.43,-201.63 120.72,-198.52 115.43,-198.28 116.43,-201.63"/>
</g>
<!-- RandomGraph -->
<g id="node20" class="node">
<title>RandomGraph</title>
<g id="a_node20"><a xlink:href="../techDoc.html#graphs.RandomGraph" xlink:title="Random instances of the Graph class" target="_top">
<polygon fill="white" stroke="black" stroke-width="0.5" points="230,-167 144,-167 144,-148 230,-148 230,-167"/>
<text text-anchor="middle" x="187" y="-155" font-family="Vera Sans, DejaVu Sans, Liberation Sans, Arial, Helvetica, sans" font-size="10.00">RandomGraph</text>
</a>
</g>
</g>
<!-- Graph&#45;&gt;RandomGraph -->
<g id="edge18" class="edge">
<title>Graph&#45;&gt;RandomGraph</title>
<path fill="none" stroke="black" stroke-width="0.5" d="M28.05,-350.61C28.8,-319.49 35.58,-222.88 90,-175.5 103.21,-164 121.4,-158.85 138.39,-156.79"/>
<polygon fill="black" stroke="black" stroke-width="0.5" points="138.82,-158.51 143.61,-156.25 138.46,-155.03 138.82,-158.51"/>
</g>
<!-- RandomRegularGraph -->
<g id="node23" class="node">
<title>RandomRegularGraph</title>
<g id="a_node23"><a xlink:href="../techDoc.html#graphs.RandomRegularGraph" xlink:title="Specialization of the general Graph class for generating" target="_top">
<polygon fill="white" stroke="black" stroke-width="0.5" points="249,-130 125,-130 125,-111 249,-111 249,-130"/>
<text text-anchor="middle" x="187" y="-118" font-family="Vera Sans, DejaVu Sans, Liberation Sans, Arial, Helvetica, sans" font-size="10.00">RandomRegularGraph</text>
</a>
</g>
</g>
<!-- Graph&#45;&gt;RandomRegularGraph -->
<g id="edge21" class="edge">
<title>Graph&#45;&gt;RandomRegularGraph</title>
<path fill="none" stroke="black" stroke-width="0.5" d="M27.42,-350.7C25.95,-315.89 25.99,-197.17 90,-138.5 98.35,-130.85 108.87,-125.97 119.87,-122.92"/>
<polygon fill="black" stroke="black" stroke-width="0.5" points="120.52,-124.57 124.95,-121.65 119.67,-121.17 120.52,-124.57"/>
</g>
<!-- TreeGraph -->
<g id="node26" class="node">
<title>TreeGraph</title>
<g id="a_node26"><a xlink:href="../techDoc.html#graphs.TreeGraph" xlink:title="Tree graphs generated from a given Prüfer code" target="_top">
<polygon fill="white" stroke="black" stroke-width="0.5" points="220,-93 154,-93 154,-74 220,-74 220,-93"/>
<text text-anchor="middle" x="187" y="-81" font-family="Vera Sans, DejaVu Sans, Liberation Sans, Arial, Helvetica, sans" font-size="10.00">TreeGraph</text>
</a>
</g>
</g>
<!-- Graph&#45;&gt;TreeGraph -->
<g id="edge27" class="edge">
<title>Graph&#45;&gt;TreeGraph</title>
<path fill="none" stroke="black" stroke-width="0.5" d="M28.93,-350.76C33.24,-307.96 52.57,-137.12 90,-101.5 105.45,-86.8 128.89,-82.2 148.74,-81.32"/>
<polygon fill="black" stroke="black" stroke-width="0.5" points="149.02,-83.06 153.96,-81.17 148.92,-79.57 149.02,-83.06"/>
</g>
<!-- RandomValuationGraph -->
<g id="node27" class="node">
<title>RandomValuationGraph</title>
<g id="a_node27"><a xlink:href="../techDoc.html#graphs.RandomValuationGraph" xlink:title="Specialization of the genuine Graph class for generating temporary" target="_top">
<polygon fill="white" stroke="black" stroke-width="0.5" points="253,-56 121,-56 121,-37 253,-37 253,-56"/>
<text text-anchor="middle" x="187" y="-44" font-family="Vera Sans, DejaVu Sans, Liberation Sans, Arial, Helvetica, sans" font-size="10.00">RandomValuationGraph</text>
</a>
</g>
</g>
<!-- Graph&#45;&gt;RandomValuationGraph -->
<g id="edge25" class="edge">
<title>Graph&#45;&gt;RandomValuationGraph</title>
<path fill="none" stroke="black" stroke-width="0.5" d="M28.61,-350.97C31.74,-304.92 47.61,-106.01 90,-64.5 97.12,-57.53 106.03,-52.81 115.53,-49.68"/>
<polygon fill="black" stroke="black" stroke-width="0.5" points="116.26,-51.29 120.55,-48.18 115.25,-47.93 116.26,-51.29"/>
</g>
<!-- TriangulatedGrid -->
<g id="node29" class="node">
<title>TriangulatedGrid</title>
<g id="a_node29"><a xlink:href="../techDoc.html#graphs.TriangulatedGrid" xlink:title="Specialization of the general Graph class for generating" target="_top">
<polygon fill="white" stroke="black" stroke-width="0.5" points="235.5,-19 138.5,-19 138.5,0 235.5,0 235.5,-19"/>
<text text-anchor="middle" x="187" y="-7" font-family="Vera Sans, DejaVu Sans, Liberation Sans, Arial, Helvetica, sans" font-size="10.00">TriangulatedGrid</text>
</a>
</g>
</g>
<!-- Graph&#45;&gt;TriangulatedGrid -->
<g id="edge28" class="edge">
<title>Graph&#45;&gt;TriangulatedGrid</title>
<path fill="none" stroke="black" stroke-width="0.5" d="M28.38,-350.8C30.51,-301.02 42.73,-74.83 90,-27.5 101.3,-16.18 117.31,-10.76 133.02,-8.43"/>
<polygon fill="black" stroke="black" stroke-width="0.5" points="133.6,-10.12 138.33,-7.75 133.15,-6.65 133.6,-10.12"/>
</g>
<!-- SnakeGraph -->
<g id="node28" class="node">
<title>SnakeGraph</title>
<g id="a_node28"><a xlink:href="../techDoc.html#graphs.SnakeGraph" xlink:title="Snake graphs S(p/q) are made up of all the integer grid squares between" target="_top">
<polygon fill="white" stroke="black" stroke-width="0.5" points="451,-537 376,-537 376,-518 451,-518 451,-537"/>
<text text-anchor="middle" x="413.5" y="-525" font-family="Vera Sans, DejaVu Sans, Liberation Sans, Arial, Helvetica, sans" font-size="10.00">SnakeGraph</text>
</a>
</g>
</g>
<!-- GridGraph&#45;&gt;SnakeGraph -->
<g id="edge26" class="edge">
<title>GridGraph&#45;&gt;SnakeGraph</title>
<path fill="none" stroke="black" stroke-width="0.5" d="M220.17,-527.5C259.78,-527.5 327.15,-527.5 370.73,-527.5"/>
<polygon fill="black" stroke="black" stroke-width="0.5" points="370.92,-529.25 375.92,-527.5 370.92,-525.75 370.92,-529.25"/>
</g>
<!-- RandomIntervalIntersectionsGraph -->
<g id="node21" class="node">
<title>RandomIntervalIntersectionsGraph</title>
<g id="a_node21"><a xlink:href="../techDoc.html#graphs.RandomIntervalIntersectionsGraph" xlink:title="Random generator for IntervalIntersectionsGraph intances." target="_top">
<polygon fill="white" stroke="black" stroke-width="0.5" points="507,-500 320,-500 320,-481 507,-481 507,-500"/>
<text text-anchor="middle" x="413.5" y="-488" font-family="Vera Sans, DejaVu Sans, Liberation Sans, Arial, Helvetica, sans" font-size="10.00">RandomIntervalIntersectionsGraph</text>
</a>
</g>
</g>
<!-- IntervalIntersectionsGraph&#45;&gt;RandomIntervalIntersectionsGraph -->
<g id="edge19" class="edge">
<title>IntervalIntersectionsGraph&#45;&gt;RandomIntervalIntersectionsGraph</title>
<path fill="none" stroke="black" stroke-width="0.5" d="M260.27,-490.5C277.61,-490.5 296.41,-490.5 314.7,-490.5"/>
<polygon fill="black" stroke="black" stroke-width="0.5" points="314.84,-492.25 319.84,-490.5 314.84,-488.75 314.84,-492.25"/>
</g>
<!-- RandomPermutationGraph -->
<g id="node22" class="node">
<title>RandomPermutationGraph</title>
<g id="a_node22"><a xlink:href="../techDoc.html#graphs.RandomPermutationGraph" xlink:title="A generator for random permutation graphs." target="_top">
<polygon fill="white" stroke="black" stroke-width="0.5" points="486.5,-315 340.5,-315 340.5,-296 486.5,-296 486.5,-315"/>
<text text-anchor="middle" x="413.5" y="-303" font-family="Vera Sans, DejaVu Sans, Liberation Sans, Arial, Helvetica, sans" font-size="10.00">RandomPermutationGraph</text>
</a>
</g>
</g>
<!-- PermutationGraph&#45;&gt;RandomPermutationGraph -->
<g id="edge20" class="edge">
<title>PermutationGraph&#45;&gt;RandomPermutationGraph</title>
<path fill="none" stroke="black" stroke-width="0.5" d="M240.07,-305.5C268.35,-305.5 303.86,-305.5 335.3,-305.5"/>
<polygon fill="black" stroke="black" stroke-width="0.5" points="335.31,-307.25 340.31,-305.5 335.31,-303.75 335.31,-307.25"/>
</g>
<!-- RandomTree -->
<g id="node24" class="node">
<title>RandomTree</title>
<g id="a_node24"><a xlink:href="../techDoc.html#graphs.RandomTree" xlink:title="Instance of a tree generated from a random Prüfer code." target="_top">
<polygon fill="white" stroke="black" stroke-width="0.5" points="452,-93 375,-93 375,-74 452,-74 452,-93"/>
<text text-anchor="middle" x="413.5" y="-81" font-family="Vera Sans, DejaVu Sans, Liberation Sans, Arial, Helvetica, sans" font-size="10.00">RandomTree</text>
</a>
</g>
</g>
<!-- RandomTree&#45;&gt;RandomSpanningForest -->
<g id="edge22" class="edge">
<title>RandomTree&#45;&gt;RandomSpanningForest</title>
<path fill="none" stroke="black" stroke-width="0.5" d="M452.27,-87.21C476.6,-89.6 508.97,-92.78 537.9,-95.62"/>
<polygon fill="black" stroke="black" stroke-width="0.5" points="537.74,-97.36 542.88,-96.11 538.08,-93.88 537.74,-97.36"/>
</g>
<!-- RandomSpanningTree -->
<g id="node25" class="node">
<title>RandomSpanningTree</title>
<g id="a_node25"><a xlink:href="../techDoc.html#graphs.RandomSpanningTree" xlink:title="Uniform random instance of a spanning tree" target="_top">
<polygon fill="white" stroke="black" stroke-width="0.5" points="670,-75 548,-75 548,-56 670,-56 670,-75"/>
<text text-anchor="middle" x="609" y="-63" font-family="Vera Sans, DejaVu Sans, Liberation Sans, Arial, Helvetica, sans" font-size="10.00">RandomSpanningTree</text>
</a>
</g>
</g>
<!-- RandomTree&#45;&gt;RandomSpanningTree -->
<g id="edge23" class="edge">
<title>RandomTree&#45;&gt;RandomSpanningTree</title>
<path fill="none" stroke="black" stroke-width="0.5" d="M452.27,-79.99C477.95,-77.6 512.59,-74.37 542.69,-71.58"/>
<polygon fill="black" stroke="black" stroke-width="0.5" points="543.05,-73.3 547.86,-71.09 542.72,-69.81 543.05,-73.3"/>
</g>
<!-- TreeGraph&#45;&gt;RandomTree -->
<g id="edge24" class="edge">
<title>TreeGraph&#45;&gt;RandomTree</title>
<path fill="none" stroke="black" stroke-width="0.5" d="M220.17,-83.5C259.43,-83.5 325.97,-83.5 369.57,-83.5"/>
<polygon fill="black" stroke="black" stroke-width="0.5" points="369.77,-85.25 374.77,-83.5 369.77,-81.75 369.77,-85.25"/>
</g>
</g>
</svg>
