<?xml version="1.0" encoding="UTF-8" standalone="no"?>
<!DOCTYPE svg PUBLIC "-//W3C//DTD SVG 1.1//EN"
 "http://www.w3.org/Graphics/SVG/1.1/DTD/svg11.dtd">
<!-- Generated by graphviz version 2.43.0 (0)
 -->
<!-- Title: inheritancebed16db1ec Pages: 1 -->
<svg width="435pt" height="175pt"
 viewBox="0.00 0.00 435.00 175.00" xmlns="http://www.w3.org/2000/svg" xmlns:xlink="http://www.w3.org/1999/xlink">
<g id="graph0" class="graph" transform="scale(1 1) rotate(0) translate(4 171)">
<title>inheritancebed16db1ec</title>
<!-- FairestGaleShapleyMatching -->
<g id="node1" class="node">
<title>FairestGaleShapleyMatching</title>
<g id="a_node1"><a xlink:href="../techDoc.html#pairings.FairestGaleShapleyMatching" xlink:title="The class computes both Gale&#45;Shapley matchings &#45;&#45; group A proposes and group B proposes&#45;&#45;" target="_top">
<polygon fill="white" stroke="black" stroke-width="0.5" points="404.5,-167 249.5,-167 249.5,-148 404.5,-148 404.5,-167"/>
<text text-anchor="middle" x="327" y="-155" font-family="Vera Sans, DejaVu Sans, Liberation Sans, Arial, Helvetica, sans" font-size="10.00">FairestGaleShapleyMatching</text>
</a>
</g>
</g>
<!-- InterGroupPairing -->
<g id="node2" class="node">
<title>InterGroupPairing</title>
<g id="a_node2"><a xlink:href="../techDoc.html#pairings.InterGroupPairing" xlink:title="Abstract root class" target="_top">
<polygon fill="white" stroke="black" stroke-width="0.5" points="191,-111 90,-111 90,-92 191,-92 191,-111"/>
<text text-anchor="middle" x="140.5" y="-99" font-family="Vera Sans, DejaVu Sans, Liberation Sans, Arial, Helvetica, sans" font-size="10.00">InterGroupPairing</text>
</a>
</g>
</g>
<!-- InterGroupPairing&#45;&gt;FairestGaleShapleyMatching -->
<g id="edge1" class="edge">
<title>InterGroupPairing&#45;&gt;FairestGaleShapleyMatching</title>
<path fill="none" stroke="black" stroke-width="0.5" d="M159.69,-111.11C176.67,-119.72 202.94,-132.08 227,-139.5 236.24,-142.35 246.11,-144.81 255.91,-146.91"/>
<polygon fill="black" stroke="black" stroke-width="0.5" points="255.77,-148.67 261.03,-147.98 256.49,-145.24 255.77,-148.67"/>
</g>
<!-- FairestInterGroupPairing -->
<g id="node3" class="node">
<title>FairestInterGroupPairing</title>
<g id="a_node3"><a xlink:href="../techDoc.html#pairings.FairestInterGroupPairing" xlink:title="The class computes the fitness scores of the complete set of maximal matchings between" target="_top">
<polygon fill="white" stroke="black" stroke-width="0.5" points="394,-130 260,-130 260,-111 394,-111 394,-130"/>
<text text-anchor="middle" x="327" y="-118" font-family="Vera Sans, DejaVu Sans, Liberation Sans, Arial, Helvetica, sans" font-size="10.00">FairestInterGroupPairing</text>
</a>
</g>
</g>
<!-- InterGroupPairing&#45;&gt;FairestInterGroupPairing -->
<g id="edge2" class="edge">
<title>InterGroupPairing&#45;&gt;FairestInterGroupPairing</title>
<path fill="none" stroke="black" stroke-width="0.5" d="M191.43,-106.64C210.89,-108.65 233.56,-110.98 254.69,-113.16"/>
<polygon fill="black" stroke="black" stroke-width="0.5" points="254.59,-114.9 259.74,-113.68 254.94,-111.42 254.59,-114.9"/>
</g>
<!-- FairnessEnhancedInterGroupMatching -->
<g id="node6" class="node">
<title>FairnessEnhancedInterGroupMatching</title>
<g id="a_node6"><a xlink:href="../techDoc.html#pairings.FairnessEnhancedInterGroupMatching" xlink:title="The class enhances the fairness of a given matching." target="_top">
<polygon fill="white" stroke="black" stroke-width="0.5" points="427,-93 227,-93 227,-74 427,-74 427,-93"/>
<text text-anchor="middle" x="327" y="-81" font-family="Vera Sans, DejaVu Sans, Liberation Sans, Arial, Helvetica, sans" font-size="10.00">FairnessEnhancedInterGroupMatching</text>
</a>
</g>
</g>
<!-- InterGroupPairing&#45;&gt;FairnessEnhancedInterGroupMatching -->
<g id="edge4" class="edge">
<title>InterGroupPairing&#45;&gt;FairnessEnhancedInterGroupMatching</title>
<path fill="none" stroke="black" stroke-width="0.5" d="M191.43,-96.63C201.42,-95.65 212.26,-94.6 223.31,-93.52"/>
<polygon fill="black" stroke="black" stroke-width="0.5" points="223.59,-95.25 228.39,-93.02 223.25,-91.77 223.59,-95.25"/>
</g>
<!-- FairestIntraGroupPairing -->
<g id="node4" class="node">
<title>FairestIntraGroupPairing</title>
<g id="a_node4"><a xlink:href="../techDoc.html#pairings.FairestIntraGroupPairing" xlink:title="The class computes the fitness scores of the complete set of maximal IntraGroup matchings" target="_top">
<polygon fill="white" stroke="black" stroke-width="0.5" points="394,-56 260,-56 260,-37 394,-37 394,-56"/>
<text text-anchor="middle" x="327" y="-44" font-family="Vera Sans, DejaVu Sans, Liberation Sans, Arial, Helvetica, sans" font-size="10.00">FairestIntraGroupPairing</text>
</a>
</g>
</g>
<!-- IntraGroupPairing -->
<g id="node5" class="node">
<title>IntraGroupPairing</title>
<g id="a_node5"><a xlink:href="../techDoc.html#pairings.IntraGroupPairing" xlink:title="Abstract root class for IntraGroup pairing solutions" target="_top">
<polygon fill="white" stroke="black" stroke-width="0.5" points="191,-56 90,-56 90,-37 191,-37 191,-56"/>
<text text-anchor="middle" x="140.5" y="-44" font-family="Vera Sans, DejaVu Sans, Liberation Sans, Arial, Helvetica, sans" font-size="10.00">IntraGroupPairing</text>
</a>
</g>
</g>
<!-- IntraGroupPairing&#45;&gt;FairestIntraGroupPairing -->
<g id="edge3" class="edge">
<title>IntraGroupPairing&#45;&gt;FairestIntraGroupPairing</title>
<path fill="none" stroke="black" stroke-width="0.5" d="M191.43,-46.5C210.89,-46.5 233.56,-46.5 254.69,-46.5"/>
<polygon fill="black" stroke="black" stroke-width="0.5" points="254.74,-48.25 259.74,-46.5 254.74,-44.75 254.74,-48.25"/>
</g>
<!-- FairnessEnhancedIntraGroupMatching -->
<g id="node7" class="node">
<title>FairnessEnhancedIntraGroupMatching</title>
<g id="a_node7"><a xlink:href="../techDoc.html#pairings.FairnessEnhancedIntraGroupMatching" xlink:title="Solver for computing fair IntraGroup pairings using the same algorithm as the" target="_top">
<polygon fill="white" stroke="black" stroke-width="0.5" points="427,-19 227,-19 227,0 427,0 427,-19"/>
<text text-anchor="middle" x="327" y="-7" font-family="Vera Sans, DejaVu Sans, Liberation Sans, Arial, Helvetica, sans" font-size="10.00">FairnessEnhancedIntraGroupMatching</text>
</a>
</g>
</g>
<!-- IntraGroupPairing&#45;&gt;FairnessEnhancedIntraGroupMatching -->
<g id="edge5" class="edge">
<title>IntraGroupPairing&#45;&gt;FairnessEnhancedIntraGroupMatching</title>
<path fill="none" stroke="black" stroke-width="0.5" d="M186.29,-36.91C199.4,-34.15 213.76,-31.16 227,-28.5 240.98,-25.69 256.09,-22.74 270.2,-20.03"/>
<polygon fill="black" stroke="black" stroke-width="0.5" points="270.77,-21.7 275.35,-19.04 270.11,-18.26 270.77,-21.7"/>
</g>
<!-- Graph -->
<g id="node8" class="node">
<title>Graph</title>
<g id="a_node8"><a xlink:href="../techDoc.html#graphs.Graph" xlink:title="In the `graphs` module, the root :py:class:`graphs.Graph` class provides a generic graph model. A given object consists in:" target="_top">
<polygon fill="white" stroke="black" stroke-width="0.5" points="54,-74 0,-74 0,-55 54,-55 54,-74"/>
<text text-anchor="middle" x="27" y="-62" font-family="Vera Sans, DejaVu Sans, Liberation Sans, Arial, Helvetica, sans" font-size="10.00">Graph</text>
</a>
</g>
</g>
<!-- Graph&#45;&gt;InterGroupPairing -->
<g id="edge6" class="edge">
<title>Graph&#45;&gt;InterGroupPairing</title>
<path fill="none" stroke="black" stroke-width="0.5" d="M54.14,-73.17C69.54,-78.29 89.19,-84.8 105.75,-90.3"/>
<polygon fill="black" stroke="black" stroke-width="0.5" points="105.48,-92.06 110.78,-91.97 106.59,-88.73 105.48,-92.06"/>
</g>
<!-- Graph&#45;&gt;IntraGroupPairing -->
<g id="edge7" class="edge">
<title>Graph&#45;&gt;IntraGroupPairing</title>
<path fill="none" stroke="black" stroke-width="0.5" d="M54.14,-60.28C63.32,-58.8 74.02,-57.07 84.66,-55.35"/>
<polygon fill="black" stroke="black" stroke-width="0.5" points="85.22,-57.03 89.88,-54.51 84.67,-53.58 85.22,-57.03"/>
</g>
</g>
</svg>
