<?xml version="1.0" encoding="UTF-8" standalone="no"?>
<!DOCTYPE svg PUBLIC "-//W3C//DTD SVG 1.1//EN"
 "http://www.w3.org/Graphics/SVG/1.1/DTD/svg11.dtd">
<!-- Generated by graphviz version 2.43.0 (0)
 -->
<!-- Title: inheritance408ba66a77 Pages: 1 -->
<svg width="694pt" height="286pt"
 viewBox="0.00 0.00 694.00 286.00" xmlns="http://www.w3.org/2000/svg" xmlns:xlink="http://www.w3.org/1999/xlink">
<g id="graph0" class="graph" transform="scale(1 1) rotate(0) translate(4 282)">
<title>inheritance408ba66a77</title>
<!-- KemenyOrdersFusion -->
<g id="node1" class="node">
<title>KemenyOrdersFusion</title>
<g id="a_node1"><a xlink:href="../techDoc.html#transitiveDigraphs.KemenyOrdersFusion" xlink:title="Specialization of the abstract TransitiveDigraph class for " target="_top">
<polygon fill="white" stroke="black" stroke-width="0.5" points="297.5,-278 177.5,-278 177.5,-259 297.5,-259 297.5,-278"/>
<text text-anchor="middle" x="237.5" y="-266" font-family="Vera Sans, DejaVu Sans, Liberation Sans, Arial, Helvetica, sans" font-size="10.00">KemenyOrdersFusion</text>
</a>
</g>
</g>
<!-- KemenyWeakOrder -->
<g id="node3" class="node">
<title>KemenyWeakOrder</title>
<g id="a_node3"><a xlink:href="../techDoc.html#transitiveDigraphs.KemenyWeakOrder" xlink:title="dummy class for backward compatibility." target="_top">
<polygon fill="white" stroke="black" stroke-width="0.5" points="523,-278 413,-278 413,-259 523,-259 523,-278"/>
<text text-anchor="middle" x="468" y="-266" font-family="Vera Sans, DejaVu Sans, Liberation Sans, Arial, Helvetica, sans" font-size="10.00">KemenyWeakOrder</text>
</a>
</g>
</g>
<!-- KemenyOrdersFusion&#45;&gt;KemenyWeakOrder -->
<g id="edge2" class="edge">
<title>KemenyOrdersFusion&#45;&gt;KemenyWeakOrder</title>
<path fill="none" stroke="black" stroke-width="0.5" d="M297.64,-268.5C331.41,-268.5 373.61,-268.5 407.45,-268.5"/>
<polygon fill="black" stroke="black" stroke-width="0.5" points="407.8,-270.25 412.8,-268.5 407.8,-266.75 407.8,-270.25"/>
</g>
<!-- TransitiveDigraph -->
<g id="node2" class="node">
<title>TransitiveDigraph</title>
<g id="a_node2"><a xlink:href="../techDoc.html#transitiveDigraphs.TransitiveDigraph" xlink:title="Abstract class for specialized methods addressing transitive digraphs." target="_top">
<polygon fill="white" stroke="black" stroke-width="0.5" points="102,-148 0,-148 0,-129 102,-129 102,-148"/>
<text text-anchor="middle" x="51" y="-136" font-family="Vera Sans, DejaVu Sans, Liberation Sans, Arial, Helvetica, sans" font-size="10.00">TransitiveDigraph</text>
</a>
</g>
</g>
<!-- TransitiveDigraph&#45;&gt;KemenyOrdersFusion -->
<g id="edge1" class="edge">
<title>TransitiveDigraph&#45;&gt;KemenyOrdersFusion</title>
<path fill="none" stroke="black" stroke-width="0.5" d="M56.38,-148.23C66.91,-170.42 95.95,-224.81 138,-250.5 148.32,-256.8 160.3,-261.01 172.29,-263.79"/>
<polygon fill="black" stroke="black" stroke-width="0.5" points="172.16,-265.56 177.42,-264.9 172.9,-262.14 172.16,-265.56"/>
</g>
<!-- KohlerArrowRaynaudFusion -->
<g id="node4" class="node">
<title>KohlerArrowRaynaudFusion</title>
<g id="a_node4"><a xlink:href="../techDoc.html#transitiveDigraphs.KohlerArrowRaynaudFusion" xlink:title="Specialization of the abstract TransitiveDigraph class for " target="_top">
<polygon fill="white" stroke="black" stroke-width="0.5" points="312.5,-241 162.5,-241 162.5,-222 312.5,-222 312.5,-241"/>
<text text-anchor="middle" x="237.5" y="-229" font-family="Vera Sans, DejaVu Sans, Liberation Sans, Arial, Helvetica, sans" font-size="10.00">KohlerArrowRaynaudFusion</text>
</a>
</g>
</g>
<!-- TransitiveDigraph&#45;&gt;KohlerArrowRaynaudFusion -->
<g id="edge3" class="edge">
<title>TransitiveDigraph&#45;&gt;KohlerArrowRaynaudFusion</title>
<path fill="none" stroke="black" stroke-width="0.5" d="M59.88,-148.14C73.79,-164.46 104.45,-197.33 138,-213.5 144.12,-216.45 150.66,-218.91 157.35,-220.98"/>
<polygon fill="black" stroke="black" stroke-width="0.5" points="157.21,-222.76 162.5,-222.48 158.19,-219.4 157.21,-222.76"/>
</g>
<!-- PrincipalInOutDegreesOrderingFusion -->
<g id="node8" class="node">
<title>PrincipalInOutDegreesOrderingFusion</title>
<g id="a_node8"><a xlink:href="../techDoc.html#transitiveDigraphs.PrincipalInOutDegreesOrderingFusion" xlink:title="Specialization of abstract TransitiveDigraph class for ranking by fusion" target="_top">
<polygon fill="white" stroke="black" stroke-width="0.5" points="337,-204 138,-204 138,-185 337,-185 337,-204"/>
<text text-anchor="middle" x="237.5" y="-192" font-family="Vera Sans, DejaVu Sans, Liberation Sans, Arial, Helvetica, sans" font-size="10.00">PrincipalInOutDegreesOrderingFusion</text>
</a>
</g>
</g>
<!-- TransitiveDigraph&#45;&gt;PrincipalInOutDegreesOrderingFusion -->
<g id="edge6" class="edge">
<title>TransitiveDigraph&#45;&gt;PrincipalInOutDegreesOrderingFusion</title>
<path fill="none" stroke="black" stroke-width="0.5" d="M70.3,-148.1C87.39,-156.7 113.82,-169.06 138,-176.5 147.27,-179.35 157.17,-181.81 167,-183.92"/>
<polygon fill="black" stroke="black" stroke-width="0.5" points="166.87,-185.68 172.12,-184.99 167.59,-182.26 166.87,-185.68"/>
</g>
<!-- RankingByChoosingDigraph -->
<g id="node10" class="node">
<title>RankingByChoosingDigraph</title>
<g id="a_node10"><a xlink:href="../techDoc.html#transitiveDigraphs.RankingByChoosingDigraph" xlink:title="Specialization of the abstract TransitiveDigraph class for " target="_top">
<polygon fill="white" stroke="black" stroke-width="0.5" points="313.5,-167 161.5,-167 161.5,-148 313.5,-148 313.5,-167"/>
<text text-anchor="middle" x="237.5" y="-155" font-family="Vera Sans, DejaVu Sans, Liberation Sans, Arial, Helvetica, sans" font-size="10.00">RankingByChoosingDigraph</text>
</a>
</g>
</g>
<!-- TransitiveDigraph&#45;&gt;RankingByChoosingDigraph -->
<g id="edge8" class="edge">
<title>TransitiveDigraph&#45;&gt;RankingByChoosingDigraph</title>
<path fill="none" stroke="black" stroke-width="0.5" d="M102.42,-143.69C118.99,-145.4 137.86,-147.34 156.1,-149.22"/>
<polygon fill="black" stroke="black" stroke-width="0.5" points="156.07,-150.98 161.22,-149.75 156.43,-147.49 156.07,-150.98"/>
</g>
<!-- RankingsFusionDigraph -->
<g id="node13" class="node">
<title>RankingsFusionDigraph</title>
<g id="a_node13"><a xlink:href="../techDoc.html#transitiveDigraphs.RankingsFusionDigraph" xlink:title="Specialization of the abstract TransitiveDigraph class for " target="_top">
<polygon fill="white" stroke="black" stroke-width="0.5" points="303,-130 172,-130 172,-111 303,-111 303,-130"/>
<text text-anchor="middle" x="237.5" y="-118" font-family="Vera Sans, DejaVu Sans, Liberation Sans, Arial, Helvetica, sans" font-size="10.00">RankingsFusionDigraph</text>
</a>
</g>
</g>
<!-- TransitiveDigraph&#45;&gt;RankingsFusionDigraph -->
<g id="edge12" class="edge">
<title>TransitiveDigraph&#45;&gt;RankingsFusionDigraph</title>
<path fill="none" stroke="black" stroke-width="0.5" d="M102.42,-133.58C122.27,-131.64 145.4,-129.39 166.81,-127.3"/>
<polygon fill="black" stroke="black" stroke-width="0.5" points="167.12,-129.03 171.92,-126.8 166.78,-125.54 167.12,-129.03"/>
</g>
<!-- WeakCopelandOrder -->
<g id="node14" class="node">
<title>WeakCopelandOrder</title>
<g id="a_node14"><a xlink:href="../techDoc.html#transitiveDigraphs.WeakCopelandOrder" xlink:title="instantiates the Weak Copeland Order from" target="_top">
<polygon fill="white" stroke="black" stroke-width="0.5" points="295.5,-93 179.5,-93 179.5,-74 295.5,-74 295.5,-93"/>
<text text-anchor="middle" x="237.5" y="-81" font-family="Vera Sans, DejaVu Sans, Liberation Sans, Arial, Helvetica, sans" font-size="10.00">WeakCopelandOrder</text>
</a>
</g>
</g>
<!-- TransitiveDigraph&#45;&gt;WeakCopelandOrder -->
<g id="edge13" class="edge">
<title>TransitiveDigraph&#45;&gt;WeakCopelandOrder</title>
<path fill="none" stroke="black" stroke-width="0.5" d="M71.73,-128.87C88.89,-120.83 114.6,-109.57 138,-102.5 149.6,-99 162.16,-95.99 174.32,-93.48"/>
<polygon fill="black" stroke="black" stroke-width="0.5" points="174.94,-95.14 179.5,-92.43 174.25,-91.71 174.94,-95.14"/>
</g>
<!-- WeakNetFlowsOrder -->
<g id="node15" class="node">
<title>WeakNetFlowsOrder</title>
<g id="a_node15"><a xlink:href="../techDoc.html#transitiveDigraphs.WeakNetFlowsOrder" xlink:title="Instantiates the Weak NetFlows Order from" target="_top">
<polygon fill="white" stroke="black" stroke-width="0.5" points="295.5,-56 179.5,-56 179.5,-37 295.5,-37 295.5,-56"/>
<text text-anchor="middle" x="237.5" y="-44" font-family="Vera Sans, DejaVu Sans, Liberation Sans, Arial, Helvetica, sans" font-size="10.00">WeakNetFlowsOrder</text>
</a>
</g>
</g>
<!-- TransitiveDigraph&#45;&gt;WeakNetFlowsOrder -->
<g id="edge14" class="edge">
<title>TransitiveDigraph&#45;&gt;WeakNetFlowsOrder</title>
<path fill="none" stroke="black" stroke-width="0.5" d="M60.18,-128.9C74.31,-112.99 104.98,-81.34 138,-65.5 149.3,-60.08 162.03,-56.21 174.49,-53.44"/>
<polygon fill="black" stroke="black" stroke-width="0.5" points="174.9,-55.14 179.43,-52.39 174.18,-51.72 174.9,-55.14"/>
</g>
<!-- WeakOrder -->
<g id="node16" class="node">
<title>WeakOrder</title>
<g id="a_node16"><a xlink:href="../techDoc.html#transitiveDigraphs.WeakOrder" xlink:title="dummy class for backward compatibility." target="_top">
<polygon fill="white" stroke="black" stroke-width="0.5" points="273,-19 202,-19 202,0 273,0 273,-19"/>
<text text-anchor="middle" x="237.5" y="-7" font-family="Vera Sans, DejaVu Sans, Liberation Sans, Arial, Helvetica, sans" font-size="10.00">WeakOrder</text>
</a>
</g>
</g>
<!-- TransitiveDigraph&#45;&gt;WeakOrder -->
<g id="edge15" class="edge">
<title>TransitiveDigraph&#45;&gt;WeakOrder</title>
<path fill="none" stroke="black" stroke-width="0.5" d="M56.41,-128.86C66.99,-106.86 96.13,-52.95 138,-27.5 155.52,-16.85 177.79,-12.19 196.73,-10.27"/>
<polygon fill="black" stroke="black" stroke-width="0.5" points="197.15,-11.99 201.98,-9.79 196.84,-8.5 197.15,-11.99"/>
</g>
<!-- PartialRanking -->
<g id="node5" class="node">
<title>PartialRanking</title>
<g id="a_node5"><a xlink:href="../techDoc.html#transitiveDigraphs.PartialRanking" xlink:title="dummy class for backward compatibility." target="_top">
<polygon fill="white" stroke="black" stroke-width="0.5" points="686,-93 599,-93 599,-74 686,-74 686,-93"/>
<text text-anchor="middle" x="642.5" y="-81" font-family="Vera Sans, DejaVu Sans, Liberation Sans, Arial, Helvetica, sans" font-size="10.00">PartialRanking</text>
</a>
</g>
</g>
<!-- RankingsFusion -->
<g id="node6" class="node">
<title>RankingsFusion</title>
<g id="a_node6"><a xlink:href="../techDoc.html#transitiveDigraphs.RankingsFusion" xlink:title="Obsolete dummy for the RankingsFusionDigraph class" target="_top">
<polygon fill="white" stroke="black" stroke-width="0.5" points="514.5,-93 421.5,-93 421.5,-74 514.5,-74 514.5,-93"/>
<text text-anchor="middle" x="468" y="-81" font-family="Vera Sans, DejaVu Sans, Liberation Sans, Arial, Helvetica, sans" font-size="10.00">RankingsFusion</text>
</a>
</g>
</g>
<!-- RankingsFusion&#45;&gt;PartialRanking -->
<g id="edge4" class="edge">
<title>RankingsFusion&#45;&gt;PartialRanking</title>
<path fill="none" stroke="black" stroke-width="0.5" d="M514.77,-83.5C539.1,-83.5 568.97,-83.5 593.6,-83.5"/>
<polygon fill="black" stroke="black" stroke-width="0.5" points="593.78,-85.25 598.78,-83.5 593.78,-81.75 593.78,-85.25"/>
</g>
<!-- PrincipalInOutDegreesOrdering -->
<g id="node7" class="node">
<title>PrincipalInOutDegreesOrdering</title>
<g id="a_node7"><a xlink:href="../techDoc.html#transitiveDigraphs.PrincipalInOutDegreesOrdering" xlink:title="dummy class for backward compatibility." target="_top">
<polygon fill="white" stroke="black" stroke-width="0.5" points="551.5,-241 384.5,-241 384.5,-222 551.5,-222 551.5,-241"/>
<text text-anchor="middle" x="468" y="-229" font-family="Vera Sans, DejaVu Sans, Liberation Sans, Arial, Helvetica, sans" font-size="10.00">PrincipalInOutDegreesOrdering</text>
</a>
</g>
</g>
<!-- PrincipalInOutDegreesOrderingFusion&#45;&gt;PrincipalInOutDegreesOrdering -->
<g id="edge5" class="edge">
<title>PrincipalInOutDegreesOrderingFusion&#45;&gt;PrincipalInOutDegreesOrdering</title>
<path fill="none" stroke="black" stroke-width="0.5" d="M297.34,-204.03C329.6,-209.25 369.64,-215.73 402.71,-221.09"/>
<polygon fill="black" stroke="black" stroke-width="0.5" points="402.74,-222.87 407.96,-221.94 403.3,-219.41 402.74,-222.87"/>
</g>
<!-- RankingByBestChoosingDigraph -->
<g id="node9" class="node">
<title>RankingByBestChoosingDigraph</title>
<g id="a_node9"><a xlink:href="../techDoc.html#transitiveDigraphs.RankingByBestChoosingDigraph" xlink:title="Specialization of abstract TransitiveDigraph class for computing a ranking by best&#45;choosing." target="_top">
<polygon fill="white" stroke="black" stroke-width="0.5" points="555,-204 381,-204 381,-185 555,-185 555,-204"/>
<text text-anchor="middle" x="468" y="-192" font-family="Vera Sans, DejaVu Sans, Liberation Sans, Arial, Helvetica, sans" font-size="10.00">RankingByBestChoosingDigraph</text>
</a>
</g>
</g>
<!-- RankingByChoosingDigraph&#45;&gt;RankingByBestChoosingDigraph -->
<g id="edge7" class="edge">
<title>RankingByChoosingDigraph&#45;&gt;RankingByBestChoosingDigraph</title>
<path fill="none" stroke="black" stroke-width="0.5" d="M297.34,-167.03C329.6,-172.25 369.64,-178.73 402.71,-184.09"/>
<polygon fill="black" stroke="black" stroke-width="0.5" points="402.74,-185.87 407.96,-184.94 403.3,-182.41 402.74,-185.87"/>
</g>
<!-- RankingByLastChoosingDigraph -->
<g id="node11" class="node">
<title>RankingByLastChoosingDigraph</title>
<g id="a_node11"><a xlink:href="../techDoc.html#transitiveDigraphs.RankingByLastChoosingDigraph" xlink:title="Specialization of abstract TransitiveDigraph class for computing a ranking by rejecting." target="_top">
<polygon fill="white" stroke="black" stroke-width="0.5" points="554.5,-167 381.5,-167 381.5,-148 554.5,-148 554.5,-167"/>
<text text-anchor="middle" x="468" y="-155" font-family="Vera Sans, DejaVu Sans, Liberation Sans, Arial, Helvetica, sans" font-size="10.00">RankingByLastChoosingDigraph</text>
</a>
</g>
</g>
<!-- RankingByChoosingDigraph&#45;&gt;RankingByLastChoosingDigraph -->
<g id="edge9" class="edge">
<title>RankingByChoosingDigraph&#45;&gt;RankingByLastChoosingDigraph</title>
<path fill="none" stroke="black" stroke-width="0.5" d="M313.64,-157.5C333.54,-157.5 355.25,-157.5 375.9,-157.5"/>
<polygon fill="black" stroke="black" stroke-width="0.5" points="376.13,-159.25 381.13,-157.5 376.13,-155.75 376.13,-159.25"/>
</g>
<!-- RankingByPrudentChoosingDigraph -->
<g id="node12" class="node">
<title>RankingByPrudentChoosingDigraph</title>
<g id="a_node12"><a xlink:href="../techDoc.html#transitiveDigraphs.RankingByPrudentChoosingDigraph" xlink:title="Specialization for ranking&#45;by&#45;rejecting results with prudent single elimination of chordless circuits. By default, the cut level for circuits elimination is set to 20% of the valuation domain maximum (1.0)." target="_top">
<polygon fill="white" stroke="black" stroke-width="0.5" points="563,-130 373,-130 373,-111 563,-111 563,-130"/>
<text text-anchor="middle" x="468" y="-118" font-family="Vera Sans, DejaVu Sans, Liberation Sans, Arial, Helvetica, sans" font-size="10.00">RankingByPrudentChoosingDigraph</text>
</a>
</g>
</g>
<!-- RankingByChoosingDigraph&#45;&gt;RankingByPrudentChoosingDigraph -->
<g id="edge10" class="edge">
<title>RankingByChoosingDigraph&#45;&gt;RankingByPrudentChoosingDigraph</title>
<path fill="none" stroke="black" stroke-width="0.5" d="M297.34,-147.97C329.6,-142.75 369.64,-136.27 402.71,-130.91"/>
<polygon fill="black" stroke="black" stroke-width="0.5" points="403.3,-132.59 407.96,-130.06 402.74,-129.13 403.3,-132.59"/>
</g>
<!-- RankingsFusionDigraph&#45;&gt;RankingsFusion -->
<g id="edge11" class="edge">
<title>RankingsFusionDigraph&#45;&gt;RankingsFusion</title>
<path fill="none" stroke="black" stroke-width="0.5" d="M297.34,-110.97C334.15,-105.01 381.07,-97.41 416.23,-91.72"/>
<polygon fill="black" stroke="black" stroke-width="0.5" points="416.68,-93.42 421.33,-90.89 416.12,-89.97 416.68,-93.42"/>
</g>
</g>
</svg>
