<?xml version="1.0" encoding="UTF-8" standalone="no"?>
<!DOCTYPE svg PUBLIC "-//W3C//DTD SVG 1.1//EN"
 "http://www.w3.org/Graphics/SVG/1.1/DTD/svg11.dtd">
<!-- Generated by graphviz version 2.43.0 (0)
 -->
<!-- Title: inheritance7f33f34907 Pages: 1 -->
<svg width="505pt" height="323pt"
 viewBox="0.00 0.00 505.00 323.00" xmlns="http://www.w3.org/2000/svg" xmlns:xlink="http://www.w3.org/1999/xlink">
<g id="graph0" class="graph" transform="scale(1 1) rotate(0) translate(4 319)">
<title>inheritance7f33f34907</title>
<!-- CopelandOrder -->
<g id="node1" class="node">
<title>CopelandOrder</title>
<g id="a_node1"><a xlink:href="../techDoc.html#linearOrders.CopelandOrder" xlink:title="Dummy for CopelandRanking class" target="_top">
<polygon fill="white" stroke="black" stroke-width="0.5" points="382,-315 293,-315 293,-296 382,-296 382,-315"/>
<text text-anchor="middle" x="337.5" y="-303" font-family="Vera Sans, DejaVu Sans, Liberation Sans, Arial, Helvetica, sans" font-size="10.00">CopelandOrder</text>
</a>
</g>
</g>
<!-- CopelandRanking -->
<g id="node2" class="node">
<title>CopelandRanking</title>
<g id="a_node2"><a xlink:href="../techDoc.html#linearOrders.CopelandRanking" xlink:title="instantiates the Copeland Ranking and Order from" target="_top">
<polygon fill="white" stroke="black" stroke-width="0.5" points="231,-315 129,-315 129,-296 231,-296 231,-315"/>
<text text-anchor="middle" x="180" y="-303" font-family="Vera Sans, DejaVu Sans, Liberation Sans, Arial, Helvetica, sans" font-size="10.00">CopelandRanking</text>
</a>
</g>
</g>
<!-- CopelandRanking&#45;&gt;CopelandOrder -->
<g id="edge1" class="edge">
<title>CopelandRanking&#45;&gt;CopelandOrder</title>
<path fill="none" stroke="black" stroke-width="0.5" d="M231.06,-305.5C249.24,-305.5 269.74,-305.5 287.8,-305.5"/>
<polygon fill="black" stroke="black" stroke-width="0.5" points="287.82,-307.25 292.82,-305.5 287.82,-303.75 287.82,-307.25"/>
</g>
<!-- LinearOrder -->
<g id="node3" class="node">
<title>LinearOrder</title>
<g id="a_node3"><a xlink:href="../techDoc.html#linearOrders.LinearOrder" xlink:title="abstract class for digraphs which represent" target="_top">
<polygon fill="white" stroke="black" stroke-width="0.5" points="74,-167 0,-167 0,-148 74,-148 74,-167"/>
<text text-anchor="middle" x="37" y="-155" font-family="Vera Sans, DejaVu Sans, Liberation Sans, Arial, Helvetica, sans" font-size="10.00">LinearOrder</text>
</a>
</g>
</g>
<!-- LinearOrder&#45;&gt;CopelandRanking -->
<g id="edge2" class="edge">
<title>LinearOrder&#45;&gt;CopelandRanking</title>
<path fill="none" stroke="black" stroke-width="0.5" d="M40.46,-167.06C47.18,-191.22 68.22,-255.07 110,-287.5 114.27,-290.81 119.09,-293.52 124.14,-295.73"/>
<polygon fill="black" stroke="black" stroke-width="0.5" points="123.55,-297.38 128.84,-297.62 124.86,-294.13 123.55,-297.38"/>
</g>
<!-- IteratedCopelandRanking -->
<g id="node4" class="node">
<title>IteratedCopelandRanking</title>
<g id="a_node4"><a xlink:href="../techDoc.html#linearOrders.IteratedCopelandRanking" xlink:title="instantiates the iterated Copeland ranking from" target="_top">
<polygon fill="white" stroke="black" stroke-width="0.5" points="250,-278 110,-278 110,-259 250,-259 250,-278"/>
<text text-anchor="middle" x="180" y="-266" font-family="Vera Sans, DejaVu Sans, Liberation Sans, Arial, Helvetica, sans" font-size="10.00">IteratedCopelandRanking</text>
</a>
</g>
</g>
<!-- LinearOrder&#45;&gt;IteratedCopelandRanking -->
<g id="edge3" class="edge">
<title>LinearOrder&#45;&gt;IteratedCopelandRanking</title>
<path fill="none" stroke="black" stroke-width="0.5" d="M42.66,-167.09C52.39,-186.08 76.77,-228.56 110,-250.5 113.79,-253 117.92,-255.16 122.2,-257.02"/>
<polygon fill="black" stroke="black" stroke-width="0.5" points="121.61,-258.67 126.9,-258.92 122.92,-255.42 121.61,-258.67"/>
</g>
<!-- IteratedNetFlowsRanking -->
<g id="node5" class="node">
<title>IteratedNetFlowsRanking</title>
<g id="a_node5"><a xlink:href="../techDoc.html#linearOrders.IteratedNetFlowsRanking" xlink:title="instantiates the iterated NetFlows order from" target="_top">
<polygon fill="white" stroke="black" stroke-width="0.5" points="250,-241 110,-241 110,-222 250,-222 250,-241"/>
<text text-anchor="middle" x="180" y="-229" font-family="Vera Sans, DejaVu Sans, Liberation Sans, Arial, Helvetica, sans" font-size="10.00">IteratedNetFlowsRanking</text>
</a>
</g>
</g>
<!-- LinearOrder&#45;&gt;IteratedNetFlowsRanking -->
<g id="edge4" class="edge">
<title>LinearOrder&#45;&gt;IteratedNetFlowsRanking</title>
<path fill="none" stroke="black" stroke-width="0.5" d="M47.82,-167.31C60.91,-179.82 85.29,-201.31 110,-213.5 115.29,-216.11 121,-218.37 126.8,-220.32"/>
<polygon fill="black" stroke="black" stroke-width="0.5" points="126.38,-222.03 131.68,-221.89 127.45,-218.7 126.38,-222.03"/>
</g>
<!-- KemenyRanking -->
<g id="node7" class="node">
<title>KemenyRanking</title>
<g id="a_node7"><a xlink:href="../techDoc.html#linearOrders.KemenyRanking" xlink:title="Instantiates the Kemeny Ranking wrt the outranking relation from" target="_top">
<polygon fill="white" stroke="black" stroke-width="0.5" points="228,-204 132,-204 132,-185 228,-185 228,-204"/>
<text text-anchor="middle" x="180" y="-192" font-family="Vera Sans, DejaVu Sans, Liberation Sans, Arial, Helvetica, sans" font-size="10.00">KemenyRanking</text>
</a>
</g>
</g>
<!-- LinearOrder&#45;&gt;KemenyRanking -->
<g id="edge6" class="edge">
<title>LinearOrder&#45;&gt;KemenyRanking</title>
<path fill="none" stroke="black" stroke-width="0.5" d="M74.25,-167.09C85.69,-170.11 98.37,-173.45 110,-176.5 118.89,-178.83 128.43,-181.33 137.49,-183.69"/>
<polygon fill="black" stroke="black" stroke-width="0.5" points="137.19,-185.42 142.47,-184.99 138.07,-182.04 137.19,-185.42"/>
</g>
<!-- KohlerRanking -->
<g id="node9" class="node">
<title>KohlerRanking</title>
<g id="a_node9"><a xlink:href="../techDoc.html#linearOrders.KohlerRanking" xlink:title="instantiates the Kohler Order from" target="_top">
<polygon fill="white" stroke="black" stroke-width="0.5" points="223.5,-167 136.5,-167 136.5,-148 223.5,-148 223.5,-167"/>
<text text-anchor="middle" x="180" y="-155" font-family="Vera Sans, DejaVu Sans, Liberation Sans, Arial, Helvetica, sans" font-size="10.00">KohlerRanking</text>
</a>
</g>
</g>
<!-- LinearOrder&#45;&gt;KohlerRanking -->
<g id="edge8" class="edge">
<title>LinearOrder&#45;&gt;KohlerRanking</title>
<path fill="none" stroke="black" stroke-width="0.5" d="M74.31,-157.5C91.61,-157.5 112.54,-157.5 131.13,-157.5"/>
<polygon fill="black" stroke="black" stroke-width="0.5" points="131.3,-159.25 136.3,-157.5 131.3,-155.75 131.3,-159.25"/>
</g>
<!-- NetFlowsRanking -->
<g id="node11" class="node">
<title>NetFlowsRanking</title>
<g id="a_node11"><a xlink:href="../techDoc.html#linearOrders.NetFlowsRanking" xlink:title="instantiates the *NetFlows* ranking &#160;and ordering from" target="_top">
<polygon fill="white" stroke="black" stroke-width="0.5" points="231,-130 129,-130 129,-111 231,-111 231,-130"/>
<text text-anchor="middle" x="180" y="-118" font-family="Vera Sans, DejaVu Sans, Liberation Sans, Arial, Helvetica, sans" font-size="10.00">NetFlowsRanking</text>
</a>
</g>
</g>
<!-- LinearOrder&#45;&gt;NetFlowsRanking -->
<g id="edge10" class="edge">
<title>LinearOrder&#45;&gt;NetFlowsRanking</title>
<path fill="none" stroke="black" stroke-width="0.5" d="M74.31,-147.97C93.57,-142.92 117.31,-136.69 137.32,-131.44"/>
<polygon fill="black" stroke="black" stroke-width="0.5" points="137.93,-133.09 142.32,-130.12 137.04,-129.7 137.93,-133.09"/>
</g>
<!-- PrincipalOrder -->
<g id="node12" class="node">
<title>PrincipalOrder</title>
<g id="a_node12"><a xlink:href="../techDoc.html#linearOrders.PrincipalOrder" xlink:title="instantiates the order from the scores obtained by the first" target="_top">
<polygon fill="white" stroke="black" stroke-width="0.5" points="223,-93 137,-93 137,-74 223,-74 223,-93"/>
<text text-anchor="middle" x="180" y="-81" font-family="Vera Sans, DejaVu Sans, Liberation Sans, Arial, Helvetica, sans" font-size="10.00">PrincipalOrder</text>
</a>
</g>
</g>
<!-- LinearOrder&#45;&gt;PrincipalOrder -->
<g id="edge11" class="edge">
<title>LinearOrder&#45;&gt;PrincipalOrder</title>
<path fill="none" stroke="black" stroke-width="0.5" d="M47.82,-147.69C60.91,-135.18 85.29,-113.69 110,-101.5 116.77,-98.16 124.22,-95.4 131.65,-93.11"/>
<polygon fill="black" stroke="black" stroke-width="0.5" points="132.48,-94.7 136.79,-91.61 131.5,-91.34 132.48,-94.7"/>
</g>
<!-- RandomLinearOrder -->
<g id="node13" class="node">
<title>RandomLinearOrder</title>
<g id="a_node13"><a xlink:href="../techDoc.html#linearOrders.RandomLinearOrder" xlink:title="Instantiates random linear orders" target="_top">
<polygon fill="white" stroke="black" stroke-width="0.5" points="237,-56 123,-56 123,-37 237,-37 237,-56"/>
<text text-anchor="middle" x="180" y="-44" font-family="Vera Sans, DejaVu Sans, Liberation Sans, Arial, Helvetica, sans" font-size="10.00">RandomLinearOrder</text>
</a>
</g>
</g>
<!-- LinearOrder&#45;&gt;RandomLinearOrder -->
<g id="edge12" class="edge">
<title>LinearOrder&#45;&gt;RandomLinearOrder</title>
<path fill="none" stroke="black" stroke-width="0.5" d="M42.66,-147.91C52.39,-128.92 76.77,-86.44 110,-64.5 113.79,-62 117.92,-59.84 122.2,-57.98"/>
<polygon fill="black" stroke="black" stroke-width="0.5" points="122.92,-59.58 126.9,-56.08 121.61,-56.33 122.92,-59.58"/>
</g>
<!-- RankedPairsRanking -->
<g id="node15" class="node">
<title>RankedPairsRanking</title>
<g id="a_node15"><a xlink:href="../techDoc.html#linearOrders.RankedPairsRanking" xlink:title="instantiates the Ranked Pairs Ranking from" target="_top">
<polygon fill="white" stroke="black" stroke-width="0.5" points="238,-19 122,-19 122,0 238,0 238,-19"/>
<text text-anchor="middle" x="180" y="-7" font-family="Vera Sans, DejaVu Sans, Liberation Sans, Arial, Helvetica, sans" font-size="10.00">RankedPairsRanking</text>
</a>
</g>
</g>
<!-- LinearOrder&#45;&gt;RankedPairsRanking -->
<g id="edge14" class="edge">
<title>LinearOrder&#45;&gt;RankedPairsRanking</title>
<path fill="none" stroke="black" stroke-width="0.5" d="M40.46,-147.94C47.18,-123.78 68.22,-59.93 110,-27.5 113.03,-25.15 116.33,-23.11 119.79,-21.33"/>
<polygon fill="black" stroke="black" stroke-width="0.5" points="120.83,-22.77 124.62,-19.06 119.35,-19.61 120.83,-22.77"/>
</g>
<!-- KemenyOrder -->
<g id="node6" class="node">
<title>KemenyOrder</title>
<g id="a_node6"><a xlink:href="../techDoc.html#linearOrders.KemenyOrder" xlink:title="Dummy class" target="_top">
<polygon fill="white" stroke="black" stroke-width="0.5" points="379,-241 296,-241 296,-222 379,-222 379,-241"/>
<text text-anchor="middle" x="337.5" y="-229" font-family="Vera Sans, DejaVu Sans, Liberation Sans, Arial, Helvetica, sans" font-size="10.00">KemenyOrder</text>
</a>
</g>
</g>
<!-- KemenyRanking&#45;&gt;KemenyOrder -->
<g id="edge5" class="edge">
<title>KemenyRanking&#45;&gt;KemenyOrder</title>
<path fill="none" stroke="black" stroke-width="0.5" d="M221.05,-204.03C242.55,-209.14 269.12,-215.47 291.35,-220.76"/>
<polygon fill="black" stroke="black" stroke-width="0.5" points="291.05,-222.48 296.32,-221.94 291.86,-219.08 291.05,-222.48"/>
</g>
<!-- SlaterRanking -->
<g id="node17" class="node">
<title>SlaterRanking</title>
<g id="a_node17"><a xlink:href="../techDoc.html#linearOrders.SlaterRanking" xlink:title="Instantiates a Slater ranking by instantiating a *KemenyRanking* from the Condorcet Digraph &#45;the median cut polarised digraph&#45; of a given bipolar&#45;valued Digraph instance." target="_top">
<polygon fill="white" stroke="black" stroke-width="0.5" points="380,-204 295,-204 295,-185 380,-185 380,-204"/>
<text text-anchor="middle" x="337.5" y="-192" font-family="Vera Sans, DejaVu Sans, Liberation Sans, Arial, Helvetica, sans" font-size="10.00">SlaterRanking</text>
</a>
</g>
</g>
<!-- KemenyRanking&#45;&gt;SlaterRanking -->
<g id="edge16" class="edge">
<title>KemenyRanking&#45;&gt;SlaterRanking</title>
<path fill="none" stroke="black" stroke-width="0.5" d="M228.08,-194.5C247.52,-194.5 270.02,-194.5 289.46,-194.5"/>
<polygon fill="black" stroke="black" stroke-width="0.5" points="289.86,-196.25 294.86,-194.5 289.86,-192.75 289.86,-196.25"/>
</g>
<!-- KohlerOrder -->
<g id="node8" class="node">
<title>KohlerOrder</title>
<g id="a_node8"><a xlink:href="../techDoc.html#linearOrders.KohlerOrder" xlink:title="Dummy for KohlerRanking class" target="_top">
<polygon fill="white" stroke="black" stroke-width="0.5" points="374.5,-167 300.5,-167 300.5,-148 374.5,-148 374.5,-167"/>
<text text-anchor="middle" x="337.5" y="-155" font-family="Vera Sans, DejaVu Sans, Liberation Sans, Arial, Helvetica, sans" font-size="10.00">KohlerOrder</text>
</a>
</g>
</g>
<!-- KohlerRanking&#45;&gt;KohlerOrder -->
<g id="edge7" class="edge">
<title>KohlerRanking&#45;&gt;KohlerOrder</title>
<path fill="none" stroke="black" stroke-width="0.5" d="M223.9,-157.5C246.12,-157.5 273.13,-157.5 295.13,-157.5"/>
<polygon fill="black" stroke="black" stroke-width="0.5" points="295.32,-159.25 300.32,-157.5 295.32,-155.75 295.32,-159.25"/>
</g>
<!-- NetFlowsOrder -->
<g id="node10" class="node">
<title>NetFlowsOrder</title>
<g id="a_node10"><a xlink:href="../techDoc.html#linearOrders.NetFlowsOrder" xlink:title="Dummy for NetFlowsRanking class" target="_top">
<polygon fill="white" stroke="black" stroke-width="0.5" points="382,-130 293,-130 293,-111 382,-111 382,-130"/>
<text text-anchor="middle" x="337.5" y="-118" font-family="Vera Sans, DejaVu Sans, Liberation Sans, Arial, Helvetica, sans" font-size="10.00">NetFlowsOrder</text>
</a>
</g>
</g>
<!-- NetFlowsRanking&#45;&gt;NetFlowsOrder -->
<g id="edge9" class="edge">
<title>NetFlowsRanking&#45;&gt;NetFlowsOrder</title>
<path fill="none" stroke="black" stroke-width="0.5" d="M231.06,-120.5C249.24,-120.5 269.74,-120.5 287.8,-120.5"/>
<polygon fill="black" stroke="black" stroke-width="0.5" points="287.82,-122.25 292.82,-120.5 287.82,-118.75 287.82,-122.25"/>
</g>
<!-- RankedPairsOrder -->
<g id="node14" class="node">
<title>RankedPairsOrder</title>
<g id="a_node14"><a xlink:href="../techDoc.html#linearOrders.RankedPairsOrder" xlink:title="Dummy for RankedPairsRanking class" target="_top">
<polygon fill="white" stroke="black" stroke-width="0.5" points="389,-19 286,-19 286,0 389,0 389,-19"/>
<text text-anchor="middle" x="337.5" y="-7" font-family="Vera Sans, DejaVu Sans, Liberation Sans, Arial, Helvetica, sans" font-size="10.00">RankedPairsOrder</text>
</a>
</g>
</g>
<!-- RankedPairsRanking&#45;&gt;RankedPairsOrder -->
<g id="edge13" class="edge">
<title>RankedPairsRanking&#45;&gt;RankedPairsOrder</title>
<path fill="none" stroke="black" stroke-width="0.5" d="M238.02,-9.5C251.99,-9.5 266.93,-9.5 280.84,-9.5"/>
<polygon fill="black" stroke="black" stroke-width="0.5" points="280.91,-11.25 285.91,-9.5 280.91,-7.75 280.91,-11.25"/>
</g>
<!-- SlaterOrder -->
<g id="node16" class="node">
<title>SlaterOrder</title>
<g id="a_node16"><a xlink:href="../techDoc.html#linearOrders.SlaterOrder" xlink:title="Dummy class" target="_top">
<polygon fill="white" stroke="black" stroke-width="0.5" points="497,-204 425,-204 425,-185 497,-185 497,-204"/>
<text text-anchor="middle" x="461" y="-192" font-family="Vera Sans, DejaVu Sans, Liberation Sans, Arial, Helvetica, sans" font-size="10.00">SlaterOrder</text>
</a>
</g>
</g>
<!-- SlaterRanking&#45;&gt;SlaterOrder -->
<g id="edge15" class="edge">
<title>SlaterRanking&#45;&gt;SlaterOrder</title>
<path fill="none" stroke="black" stroke-width="0.5" d="M380.31,-194.5C393.05,-194.5 407.01,-194.5 419.65,-194.5"/>
<polygon fill="black" stroke="black" stroke-width="0.5" points="419.97,-196.25 424.97,-194.5 419.97,-192.75 419.97,-196.25"/>
</g>
</g>
</svg>
