<?xml version="1.0" encoding="UTF-8" standalone="no"?>
<!DOCTYPE svg PUBLIC "-//W3C//DTD SVG 1.1//EN"
 "http://www.w3.org/Graphics/SVG/1.1/DTD/svg11.dtd">
<!-- Generated by graphviz version 2.43.0 (0)
 -->
<!-- Title: inheritance7f33f34907 Pages: 1 -->
<svg width="505pt" height="360pt"
 viewBox="0.00 0.00 505.00 360.00" xmlns="http://www.w3.org/2000/svg" xmlns:xlink="http://www.w3.org/1999/xlink">
<g id="graph0" class="graph" transform="scale(1 1) rotate(0) translate(4 356)">
<title>inheritance7f33f34907</title>
<!-- CopelandOrder -->
<g id="node1" class="node">
<title>CopelandOrder</title>
<g id="a_node1"><a xlink:href="../techDoc.html#linearOrders.CopelandOrder" xlink:title="Dummy for CopelandRanking class" target="_top">
<polygon fill="white" stroke="black" stroke-width="0.5" points="382,-352 293,-352 293,-333 382,-333 382,-352"/>
<text text-anchor="middle" x="337.5" y="-340" font-family="Vera Sans, DejaVu Sans, Liberation Sans, Arial, Helvetica, sans" font-size="10.00">CopelandOrder</text>
</a>
</g>
</g>
<!-- CopelandRanking -->
<g id="node2" class="node">
<title>CopelandRanking</title>
<g id="a_node2"><a xlink:href="../techDoc.html#linearOrders.CopelandRanking" xlink:title="instantiates the Copeland Order from" target="_top">
<polygon fill="white" stroke="black" stroke-width="0.5" points="231,-352 129,-352 129,-333 231,-333 231,-352"/>
<text text-anchor="middle" x="180" y="-340" font-family="Vera Sans, DejaVu Sans, Liberation Sans, Arial, Helvetica, sans" font-size="10.00">CopelandRanking</text>
</a>
</g>
</g>
<!-- CopelandRanking&#45;&gt;CopelandOrder -->
<g id="edge1" class="edge">
<title>CopelandRanking&#45;&gt;CopelandOrder</title>
<path fill="none" stroke="black" stroke-width="0.5" d="M231.06,-342.5C249.24,-342.5 269.74,-342.5 287.8,-342.5"/>
<polygon fill="black" stroke="black" stroke-width="0.5" points="287.82,-344.25 292.82,-342.5 287.82,-340.75 287.82,-344.25"/>
</g>
<!-- LinearOrder -->
<g id="node3" class="node">
<title>LinearOrder</title>
<g id="a_node3"><a xlink:href="../techDoc.html#linearOrders.LinearOrder" xlink:title="abstract class for digraphs which represent" target="_top">
<polygon fill="white" stroke="black" stroke-width="0.5" points="74,-185 0,-185 0,-166 74,-166 74,-185"/>
<text text-anchor="middle" x="37" y="-173" font-family="Vera Sans, DejaVu Sans, Liberation Sans, Arial, Helvetica, sans" font-size="10.00">LinearOrder</text>
</a>
</g>
</g>
<!-- LinearOrder&#45;&gt;CopelandRanking -->
<g id="edge2" class="edge">
<title>LinearOrder&#45;&gt;CopelandRanking</title>
<path fill="none" stroke="black" stroke-width="0.5" d="M39.78,-185.25C45.16,-211.91 63.83,-286.56 110,-324.5 114.25,-327.99 119.1,-330.81 124.21,-333.09"/>
<polygon fill="black" stroke="black" stroke-width="0.5" points="123.69,-334.77 128.98,-335.04 125.01,-331.53 123.69,-334.77"/>
</g>
<!-- IteratedCopelandRanking -->
<g id="node4" class="node">
<title>IteratedCopelandRanking</title>
<g id="a_node4"><a xlink:href="../techDoc.html#linearOrders.IteratedCopelandRanking" xlink:title="instantiates the iterated Copeland ranking from" target="_top">
<polygon fill="white" stroke="black" stroke-width="0.5" points="250,-315 110,-315 110,-296 250,-296 250,-315"/>
<text text-anchor="middle" x="180" y="-303" font-family="Vera Sans, DejaVu Sans, Liberation Sans, Arial, Helvetica, sans" font-size="10.00">IteratedCopelandRanking</text>
</a>
</g>
</g>
<!-- LinearOrder&#45;&gt;IteratedCopelandRanking -->
<g id="edge3" class="edge">
<title>LinearOrder&#45;&gt;IteratedCopelandRanking</title>
<path fill="none" stroke="black" stroke-width="0.5" d="M41.33,-185.01C49.45,-206.74 72.38,-260.23 110,-287.5 113.39,-289.95 117.08,-292.08 120.94,-293.91"/>
<polygon fill="black" stroke="black" stroke-width="0.5" points="120.26,-295.52 125.54,-295.93 121.67,-292.31 120.26,-295.52"/>
</g>
<!-- IteratedNetFlowsRanking -->
<g id="node5" class="node">
<title>IteratedNetFlowsRanking</title>
<g id="a_node5"><a xlink:href="../techDoc.html#linearOrders.IteratedNetFlowsRanking" xlink:title="instantiates the iterated NetFlows order from" target="_top">
<polygon fill="white" stroke="black" stroke-width="0.5" points="250,-278 110,-278 110,-259 250,-259 250,-278"/>
<text text-anchor="middle" x="180" y="-266" font-family="Vera Sans, DejaVu Sans, Liberation Sans, Arial, Helvetica, sans" font-size="10.00">IteratedNetFlowsRanking</text>
</a>
</g>
</g>
<!-- LinearOrder&#45;&gt;IteratedNetFlowsRanking -->
<g id="edge4" class="edge">
<title>LinearOrder&#45;&gt;IteratedNetFlowsRanking</title>
<path fill="none" stroke="black" stroke-width="0.5" d="M44.53,-185.19C55.89,-201.28 80.89,-233.42 110,-250.5 114.32,-253.04 119.01,-255.22 123.83,-257.1"/>
<polygon fill="black" stroke="black" stroke-width="0.5" points="123.39,-258.8 128.69,-258.88 124.59,-255.52 123.39,-258.8"/>
</g>
<!-- KemenyRanking -->
<g id="node7" class="node">
<title>KemenyRanking</title>
<g id="a_node7"><a xlink:href="../techDoc.html#linearOrders.KemenyRanking" xlink:title="Instantiates the Kemeny Ranking wrt the outranking relation from" target="_top">
<polygon fill="white" stroke="black" stroke-width="0.5" points="228,-241 132,-241 132,-222 228,-222 228,-241"/>
<text text-anchor="middle" x="180" y="-229" font-family="Vera Sans, DejaVu Sans, Liberation Sans, Arial, Helvetica, sans" font-size="10.00">KemenyRanking</text>
</a>
</g>
</g>
<!-- LinearOrder&#45;&gt;KemenyRanking -->
<g id="edge6" class="edge">
<title>LinearOrder&#45;&gt;KemenyRanking</title>
<path fill="none" stroke="black" stroke-width="0.5" d="M53.52,-185.04C67.78,-193.47 89.71,-205.62 110,-213.5 116.75,-216.12 124.02,-218.49 131.22,-220.57"/>
<polygon fill="black" stroke="black" stroke-width="0.5" points="130.89,-222.3 136.18,-221.97 131.84,-218.93 130.89,-222.3"/>
</g>
<!-- KohlerRanking -->
<g id="node9" class="node">
<title>KohlerRanking</title>
<g id="a_node9"><a xlink:href="../techDoc.html#linearOrders.KohlerRanking" xlink:title="instantiates the Kohler Order from" target="_top">
<polygon fill="white" stroke="black" stroke-width="0.5" points="223.5,-204 136.5,-204 136.5,-185 223.5,-185 223.5,-204"/>
<text text-anchor="middle" x="180" y="-192" font-family="Vera Sans, DejaVu Sans, Liberation Sans, Arial, Helvetica, sans" font-size="10.00">KohlerRanking</text>
</a>
</g>
</g>
<!-- LinearOrder&#45;&gt;KohlerRanking -->
<g id="edge8" class="edge">
<title>LinearOrder&#45;&gt;KohlerRanking</title>
<path fill="none" stroke="black" stroke-width="0.5" d="M74.31,-180.39C91.61,-182.72 112.54,-185.54 131.13,-188.05"/>
<polygon fill="black" stroke="black" stroke-width="0.5" points="131.11,-189.81 136.3,-188.75 131.58,-186.34 131.11,-189.81"/>
</g>
<!-- MedianRanking -->
<g id="node10" class="node">
<title>MedianRanking</title>
<g id="a_node10"><a xlink:href="../techDoc.html#linearOrders.MedianRanking" xlink:title="instantiates the ranking of highest mean marginal correlation and lowest amplitude from" target="_top">
<polygon fill="white" stroke="black" stroke-width="0.5" points="226,-167 134,-167 134,-148 226,-148 226,-167"/>
<text text-anchor="middle" x="180" y="-155" font-family="Vera Sans, DejaVu Sans, Liberation Sans, Arial, Helvetica, sans" font-size="10.00">MedianRanking</text>
</a>
</g>
</g>
<!-- LinearOrder&#45;&gt;MedianRanking -->
<g id="edge9" class="edge">
<title>LinearOrder&#45;&gt;MedianRanking</title>
<path fill="none" stroke="black" stroke-width="0.5" d="M74.31,-170.86C90.94,-168.74 110.93,-166.19 128.95,-163.89"/>
<polygon fill="black" stroke="black" stroke-width="0.5" points="129.24,-165.62 133.98,-163.25 128.8,-162.14 129.24,-165.62"/>
</g>
<!-- NetFlowsRanking -->
<g id="node12" class="node">
<title>NetFlowsRanking</title>
<g id="a_node12"><a xlink:href="../techDoc.html#linearOrders.NetFlowsRanking" xlink:title="instantiates the net flows ranking from" target="_top">
<polygon fill="white" stroke="black" stroke-width="0.5" points="231,-130 129,-130 129,-111 231,-111 231,-130"/>
<text text-anchor="middle" x="180" y="-118" font-family="Vera Sans, DejaVu Sans, Liberation Sans, Arial, Helvetica, sans" font-size="10.00">NetFlowsRanking</text>
</a>
</g>
</g>
<!-- LinearOrder&#45;&gt;NetFlowsRanking -->
<g id="edge11" class="edge">
<title>LinearOrder&#45;&gt;NetFlowsRanking</title>
<path fill="none" stroke="black" stroke-width="0.5" d="M54.74,-165.96C69.07,-158.08 90.43,-147.01 110,-139.5 117.69,-136.55 126.01,-133.86 134.14,-131.48"/>
<polygon fill="black" stroke="black" stroke-width="0.5" points="134.84,-133.1 139.16,-130.05 133.88,-129.74 134.84,-133.1"/>
</g>
<!-- PrincipalOrder -->
<g id="node13" class="node">
<title>PrincipalOrder</title>
<g id="a_node13"><a xlink:href="../techDoc.html#linearOrders.PrincipalOrder" xlink:title="instantiates the order from the scores obtained by the first" target="_top">
<polygon fill="white" stroke="black" stroke-width="0.5" points="223,-93 137,-93 137,-74 223,-74 223,-93"/>
<text text-anchor="middle" x="180" y="-81" font-family="Vera Sans, DejaVu Sans, Liberation Sans, Arial, Helvetica, sans" font-size="10.00">PrincipalOrder</text>
</a>
</g>
</g>
<!-- LinearOrder&#45;&gt;PrincipalOrder -->
<g id="edge12" class="edge">
<title>LinearOrder&#45;&gt;PrincipalOrder</title>
<path fill="none" stroke="black" stroke-width="0.5" d="M44.56,-165.95C55.97,-150.08 81.03,-118.36 110,-101.5 116.61,-97.65 124.04,-94.62 131.52,-92.22"/>
<polygon fill="black" stroke="black" stroke-width="0.5" points="132.41,-93.78 136.69,-90.66 131.4,-90.43 132.41,-93.78"/>
</g>
<!-- RandomLinearOrder -->
<g id="node14" class="node">
<title>RandomLinearOrder</title>
<g id="a_node14"><a xlink:href="../techDoc.html#linearOrders.RandomLinearOrder" xlink:title="Instantiates random linear orders" target="_top">
<polygon fill="white" stroke="black" stroke-width="0.5" points="237,-56 123,-56 123,-37 237,-37 237,-56"/>
<text text-anchor="middle" x="180" y="-44" font-family="Vera Sans, DejaVu Sans, Liberation Sans, Arial, Helvetica, sans" font-size="10.00">RandomLinearOrder</text>
</a>
</g>
</g>
<!-- LinearOrder&#45;&gt;RandomLinearOrder -->
<g id="edge13" class="edge">
<title>LinearOrder&#45;&gt;RandomLinearOrder</title>
<path fill="none" stroke="black" stroke-width="0.5" d="M41.48,-165.75C49.76,-144.01 72.75,-91.39 110,-64.5 113.39,-62.05 117.09,-59.94 120.95,-58.11"/>
<polygon fill="black" stroke="black" stroke-width="0.5" points="121.68,-59.7 125.56,-56.09 120.27,-56.5 121.68,-59.7"/>
</g>
<!-- RankedPairsRanking -->
<g id="node16" class="node">
<title>RankedPairsRanking</title>
<g id="a_node16"><a xlink:href="../techDoc.html#linearOrders.RankedPairsRanking" xlink:title="instantiates the Ranked Pairs Ranking from" target="_top">
<polygon fill="white" stroke="black" stroke-width="0.5" points="238,-19 122,-19 122,0 238,0 238,-19"/>
<text text-anchor="middle" x="180" y="-7" font-family="Vera Sans, DejaVu Sans, Liberation Sans, Arial, Helvetica, sans" font-size="10.00">RankedPairsRanking</text>
</a>
</g>
</g>
<!-- LinearOrder&#45;&gt;RankedPairsRanking -->
<g id="edge15" class="edge">
<title>LinearOrder&#45;&gt;RankedPairsRanking</title>
<path fill="none" stroke="black" stroke-width="0.5" d="M39.8,-165.82C45.23,-139.33 64.03,-65.18 110,-27.5 112.83,-25.18 115.93,-23.16 119.19,-21.39"/>
<polygon fill="black" stroke="black" stroke-width="0.5" points="120.03,-22.93 123.74,-19.14 118.48,-19.79 120.03,-22.93"/>
</g>
<!-- KemenyOrder -->
<g id="node6" class="node">
<title>KemenyOrder</title>
<g id="a_node6"><a xlink:href="../techDoc.html#linearOrders.KemenyOrder" xlink:title="Dummy class" target="_top">
<polygon fill="white" stroke="black" stroke-width="0.5" points="379,-278 296,-278 296,-259 379,-259 379,-278"/>
<text text-anchor="middle" x="337.5" y="-266" font-family="Vera Sans, DejaVu Sans, Liberation Sans, Arial, Helvetica, sans" font-size="10.00">KemenyOrder</text>
</a>
</g>
</g>
<!-- KemenyRanking&#45;&gt;KemenyOrder -->
<g id="edge5" class="edge">
<title>KemenyRanking&#45;&gt;KemenyOrder</title>
<path fill="none" stroke="black" stroke-width="0.5" d="M221.05,-241.03C242.55,-246.14 269.12,-252.47 291.35,-257.76"/>
<polygon fill="black" stroke="black" stroke-width="0.5" points="291.05,-259.48 296.32,-258.94 291.86,-256.08 291.05,-259.48"/>
</g>
<!-- SlaterRanking -->
<g id="node18" class="node">
<title>SlaterRanking</title>
<g id="a_node18"><a xlink:href="../techDoc.html#linearOrders.SlaterRanking" xlink:title="Instantiates a Slater ranking by instantiating a *KemenyRanking* from the Condorcet Digraph &#45;the median cut polarised digraph&#45; of a given bipolar&#45;valued Digraph instance." target="_top">
<polygon fill="white" stroke="black" stroke-width="0.5" points="380,-241 295,-241 295,-222 380,-222 380,-241"/>
<text text-anchor="middle" x="337.5" y="-229" font-family="Vera Sans, DejaVu Sans, Liberation Sans, Arial, Helvetica, sans" font-size="10.00">SlaterRanking</text>
</a>
</g>
</g>
<!-- KemenyRanking&#45;&gt;SlaterRanking -->
<g id="edge17" class="edge">
<title>KemenyRanking&#45;&gt;SlaterRanking</title>
<path fill="none" stroke="black" stroke-width="0.5" d="M228.08,-231.5C247.52,-231.5 270.02,-231.5 289.46,-231.5"/>
<polygon fill="black" stroke="black" stroke-width="0.5" points="289.86,-233.25 294.86,-231.5 289.86,-229.75 289.86,-233.25"/>
</g>
<!-- KohlerOrder -->
<g id="node8" class="node">
<title>KohlerOrder</title>
<g id="a_node8"><a xlink:href="../techDoc.html#linearOrders.KohlerOrder" xlink:title="Dummy for KohlerRanking class" target="_top">
<polygon fill="white" stroke="black" stroke-width="0.5" points="374.5,-204 300.5,-204 300.5,-185 374.5,-185 374.5,-204"/>
<text text-anchor="middle" x="337.5" y="-192" font-family="Vera Sans, DejaVu Sans, Liberation Sans, Arial, Helvetica, sans" font-size="10.00">KohlerOrder</text>
</a>
</g>
</g>
<!-- KohlerRanking&#45;&gt;KohlerOrder -->
<g id="edge7" class="edge">
<title>KohlerRanking&#45;&gt;KohlerOrder</title>
<path fill="none" stroke="black" stroke-width="0.5" d="M223.9,-194.5C246.12,-194.5 273.13,-194.5 295.13,-194.5"/>
<polygon fill="black" stroke="black" stroke-width="0.5" points="295.32,-196.25 300.32,-194.5 295.32,-192.75 295.32,-196.25"/>
</g>
<!-- NetFlowsOrder -->
<g id="node11" class="node">
<title>NetFlowsOrder</title>
<g id="a_node11"><a xlink:href="../techDoc.html#linearOrders.NetFlowsOrder" xlink:title="Dummy for NetFlowsRanking class" target="_top">
<polygon fill="white" stroke="black" stroke-width="0.5" points="382,-130 293,-130 293,-111 382,-111 382,-130"/>
<text text-anchor="middle" x="337.5" y="-118" font-family="Vera Sans, DejaVu Sans, Liberation Sans, Arial, Helvetica, sans" font-size="10.00">NetFlowsOrder</text>
</a>
</g>
</g>
<!-- NetFlowsRanking&#45;&gt;NetFlowsOrder -->
<g id="edge10" class="edge">
<title>NetFlowsRanking&#45;&gt;NetFlowsOrder</title>
<path fill="none" stroke="black" stroke-width="0.5" d="M231.06,-120.5C249.24,-120.5 269.74,-120.5 287.8,-120.5"/>
<polygon fill="black" stroke="black" stroke-width="0.5" points="287.82,-122.25 292.82,-120.5 287.82,-118.75 287.82,-122.25"/>
</g>
<!-- RankedPairsOrder -->
<g id="node15" class="node">
<title>RankedPairsOrder</title>
<g id="a_node15"><a xlink:href="../techDoc.html#linearOrders.RankedPairsOrder" xlink:title="Dummy for RankedPairsRanking class" target="_top">
<polygon fill="white" stroke="black" stroke-width="0.5" points="389,-19 286,-19 286,0 389,0 389,-19"/>
<text text-anchor="middle" x="337.5" y="-7" font-family="Vera Sans, DejaVu Sans, Liberation Sans, Arial, Helvetica, sans" font-size="10.00">RankedPairsOrder</text>
</a>
</g>
</g>
<!-- RankedPairsRanking&#45;&gt;RankedPairsOrder -->
<g id="edge14" class="edge">
<title>RankedPairsRanking&#45;&gt;RankedPairsOrder</title>
<path fill="none" stroke="black" stroke-width="0.5" d="M238.02,-9.5C251.99,-9.5 266.93,-9.5 280.84,-9.5"/>
<polygon fill="black" stroke="black" stroke-width="0.5" points="280.91,-11.25 285.91,-9.5 280.91,-7.75 280.91,-11.25"/>
</g>
<!-- SlaterOrder -->
<g id="node17" class="node">
<title>SlaterOrder</title>
<g id="a_node17"><a xlink:href="../techDoc.html#linearOrders.SlaterOrder" xlink:title="Dummy class" target="_top">
<polygon fill="white" stroke="black" stroke-width="0.5" points="497,-241 425,-241 425,-222 497,-222 497,-241"/>
<text text-anchor="middle" x="461" y="-229" font-family="Vera Sans, DejaVu Sans, Liberation Sans, Arial, Helvetica, sans" font-size="10.00">SlaterOrder</text>
</a>
</g>
</g>
<!-- SlaterRanking&#45;&gt;SlaterOrder -->
<g id="edge16" class="edge">
<title>SlaterRanking&#45;&gt;SlaterOrder</title>
<path fill="none" stroke="black" stroke-width="0.5" d="M380.31,-231.5C393.05,-231.5 407.01,-231.5 419.65,-231.5"/>
<polygon fill="black" stroke="black" stroke-width="0.5" points="419.97,-233.25 424.97,-231.5 419.97,-229.75 419.97,-233.25"/>
</g>
</g>
</svg>
