<?xml version="1.0" encoding="UTF-8" standalone="no"?>
<!DOCTYPE svg PUBLIC "-//W3C//DTD SVG 1.1//EN"
 "http://www.w3.org/Graphics/SVG/1.1/DTD/svg11.dtd">
<!-- Generated by graphviz version 2.43.0 (0)
 -->
<!-- Title: inheritancebed16db1ec Pages: 1 -->
<svg width="445pt" height="212pt"
 viewBox="0.00 0.00 445.00 212.00" xmlns="http://www.w3.org/2000/svg" xmlns:xlink="http://www.w3.org/1999/xlink">
<g id="graph0" class="graph" transform="scale(1 1) rotate(0) translate(4 208)">
<title>inheritancebed16db1ec</title>
<!-- FairestGaleShapleyMatching -->
<g id="node1" class="node">
<title>FairestGaleShapleyMatching</title>
<g id="a_node1"><a xlink:href="../techDoc.html#pairings.FairestGaleShapleyMatching" xlink:title="The class computes both Gale&#45;Shapley matching and renders the fairest of both." target="_top">
<polygon fill="white" stroke="black" stroke-width="0.5" points="409.5,-204 254.5,-204 254.5,-185 409.5,-185 409.5,-204"/>
<text text-anchor="middle" x="332" y="-192" font-family="Vera Sans, DejaVu Sans, Liberation Sans, Arial, Helvetica, sans" font-size="10.00">FairestGaleShapleyMatching</text>
</a>
</g>
</g>
<!-- InterGroupPairing -->
<g id="node2" class="node">
<title>InterGroupPairing</title>
<g id="a_node2"><a xlink:href="../techDoc.html#pairings.InterGroupPairing" xlink:title="Abstract root class" target="_top">
<polygon fill="white" stroke="black" stroke-width="0.5" points="191,-130 90,-130 90,-111 191,-111 191,-130"/>
<text text-anchor="middle" x="140.5" y="-118" font-family="Vera Sans, DejaVu Sans, Liberation Sans, Arial, Helvetica, sans" font-size="10.00">InterGroupPairing</text>
</a>
</g>
</g>
<!-- InterGroupPairing&#45;&gt;FairestGaleShapleyMatching -->
<g id="edge1" class="edge">
<title>InterGroupPairing&#45;&gt;FairestGaleShapleyMatching</title>
<path fill="none" stroke="black" stroke-width="0.5" d="M152.82,-130.13C168.43,-142.87 197.95,-165.04 227,-176.5 234.06,-179.29 241.57,-181.64 249.18,-183.63"/>
<polygon fill="black" stroke="black" stroke-width="0.5" points="249.19,-185.44 254.46,-184.95 250.04,-182.04 249.19,-185.44"/>
</g>
<!-- FairestInterGroupPairing -->
<g id="node3" class="node">
<title>FairestInterGroupPairing</title>
<g id="a_node3"><a xlink:href="../techDoc.html#pairings.FairestInterGroupPairing" xlink:title="The class computes the fitness scores of the complete set of maximal matchings between" target="_top">
<polygon fill="white" stroke="black" stroke-width="0.5" points="399,-167 265,-167 265,-148 399,-148 399,-167"/>
<text text-anchor="middle" x="332" y="-155" font-family="Vera Sans, DejaVu Sans, Liberation Sans, Arial, Helvetica, sans" font-size="10.00">FairestInterGroupPairing</text>
</a>
</g>
</g>
<!-- InterGroupPairing&#45;&gt;FairestInterGroupPairing -->
<g id="edge2" class="edge">
<title>InterGroupPairing&#45;&gt;FairestInterGroupPairing</title>
<path fill="none" stroke="black" stroke-width="0.5" d="M182.73,-130.08C196.75,-133.22 212.53,-136.64 227,-139.5 240.29,-142.12 254.57,-144.73 268.17,-147.12"/>
<polygon fill="black" stroke="black" stroke-width="0.5" points="267.92,-148.85 273.15,-147.99 268.52,-145.4 267.92,-148.85"/>
</g>
<!-- FairnessEnhancedGaleShapleyMatching -->
<g id="node6" class="node">
<title>FairnessEnhancedGaleShapleyMatching</title>
<g id="a_node6"><a xlink:href="../techDoc.html#pairings.FairnessEnhancedGaleShapleyMatching" xlink:title="The class enhances the fairness of the fairest Gale&#45;Shapley matching." target="_top">
<polygon fill="white" stroke="black" stroke-width="0.5" points="437,-130 227,-130 227,-111 437,-111 437,-130"/>
<text text-anchor="middle" x="332" y="-118" font-family="Vera Sans, DejaVu Sans, Liberation Sans, Arial, Helvetica, sans" font-size="10.00">FairnessEnhancedGaleShapleyMatching</text>
</a>
</g>
</g>
<!-- InterGroupPairing&#45;&gt;FairnessEnhancedGaleShapleyMatching -->
<g id="edge4" class="edge">
<title>InterGroupPairing&#45;&gt;FairnessEnhancedGaleShapleyMatching</title>
<path fill="none" stroke="black" stroke-width="0.5" d="M191.29,-120.5C200.81,-120.5 211.11,-120.5 221.67,-120.5"/>
<polygon fill="black" stroke="black" stroke-width="0.5" points="221.86,-122.25 226.86,-120.5 221.86,-118.75 221.86,-122.25"/>
</g>
<!-- FairnessEnhancedInterGroupMatching -->
<g id="node7" class="node">
<title>FairnessEnhancedInterGroupMatching</title>
<g id="a_node7"><a xlink:href="../techDoc.html#pairings.FairnessEnhancedInterGroupMatching" xlink:title="The class enhances the fairness of a given matching." target="_top">
<polygon fill="white" stroke="black" stroke-width="0.5" points="432,-93 232,-93 232,-74 432,-74 432,-93"/>
<text text-anchor="middle" x="332" y="-81" font-family="Vera Sans, DejaVu Sans, Liberation Sans, Arial, Helvetica, sans" font-size="10.00">FairnessEnhancedInterGroupMatching</text>
</a>
</g>
</g>
<!-- InterGroupPairing&#45;&gt;FairnessEnhancedInterGroupMatching -->
<g id="edge5" class="edge">
<title>InterGroupPairing&#45;&gt;FairnessEnhancedInterGroupMatching</title>
<path fill="none" stroke="black" stroke-width="0.5" d="M185.83,-110.93C199.06,-108.14 213.6,-105.13 227,-102.5 241.64,-99.62 257.48,-96.65 272.27,-93.95"/>
<polygon fill="black" stroke="black" stroke-width="0.5" points="272.63,-95.66 277.24,-93.04 272.01,-92.22 272.63,-95.66"/>
</g>
<!-- FairestIntraGroupPairing -->
<g id="node4" class="node">
<title>FairestIntraGroupPairing</title>
<g id="a_node4"><a xlink:href="../techDoc.html#pairings.FairestIntraGroupPairing" xlink:title="The class computes the fitness scores of the complete set of maximal IntraGroup matchings" target="_top">
<polygon fill="white" stroke="black" stroke-width="0.5" points="399,-56 265,-56 265,-37 399,-37 399,-56"/>
<text text-anchor="middle" x="332" y="-44" font-family="Vera Sans, DejaVu Sans, Liberation Sans, Arial, Helvetica, sans" font-size="10.00">FairestIntraGroupPairing</text>
</a>
</g>
</g>
<!-- IntraGroupPairing -->
<g id="node5" class="node">
<title>IntraGroupPairing</title>
<g id="a_node5"><a xlink:href="../techDoc.html#pairings.IntraGroupPairing" xlink:title="Abstract root class for IntraGroup pairing solutions" target="_top">
<polygon fill="white" stroke="black" stroke-width="0.5" points="191,-56 90,-56 90,-37 191,-37 191,-56"/>
<text text-anchor="middle" x="140.5" y="-44" font-family="Vera Sans, DejaVu Sans, Liberation Sans, Arial, Helvetica, sans" font-size="10.00">IntraGroupPairing</text>
</a>
</g>
</g>
<!-- IntraGroupPairing&#45;&gt;FairestIntraGroupPairing -->
<g id="edge3" class="edge">
<title>IntraGroupPairing&#45;&gt;FairestIntraGroupPairing</title>
<path fill="none" stroke="black" stroke-width="0.5" d="M191.29,-46.5C212.19,-46.5 236.89,-46.5 259.66,-46.5"/>
<polygon fill="black" stroke="black" stroke-width="0.5" points="259.79,-48.25 264.79,-46.5 259.79,-44.75 259.79,-48.25"/>
</g>
<!-- FairnessEnhancedIntraGroupMatching -->
<g id="node8" class="node">
<title>FairnessEnhancedIntraGroupMatching</title>
<g id="a_node8"><a xlink:href="../techDoc.html#pairings.FairnessEnhancedIntraGroupMatching" xlink:title="Solver for computing fair IntraGroup pairings using the same algorithm as the" target="_top">
<polygon fill="white" stroke="black" stroke-width="0.5" points="432,-19 232,-19 232,0 432,0 432,-19"/>
<text text-anchor="middle" x="332" y="-7" font-family="Vera Sans, DejaVu Sans, Liberation Sans, Arial, Helvetica, sans" font-size="10.00">FairnessEnhancedIntraGroupMatching</text>
</a>
</g>
</g>
<!-- IntraGroupPairing&#45;&gt;FairnessEnhancedIntraGroupMatching -->
<g id="edge6" class="edge">
<title>IntraGroupPairing&#45;&gt;FairnessEnhancedIntraGroupMatching</title>
<path fill="none" stroke="black" stroke-width="0.5" d="M185.83,-36.93C199.06,-34.14 213.6,-31.13 227,-28.5 241.64,-25.62 257.48,-22.65 272.27,-19.95"/>
<polygon fill="black" stroke="black" stroke-width="0.5" points="272.63,-21.66 277.24,-19.04 272.01,-18.22 272.63,-21.66"/>
</g>
<!-- Graph -->
<g id="node9" class="node">
<title>Graph</title>
<g id="a_node9"><a xlink:href="../techDoc.html#graphs.Graph" xlink:title="In the `graphs` module, the root :py:class:`graphs.Graph` class provides a generic graph model. A given object consists in:" target="_top">
<polygon fill="white" stroke="black" stroke-width="0.5" points="54,-93 0,-93 0,-74 54,-74 54,-93"/>
<text text-anchor="middle" x="27" y="-81" font-family="Vera Sans, DejaVu Sans, Liberation Sans, Arial, Helvetica, sans" font-size="10.00">Graph</text>
</a>
</g>
</g>
<!-- Graph&#45;&gt;InterGroupPairing -->
<g id="edge7" class="edge">
<title>Graph&#45;&gt;InterGroupPairing</title>
<path fill="none" stroke="black" stroke-width="0.5" d="M54.14,-92.17C69.54,-97.29 89.19,-103.8 105.75,-109.3"/>
<polygon fill="black" stroke="black" stroke-width="0.5" points="105.48,-111.06 110.78,-110.97 106.59,-107.73 105.48,-111.06"/>
</g>
<!-- Graph&#45;&gt;IntraGroupPairing -->
<g id="edge8" class="edge">
<title>Graph&#45;&gt;IntraGroupPairing</title>
<path fill="none" stroke="black" stroke-width="0.5" d="M54.14,-74.83C69.54,-69.71 89.19,-63.2 105.75,-57.7"/>
<polygon fill="black" stroke="black" stroke-width="0.5" points="106.59,-59.27 110.78,-56.03 105.48,-55.94 106.59,-59.27"/>
</g>
</g>
</svg>
