<?xml version="1.0" encoding="UTF-8" standalone="no"?>
<!DOCTYPE svg PUBLIC "-//W3C//DTD SVG 1.1//EN"
 "http://www.w3.org/Graphics/SVG/1.1/DTD/svg11.dtd">
<!-- Generated by graphviz version 2.43.0 (0)
 -->
<!-- Title: inheritancebed16db1ec Pages: 1 -->
<svg width="435pt" height="212pt"
 viewBox="0.00 0.00 435.00 212.00" xmlns="http://www.w3.org/2000/svg" xmlns:xlink="http://www.w3.org/1999/xlink">
<g id="graph0" class="graph" transform="scale(1 1) rotate(0) translate(4 208)">
<title>inheritancebed16db1ec</title>
<!-- FairestGaleShapleyMatching -->
<g id="node1" class="node">
<title>FairestGaleShapleyMatching</title>
<g id="a_node1"><a xlink:href="../techDoc.html#pairings.FairestGaleShapleyMatching" xlink:title="The class computes both Gale&#45;Shapley matchings &#45;&#45; group A proposes and group B proposes&#45;&#45;" target="_top">
<polygon fill="white" stroke="black" stroke-width="0.5" points="404.5,-204 249.5,-204 249.5,-185 404.5,-185 404.5,-204"/>
<text text-anchor="middle" x="327" y="-192" font-family="Vera Sans, DejaVu Sans, Liberation Sans, Arial, Helvetica, sans" font-size="10.00">FairestGaleShapleyMatching</text>
</a>
</g>
</g>
<!-- InterGroupPairing -->
<g id="node2" class="node">
<title>InterGroupPairing</title>
<g id="a_node2"><a xlink:href="../techDoc.html#pairings.InterGroupPairing" xlink:title="Abstract root class with private and public methods for intergroup pairing graphs" target="_top">
<polygon fill="white" stroke="black" stroke-width="0.5" points="191,-130 90,-130 90,-111 191,-111 191,-130"/>
<text text-anchor="middle" x="140.5" y="-118" font-family="Vera Sans, DejaVu Sans, Liberation Sans, Arial, Helvetica, sans" font-size="10.00">InterGroupPairing</text>
</a>
</g>
</g>
<!-- InterGroupPairing&#45;&gt;FairestGaleShapleyMatching -->
<g id="edge1" class="edge">
<title>InterGroupPairing&#45;&gt;FairestGaleShapleyMatching</title>
<path fill="none" stroke="black" stroke-width="0.5" d="M152.83,-130.1C168.46,-142.79 198,-164.92 227,-176.5 233.99,-179.29 241.42,-181.65 248.96,-183.65"/>
<polygon fill="black" stroke="black" stroke-width="0.5" points="248.92,-185.44 254.19,-184.97 249.78,-182.05 248.92,-185.44"/>
</g>
<!-- FairestInterGroupPairing -->
<g id="node3" class="node">
<title>FairestInterGroupPairing</title>
<g id="a_node3"><a xlink:href="../techDoc.html#pairings.FairestInterGroupPairing" xlink:title="The class computes the fitness scores of the complete set of maximal matchings between" target="_top">
<polygon fill="white" stroke="black" stroke-width="0.5" points="394,-167 260,-167 260,-148 394,-148 394,-167"/>
<text text-anchor="middle" x="327" y="-155" font-family="Vera Sans, DejaVu Sans, Liberation Sans, Arial, Helvetica, sans" font-size="10.00">FairestInterGroupPairing</text>
</a>
</g>
</g>
<!-- InterGroupPairing&#45;&gt;FairestInterGroupPairing -->
<g id="edge2" class="edge">
<title>InterGroupPairing&#45;&gt;FairestInterGroupPairing</title>
<path fill="none" stroke="black" stroke-width="0.5" d="M182.74,-130C196.77,-133.15 212.54,-136.58 227,-139.5 239.7,-142.06 253.35,-144.65 266.33,-147.04"/>
<polygon fill="black" stroke="black" stroke-width="0.5" points="266.23,-148.8 271.46,-147.98 266.86,-145.36 266.23,-148.8"/>
</g>
<!-- FairnessEnhancedInterGroupMatching -->
<g id="node6" class="node">
<title>FairnessEnhancedInterGroupMatching</title>
<g id="a_node6"><a xlink:href="../techDoc.html#pairings.FairnessEnhancedInterGroupMatching" xlink:title="The class enhances the fairness of a given matching." target="_top">
<polygon fill="white" stroke="black" stroke-width="0.5" points="427,-130 227,-130 227,-111 427,-111 427,-130"/>
<text text-anchor="middle" x="327" y="-118" font-family="Vera Sans, DejaVu Sans, Liberation Sans, Arial, Helvetica, sans" font-size="10.00">FairnessEnhancedInterGroupMatching</text>
</a>
</g>
</g>
<!-- InterGroupPairing&#45;&gt;FairnessEnhancedInterGroupMatching -->
<g id="edge4" class="edge">
<title>InterGroupPairing&#45;&gt;FairnessEnhancedInterGroupMatching</title>
<path fill="none" stroke="black" stroke-width="0.5" d="M191.43,-120.5C200.97,-120.5 211.28,-120.5 221.79,-120.5"/>
<polygon fill="black" stroke="black" stroke-width="0.5" points="221.97,-122.25 226.97,-120.5 221.97,-118.75 221.97,-122.25"/>
</g>
<!-- InterGroupCopelandMatching -->
<g id="node9" class="node">
<title>InterGroupCopelandMatching</title>
<g id="a_node9"><a xlink:href="../techDoc.html#pairings.InterGroupCopelandMatching" xlink:title="The class computes the individual Copeland ranking scored" target="_top">
<polygon fill="white" stroke="black" stroke-width="0.5" points="406.5,-93 247.5,-93 247.5,-74 406.5,-74 406.5,-93"/>
<text text-anchor="middle" x="327" y="-81" font-family="Vera Sans, DejaVu Sans, Liberation Sans, Arial, Helvetica, sans" font-size="10.00">InterGroupCopelandMatching</text>
</a>
</g>
</g>
<!-- InterGroupPairing&#45;&gt;InterGroupCopelandMatching -->
<g id="edge6" class="edge">
<title>InterGroupPairing&#45;&gt;InterGroupCopelandMatching</title>
<path fill="none" stroke="black" stroke-width="0.5" d="M186.29,-110.91C199.4,-108.15 213.76,-105.16 227,-102.5 240.98,-99.69 256.09,-96.74 270.2,-94.03"/>
<polygon fill="black" stroke="black" stroke-width="0.5" points="270.77,-95.7 275.35,-93.04 270.11,-92.26 270.77,-95.7"/>
</g>
<!-- FairestIntraGroupPairing -->
<g id="node4" class="node">
<title>FairestIntraGroupPairing</title>
<g id="a_node4"><a xlink:href="../techDoc.html#pairings.FairestIntraGroupPairing" xlink:title="The class computes average ordinal correlations for the complete set of maximal IntraGroup matchings" target="_top">
<polygon fill="white" stroke="black" stroke-width="0.5" points="394,-56 260,-56 260,-37 394,-37 394,-56"/>
<text text-anchor="middle" x="327" y="-44" font-family="Vera Sans, DejaVu Sans, Liberation Sans, Arial, Helvetica, sans" font-size="10.00">FairestIntraGroupPairing</text>
</a>
</g>
</g>
<!-- IntraGroupPairing -->
<g id="node5" class="node">
<title>IntraGroupPairing</title>
<g id="a_node5"><a xlink:href="../techDoc.html#pairings.IntraGroupPairing" xlink:title="Abstract root class for IntraGroup pairing solutions" target="_top">
<polygon fill="white" stroke="black" stroke-width="0.5" points="191,-56 90,-56 90,-37 191,-37 191,-56"/>
<text text-anchor="middle" x="140.5" y="-44" font-family="Vera Sans, DejaVu Sans, Liberation Sans, Arial, Helvetica, sans" font-size="10.00">IntraGroupPairing</text>
</a>
</g>
</g>
<!-- IntraGroupPairing&#45;&gt;FairestIntraGroupPairing -->
<g id="edge3" class="edge">
<title>IntraGroupPairing&#45;&gt;FairestIntraGroupPairing</title>
<path fill="none" stroke="black" stroke-width="0.5" d="M191.43,-46.5C210.89,-46.5 233.56,-46.5 254.69,-46.5"/>
<polygon fill="black" stroke="black" stroke-width="0.5" points="254.74,-48.25 259.74,-46.5 254.74,-44.75 254.74,-48.25"/>
</g>
<!-- FairnessEnhancedIntraGroupMatching -->
<g id="node7" class="node">
<title>FairnessEnhancedIntraGroupMatching</title>
<g id="a_node7"><a xlink:href="../techDoc.html#pairings.FairnessEnhancedIntraGroupMatching" xlink:title="Solver for computing fair IntraGroup pairings using a similar hill climbing heuristic as the" target="_top">
<polygon fill="white" stroke="black" stroke-width="0.5" points="427,-19 227,-19 227,0 427,0 427,-19"/>
<text text-anchor="middle" x="327" y="-7" font-family="Vera Sans, DejaVu Sans, Liberation Sans, Arial, Helvetica, sans" font-size="10.00">FairnessEnhancedIntraGroupMatching</text>
</a>
</g>
</g>
<!-- IntraGroupPairing&#45;&gt;FairnessEnhancedIntraGroupMatching -->
<g id="edge5" class="edge">
<title>IntraGroupPairing&#45;&gt;FairnessEnhancedIntraGroupMatching</title>
<path fill="none" stroke="black" stroke-width="0.5" d="M186.29,-36.91C199.4,-34.15 213.76,-31.16 227,-28.5 240.98,-25.69 256.09,-22.74 270.2,-20.03"/>
<polygon fill="black" stroke="black" stroke-width="0.5" points="270.77,-21.7 275.35,-19.04 270.11,-18.26 270.77,-21.7"/>
</g>
<!-- Graph -->
<g id="node8" class="node">
<title>Graph</title>
<g id="a_node8"><a xlink:href="../techDoc.html#graphs.Graph" xlink:title="In the `graphs` module, the root :py:class:`graphs.Graph` class provides a generic graph model. A given object consists in:" target="_top">
<polygon fill="white" stroke="black" stroke-width="0.5" points="54,-93 0,-93 0,-74 54,-74 54,-93"/>
<text text-anchor="middle" x="27" y="-81" font-family="Vera Sans, DejaVu Sans, Liberation Sans, Arial, Helvetica, sans" font-size="10.00">Graph</text>
</a>
</g>
</g>
<!-- Graph&#45;&gt;InterGroupPairing -->
<g id="edge7" class="edge">
<title>Graph&#45;&gt;InterGroupPairing</title>
<path fill="none" stroke="black" stroke-width="0.5" d="M54.14,-92.17C69.54,-97.29 89.19,-103.8 105.75,-109.3"/>
<polygon fill="black" stroke="black" stroke-width="0.5" points="105.48,-111.06 110.78,-110.97 106.59,-107.73 105.48,-111.06"/>
</g>
<!-- Graph&#45;&gt;IntraGroupPairing -->
<g id="edge8" class="edge">
<title>Graph&#45;&gt;IntraGroupPairing</title>
<path fill="none" stroke="black" stroke-width="0.5" d="M54.14,-74.83C69.54,-69.71 89.19,-63.2 105.75,-57.7"/>
<polygon fill="black" stroke="black" stroke-width="0.5" points="106.59,-59.27 110.78,-56.03 105.48,-55.94 106.59,-59.27"/>
</g>
</g>
</svg>
