<?xml version="1.0" encoding="UTF-8" standalone="no"?>
<!DOCTYPE svg PUBLIC "-//W3C//DTD SVG 1.1//EN"
 "http://www.w3.org/Graphics/SVG/1.1/DTD/svg11.dtd">
<!-- Generated by graphviz version 2.43.0 (0)
 -->
<!-- Title: inheritancea651db9a1c Pages: 1 -->
<svg width="868pt" height="82pt"
 viewBox="0.00 0.00 868.00 82.00" xmlns="http://www.w3.org/2000/svg" xmlns:xlink="http://www.w3.org/1999/xlink">
<g id="graph0" class="graph" transform="scale(1 1) rotate(0) translate(4 78)">
<title>inheritancea651db9a1c</title>
<!-- BipolarOutrankingDigraph -->
<g id="node1" class="node">
<title>BipolarOutrankingDigraph</title>
<g id="a_node1"><a xlink:href="../techDoc.html#outrankingDigraphs.BipolarOutrankingDigraph" xlink:title="Specialization of the abstract OutrankingDigraph root class for generating" target="_top">
<polygon fill="white" stroke="black" stroke-width="0.5" points="440,-37 297,-37 297,-18 440,-18 440,-37"/>
<text text-anchor="middle" x="368.5" y="-25" font-family="Vera Sans, DejaVu Sans, Liberation Sans, Arial, Helvetica, sans" font-size="10.00">BipolarOutrankingDigraph</text>
</a>
</g>
</g>
<!-- IntegerBipolarOutrankingDigraph -->
<g id="node4" class="node">
<title>IntegerBipolarOutrankingDigraph</title>
<g id="a_node4"><a xlink:href="../techDoc.html#cIntegerOutrankingDigraphs.IntegerBipolarOutrankingDigraph" xlink:title="Specialization of the abstract OutrankingDigraph root class for generating" target="_top">
<polygon fill="white" stroke="black" stroke-width="0.5" points="654,-55 476,-55 476,-36 654,-36 654,-55"/>
<text text-anchor="middle" x="565" y="-43" font-family="Vera Sans, DejaVu Sans, Liberation Sans, Arial, Helvetica, sans" font-size="10.00">IntegerBipolarOutrankingDigraph</text>
</a>
</g>
</g>
<!-- BipolarOutrankingDigraph&#45;&gt;IntegerBipolarOutrankingDigraph -->
<g id="edge2" class="edge">
<title>BipolarOutrankingDigraph&#45;&gt;IntegerBipolarOutrankingDigraph</title>
<path fill="none" stroke="black" stroke-width="0.5" d="M440.27,-34.05C450.16,-34.97 460.45,-35.92 470.69,-36.86"/>
<polygon fill="black" stroke="black" stroke-width="0.5" points="470.56,-38.61 475.7,-37.33 470.88,-35.13 470.56,-38.61"/>
</g>
<!-- OutrankingDigraph -->
<g id="node2" class="node">
<title>OutrankingDigraph</title>
<g id="a_node2"><a xlink:href="../techDoc.html#outrankingDigraphs.OutrankingDigraph" xlink:title="Abstract root class for **outranking digraphs** inheritating methods both from the generic :py:class:`digraphs.Digraph`" target="_top">
<polygon fill="white" stroke="black" stroke-width="0.5" points="261,-37 152,-37 152,-18 261,-18 261,-37"/>
<text text-anchor="middle" x="206.5" y="-25" font-family="Vera Sans, DejaVu Sans, Liberation Sans, Arial, Helvetica, sans" font-size="10.00">OutrankingDigraph</text>
</a>
</g>
</g>
<!-- OutrankingDigraph&#45;&gt;BipolarOutrankingDigraph -->
<g id="edge1" class="edge">
<title>OutrankingDigraph&#45;&gt;BipolarOutrankingDigraph</title>
<path fill="none" stroke="black" stroke-width="0.5" d="M261.22,-27.5C271.05,-27.5 281.48,-27.5 291.81,-27.5"/>
<polygon fill="black" stroke="black" stroke-width="0.5" points="291.87,-29.25 296.87,-27.5 291.87,-25.75 291.87,-29.25"/>
</g>
<!-- Digraph -->
<g id="node3" class="node">
<title>Digraph</title>
<g id="a_node3"><a xlink:href="../techDoc.html#digraphs.Digraph" xlink:title="Genuine root class of all Digraph3 modules." target="_top">
<polygon fill="white" stroke="black" stroke-width="0.5" points="85.5,-56 30.5,-56 30.5,-37 85.5,-37 85.5,-56"/>
<text text-anchor="middle" x="58" y="-44" font-family="Vera Sans, DejaVu Sans, Liberation Sans, Arial, Helvetica, sans" font-size="10.00">Digraph</text>
</a>
</g>
</g>
<!-- Digraph&#45;&gt;OutrankingDigraph -->
<g id="edge5" class="edge">
<title>Digraph&#45;&gt;OutrankingDigraph</title>
<path fill="none" stroke="black" stroke-width="0.5" d="M85.53,-43.06C102.63,-40.84 125.56,-37.87 146.79,-35.11"/>
<polygon fill="black" stroke="black" stroke-width="0.5" points="147.13,-36.84 151.86,-34.46 146.67,-33.36 147.13,-36.84"/>
</g>
<!-- IntegerQuantilesSortingDigraph -->
<g id="node6" class="node">
<title>IntegerQuantilesSortingDigraph</title>
<g id="a_node6"><a xlink:href="../techDoc.html#cIntegerSortingDigraphs.IntegerQuantilesSortingDigraph" xlink:title="*Parameters*:" target="_top">
<polygon fill="white" stroke="black" stroke-width="0.5" points="860,-55 690,-55 690,-36 860,-36 860,-55"/>
<text text-anchor="middle" x="775" y="-43" font-family="Vera Sans, DejaVu Sans, Liberation Sans, Arial, Helvetica, sans" font-size="10.00">IntegerQuantilesSortingDigraph</text>
</a>
</g>
</g>
<!-- IntegerBipolarOutrankingDigraph&#45;&gt;IntegerQuantilesSortingDigraph -->
<g id="edge4" class="edge">
<title>IntegerBipolarOutrankingDigraph&#45;&gt;IntegerQuantilesSortingDigraph</title>
<path fill="none" stroke="black" stroke-width="0.5" d="M654.21,-45.5C664.3,-45.5 674.59,-45.5 684.69,-45.5"/>
<polygon fill="black" stroke="black" stroke-width="0.5" points="684.96,-47.25 689.96,-45.5 684.96,-43.75 684.96,-47.25"/>
</g>
<!-- cPerformanceTableau -->
<g id="node5" class="node">
<title>cPerformanceTableau</title>
<g id="a_node5"><a xlink:href="../techDoc.html#cRandPerfTabs.cPerformanceTableau" xlink:title="Root class for cythonized performace tableau instances." target="_top">
<polygon fill="white" stroke="black" stroke-width="0.5" points="429.5,-74 307.5,-74 307.5,-55 429.5,-55 429.5,-74"/>
<text text-anchor="middle" x="368.5" y="-62" font-family="Vera Sans, DejaVu Sans, Liberation Sans, Arial, Helvetica, sans" font-size="10.00">cPerformanceTableau</text>
</a>
</g>
</g>
<!-- cPerformanceTableau&#45;&gt;IntegerBipolarOutrankingDigraph -->
<g id="edge3" class="edge">
<title>cPerformanceTableau&#45;&gt;IntegerBipolarOutrankingDigraph</title>
<path fill="none" stroke="black" stroke-width="0.5" d="M429.71,-58.62C442.73,-57.35 456.78,-55.97 470.73,-54.61"/>
<polygon fill="black" stroke="black" stroke-width="0.5" points="471.06,-56.34 475.86,-54.11 470.72,-52.85 471.06,-56.34"/>
</g>
<!-- PerformanceTableau -->
<g id="node7" class="node">
<title>PerformanceTableau</title>
<g id="a_node7"><a xlink:href="../techDoc.html#perfTabs.PerformanceTableau" xlink:title="In this *Digraph3* module, the root :py:class:`perfTabs.PerformanceTableau` class provides a generic **performance table model**. A given object of this class consists in:" target="_top">
<polygon fill="white" stroke="black" stroke-width="0.5" points="116,-19 0,-19 0,0 116,0 116,-19"/>
<text text-anchor="middle" x="58" y="-7" font-family="Vera Sans, DejaVu Sans, Liberation Sans, Arial, Helvetica, sans" font-size="10.00">PerformanceTableau</text>
</a>
</g>
</g>
<!-- PerformanceTableau&#45;&gt;OutrankingDigraph -->
<g id="edge6" class="edge">
<title>PerformanceTableau&#45;&gt;OutrankingDigraph</title>
<path fill="none" stroke="black" stroke-width="0.5" d="M116.06,-16.51C126.05,-17.74 136.46,-19.02 146.5,-20.25"/>
<polygon fill="black" stroke="black" stroke-width="0.5" points="146.54,-22.02 151.71,-20.89 146.96,-18.54 146.54,-22.02"/>
</g>
</g>
</svg>
