<?xml version="1.0" encoding="UTF-8" standalone="no"?>
<!DOCTYPE svg PUBLIC "-//W3C//DTD SVG 1.1//EN"
 "http://www.w3.org/Graphics/SVG/1.1/DTD/svg11.dtd">
<!-- Generated by graphviz version 2.43.0 (0)
 -->
<!-- Title: inheritancedc50d3eca8 Pages: 1 -->
<svg width="642pt" height="27pt"
 viewBox="0.00 0.00 642.00 27.00" xmlns="http://www.w3.org/2000/svg" xmlns:xlink="http://www.w3.org/1999/xlink">
<g id="graph0" class="graph" transform="scale(1 1) rotate(0) translate(4 23)">
<title>inheritancedc50d3eca8</title>
<!-- Digraph -->
<g id="node1" class="node">
<title>Digraph</title>
<g id="a_node1"><a xlink:href="../techDoc.html#digraphs.Digraph" xlink:title="Genuine root class of all Digraph3 modules." target="_top">
<polygon fill="white" stroke="black" stroke-width="0.5" points="55,-19 0,-19 0,0 55,0 55,-19"/>
<text text-anchor="middle" x="27.5" y="-7" font-family="Vera Sans, DejaVu Sans, Liberation Sans, Arial, Helvetica, sans" font-size="10.00">Digraph</text>
</a>
</g>
</g>
<!-- TransitiveDigraph -->
<g id="node3" class="node">
<title>TransitiveDigraph</title>
<g id="a_node3"><a xlink:href="../techDoc.html#transitiveDigraphs.TransitiveDigraph" xlink:title="Abstract class for specialized methods addressing transitive digraphs." target="_top">
<polygon fill="white" stroke="black" stroke-width="0.5" points="193,-19 91,-19 91,0 193,0 193,-19"/>
<text text-anchor="middle" x="142" y="-7" font-family="Vera Sans, DejaVu Sans, Liberation Sans, Arial, Helvetica, sans" font-size="10.00">TransitiveDigraph</text>
</a>
</g>
</g>
<!-- Digraph&#45;&gt;TransitiveDigraph -->
<g id="edge3" class="edge">
<title>Digraph&#45;&gt;TransitiveDigraph</title>
<path fill="none" stroke="black" stroke-width="0.5" d="M55.16,-9.5C64.32,-9.5 74.94,-9.5 85.52,-9.5"/>
<polygon fill="black" stroke="black" stroke-width="0.5" points="85.71,-11.25 90.71,-9.5 85.71,-7.75 85.71,-11.25"/>
</g>
<!-- DynamicProgrammingDigraph -->
<g id="node2" class="node">
<title>DynamicProgrammingDigraph</title>
<g id="a_node2"><a xlink:href="../techDoc.html#dynamicProgramming.DynamicProgrammingDigraph" xlink:title="Implementation of the *Bellman*, *Dijkstra*, or *Viterbi* min&#45;sum algorithm for" target="_top">
<polygon fill="white" stroke="black" stroke-width="0.5" points="393,-19 229,-19 229,0 393,0 393,-19"/>
<text text-anchor="middle" x="311" y="-7" font-family="Vera Sans, DejaVu Sans, Liberation Sans, Arial, Helvetica, sans" font-size="10.00">DynamicProgrammingDigraph</text>
</a>
</g>
</g>
<!-- RandomDynamicProgrammingDigraph -->
<g id="node4" class="node">
<title>RandomDynamicProgrammingDigraph</title>
<g id="a_node4"><a xlink:href="../techDoc.html#dynamicProgramming.RandomDynamicProgrammingDigraph" xlink:title="Generator for creating random dynamic programming digraph." target="_top">
<polygon fill="white" stroke="black" stroke-width="0.5" points="634,-19 429,-19 429,0 634,0 634,-19"/>
<text text-anchor="middle" x="531.5" y="-7" font-family="Vera Sans, DejaVu Sans, Liberation Sans, Arial, Helvetica, sans" font-size="10.00">RandomDynamicProgrammingDigraph</text>
</a>
</g>
</g>
<!-- DynamicProgrammingDigraph&#45;&gt;RandomDynamicProgrammingDigraph -->
<g id="edge2" class="edge">
<title>DynamicProgrammingDigraph&#45;&gt;RandomDynamicProgrammingDigraph</title>
<path fill="none" stroke="black" stroke-width="0.5" d="M393.05,-9.5C403.07,-9.5 413.43,-9.5 423.76,-9.5"/>
<polygon fill="black" stroke="black" stroke-width="0.5" points="423.83,-11.25 428.83,-9.5 423.83,-7.75 423.83,-11.25"/>
</g>
<!-- TransitiveDigraph&#45;&gt;DynamicProgrammingDigraph -->
<g id="edge1" class="edge">
<title>TransitiveDigraph&#45;&gt;DynamicProgrammingDigraph</title>
<path fill="none" stroke="black" stroke-width="0.5" d="M193.11,-9.5C202.77,-9.5 213.14,-9.5 223.57,-9.5"/>
<polygon fill="black" stroke="black" stroke-width="0.5" points="223.7,-11.25 228.7,-9.5 223.7,-7.75 223.7,-11.25"/>
</g>
</g>
</svg>
